<svg width="557" height="305" viewBox="0 0 557 305" fill="none" xmlns="http://www.w3.org/2000/svg">
<path d="M271.546 265.648C271.095 266.171 270.618 266.545 270.123 266.861C270.117 266.514 270.017 266.195 269.832 266.05C269.796 266.029 269.77 265.993 269.729 265.978C269.457 265.899 269.185 265.769 268.915 265.612C268.859 265.581 268.805 265.545 268.748 265.511C268.487 265.348 268.225 265.161 267.964 264.942C267.605 264.641 267.25 264.289 266.894 263.894C266.891 263.892 266.891 263.89 266.889 263.887C266.185 263.107 265.495 262.16 264.824 261.124C264.811 261.104 264.797 261.084 264.784 261.064C264.463 260.566 264.148 260.048 263.841 259.518C263.803 259.456 263.768 259.393 263.73 259.328C263.428 258.805 263.132 258.274 262.843 257.735C262.833 257.715 262.822 257.695 262.811 257.675C262.547 257.184 262.294 256.688 262.043 256.194C261.973 256.055 261.9 255.916 261.833 255.777C261.604 255.32 261.38 254.867 261.164 254.42C261.075 254.241 260.992 254.061 260.906 253.884C260.695 253.445 260.485 253.007 260.289 252.592C259.469 250.863 258.707 249.094 257.984 247.279C259.688 248.901 261.509 249.831 263.28 251.209C263.493 251.379 263.649 250.702 263.458 250.446C261.353 247.737 258.887 246.73 256.855 243.751C256.766 243.616 256.675 243.504 256.586 243.37C256.524 243.264 256.464 243.159 256.402 243.06C256.127 242.277 255.85 241.492 255.586 240.69C259.38 242.616 263.442 242.58 267.18 240.768C267.681 240.528 267.624 238.92 267.11 238.884C266.802 238.866 266.492 238.841 266.182 238.817C266.277 238.783 266.374 238.752 266.468 238.709C266.546 238.673 266.538 238.42 266.457 238.413C266.255 238.388 266.059 238.339 265.859 238.303C265.821 238.263 265.794 238.202 265.746 238.189C262.113 237.087 258.839 233.799 255.893 229.285C255.575 228.805 255.26 228.282 254.95 227.753C256.521 228.286 258.106 228.41 259.669 228.046C261.245 227.928 262.792 227.212 264.134 225.869C265.061 225.543 265.967 224.987 266.832 224.021C266.897 223.942 266.878 223.731 266.805 223.724C265.999 223.635 265.199 223.599 264.401 223.572C264.406 223.179 264.299 222.765 264.08 222.765C261.817 222.798 259.793 221.829 257.963 220.134C257.567 219.764 257.181 219.364 256.801 218.931C256.793 218.923 256.785 218.914 256.777 218.905C256.394 218.465 256.022 217.996 255.656 217.494C255.281 216.98 254.917 216.435 254.562 215.861C254.556 215.854 254.554 215.848 254.548 215.841C253.861 214.735 253.206 213.522 252.581 212.23C252.527 212.12 252.473 212.008 252.422 211.896C252.128 211.279 251.84 210.646 251.559 209.996C254.244 213.17 256.885 214.8 259.997 212.932C260.251 212.777 260.173 212.008 259.911 212.1C257.847 212.833 255.594 210.752 253.705 208.022C254.793 208.46 255.928 208.594 257.087 208.374C257.435 208.312 257.478 207.296 257.117 207.21C256.75 207.123 256.386 206.99 256.03 206.838C255.861 206.764 255.696 206.672 255.532 206.585C255.359 206.495 255.187 206.401 255.014 206.295C254.793 206.156 254.575 206.004 254.357 205.84C254.263 205.77 254.171 205.694 254.077 205.62C253.818 205.409 253.565 205.192 253.314 204.947C253.29 204.925 253.268 204.898 253.244 204.875C252.756 204.395 252.29 203.853 251.837 203.24C251.834 203.238 251.834 203.236 251.832 203.236C250.729 201.751 249.73 199.921 248.886 197.766C248.7 197.25 248.511 196.743 248.32 196.249C248.115 195.642 247.937 195.02 247.759 194.408C249.589 197.851 251.832 200.235 254.19 201.639C254.586 201.872 254.75 200.722 254.392 200.376C252.195 198.295 250.287 194.944 248.751 191.028C250.708 192.995 252.834 194.013 255.206 194.06C255.254 194.063 255.289 194.031 255.322 193.989C255.327 193.982 255.332 193.975 255.338 193.966C255.397 193.87 255.427 193.715 255.421 193.56C255.421 193.556 255.421 193.553 255.421 193.551C255.413 193.356 255.351 193.174 255.23 193.152C255.041 193.125 254.853 193.076 254.667 193.013C254.562 192.977 254.457 192.928 254.351 192.883C254.252 192.84 254.155 192.802 254.058 192.751C253.928 192.681 253.799 192.598 253.672 192.513C253.616 192.475 253.556 192.443 253.5 192.403C253.357 192.302 253.214 192.19 253.074 192.071C253.034 192.037 252.993 192.006 252.95 191.97C252.796 191.838 252.646 191.694 252.495 191.544C252.468 191.517 252.441 191.492 252.416 191.465C252.255 191.302 252.096 191.127 251.937 190.945C251.923 190.929 251.912 190.916 251.899 190.9C251.554 190.501 251.217 190.061 250.886 189.59C249.288 187.312 247.843 184.299 246.676 181.57C247.53 182.763 248.417 183.595 249.301 183.934C249.417 183.976 249.479 183.622 249.36 183.559C243.938 180.744 242.895 165.224 241.806 155.945C241.782 155.737 241.728 155.568 241.663 155.425C241.655 155.409 241.647 155.4 241.639 155.387C241.574 155.261 241.502 155.169 241.418 155.106C241.415 155.104 241.415 155.1 241.413 155.1C241.405 155.093 241.394 155.095 241.386 155.088C241.329 155.05 241.273 155.019 241.213 155.012C241.141 155.001 241.07 155.012 241.003 155.057C240.987 154.62 240.973 154.189 240.947 153.752C240.938 153.622 240.92 153.509 240.893 153.413C240.89 153.402 240.885 153.395 240.882 153.384C240.693 152.76 240.176 152.926 240.038 153.666C236.599 172.112 231.247 190.214 221.467 194.231C221.459 194.22 221.451 194.208 221.44 194.199C221.198 194.298 220.963 194.433 220.712 194.518C220.58 194.554 220.58 194.906 220.667 195.054C222.672 198.553 226.175 196.175 229.124 192.739C228.69 193.502 228.242 194.255 227.76 194.962C226.132 197.333 224.146 200.854 222.125 201.424C222.103 201.424 222.079 201.43 222.057 201.43C222.044 201.43 222.033 201.453 222.02 201.466C222.017 201.466 222.014 201.466 222.014 201.466C221.987 201.486 221.958 201.516 221.939 201.558C221.933 201.572 221.933 201.587 221.928 201.601C221.871 201.769 221.879 202.025 221.998 202.108C222.246 202.292 222.515 202.46 222.798 202.615C222.801 202.617 222.806 202.619 222.809 202.621C223.041 202.747 223.283 202.864 223.534 202.967C223.637 203.009 223.744 203.043 223.849 203.081C224.025 203.146 224.197 203.209 224.378 203.263C224.496 203.299 224.62 203.326 224.744 203.355C224.919 203.397 225.097 203.44 225.278 203.471C225.404 203.494 225.531 203.512 225.658 203.527C225.844 203.552 226.032 203.572 226.221 203.586C226.348 203.595 226.474 203.602 226.601 203.604C226.8 203.608 227.003 203.606 227.205 203.597C227.326 203.593 227.447 203.588 227.569 203.579C227.792 203.561 228.016 203.527 228.24 203.492C228.339 203.476 228.442 203.465 228.541 203.445C228.868 203.379 229.191 203.299 229.514 203.193C228.506 206.156 227.337 208.794 225.607 211.068C225.111 211.723 224.609 212.378 224.103 213.019C224.089 213.037 224.076 213.055 224.062 213.073C223.548 213.726 223.027 214.363 222.502 214.971C222.203 215.318 221.898 215.655 221.594 215.98C221.553 216.022 221.513 216.067 221.47 216.112C221.206 216.39 220.939 216.655 220.669 216.911C220.597 216.98 220.521 217.056 220.448 217.124C220.2 217.355 219.947 217.568 219.694 217.776C219.608 217.848 219.521 217.927 219.432 217.996C219.098 218.259 218.759 218.503 218.416 218.718C217.918 218.745 217.438 218.774 217.015 218.817C216.842 218.831 216.789 219.234 216.915 219.459C217.026 219.649 217.15 219.82 217.274 219.995C217.266 220.187 217.287 220.378 217.33 220.535C217.33 220.537 217.33 220.542 217.33 220.544C217.33 220.546 217.333 220.546 217.333 220.549C217.357 220.627 217.387 220.685 217.425 220.737C217.435 220.75 217.441 220.773 217.452 220.784C217.5 220.833 217.557 220.86 217.621 220.849C217.716 220.842 217.821 220.807 217.918 220.786C218.109 220.977 218.309 221.145 218.513 221.295C218.581 221.345 218.656 221.383 218.726 221.428C218.866 221.52 219.007 221.612 219.152 221.688C219.246 221.737 219.346 221.773 219.443 221.816C219.57 221.87 219.694 221.928 219.823 221.973C219.942 222.013 220.063 222.04 220.184 222.074C220.295 222.103 220.405 222.137 220.518 222.159C220.661 222.188 220.809 222.204 220.955 222.222C221.047 222.233 221.138 222.249 221.233 222.255C221.405 222.269 221.58 222.271 221.755 222.271C221.82 222.271 221.885 222.273 221.952 222.273C222.162 222.269 222.373 222.253 222.583 222.231C222.612 222.228 222.639 222.226 222.666 222.222C223.003 222.184 223.34 222.134 223.677 222.063C222.885 223.332 222.041 224.496 221.144 225.229C220.346 225.499 219.505 225.561 218.591 225.344C218.486 225.324 218.416 225.626 218.489 225.781C218.516 225.831 218.546 225.866 218.57 225.916C218.454 225.896 218.427 226.234 218.511 226.362C218.834 226.885 219.182 227.201 219.543 227.378C219.659 227.519 219.78 227.632 219.901 227.746C219.907 227.75 219.912 227.753 219.917 227.757C220.376 228.201 220.855 228.506 221.351 228.663C221.354 228.666 221.359 228.668 221.362 228.668C221.545 228.717 221.728 228.766 221.92 228.789C220.004 230.558 217.829 231.666 215.84 231.765C215.597 231.738 215.352 231.68 215.104 231.61C214.835 231.435 214.562 231.245 214.298 231.038C213.819 230.657 213.557 231.913 213.802 232.64C214.983 236.177 217.365 237.85 219.624 238.633C219.928 238.74 220.23 238.83 220.527 238.906C220.241 239.57 219.944 240.219 219.626 240.84C219.419 241.241 219.184 241.663 218.939 242.091C218.837 242.271 218.724 242.455 218.613 242.636C218.47 242.872 218.325 243.11 218.171 243.35C218.012 243.601 217.848 243.852 217.678 244.103C217.581 244.249 217.478 244.395 217.379 244.54C216.064 246.436 214.514 248.302 212.978 249.672C212.975 249.674 212.972 249.677 212.972 249.679C212.684 249.935 212.396 250.175 212.11 250.399C211.784 250.648 211.455 250.888 211.137 251.078C209.814 251.112 208.52 250.901 207.302 250.345C207.2 250.302 207.054 250.536 207.132 250.776C207.348 251.433 207.596 251.998 207.863 252.505C207.887 252.552 207.909 252.606 207.935 252.653C207.935 252.655 207.938 252.657 207.938 252.66C208.151 253.048 208.383 253.382 208.623 253.685C208.671 253.745 208.72 253.804 208.771 253.862C209.008 254.14 209.253 254.391 209.509 254.597C209.515 254.602 209.52 254.609 209.526 254.613C209.79 254.822 210.065 254.988 210.342 255.129C210.407 255.163 210.471 255.192 210.536 255.223C210.816 255.349 211.099 255.457 211.39 255.526C210.315 255.97 209.232 256.358 208.146 256.733C207.965 256.796 208.019 257.289 208.167 257.347C210.008 258.038 212.347 258.067 214.614 257.163C213.975 258.045 213.355 258.843 212.797 259.55C212.495 259.929 212.188 260.272 211.876 260.588C211.849 260.615 211.822 260.638 211.795 260.664C211.504 260.954 211.21 261.223 210.911 261.463C210.892 261.479 210.876 261.49 210.857 261.506C210.474 261.813 210.083 262.08 209.69 262.313C209.66 262.331 209.631 262.351 209.601 262.367C209.191 262.602 208.776 262.8 208.359 262.961C208.345 262.966 208.329 262.97 208.315 262.975C207.941 263.116 207.561 263.219 207.181 263.302C207.089 263.322 206.998 263.342 206.906 263.358C206.51 263.432 206.111 263.484 205.712 263.499C205.189 263.275 204.669 263.062 204.141 262.871C204.02 262.829 203.963 263.183 204.033 263.351C204.049 263.394 204.068 263.421 204.09 263.464C203.993 263.526 203.966 263.809 204.052 263.937C204.286 264.296 204.526 264.607 204.772 264.888C204.925 265.177 205.09 265.417 205.251 265.679C205.254 265.682 205.254 265.684 205.257 265.688C206.399 267.552 207.717 268.768 209.143 269.468C209.156 269.474 209.17 269.479 209.181 269.486C209.523 269.652 209.868 269.795 210.221 269.907C210.264 269.921 210.307 269.927 210.35 269.941C210.676 270.037 211.002 270.123 211.334 270.176C211.436 270.194 211.544 270.197 211.646 270.21C211.924 270.244 212.199 270.282 212.479 270.291C212.87 270.304 213.263 270.293 213.657 270.262C213.355 270.472 213.051 270.652 212.746 270.816C212.466 270.964 212.183 271.087 211.897 271.197C211.873 271.206 211.849 271.219 211.822 271.228C211.099 271.228 210.383 271.271 209.666 271.376C209.558 271.39 209.469 271.489 209.402 271.63C208.884 271.513 208.38 271.383 207.903 271.228C207.537 271.107 207.467 272.152 207.698 272.534C212.487 280.487 220.289 276.88 226.186 272.823C226.003 273.866 225.784 274.891 225.58 275.92C225.391 276.88 225.21 277.845 225.003 278.8C224.62 280.547 224.211 282.288 223.763 284.035C223.744 284.109 223.747 284.179 223.758 284.246C223.758 284.253 223.761 284.257 223.763 284.264C223.782 284.367 223.828 284.434 223.879 284.425C223.903 284.425 223.928 284.412 223.952 284.365C224.173 283.948 224.394 283.546 224.615 283.138C224.79 282.846 224.96 282.53 225.132 282.221C224.957 282.658 224.785 283.102 224.599 283.519C224.512 283.71 224.631 283.992 224.731 283.824C227.391 279.168 229.962 275.117 231.991 269.311C232.317 272.534 232.824 275.328 233.71 278.215C233.775 278.441 233.945 278.257 233.886 278.024C233.436 276.38 233.123 274.489 232.899 272.5C233.136 273.283 233.382 274.025 233.627 274.709C234.072 275.961 234.567 277.1 235.08 278.206C234.729 289.999 234.02 302.366 234.02 302.366C238.936 306.791 241.103 301.321 241.103 301.321C240.879 295.7 240.858 284.226 240.885 275.29C241.685 277.291 242.55 279.177 243.359 281.007C243.434 281.178 243.558 280.935 243.485 280.761C242.647 278.637 241.868 276.293 241.184 273.875C242.275 275.963 243.456 277.825 244.72 279.336C245.048 279.731 245.385 280.076 245.725 280.404C245.889 280.568 246.054 280.725 246.221 280.875C246.226 280.879 246.229 280.884 246.234 280.888C246.256 280.906 246.277 280.922 246.299 280.94C247.32 281.844 248.377 282.526 249.455 283.068C249.527 283.104 249.597 283.145 249.67 283.181C249.969 283.326 250.271 283.459 250.576 283.587C250.7 283.64 250.826 283.694 250.95 283.744C251.228 283.853 251.508 283.961 251.789 284.062C251.95 284.12 252.115 284.176 252.279 284.232C252.532 284.318 252.786 284.405 253.039 284.486C253.279 284.564 253.521 284.638 253.761 284.712C254.341 284.89 254.917 285.067 255.494 285.248C255.551 285.264 255.599 285.255 255.645 285.233C255.661 285.226 255.675 285.213 255.691 285.201C255.718 285.179 255.745 285.15 255.766 285.116C255.78 285.096 255.791 285.078 255.801 285.056C255.826 285.004 255.847 284.946 255.866 284.881C255.869 284.867 255.874 284.858 255.877 284.845C255.896 284.764 255.909 284.674 255.917 284.582C255.92 284.553 255.92 284.526 255.923 284.497C255.925 284.428 255.925 284.358 255.923 284.289C255.923 284.257 255.92 284.228 255.917 284.199C255.912 284.12 255.901 284.044 255.885 283.97C255.882 283.952 255.88 283.934 255.877 283.916C255.871 283.892 255.861 283.871 255.855 283.849C255.809 283.69 255.747 283.553 255.656 283.477C255.254 283.149 254.85 282.853 254.448 282.568C254.203 282.391 253.961 282.218 253.715 282.052C253.346 281.68 252.982 281.279 252.627 280.846C252.602 280.761 252.57 280.684 252.516 280.648C252.443 280.599 252.381 280.514 252.309 280.458C251.651 279.603 251.034 278.63 250.473 277.466C250.422 277.365 250.374 277.25 250.322 277.136C254.028 282.218 258.62 284.957 262.957 284.237C262.965 284.235 262.973 284.235 262.981 284.232C263.353 284.17 263.725 284.078 264.091 283.963C264.124 283.952 264.159 283.943 264.191 283.932C264.544 283.818 264.892 283.676 265.237 283.515C265.285 283.492 265.331 283.47 265.379 283.445C265.714 283.279 266.045 283.093 266.374 282.88C266.43 282.844 266.484 282.804 266.541 282.768C266.862 282.553 267.177 282.317 267.49 282.052C267.552 282.001 267.611 281.945 267.67 281.893C267.977 281.624 268.279 281.341 268.576 281.025C268.592 281.009 268.608 280.996 268.621 280.98C268.899 280.675 269.174 280.386 269.443 280.047C269.662 279.771 269.554 278.968 269.29 279.13C269.042 279.285 268.791 279.386 268.538 279.511C268.506 279.482 268.471 279.448 268.43 279.442C268.136 279.35 267.84 279.244 267.541 279.123L267.538 279.125C264.916 278.103 262.372 276.015 260.194 272.794C260.768 273.245 261.345 273.675 261.927 274.119C262.207 274.337 262.326 273.464 262.07 273.209C260.674 271.838 259.165 270.428 257.922 268.411C259.647 269.602 261.407 270.345 262.763 270.598C265.417 271.105 270.15 271.733 271.934 266.547C272.101 266.023 271.799 265.352 271.546 265.648Z" fill="#233A2D"/>
<path d="M164.686 186.155C164.209 186.649 163.702 187.001 163.178 187.3C163.173 186.971 163.07 186.672 162.868 186.534C162.831 186.515 162.8 186.48 162.759 186.469C162.469 186.396 162.184 186.274 161.894 186.124C161.837 186.094 161.775 186.059 161.718 186.028C161.438 185.875 161.163 185.699 160.884 185.492C160.5 185.209 160.122 184.875 159.749 184.504L159.744 184.5C158.998 183.765 158.262 182.872 157.553 181.892C157.537 181.872 157.527 181.853 157.511 181.834C157.169 181.367 156.838 180.877 156.506 180.375C156.47 180.313 156.429 180.256 156.392 180.195C156.071 179.701 155.755 179.199 155.45 178.693C155.439 178.674 155.429 178.655 155.413 178.636C155.134 178.172 154.864 177.705 154.595 177.241C154.517 177.111 154.445 176.981 154.372 176.847C154.129 176.414 153.89 175.989 153.662 175.568C153.569 175.399 153.476 175.231 153.388 175.062C153.165 174.648 152.942 174.235 152.735 173.844C151.865 172.212 151.057 170.542 150.29 168.834C152.098 170.366 154.035 171.243 155.916 172.542C156.144 172.702 156.309 172.063 156.102 171.822C153.87 169.267 151.248 168.313 149.094 165.505C149 165.379 148.902 165.272 148.809 165.145C148.746 165.046 148.679 164.946 148.617 164.854C148.322 164.115 148.032 163.375 147.752 162.617C151.782 164.433 156.092 164.402 160.065 162.69C160.599 162.464 160.537 160.947 159.993 160.913C159.666 160.893 159.34 160.87 159.008 160.847C159.112 160.817 159.21 160.786 159.314 160.744C159.397 160.71 159.387 160.472 159.298 160.464C159.086 160.441 158.874 160.395 158.666 160.361C158.625 160.323 158.599 160.265 158.547 160.25C154.693 159.212 151.212 156.109 148.083 151.85C147.747 151.398 147.41 150.904 147.084 150.406C148.752 150.911 150.435 151.026 152.093 150.682C153.766 150.567 155.408 149.896 156.833 148.628C157.817 148.322 158.775 147.797 159.697 146.886C159.765 146.813 159.749 146.614 159.666 146.606C158.812 146.522 157.962 146.487 157.112 146.46C157.118 146.089 157.004 145.698 156.771 145.698C154.367 145.729 152.217 144.817 150.275 143.216C149.855 142.868 149.446 142.488 149.042 142.082C149.031 142.075 149.026 142.063 149.016 142.056C148.612 141.642 148.213 141.198 147.83 140.726C147.431 140.24 147.042 139.727 146.664 139.187C146.659 139.179 146.654 139.171 146.648 139.167C145.918 138.126 145.224 136.98 144.561 135.762C144.504 135.659 144.447 135.552 144.39 135.444C144.079 134.862 143.773 134.268 143.473 133.652C146.322 136.647 149.125 138.183 152.435 136.421C152.704 136.275 152.621 135.548 152.341 135.636C150.15 136.329 147.757 134.364 145.752 131.786C146.907 132.2 148.109 132.326 149.342 132.119C149.71 132.058 149.757 131.101 149.373 131.02C148.985 130.94 148.601 130.813 148.218 130.668C148.042 130.599 147.866 130.511 147.69 130.426C147.503 130.342 147.322 130.254 147.141 130.154C146.907 130.024 146.674 129.879 146.441 129.725C146.343 129.66 146.244 129.588 146.146 129.519C145.871 129.319 145.602 129.113 145.338 128.883C145.312 128.86 145.286 128.837 145.265 128.814C144.747 128.362 144.25 127.849 143.773 127.27L143.768 127.266C142.598 125.864 141.536 124.137 140.639 122.107C140.443 121.62 140.241 121.142 140.039 120.674C139.821 120.104 139.634 119.518 139.443 118.935C141.385 122.183 143.768 124.432 146.27 125.757C146.69 125.979 146.866 124.892 146.483 124.566C144.152 122.601 142.126 119.441 140.494 115.748C142.572 117.606 144.83 118.564 147.348 118.61C147.4 118.61 147.436 118.583 147.472 118.545C147.477 118.537 147.482 118.529 147.488 118.522C147.55 118.43 147.581 118.284 147.576 118.139C147.576 118.135 147.576 118.131 147.576 118.131C147.565 117.947 147.503 117.775 147.374 117.756C147.172 117.729 146.975 117.683 146.773 117.621C146.664 117.587 146.55 117.541 146.441 117.499C146.338 117.457 146.234 117.422 146.125 117.372C145.991 117.307 145.851 117.227 145.716 117.146C145.654 117.112 145.592 117.081 145.53 117.043C145.379 116.947 145.229 116.84 145.079 116.729C145.037 116.698 144.991 116.668 144.949 116.633C144.789 116.507 144.628 116.373 144.468 116.231C144.442 116.204 144.411 116.181 144.385 116.158C144.214 116.001 144.043 115.84 143.877 115.668C143.862 115.653 143.851 115.641 143.836 115.626C143.473 115.25 143.11 114.837 142.758 114.389C141.059 112.24 139.526 109.398 138.288 106.82C139.194 107.946 140.137 108.731 141.075 109.049C141.199 109.087 141.261 108.754 141.137 108.697C135.382 106.042 134.273 91.3986 133.113 82.6461C133.087 82.4508 133.03 82.2899 132.962 82.1558C132.952 82.1405 132.947 82.1329 132.936 82.1175C132.869 81.9988 132.791 81.9107 132.703 81.8532C132.703 81.8532 132.698 81.8494 132.698 81.8456C132.688 81.8418 132.678 81.8418 132.672 81.8341C132.61 81.7996 132.553 81.769 132.486 81.7652C132.408 81.7537 132.336 81.7651 132.263 81.8073C132.242 81.3936 132.232 80.9876 132.201 80.5777C132.191 80.4552 132.17 80.3479 132.144 80.2598C132.139 80.2483 132.134 80.2445 132.134 80.233C131.932 79.6431 131.382 79.8002 131.237 80.5011C127.585 97.9026 121.903 114.982 111.516 118.771C111.506 118.759 111.501 118.751 111.491 118.74C111.232 118.832 110.983 118.958 110.719 119.039C110.579 119.069 110.579 119.403 110.672 119.544C112.801 122.846 116.521 120.601 119.649 117.361C119.188 118.081 118.712 118.794 118.204 119.456C116.474 121.693 114.366 125.014 112.221 125.554C112.195 125.554 112.174 125.562 112.148 125.562C112.133 125.562 112.123 125.581 112.107 125.596C112.107 125.596 112.102 125.596 112.097 125.596C112.066 125.615 112.034 125.642 112.014 125.681C112.009 125.692 112.009 125.707 112.003 125.719C111.941 125.88 111.952 126.117 112.076 126.198C112.34 126.37 112.625 126.531 112.925 126.676C112.931 126.68 112.936 126.68 112.936 126.684C113.184 126.803 113.438 126.914 113.708 127.01C113.816 127.052 113.93 127.079 114.044 127.117C114.231 127.178 114.412 127.24 114.604 127.289C114.728 127.324 114.863 127.347 114.992 127.377C115.179 127.42 115.365 127.458 115.557 127.489C115.692 127.512 115.826 127.527 115.961 127.542C116.158 127.565 116.36 127.584 116.562 127.596C116.697 127.603 116.831 127.611 116.966 127.615C117.178 127.619 117.391 127.615 117.608 127.607C117.738 127.603 117.862 127.6 117.992 127.588C118.23 127.569 118.468 127.538 118.707 127.504C118.815 127.489 118.919 127.477 119.028 127.458C119.375 127.397 119.717 127.32 120.059 127.22C118.986 130.017 117.748 132.506 115.909 134.648C115.381 135.264 114.852 135.885 114.314 136.49C114.298 136.505 114.283 136.524 114.272 136.54C113.728 137.153 113.174 137.758 112.615 138.329C112.293 138.658 111.972 138.972 111.651 139.282C111.61 139.324 111.563 139.367 111.522 139.405C111.242 139.669 110.957 139.914 110.672 140.159C110.594 140.225 110.517 140.297 110.439 140.362C110.175 140.581 109.905 140.78 109.641 140.975C109.548 141.044 109.46 141.117 109.361 141.182C109.004 141.431 108.647 141.661 108.284 141.864C107.756 141.891 107.248 141.918 106.797 141.956C106.616 141.967 106.559 142.35 106.694 142.561C106.813 142.741 106.942 142.902 107.072 143.067C107.061 143.251 107.087 143.431 107.134 143.576C107.134 143.58 107.134 143.584 107.134 143.588C107.16 143.66 107.191 143.722 107.232 143.768C107.243 143.783 107.248 143.802 107.263 143.814C107.315 143.86 107.372 143.886 107.445 143.875C107.548 143.867 107.657 143.837 107.761 143.817C107.963 143.998 108.175 144.158 108.393 144.3C108.465 144.346 108.543 144.381 108.616 144.427C108.766 144.515 108.911 144.603 109.066 144.672C109.17 144.718 109.273 144.752 109.377 144.79C109.512 144.84 109.641 144.898 109.781 144.94C109.905 144.978 110.035 145.005 110.164 145.036C110.284 145.062 110.398 145.093 110.517 145.116C110.672 145.143 110.827 145.158 110.983 145.177C111.081 145.189 111.175 145.2 111.278 145.208C111.459 145.219 111.646 145.223 111.832 145.223C111.9 145.223 111.972 145.227 112.04 145.223C112.262 145.219 112.485 145.204 112.708 145.185C112.739 145.181 112.765 145.181 112.796 145.177C113.153 145.143 113.511 145.097 113.868 145.028C113.029 146.227 112.133 147.326 111.18 148.016C110.335 148.268 109.439 148.33 108.47 148.123C108.357 148.104 108.284 148.391 108.362 148.537C108.388 148.583 108.424 148.617 108.45 148.663C108.325 148.644 108.3 148.962 108.388 149.084C108.729 149.575 109.097 149.877 109.486 150.042C109.61 150.176 109.74 150.283 109.864 150.387C109.869 150.39 109.874 150.394 109.879 150.398C110.366 150.816 110.874 151.107 111.402 151.252C111.408 151.252 111.413 151.256 111.413 151.256C111.604 151.302 111.801 151.348 112.003 151.371C109.968 153.041 107.662 154.087 105.549 154.179C105.29 154.152 105.031 154.098 104.767 154.033C104.482 153.868 104.192 153.688 103.912 153.493C103.404 153.133 103.125 154.317 103.384 155.002C104.637 158.339 107.165 159.917 109.563 160.656C109.885 160.756 110.206 160.844 110.522 160.913C110.216 161.537 109.905 162.15 109.563 162.736C109.346 163.115 109.097 163.513 108.833 163.916C108.724 164.084 108.6 164.256 108.486 164.429C108.336 164.651 108.18 164.877 108.02 165.103C107.849 165.34 107.678 165.578 107.497 165.815C107.393 165.953 107.284 166.091 107.181 166.225C105.782 168.014 104.14 169.772 102.508 171.067C102.503 171.067 102.503 171.071 102.503 171.071C102.197 171.312 101.892 171.538 101.591 171.749C101.244 171.986 100.897 172.212 100.56 172.388C99.1565 172.419 97.7838 172.22 96.4887 171.695C96.3799 171.657 96.2245 171.875 96.3074 172.101C96.5353 172.722 96.7995 173.254 97.0844 173.733C97.1103 173.775 97.1362 173.829 97.1621 173.871C97.1621 173.875 97.1673 173.875 97.1673 173.875C97.3952 174.238 97.6387 174.556 97.8977 174.844C97.9495 174.901 98.0013 174.955 98.0531 175.008C98.3069 175.269 98.5659 175.506 98.8353 175.702C98.8405 175.706 98.8457 175.713 98.8509 175.717C99.1306 175.912 99.4207 176.069 99.7212 176.203C99.7885 176.234 99.861 176.265 99.9283 176.292C100.224 176.41 100.529 176.514 100.835 176.579C99.6901 176.996 98.5401 177.364 97.3901 177.716C97.1984 177.778 97.2554 178.241 97.4108 178.295C99.3637 178.946 101.85 178.973 104.254 178.122C103.575 178.954 102.917 179.708 102.327 180.375C102.006 180.731 101.679 181.057 101.348 181.355C101.322 181.382 101.291 181.401 101.265 181.428C100.954 181.7 100.643 181.953 100.327 182.183C100.307 182.198 100.291 182.21 100.27 182.221C99.8662 182.512 99.4518 182.761 99.0322 182.983C99.0011 182.999 98.97 183.018 98.9389 183.033C98.5038 183.255 98.0635 183.443 97.618 183.592C97.6024 183.596 97.5869 183.6 97.5714 183.608C97.1725 183.742 96.7684 183.837 96.3644 183.914C96.266 183.933 96.1727 183.952 96.0743 183.968C95.6547 184.037 95.2299 184.086 94.8051 184.102C94.2509 183.891 93.6966 183.688 93.1371 183.508C93.0076 183.47 92.9506 183.803 93.0231 183.96C93.0387 183.998 93.0594 184.025 93.0853 184.067C92.9817 184.129 92.9558 184.393 93.0491 184.512C93.2977 184.852 93.5515 185.144 93.8105 185.408C93.9763 185.68 94.1472 185.906 94.3182 186.155C94.3182 186.159 94.3234 186.159 94.3234 186.162C95.5356 187.921 96.9342 189.066 98.452 189.729C98.4675 189.736 98.4779 189.74 98.4934 189.744C98.856 189.901 99.2239 190.035 99.5968 190.142C99.6434 190.154 99.6901 190.161 99.7367 190.173C100.084 190.265 100.431 190.345 100.783 190.395C100.892 190.41 101.006 190.414 101.115 190.426C101.41 190.456 101.7 190.495 102 190.502C102.415 190.514 102.829 190.506 103.249 190.475C102.928 190.675 102.607 190.843 102.28 190.996C101.985 191.134 101.684 191.253 101.379 191.356C101.353 191.364 101.327 191.379 101.301 191.387C100.534 191.387 99.773 191.425 99.0115 191.525C98.8975 191.537 98.8043 191.632 98.7317 191.763C98.1826 191.651 97.6439 191.529 97.1414 191.383C96.7529 191.268 96.6752 192.257 96.9239 192.613C102.011 200.117 110.294 196.715 116.552 192.885C116.36 193.869 116.127 194.834 115.909 195.807C115.707 196.715 115.516 197.623 115.298 198.523C114.894 200.17 114.459 201.813 113.982 203.461C113.961 203.529 113.967 203.598 113.977 203.66C113.977 203.667 113.982 203.671 113.982 203.679C114.003 203.775 114.05 203.84 114.107 203.832C114.132 203.832 114.158 203.821 114.184 203.775C114.423 203.38 114.65 203.005 114.889 202.618C115.075 202.342 115.257 202.047 115.438 201.752C115.251 202.166 115.07 202.583 114.868 202.978C114.78 203.158 114.904 203.422 115.008 203.265C117.831 198.872 120.561 195.049 122.716 189.575C123.063 192.617 123.602 195.252 124.539 197.975C124.607 198.19 124.788 198.014 124.726 197.795C124.249 196.244 123.913 194.459 123.68 192.586C123.933 193.325 124.192 194.022 124.451 194.67C124.923 195.85 125.451 196.926 125.995 197.968C125.622 209.091 124.871 220.762 124.871 220.762C130.093 224.938 132.393 219.778 132.393 219.778C132.154 214.477 132.134 203.648 132.159 195.221C133.009 197.11 133.931 198.887 134.786 200.615C134.869 200.775 134.998 200.549 134.921 200.381C134.03 198.378 133.201 196.167 132.475 193.885C133.636 195.853 134.884 197.612 136.231 199.036C136.578 199.412 136.936 199.734 137.298 200.044C137.474 200.197 137.65 200.346 137.827 200.488C137.832 200.492 137.837 200.496 137.842 200.5C137.863 200.519 137.889 200.53 137.909 200.549C138.992 201.404 140.116 202.047 141.261 202.557C141.339 202.591 141.416 202.629 141.489 202.664C141.81 202.802 142.126 202.928 142.452 203.047C142.587 203.097 142.717 203.146 142.851 203.196C143.147 203.3 143.442 203.403 143.742 203.495C143.913 203.552 144.089 203.602 144.26 203.656C144.53 203.736 144.799 203.821 145.069 203.897C145.322 203.97 145.581 204.039 145.835 204.112C146.452 204.28 147.063 204.445 147.674 204.617C147.731 204.633 147.783 204.625 147.835 204.602C147.85 204.594 147.866 204.583 147.881 204.571C147.912 204.548 147.938 204.522 147.964 204.491C147.98 204.472 147.99 204.456 148 204.433C148.026 204.384 148.047 204.33 148.068 204.269C148.073 204.257 148.078 204.246 148.083 204.234C148.104 204.158 148.114 204.073 148.125 203.989C148.13 203.962 148.13 203.936 148.13 203.909C148.135 203.844 148.135 203.778 148.13 203.713C148.13 203.687 148.13 203.656 148.125 203.629C148.12 203.556 148.109 203.483 148.089 203.415C148.083 203.399 148.083 203.38 148.078 203.365C148.078 203.365 148.078 203.365 148.078 203.361C148.073 203.338 148.063 203.323 148.052 203.3C148.006 203.15 147.938 203.02 147.84 202.947C147.41 202.641 146.985 202.357 146.56 202.089C146.301 201.925 146.042 201.76 145.783 201.603C145.39 201.25 145.006 200.871 144.628 200.465C144.602 200.385 144.571 200.312 144.514 200.277C144.437 200.232 144.369 200.151 144.297 200.097C143.597 199.293 142.939 198.374 142.349 197.274C142.297 197.179 142.24 197.071 142.188 196.964C146.125 201.76 151 204.342 155.605 203.664C155.615 203.664 155.621 203.66 155.631 203.66C156.025 203.602 156.418 203.514 156.812 203.407C156.848 203.395 156.879 203.388 156.916 203.38C157.289 203.273 157.656 203.139 158.024 202.986C158.076 202.963 158.123 202.943 158.174 202.92C158.532 202.763 158.879 202.587 159.231 202.388C159.293 202.354 159.35 202.315 159.407 202.281C159.749 202.078 160.086 201.856 160.417 201.607C160.48 201.557 160.547 201.503 160.609 201.453C160.935 201.201 161.257 200.932 161.573 200.634C161.588 200.618 161.604 200.607 161.624 200.592C161.92 200.304 162.21 200.032 162.495 199.714C162.728 199.454 162.609 198.696 162.329 198.849C162.065 198.994 161.801 199.09 161.531 199.209C161.495 199.182 161.459 199.148 161.417 199.144C161.101 199.056 160.79 198.956 160.474 198.845C157.693 197.88 154.983 195.911 152.673 192.873C153.284 193.298 153.896 193.705 154.512 194.126C154.807 194.333 154.937 193.509 154.662 193.268C153.181 191.977 151.58 190.644 150.259 188.74C152.093 189.866 153.958 190.564 155.398 190.805C158.216 191.284 163.241 191.877 165.137 186.982C165.276 186.507 164.955 185.875 164.686 186.155Z" fill="#233A2D"/>
<path d="M136.312 214.39C135.763 215.098 135.179 215.605 134.574 216.035C134.565 215.564 134.446 215.131 134.22 214.933C134.178 214.905 134.142 214.858 134.095 214.836C133.764 214.732 133.43 214.552 133.099 214.34C133.031 214.299 132.962 214.249 132.897 214.202C132.578 213.979 132.259 213.728 131.937 213.431C131.499 213.023 131.064 212.543 130.632 212.011C130.629 212.008 130.629 212.005 130.626 212.003C129.768 210.944 128.924 209.66 128.105 208.254C128.09 208.226 128.072 208.199 128.057 208.171C127.667 207.496 127.283 206.793 126.904 206.074C126.859 205.988 126.815 205.903 126.77 205.817C126.4 205.109 126.04 204.387 125.688 203.656C125.676 203.629 125.661 203.601 125.65 203.574C125.328 202.907 125.018 202.234 124.711 201.564C124.624 201.377 124.538 201.186 124.455 200.999C124.174 200.379 123.903 199.764 123.638 199.158C123.531 198.912 123.427 198.673 123.322 198.43C123.066 197.835 122.81 197.239 122.571 196.677C121.57 194.331 120.64 191.93 119.758 189.469C121.838 191.671 124.061 192.934 126.225 194.8C126.484 195.031 126.675 194.111 126.442 193.766C123.874 190.089 120.864 188.722 118.382 184.681C118.271 184.499 118.161 184.345 118.051 184.163C117.976 184.019 117.902 183.876 117.827 183.744C117.491 182.683 117.154 181.619 116.832 180.527C121.463 183.14 126.421 183.093 130.987 180.632C131.597 180.307 131.529 178.123 130.903 178.077C130.531 178.052 130.149 178.016 129.774 177.983C129.89 177.936 130.006 177.895 130.122 177.837C130.218 177.79 130.206 177.445 130.107 177.434C129.863 177.401 129.622 177.335 129.377 177.285C129.333 177.23 129.3 177.148 129.24 177.128C124.806 175.634 120.807 171.174 117.21 165.047C116.823 164.396 116.439 163.688 116.06 162.969C117.979 163.693 119.913 163.862 121.82 163.368C123.745 163.206 125.635 162.238 127.271 160.413C128.4 159.972 129.506 159.217 130.563 157.905C130.644 157.8 130.62 157.514 130.531 157.503C129.547 157.381 128.567 157.332 127.595 157.293C127.601 156.761 127.47 156.199 127.205 156.199C124.443 156.243 121.969 154.928 119.737 152.629C119.255 152.128 118.781 151.585 118.319 150.997C118.31 150.986 118.301 150.973 118.289 150.959C117.824 150.363 117.368 149.727 116.921 149.046C116.466 148.348 116.019 147.61 115.583 146.832C115.578 146.824 115.572 146.813 115.569 146.805C114.728 145.305 113.93 143.657 113.167 141.907C113.101 141.755 113.036 141.603 112.97 141.452C112.613 140.614 112.258 139.759 111.915 138.875C115.193 143.18 118.414 145.394 122.217 142.858C122.527 142.648 122.431 141.603 122.112 141.728C119.594 142.723 116.841 139.897 114.535 136.193C115.864 136.785 117.246 136.967 118.662 136.672C119.085 136.587 119.138 135.209 118.697 135.093C118.25 134.974 117.806 134.795 117.371 134.588C117.166 134.489 116.963 134.362 116.761 134.244C116.549 134.12 116.337 133.996 116.129 133.852C115.858 133.662 115.592 133.455 115.327 133.232C115.214 133.136 115.098 133.036 114.985 132.934C114.672 132.651 114.359 132.353 114.055 132.019C114.025 131.989 113.998 131.953 113.968 131.923C113.372 131.27 112.803 130.536 112.252 129.704C112.249 129.701 112.246 129.698 112.246 129.698C110.899 127.683 109.68 125.2 108.652 122.278C108.426 121.578 108.193 120.889 107.961 120.219C107.714 119.395 107.493 118.554 107.276 117.719C109.51 122.391 112.249 125.627 115.125 127.532C115.607 127.849 115.81 126.289 115.369 125.817C112.69 122.992 110.36 118.447 108.482 113.132C110.872 115.803 113.465 117.181 116.361 117.248C116.418 117.25 116.466 117.206 116.504 117.151C116.51 117.14 116.516 117.132 116.522 117.121C116.597 116.989 116.629 116.779 116.623 116.57C116.623 116.564 116.623 116.561 116.623 116.556C116.612 116.291 116.54 116.043 116.391 116.013C116.162 115.977 115.932 115.908 115.703 115.823C115.575 115.776 115.446 115.707 115.318 115.646C115.199 115.588 115.077 115.536 114.958 115.467C114.8 115.373 114.642 115.257 114.484 115.144C114.412 115.092 114.344 115.048 114.272 114.996C114.099 114.858 113.924 114.706 113.754 114.546C113.703 114.499 113.653 114.458 113.605 114.411C113.417 114.232 113.232 114.039 113.051 113.832C113.018 113.797 112.985 113.763 112.955 113.728C112.759 113.504 112.562 113.27 112.368 113.019C112.353 113 112.335 112.981 112.32 112.959C111.9 112.418 111.486 111.82 111.081 111.181C109.129 108.088 107.368 104 105.941 100.296C106.984 101.914 108.065 103.044 109.144 103.504C109.284 103.562 109.358 103.082 109.215 102.994C102.597 99.1765 101.322 78.1146 99.9927 65.5259C99.9629 65.242 99.8973 65.0132 99.8169 64.8203C99.8079 64.801 99.796 64.7872 99.7871 64.7679C99.7096 64.597 99.6202 64.473 99.5189 64.3875C99.5159 64.3848 99.5129 64.3793 99.5129 64.3765C99.504 64.3682 99.4921 64.3682 99.4802 64.36C99.4086 64.3103 99.3401 64.2663 99.2686 64.258C99.1822 64.2442 99.0928 64.258 99.0123 64.3186C98.9915 63.7232 98.9766 63.1416 98.9408 62.549C98.9289 62.3726 98.908 62.2182 98.8752 62.0887C98.8723 62.0721 98.8663 62.0666 98.8603 62.0501C98.6309 61.2039 97.9992 61.4299 97.8293 62.4332C93.6306 87.4616 87.0987 112.027 75.1583 117.474C75.1494 117.46 75.1375 117.443 75.1255 117.43C74.8276 117.565 74.5445 117.747 74.2375 117.862C74.0766 117.909 74.0766 118.389 74.1809 118.59C76.6274 123.337 80.9035 120.112 84.5032 115.448C83.9728 116.481 83.4275 117.507 82.8405 118.463C80.8529 121.68 78.4302 126.457 75.9599 127.231C75.9331 127.231 75.9063 127.242 75.8765 127.242C75.8586 127.242 75.8467 127.273 75.8288 127.292H75.8228C75.8199 127.292 75.8199 127.292 75.8169 127.292C75.7811 127.32 75.7483 127.358 75.7245 127.416C75.7185 127.435 75.7185 127.455 75.7126 127.474C75.644 127.703 75.653 128.047 75.796 128.163C76.1 128.414 76.4278 128.64 76.7734 128.852C76.7794 128.855 76.7824 128.86 76.7883 128.863C77.0714 129.034 77.3664 129.191 77.6733 129.335C77.7985 129.392 77.9326 129.437 78.0607 129.489C78.2723 129.577 78.4839 129.663 78.7074 129.734C78.8534 129.781 79.0054 129.817 79.1544 129.858C79.3689 129.916 79.5835 129.974 79.8069 130.018C79.9619 130.049 80.1169 130.073 80.2718 130.095C80.4983 130.128 80.7277 130.156 80.9602 130.175C81.1151 130.186 81.2671 130.197 81.425 130.2C81.6694 130.208 81.9137 130.203 82.1611 130.192C82.3101 130.184 82.4561 130.181 82.6051 130.167C82.8792 130.142 83.1504 130.098 83.4245 130.049C83.5467 130.026 83.6689 130.013 83.794 129.985C84.1904 129.897 84.5897 129.787 84.983 129.643C83.7523 133.662 82.325 137.243 80.2122 140.327C79.6073 141.218 78.9934 142.105 78.3766 142.976C78.3587 143.001 78.3438 143.026 78.3259 143.048C77.6972 143.933 77.0625 144.795 76.4218 145.622C76.0553 146.094 75.6858 146.551 75.3133 146.992C75.2626 147.05 75.2149 147.111 75.1643 147.171C74.8425 147.549 74.5147 147.907 74.1869 148.255C74.0975 148.351 74.0081 148.45 73.9157 148.544C73.6118 148.858 73.3048 149.145 72.9949 149.429C72.8876 149.525 72.7834 149.633 72.6761 149.727C72.2678 150.082 71.8536 150.413 71.4364 150.705C70.8285 150.744 70.2445 150.782 69.726 150.838C69.5144 150.857 69.4518 151.403 69.6038 151.709C69.7379 151.968 69.8929 152.199 70.0389 152.436C70.027 152.698 70.0538 152.957 70.1104 153.169C70.1104 153.172 70.1104 153.18 70.1104 153.183C70.1104 153.186 70.1134 153.186 70.1134 153.189C70.1402 153.293 70.1789 153.376 70.2236 153.442C70.2355 153.462 70.2445 153.489 70.2564 153.506C70.316 153.572 70.3845 153.608 70.465 153.594C70.5812 153.586 70.7093 153.539 70.8256 153.508C71.058 153.768 71.3024 153.996 71.5527 154.2C71.6361 154.269 71.7255 154.319 71.8119 154.38C71.9818 154.504 72.1546 154.63 72.3304 154.732C72.4466 154.798 72.5688 154.848 72.688 154.906C72.8429 154.98 72.9919 155.06 73.1499 155.118C73.2959 155.173 73.4449 155.212 73.5909 155.253C73.728 155.292 73.8621 155.339 73.9991 155.369C74.175 155.408 74.3538 155.43 74.5325 155.455C74.6458 155.468 74.756 155.49 74.8693 155.499C75.0808 155.518 75.2954 155.521 75.5099 155.521C75.5904 155.521 75.6679 155.526 75.7483 155.523C76.0046 155.518 76.2609 155.496 76.5201 155.466C76.5559 155.46 76.5887 155.46 76.6244 155.455C77.0357 155.405 77.4469 155.336 77.8581 155.24C76.8926 156.962 75.8586 158.542 74.765 159.537C73.7935 159.901 72.7625 159.986 71.651 159.691C71.5229 159.664 71.4394 160.074 71.5258 160.284C71.5586 160.353 71.5974 160.4 71.6242 160.466C71.4811 160.438 71.4513 160.896 71.5497 161.069C71.943 161.778 72.3691 162.208 72.8102 162.448C72.9502 162.638 73.0992 162.792 73.2482 162.947C73.2542 162.952 73.2601 162.958 73.2661 162.963C73.8263 163.564 74.4104 163.98 75.0183 164.192C75.0242 164.195 75.0272 164.198 75.0332 164.201C75.2567 164.27 75.4802 164.333 75.7126 164.363C73.3734 166.764 70.7183 168.269 68.2897 168.401C67.9917 168.363 67.6937 168.286 67.3898 168.192C67.059 167.952 66.7282 167.696 66.4064 167.417C65.8223 166.899 65.5035 168.605 65.8015 169.592C67.2408 174.391 70.1521 176.663 72.9085 177.724C73.281 177.87 73.6505 177.991 74.0111 178.093C73.6624 178.994 73.2989 179.874 72.9115 180.717C72.6582 181.263 72.3721 181.836 72.0712 182.415C71.943 182.658 71.8059 182.909 71.6719 183.154C71.499 183.474 71.3202 183.796 71.1325 184.121C70.9358 184.46 70.7362 184.802 70.5306 185.144C70.4114 185.343 70.2892 185.538 70.164 185.737C68.5579 188.308 66.6686 190.839 64.7913 192.699C64.7883 192.702 64.7853 192.705 64.7824 192.708C64.4307 193.055 64.0791 193.383 63.7305 193.686C63.3312 194.025 62.9318 194.351 62.5445 194.607C60.9294 194.654 59.35 194.367 57.8631 193.612C57.7379 193.554 57.5621 193.871 57.6574 194.196C57.9197 195.089 58.2236 195.856 58.5484 196.542C58.5782 196.605 58.605 196.68 58.6348 196.743C58.6348 196.746 58.6378 196.749 58.6408 196.751C58.903 197.278 59.1831 197.733 59.4782 198.143C59.5378 198.226 59.5974 198.303 59.6569 198.383C59.946 198.758 60.244 199.1 60.5599 199.381C60.5658 199.387 60.5748 199.395 60.5807 199.4C60.9025 199.684 61.2363 199.908 61.579 200.1C61.6594 200.145 61.7369 200.186 61.8174 200.227C62.1601 200.398 62.5057 200.544 62.8603 200.638C61.5462 201.242 60.2261 201.768 58.8971 202.275C58.6766 202.361 58.7421 203.031 58.9209 203.108C61.1678 204.045 64.0225 204.083 66.7908 202.86C66.013 204.056 65.2532 205.139 64.5738 206.096C64.2043 206.608 63.8288 207.074 63.4474 207.504C63.4146 207.54 63.3818 207.57 63.349 207.606C62.9944 208 62.6339 208.364 62.2703 208.692C62.2495 208.712 62.2256 208.731 62.2048 208.75C61.7369 209.166 61.2601 209.53 60.7804 209.844C60.7446 209.869 60.7088 209.894 60.6731 209.919C60.1725 210.239 59.6659 210.509 59.1533 210.724C59.1355 210.732 59.1176 210.735 59.0997 210.743C58.6408 210.933 58.1789 211.074 57.7141 211.187C57.6038 211.214 57.4906 211.242 57.3803 211.264C56.8976 211.363 56.4119 211.435 55.9232 211.457C55.2855 211.151 54.6507 210.864 54.0071 210.605C53.8581 210.547 53.7925 211.027 53.876 211.256C53.8968 211.314 53.9207 211.352 53.9445 211.41C53.8253 211.496 53.7925 211.879 53.8998 212.052C54.1859 212.54 54.4779 212.962 54.7789 213.342C54.9666 213.737 55.1692 214.062 55.3629 214.415C55.3659 214.42 55.3689 214.423 55.3719 214.426C56.7665 216.956 58.3756 218.604 60.1159 219.553C60.1308 219.561 60.1486 219.566 60.1635 219.575C60.5807 219.801 61.0039 219.996 61.433 220.145C61.4866 220.165 61.5402 220.173 61.5909 220.192C61.9872 220.322 62.3865 220.437 62.7918 220.512C62.9169 220.537 63.0481 220.539 63.1732 220.556C63.5099 220.603 63.8497 220.652 64.1894 220.666C64.6661 220.686 65.1459 220.672 65.6257 220.625C65.2591 220.909 64.8866 221.154 64.5142 221.377C64.1715 221.576 63.8258 221.744 63.4801 221.896C63.4503 221.909 63.4205 221.926 63.3907 221.94C62.5087 221.94 61.6326 221.998 60.7565 222.141C60.6254 222.16 60.5152 222.292 60.4347 222.483C59.803 222.326 59.1861 222.146 58.605 221.94C58.1581 221.777 58.0716 223.194 58.3547 223.709C64.2013 234.501 73.728 229.608 80.9244 224.101C80.7039 225.515 80.4327 226.904 80.1854 228.304C79.953 229.608 79.7354 230.915 79.4792 232.21C79.0113 234.581 78.5137 236.943 77.9654 239.313C77.9445 239.413 77.9445 239.509 77.9564 239.597C77.9564 239.608 77.9594 239.614 77.9624 239.622C77.9862 239.763 78.0399 239.856 78.1054 239.843C78.1352 239.843 78.165 239.823 78.1918 239.763C78.463 239.198 78.7312 238.655 78.9994 238.098C79.211 237.704 79.4196 237.274 79.6311 236.852C79.4166 237.445 79.208 238.048 78.9785 238.613C78.8742 238.872 79.0173 239.256 79.1395 239.027C82.3875 232.709 85.5254 227.213 88.0046 219.335C88.4009 223.709 89.0208 227.499 90.1025 231.416C90.1799 231.722 90.3885 231.474 90.314 231.157C89.7628 228.927 89.3813 226.361 89.1102 223.662C89.3992 224.724 89.7002 225.73 89.9982 226.659C90.5405 228.357 91.1484 229.903 91.7742 231.403C91.3481 247.404 90.4839 264.185 90.4839 264.185C96.4854 270.188 99.1285 262.768 99.1285 262.768C98.8544 255.141 98.8305 239.57 98.8603 227.447C99.8378 230.159 100.896 232.72 101.879 235.206C101.971 235.438 102.12 235.11 102.034 234.873C101.009 231.99 100.061 228.811 99.2239 225.529C100.556 228.362 101.995 230.89 103.539 232.938C103.938 233.475 104.349 233.941 104.766 234.388C104.966 234.608 105.169 234.823 105.371 235.027C105.377 235.033 105.383 235.038 105.389 235.044C105.413 235.069 105.44 235.088 105.467 235.115C106.712 236.342 108.003 237.268 109.32 238.004C109.409 238.054 109.496 238.109 109.585 238.156C109.951 238.351 110.321 238.533 110.69 238.707C110.842 238.779 110.997 238.85 111.149 238.919C111.489 239.071 111.829 239.214 112.172 239.352C112.371 239.432 112.571 239.509 112.77 239.584C113.08 239.699 113.39 239.818 113.7 239.928C113.995 240.033 114.287 240.135 114.582 240.237C115.288 240.479 115.995 240.717 116.698 240.965C116.766 240.987 116.826 240.973 116.88 240.943C116.901 240.931 116.915 240.915 116.933 240.898C116.966 240.868 116.999 240.83 117.026 240.783C117.041 240.758 117.056 240.733 117.07 240.7C117.1 240.631 117.127 240.551 117.148 240.463C117.151 240.444 117.16 240.433 117.163 240.413C117.187 240.303 117.202 240.185 117.21 240.058C117.213 240.019 117.213 239.983 117.216 239.945C117.219 239.851 117.219 239.757 117.216 239.661C117.216 239.619 117.213 239.581 117.21 239.54C117.202 239.432 117.19 239.33 117.172 239.231C117.169 239.206 117.166 239.181 117.16 239.159C117.154 239.126 117.139 239.098 117.133 239.068C117.079 238.853 117.002 238.666 116.892 238.564C116.4 238.12 115.908 237.717 115.42 237.329C115.122 237.089 114.824 236.855 114.523 236.629C114.07 236.124 113.629 235.579 113.194 234.991C113.164 234.876 113.125 234.774 113.06 234.724C112.97 234.658 112.893 234.542 112.806 234.465C112.002 233.307 111.248 231.987 110.565 230.405C110.503 230.27 110.443 230.112 110.381 229.955C114.904 236.852 120.509 240.568 125.804 239.589C125.813 239.586 125.825 239.586 125.834 239.584C126.29 239.498 126.74 239.374 127.19 239.217C127.232 239.203 127.271 239.189 127.312 239.176C127.741 239.021 128.168 238.831 128.591 238.608C128.647 238.578 128.707 238.547 128.764 238.514C129.172 238.291 129.577 238.034 129.976 237.748C130.045 237.698 130.113 237.646 130.182 237.593C130.572 237.301 130.96 236.982 131.341 236.623C131.416 236.554 131.487 236.477 131.562 236.405C131.937 236.042 132.307 235.656 132.67 235.228C132.688 235.206 132.709 235.19 132.727 235.168C133.063 234.754 133.4 234.363 133.728 233.903C133.996 233.53 133.862 232.439 133.54 232.659C133.239 232.869 132.932 233.004 132.622 233.178C132.584 233.139 132.542 233.092 132.491 233.081C132.131 232.954 131.77 232.814 131.404 232.648C131.401 232.648 131.401 232.651 131.398 232.651C128.197 231.262 125.089 228.431 122.434 224.062C123.135 224.677 123.841 225.258 124.55 225.862C124.893 226.157 125.036 224.972 124.723 224.627C123.018 222.769 121.177 220.856 119.66 218.117C121.767 219.735 123.915 220.741 125.569 221.085C128.808 221.774 134.586 222.626 136.765 215.589C136.991 214.897 136.624 213.987 136.312 214.39Z" fill="#233A2D"/>
<path d="M253.509 234.836C252.998 235.353 252.458 235.725 251.899 236.041C251.891 235.696 251.78 235.38 251.571 235.236C251.534 235.214 251.5 235.182 251.452 235.165C251.146 235.086 250.837 234.959 250.528 234.801C250.464 234.771 250.401 234.733 250.338 234.7C250.039 234.537 249.745 234.352 249.447 234.135C249.041 233.836 248.638 233.485 248.236 233.096C248.236 233.094 248.232 233.091 248.228 233.091C247.434 232.316 246.648 231.378 245.888 230.347C245.873 230.328 245.858 230.307 245.843 230.288C245.482 229.795 245.124 229.279 244.774 228.751C244.733 228.689 244.692 228.626 244.651 228.564C244.308 228.044 243.972 227.517 243.645 226.984C243.633 226.965 243.622 226.943 243.607 226.924C243.309 226.435 243.022 225.945 242.739 225.456C242.661 225.317 242.579 225.181 242.5 225.043C242.24 224.589 241.986 224.14 241.744 223.697C241.643 223.517 241.546 223.341 241.45 223.164C241.211 222.729 240.973 222.294 240.753 221.881C239.825 220.165 238.96 218.406 238.144 216.606C240.074 218.215 242.135 219.14 244.144 220.508C244.386 220.676 244.561 220.005 244.345 219.752C241.964 217.063 239.169 216.062 236.866 213.104C236.765 212.971 236.661 212.859 236.56 212.726C236.489 212.623 236.422 212.517 236.352 212.419C236.039 211.641 235.726 210.863 235.427 210.064C239.724 211.975 244.323 211.94 248.56 210.14C249.126 209.904 249.063 208.305 248.482 208.27C248.135 208.251 247.781 208.226 247.434 208.202C247.543 208.169 247.651 208.136 247.759 208.093C247.844 208.057 247.837 207.805 247.744 207.799C247.516 207.775 247.293 207.726 247.066 207.69C247.025 207.65 246.991 207.59 246.939 207.576C242.825 206.483 239.117 203.22 235.778 198.737C235.42 198.261 235.062 197.742 234.712 197.217C236.493 197.747 238.286 197.87 240.056 197.508C241.841 197.388 243.592 196.681 245.113 195.346C246.16 195.023 247.189 194.471 248.169 193.511C248.243 193.435 248.221 193.223 248.139 193.217C247.226 193.128 246.32 193.092 245.415 193.065C245.418 192.676 245.299 192.266 245.049 192.266C242.486 192.298 240.194 191.336 238.122 189.656C237.675 189.289 237.235 188.892 236.806 188.462C236.795 188.454 236.788 188.443 236.78 188.435C236.348 188 235.927 187.532 235.513 187.035C235.088 186.523 234.675 185.982 234.272 185.414C234.268 185.406 234.261 185.4 234.257 185.392C233.478 184.294 232.737 183.089 232.029 181.809C231.969 181.697 231.906 181.589 231.846 181.477C231.514 180.863 231.187 180.237 230.87 179.59C233.911 182.741 236.899 184.362 240.425 182.505C240.712 182.35 240.622 181.586 240.328 181.678C237.991 182.407 235.439 180.341 233.299 177.63C234.533 178.065 235.815 178.198 237.13 177.981C237.522 177.918 237.574 176.909 237.164 176.825C236.747 176.738 236.337 176.607 235.93 176.455C235.74 176.382 235.554 176.289 235.364 176.202C235.167 176.113 234.973 176.02 234.779 175.917C234.529 175.778 234.28 175.629 234.034 175.465C233.926 175.395 233.821 175.321 233.717 175.248C233.426 175.039 233.136 174.821 232.852 174.579C232.826 174.557 232.8 174.53 232.774 174.508C232.223 174.033 231.693 173.494 231.179 172.885C231.175 172.882 231.175 172.882 231.172 172.88C229.923 171.403 228.79 169.587 227.836 167.45C227.628 166.939 227.411 166.433 227.195 165.944C226.964 165.34 226.763 164.726 226.562 164.114C228.634 167.532 231.175 169.9 233.844 171.295C234.291 171.526 234.477 170.384 234.071 170.041C231.585 167.975 229.424 164.647 227.683 160.759C229.901 162.714 232.308 163.722 234.995 163.771C235.047 163.771 235.092 163.741 235.126 163.701C235.133 163.692 235.137 163.687 235.144 163.679C235.211 163.584 235.245 163.429 235.237 163.276C235.237 163.274 235.237 163.271 235.237 163.266C235.226 163.073 235.159 162.89 235.021 162.869C234.809 162.841 234.593 162.792 234.38 162.73C234.261 162.695 234.142 162.646 234.026 162.599C233.914 162.556 233.803 162.521 233.691 162.469C233.545 162.401 233.4 162.317 233.251 162.232C233.184 162.194 233.121 162.162 233.054 162.124C232.893 162.023 232.733 161.912 232.573 161.795C232.528 161.762 232.48 161.729 232.435 161.694C232.263 161.564 232.092 161.419 231.921 161.273C231.891 161.245 231.861 161.221 231.831 161.194C231.649 161.031 231.466 160.859 231.287 160.677C231.272 160.664 231.257 160.647 231.242 160.634C230.855 160.237 230.467 159.802 230.095 159.331C228.283 157.069 226.648 154.078 225.325 151.367C226.293 152.55 227.296 153.377 228.298 153.714C228.429 153.755 228.5 153.404 228.365 153.341C222.224 150.546 221.043 135.135 219.809 125.926C219.783 125.72 219.723 125.551 219.645 125.41C219.638 125.393 219.627 125.385 219.619 125.372C219.545 125.247 219.463 125.157 219.369 125.092C219.366 125.089 219.366 125.086 219.362 125.083C219.351 125.078 219.343 125.078 219.332 125.073C219.265 125.034 219.202 125.002 219.135 124.999C219.053 124.988 218.971 124.999 218.896 125.043C218.878 124.608 218.863 124.181 218.833 123.746C218.822 123.615 218.803 123.504 218.773 123.409C218.769 123.398 218.762 123.392 218.758 123.381C218.546 122.761 217.957 122.927 217.801 123.661C213.906 141.976 207.847 159.948 196.768 163.934C196.756 163.924 196.749 163.913 196.738 163.902C196.462 164 196.197 164.133 195.914 164.217C195.765 164.253 195.765 164.601 195.862 164.75C198.132 168.225 202.1 165.865 205.439 162.453C204.948 163.208 204.441 163.959 203.897 164.66C202.056 167.015 199.805 170.509 197.513 171.077C197.487 171.077 197.461 171.085 197.438 171.085C197.424 171.085 197.412 171.107 197.394 171.121C197.39 171.121 197.386 171.121 197.386 171.121C197.353 171.142 197.323 171.17 197.301 171.21C197.293 171.224 197.293 171.238 197.289 171.254C197.226 171.422 197.233 171.675 197.368 171.757C197.647 171.939 197.953 172.108 198.273 172.26C198.277 172.263 198.281 172.265 198.284 172.268C198.545 172.393 198.821 172.507 199.104 172.613C199.22 172.657 199.343 172.687 199.462 172.728C199.659 172.79 199.857 172.855 200.062 172.907C200.196 172.942 200.338 172.969 200.476 172.999C200.673 173.043 200.874 173.084 201.079 173.116C201.221 173.138 201.366 173.154 201.512 173.173C201.724 173.198 201.933 173.22 202.149 173.231C202.29 173.239 202.436 173.247 202.577 173.25C202.805 173.255 203.032 173.252 203.259 173.244C203.397 173.239 203.531 173.236 203.669 173.225C203.923 173.206 204.176 173.173 204.43 173.138C204.545 173.122 204.657 173.111 204.772 173.092C205.141 173.027 205.51 172.948 205.875 172.842C204.735 175.784 203.408 178.402 201.448 180.659C200.885 181.308 200.319 181.958 199.745 182.597C199.73 182.616 199.715 182.633 199.697 182.652C199.115 183.299 198.527 183.932 197.93 184.533C197.591 184.878 197.248 185.213 196.902 185.536C196.857 185.58 196.809 185.623 196.764 185.667C196.466 185.944 196.16 186.205 195.858 186.461C195.776 186.532 195.691 186.605 195.609 186.673C195.325 186.901 195.042 187.113 194.755 187.32C194.658 187.391 194.558 187.47 194.461 187.538C194.081 187.799 193.701 188.041 193.309 188.255C192.747 188.283 192.203 188.312 191.722 188.353C191.524 188.367 191.465 188.767 191.61 188.99C191.733 189.18 191.878 189.348 192.016 189.522C192.005 189.713 192.031 189.903 192.08 190.058C192.08 190.061 192.08 190.066 192.08 190.069C192.08 190.072 192.08 190.072 192.083 190.074C192.109 190.15 192.147 190.21 192.188 190.259C192.199 190.273 192.206 190.295 192.217 190.305C192.27 190.354 192.337 190.382 192.411 190.368C192.519 190.363 192.639 190.327 192.747 190.305C192.963 190.496 193.186 190.662 193.421 190.811C193.499 190.86 193.581 190.898 193.66 190.944C193.82 191.034 193.976 191.127 194.14 191.203C194.248 191.252 194.36 191.287 194.472 191.328C194.614 191.382 194.755 191.439 194.901 191.483C195.035 191.524 195.173 191.551 195.311 191.583C195.437 191.613 195.56 191.646 195.691 191.668C195.855 191.695 196.019 191.711 196.186 191.73C196.291 191.741 196.395 191.757 196.499 191.763C196.697 191.776 196.894 191.779 197.092 191.779C197.166 191.779 197.241 191.782 197.315 191.779C197.554 191.774 197.792 191.76 198.031 191.738C198.064 191.736 198.094 191.733 198.128 191.73C198.508 191.692 198.892 191.643 199.272 191.573C198.374 192.834 197.416 193.99 196.402 194.718C195.501 194.985 194.547 195.047 193.514 194.83C193.395 194.808 193.317 195.11 193.399 195.265C193.429 195.314 193.462 195.349 193.492 195.398C193.358 195.379 193.332 195.713 193.425 195.841C193.79 196.358 194.185 196.673 194.595 196.85C194.725 196.989 194.863 197.103 195.001 197.214C195.009 197.22 195.012 197.222 195.02 197.228C195.538 197.668 196.082 197.97 196.645 198.128C196.648 198.128 196.652 198.131 196.66 198.133C196.868 198.182 197.073 198.231 197.289 198.253C195.117 200.009 192.657 201.111 190.403 201.208C190.127 201.181 189.851 201.124 189.568 201.053C189.262 200.879 188.957 200.689 188.655 200.485C188.111 200.107 187.816 201.353 188.092 202.076C189.43 205.589 192.128 207.247 194.684 208.025C195.031 208.131 195.37 208.221 195.709 208.297C195.385 208.955 195.05 209.599 194.688 210.216C194.453 210.616 194.189 211.035 193.909 211.459C193.79 211.636 193.663 211.818 193.54 212C193.38 212.234 193.212 212.47 193.041 212.707C192.858 212.957 192.672 213.204 192.482 213.455C192.37 213.599 192.255 213.743 192.143 213.89C190.652 215.771 188.901 217.623 187.16 218.985C187.157 218.988 187.157 218.988 187.153 218.99C186.825 219.243 186.501 219.485 186.177 219.705C185.808 219.953 185.435 220.192 185.074 220.38C183.575 220.415 182.111 220.203 180.732 219.651C180.617 219.61 180.453 219.841 180.542 220.081C180.784 220.733 181.067 221.296 181.369 221.799C181.395 221.845 181.421 221.9 181.451 221.946C181.451 221.949 181.455 221.949 181.455 221.951C181.697 222.337 181.958 222.669 182.23 222.968C182.286 223.028 182.342 223.085 182.398 223.142C182.666 223.417 182.942 223.667 183.236 223.874C183.244 223.879 183.248 223.884 183.255 223.89C183.553 224.097 183.862 224.262 184.179 224.401C184.254 224.434 184.324 224.464 184.399 224.493C184.716 224.619 185.036 224.725 185.368 224.795C184.149 225.236 182.923 225.622 181.694 225.992C181.489 226.054 181.552 226.544 181.716 226.601C183.799 227.286 186.449 227.316 189.016 226.418C188.293 227.294 187.589 228.085 186.959 228.787C186.616 229.162 186.27 229.504 185.916 229.817C185.886 229.844 185.856 229.866 185.826 229.893C185.498 230.182 185.163 230.448 184.828 230.687C184.805 230.701 184.787 230.714 184.764 230.728C184.328 231.033 183.888 231.299 183.445 231.53C183.411 231.546 183.378 231.568 183.344 231.584C182.879 231.818 182.409 232.017 181.936 232.175C181.917 232.18 181.902 232.183 181.887 232.188C181.462 232.327 181.034 232.43 180.602 232.512C180.497 232.531 180.393 232.552 180.292 232.569C179.841 232.642 179.394 232.694 178.94 232.71C178.347 232.487 177.758 232.275 177.162 232.087C177.024 232.047 176.961 232.397 177.039 232.563C177.058 232.607 177.08 232.634 177.102 232.675C176.991 232.737 176.961 233.017 177.061 233.145C177.326 233.501 177.598 233.809 177.874 234.089C178.049 234.377 178.235 234.613 178.418 234.874C178.422 234.877 178.422 234.88 178.425 234.883C179.718 236.734 181.213 237.939 182.826 238.635C182.841 238.64 182.856 238.646 182.871 238.651C183.259 238.814 183.65 238.958 184.049 239.07C184.097 239.083 184.146 239.091 184.198 239.102C184.567 239.198 184.936 239.282 185.312 239.336C185.428 239.353 185.547 239.355 185.666 239.369C185.979 239.404 186.292 239.44 186.609 239.448C187.052 239.461 187.496 239.45 187.943 239.418C187.6 239.627 187.257 239.804 186.911 239.967C186.594 240.114 186.274 240.236 185.949 240.345C185.923 240.356 185.893 240.367 185.867 240.378C185.051 240.378 184.239 240.418 183.423 240.524C183.3 240.538 183.199 240.636 183.125 240.775C182.539 240.66 181.966 240.53 181.429 240.378C181.015 240.258 180.933 241.294 181.198 241.672C186.624 249.568 195.46 245.987 202.134 241.96C201.929 242.996 201.679 244.013 201.448 245.035C201.232 245.989 201.031 246.947 200.792 247.893C200.36 249.627 199.894 251.354 199.387 253.089C199.365 253.162 199.369 253.233 199.38 253.298C199.38 253.306 199.384 253.309 199.384 253.317C199.406 253.418 199.458 253.488 199.518 253.477C199.544 253.477 199.57 253.464 199.6 253.418C199.85 253.004 200.099 252.605 200.349 252.2C200.546 251.911 200.74 251.596 200.934 251.289C200.736 251.724 200.543 252.164 200.33 252.577C200.233 252.768 200.368 253.048 200.479 252.879C203.494 248.257 206.401 244.236 208.704 238.469C209.073 241.669 209.647 244.442 210.649 247.308C210.724 247.531 210.914 247.349 210.847 247.118C210.336 245.486 209.982 243.608 209.729 241.634C209.997 242.411 210.277 243.145 210.552 243.825C211.055 245.068 211.618 246.199 212.199 247.297C211.804 259.005 211 271.284 211 271.284C216.567 275.678 219.019 270.248 219.019 270.248C218.766 264.669 218.743 253.274 218.773 244.404C219.679 246.389 220.659 248.262 221.576 250.081C221.661 250.25 221.799 250.011 221.721 249.837C220.771 247.727 219.891 245.402 219.116 242.999C220.353 245.073 221.687 246.919 223.118 248.42C223.491 248.814 223.871 249.154 224.255 249.481C224.441 249.641 224.628 249.799 224.818 249.948C224.821 249.954 224.829 249.956 224.833 249.962C224.855 249.981 224.881 249.994 224.903 250.013C226.059 250.911 227.255 251.588 228.477 252.126C228.559 252.161 228.641 252.202 228.723 252.238C229.062 252.382 229.405 252.515 229.748 252.64C229.89 252.692 230.031 252.746 230.173 252.795C230.49 252.904 230.806 253.012 231.123 253.11C231.306 253.167 231.492 253.225 231.678 253.279C231.965 253.366 232.252 253.45 232.539 253.532C232.811 253.608 233.083 253.681 233.359 253.757C234.015 253.934 234.671 254.108 235.323 254.29C235.386 254.307 235.442 254.296 235.494 254.274C235.513 254.266 235.528 254.252 235.547 254.241C235.576 254.22 235.606 254.193 235.632 254.157C235.647 254.138 235.662 254.119 235.673 254.097C235.703 254.046 235.726 253.989 235.748 253.923C235.752 253.91 235.759 253.902 235.763 253.888C235.785 253.809 235.796 253.719 235.807 253.63C235.811 253.603 235.811 253.575 235.811 253.545C235.815 253.477 235.815 253.409 235.811 253.339C235.811 253.309 235.807 253.279 235.807 253.249C235.8 253.17 235.789 253.097 235.77 253.023C235.767 253.007 235.766 252.988 235.759 252.972V252.969C235.752 252.945 235.74 252.928 235.733 252.904C235.681 252.746 235.61 252.61 235.509 252.534C235.055 252.21 234.596 251.914 234.142 251.631C233.866 251.457 233.586 251.283 233.311 251.117C232.89 250.748 232.48 250.348 232.077 249.921C232.051 249.837 232.014 249.761 231.954 249.725C231.872 249.676 231.801 249.592 231.719 249.535C230.974 248.687 230.273 247.721 229.64 246.566C229.584 246.465 229.528 246.351 229.469 246.237C233.665 251.283 238.867 254.002 243.779 253.287C243.79 253.284 243.797 253.284 243.805 253.284C244.226 253.222 244.647 253.132 245.064 253.018C245.102 253.007 245.139 252.999 245.176 252.988C245.575 252.874 245.97 252.735 246.361 252.572C246.417 252.55 246.469 252.526 246.521 252.504C246.902 252.341 247.274 252.153 247.647 251.944C247.71 251.909 247.774 251.868 247.837 251.832C248.198 251.618 248.56 251.384 248.91 251.123C248.981 251.071 249.048 251.017 249.115 250.962C249.462 250.696 249.805 250.413 250.144 250.1C250.162 250.084 250.177 250.073 250.196 250.057C250.509 249.755 250.822 249.467 251.124 249.133C251.373 248.858 251.247 248.061 250.949 248.222C250.669 248.377 250.382 248.475 250.099 248.6C250.062 248.572 250.024 248.537 249.976 248.529C249.641 248.437 249.305 248.333 248.97 248.214C248.97 248.214 248.966 248.214 248.966 248.216C245.996 247.199 243.115 245.128 240.648 241.93C241.301 242.379 241.953 242.806 242.609 243.246C242.925 243.464 243.059 242.596 242.769 242.343C241.189 240.984 239.478 239.584 238.073 237.58C240.03 238.763 242.02 239.499 243.555 239.752C246.562 240.255 251.921 240.881 253.941 235.731C254.139 235.206 253.8 234.54 253.509 234.836Z" fill="#233A2D"/>
<path d="M212.334 213.726C211.64 214.517 210.901 215.084 210.136 215.564C210.124 215.038 209.974 214.554 209.687 214.336C209.634 214.305 209.589 214.253 209.529 214.228C209.11 214.111 208.688 213.911 208.27 213.674C208.183 213.628 208.1 213.572 208.013 213.52C207.61 213.271 207.207 212.99 206.8 212.658C206.245 212.202 205.695 211.667 205.148 211.069C205.145 211.066 205.141 211.063 205.141 211.06C204.055 209.878 202.988 208.443 201.952 206.873C201.933 206.842 201.91 206.812 201.891 206.781C201.398 206.027 200.911 205.242 200.433 204.438C200.376 204.343 200.319 204.247 200.263 204.152C199.799 203.361 199.339 202.554 198.895 201.738C198.879 201.707 198.861 201.677 198.846 201.646C198.438 200.901 198.046 200.15 197.658 199.401C197.549 199.192 197.439 198.98 197.33 198.77C196.976 198.078 196.633 197.391 196.297 196.714C196.161 196.44 196.03 196.172 195.898 195.901C195.573 195.236 195.249 194.571 194.948 193.943C193.681 191.323 192.505 188.639 191.389 185.893C194.02 188.352 196.832 189.762 199.569 191.847C199.897 192.105 200.139 191.077 199.844 190.692C196.595 186.585 192.788 185.058 189.647 180.545C189.508 180.342 189.368 180.17 189.229 179.966C189.135 179.806 189.041 179.646 188.946 179.498C188.52 178.313 188.094 177.125 187.687 175.906C193.545 178.824 199.818 178.772 205.593 176.023C206.366 175.659 206.279 173.221 205.488 173.169C205.017 173.141 204.534 173.101 204.059 173.064C204.206 173.012 204.353 172.966 204.5 172.901C204.621 172.849 204.606 172.464 204.481 172.451C204.172 172.415 203.867 172.341 203.558 172.285C203.501 172.224 203.46 172.131 203.384 172.11C197.775 170.441 192.716 165.46 188.166 158.616C187.676 157.89 187.19 157.099 186.711 156.295C189.139 157.105 191.585 157.292 193.998 156.741C196.433 156.56 198.823 155.479 200.892 153.441C202.321 152.949 203.72 152.105 205.058 150.64C205.16 150.523 205.13 150.202 205.017 150.19C203.773 150.055 202.532 149.999 201.303 149.956C201.311 149.362 201.145 148.734 200.81 148.734C197.315 148.783 194.186 147.315 191.363 144.747C190.752 144.187 190.153 143.58 189.568 142.925C189.557 142.909 189.546 142.897 189.531 142.882C188.942 142.217 188.366 141.505 187.8 140.745C187.223 139.966 186.658 139.141 186.108 138.273C186.1 138.261 186.093 138.251 186.089 138.242C185.026 136.567 184.015 134.726 183.05 132.768C182.967 132.599 182.885 132.43 182.802 132.26C182.349 131.325 181.901 130.37 181.467 129.382C185.614 134.191 189.689 136.663 194.499 133.831C194.891 133.597 194.77 132.43 194.367 132.568C191.182 133.68 187.698 130.524 184.781 126.386C186.462 127.048 188.211 127.252 190.002 126.922C190.537 126.827 190.605 125.287 190.047 125.158C189.482 125.026 188.92 124.826 188.369 124.595C188.109 124.484 187.853 124.342 187.597 124.21C187.329 124.071 187.061 123.933 186.798 123.773C186.454 123.563 186.119 123.333 185.783 123.083C185.64 122.975 185.493 122.865 185.35 122.751C184.954 122.434 184.558 122.101 184.174 121.729C184.136 121.695 184.102 121.655 184.064 121.621C183.311 120.894 182.591 120.072 181.889 119.143C181.886 119.139 181.882 119.136 181.882 119.136C180.178 116.886 178.636 114.112 177.336 110.849C177.049 110.067 176.755 109.297 176.461 108.549C176.148 107.629 175.869 106.69 175.594 105.757C178.417 110.975 181.886 114.589 185.523 116.717C186.134 117.071 186.39 115.328 185.832 114.805C182.444 111.649 179.496 106.573 177.121 100.637C180.144 103.62 183.424 105.16 187.088 105.233C187.159 105.237 187.22 105.19 187.269 105.126C187.276 105.113 187.284 105.104 187.295 105.092C187.389 104.944 187.431 104.71 187.423 104.476C187.423 104.47 187.423 104.467 187.423 104.461C187.408 104.165 187.318 103.888 187.129 103.854C186.839 103.814 186.545 103.737 186.258 103.642C186.096 103.589 185.934 103.513 185.772 103.445C185.621 103.38 185.467 103.322 185.316 103.245C185.116 103.14 184.916 103.011 184.717 102.884C184.626 102.826 184.539 102.777 184.449 102.718C184.227 102.564 184.008 102.395 183.789 102.216C183.725 102.164 183.661 102.118 183.601 102.066C183.363 101.865 183.13 101.647 182.9 101.419C182.858 101.379 182.817 101.342 182.779 101.302C182.53 101.053 182.281 100.791 182.036 100.511C182.018 100.489 181.999 100.468 181.976 100.443C181.445 99.8398 180.921 99.1717 180.408 98.4575C177.939 95.0033 175.711 90.4377 173.905 86.3001C175.225 88.1072 176.593 89.3695 177.958 89.8805C178.139 89.9452 178.229 89.4095 178.048 89.314C169.676 85.0502 168.062 61.5266 166.381 47.4667C166.343 47.1496 166.26 46.8941 166.158 46.6786C166.147 46.657 166.132 46.6416 166.121 46.6201C166.023 46.4292 165.91 46.2907 165.781 46.1952C165.778 46.1922 165.778 46.186 165.774 46.1829C165.763 46.1737 165.747 46.1737 165.732 46.1645C165.642 46.109 165.555 46.0598 165.465 46.0506C165.352 46.0352 165.242 46.0506 165.141 46.1183C165.114 45.4533 165.095 44.8006 165.054 44.1387C165.039 43.9417 165.012 43.7693 164.971 43.6246C164.967 43.6061 164.96 43.6 164.952 43.5815C164.662 42.6364 163.863 42.8888 163.648 44.0094C158.34 71.9631 150.073 99.3964 134.968 105.483C134.957 105.467 134.941 105.449 134.926 105.434C134.549 105.584 134.191 105.788 133.803 105.914C133.599 105.966 133.599 106.502 133.731 106.727C136.826 112.028 142.236 108.426 146.79 103.22C146.119 104.375 145.429 105.52 144.686 106.588C142.172 110.181 139.107 115.516 135.982 116.381C135.948 116.381 135.914 116.393 135.876 116.393C135.854 116.393 135.839 116.427 135.816 116.449H135.808C135.805 116.449 135.805 116.449 135.801 116.449C135.756 116.48 135.714 116.523 135.684 116.587C135.677 116.609 135.677 116.63 135.669 116.652C135.582 116.907 135.594 117.295 135.775 117.422C136.159 117.702 136.574 117.954 137.011 118.191C137.019 118.194 137.022 118.197 137.03 118.204C137.388 118.394 137.761 118.57 138.149 118.73C138.308 118.795 138.477 118.844 138.64 118.902C138.907 119.001 139.179 119.096 139.458 119.176C139.642 119.229 139.835 119.269 140.023 119.315C140.294 119.38 140.566 119.444 140.845 119.494C141.041 119.527 141.237 119.555 141.433 119.58C141.719 119.617 142.01 119.647 142.304 119.669C142.5 119.681 142.692 119.694 142.892 119.697C143.201 119.706 143.51 119.7 143.823 119.687C144.011 119.678 144.196 119.675 144.385 119.66C144.731 119.632 145.074 119.583 145.421 119.527C145.576 119.503 145.73 119.487 145.889 119.457C146.39 119.358 146.895 119.235 147.393 119.075C145.836 123.563 144.03 127.563 141.357 131.007C140.592 132.002 139.816 132.993 139.035 133.966C139.013 133.994 138.994 134.021 138.971 134.046C138.176 135.034 137.373 135.998 136.562 136.921C136.099 137.448 135.631 137.956 135.16 138.452C135.096 138.516 135.036 138.584 134.972 138.652C134.564 139.073 134.15 139.474 133.735 139.861C133.622 139.969 133.509 140.08 133.392 140.185C133.008 140.536 132.619 140.856 132.227 141.173C132.092 141.281 131.96 141.401 131.824 141.505C131.307 141.903 130.783 142.272 130.256 142.598C129.487 142.641 128.748 142.685 128.092 142.746C127.824 142.768 127.741 143.377 127.937 143.719C128.107 144.008 128.303 144.267 128.488 144.532C128.473 144.824 128.507 145.114 128.578 145.351C128.578 145.354 128.578 145.36 128.578 145.366C128.578 145.369 128.582 145.369 128.582 145.372C128.616 145.489 128.665 145.582 128.721 145.655C128.736 145.677 128.748 145.708 128.763 145.726C128.838 145.8 128.925 145.84 129.027 145.825C129.174 145.815 129.336 145.76 129.483 145.729C129.777 146.019 130.086 146.274 130.403 146.502C130.508 146.579 130.621 146.634 130.731 146.702C130.946 146.841 131.164 146.982 131.387 147.096C131.534 147.17 131.688 147.225 131.839 147.29C132.035 147.373 132.223 147.463 132.423 147.527C132.608 147.589 132.796 147.632 132.981 147.678C133.155 147.721 133.324 147.773 133.498 147.807C133.72 147.85 133.946 147.875 134.172 147.903C134.316 147.918 134.455 147.943 134.598 147.952C134.866 147.974 135.137 147.977 135.409 147.977C135.511 147.977 135.609 147.98 135.71 147.98C136.035 147.971 136.359 147.949 136.687 147.915C136.732 147.912 136.774 147.909 136.819 147.903C137.339 147.847 137.859 147.77 138.379 147.663C137.158 149.587 135.85 151.351 134.466 152.462C133.238 152.869 131.933 152.964 130.527 152.635C130.365 152.604 130.259 153.063 130.369 153.296C130.41 153.37 130.455 153.426 130.493 153.5C130.312 153.469 130.275 153.983 130.399 154.174C130.897 154.965 131.436 155.445 131.994 155.713C132.171 155.926 132.359 156.098 132.544 156.27C132.551 156.277 132.559 156.283 132.567 156.289C133.275 156.96 134.014 157.425 134.783 157.662C134.791 157.665 134.794 157.668 134.802 157.671C135.085 157.748 135.367 157.819 135.661 157.853C132.698 160.534 129.343 162.215 126.271 162.363C125.894 162.32 125.517 162.234 125.133 162.129C124.714 161.861 124.3 161.575 123.889 161.264C123.15 160.685 122.746 162.591 123.123 163.69C124.944 169.05 128.627 171.586 132.114 172.772C132.585 172.935 133.053 173.07 133.509 173.184C133.068 174.191 132.608 175.173 132.118 176.115C131.797 176.725 131.436 177.365 131.055 178.011C130.893 178.282 130.719 178.559 130.55 178.836C130.331 179.194 130.105 179.554 129.867 179.917C129.619 180.296 129.366 180.677 129.106 181.059C128.955 181.281 128.797 181.499 128.642 181.721C126.614 184.587 124.224 187.417 121.853 189.492C121.849 189.495 121.845 189.498 121.842 189.501C121.397 189.889 120.952 190.255 120.511 190.594C120.006 190.972 119.501 191.336 119.007 191.622C116.964 191.674 114.966 191.354 113.085 190.507C112.926 190.443 112.704 190.797 112.825 191.163C113.156 192.161 113.541 193.017 113.952 193.783C113.989 193.854 114.023 193.937 114.061 194.005C114.065 194.008 114.065 194.011 114.069 194.014C114.4 194.602 114.755 195.11 115.128 195.569C115.203 195.661 115.279 195.747 115.354 195.836C115.72 196.255 116.097 196.637 116.496 196.951C116.504 196.957 116.511 196.966 116.523 196.973C116.93 197.29 117.352 197.539 117.785 197.754C117.887 197.804 117.985 197.85 118.087 197.896C118.521 198.087 118.958 198.25 119.406 198.355C117.744 199.026 116.074 199.617 114.397 200.183C114.118 200.279 114.201 201.027 114.427 201.113C117.269 202.16 120.88 202.203 124.382 200.833C123.399 202.175 122.441 203.385 121.582 204.453C121.118 205.026 120.643 205.546 120.16 206.027C120.119 206.067 120.077 206.101 120.036 206.141C119.587 206.578 119.131 206.984 118.671 207.354C118.645 207.375 118.615 207.394 118.588 207.418C117.997 207.883 117.397 208.289 116.787 208.64C116.741 208.668 116.696 208.696 116.651 208.723C116.017 209.081 115.377 209.382 114.728 209.622C114.706 209.632 114.683 209.635 114.66 209.644C114.08 209.856 113.496 210.013 112.907 210.14C112.768 210.17 112.625 210.201 112.485 210.226C111.875 210.337 111.26 210.417 110.642 210.441C109.835 210.1 109.032 209.779 108.218 209.49C108.029 209.425 107.947 209.961 108.052 210.217C108.075 210.281 108.109 210.324 108.139 210.389C107.988 210.484 107.947 210.912 108.082 211.106C108.444 211.651 108.814 212.122 109.191 212.55C109.428 212.99 109.684 213.354 109.929 213.748C109.933 213.754 109.937 213.757 109.941 213.76C111.705 216.586 113.741 218.424 115.942 219.486C115.961 219.495 115.984 219.505 116.002 219.514C116.53 219.763 117.065 219.982 117.608 220.151C117.676 220.173 117.744 220.182 117.808 220.204C118.309 220.348 118.815 220.478 119.327 220.561C119.486 220.585 119.651 220.591 119.81 220.61C120.236 220.662 120.666 220.718 121.095 220.733C121.698 220.755 122.305 220.739 122.912 220.687C122.449 221.007 121.977 221.278 121.506 221.527C121.073 221.749 120.635 221.937 120.198 222.106C120.16 222.122 120.123 222.14 120.085 222.155C118.969 222.155 117.861 222.22 116.753 222.38C116.587 222.402 116.447 222.549 116.345 222.762C115.546 222.586 114.766 222.386 114.031 222.155C113.465 221.974 113.356 223.556 113.714 224.132C121.11 236.185 133.162 230.72 142.266 224.569C141.987 226.148 141.644 227.7 141.331 229.264C141.037 230.72 140.762 232.179 140.438 233.629C139.846 236.277 139.216 238.915 138.523 241.563C138.496 241.674 138.496 241.781 138.511 241.88C138.511 241.892 138.519 241.898 138.519 241.908C138.549 242.065 138.617 242.166 138.7 242.151C138.738 242.154 138.771 242.129 138.809 242.062C139.152 241.43 139.491 240.821 139.831 240.202C140.098 239.762 140.362 239.282 140.63 238.811C140.358 239.472 140.095 240.147 139.804 240.778C139.672 241.067 139.853 241.495 140.008 241.24C144.117 234.183 148.086 228.045 151.223 219.246C151.724 224.132 152.508 228.365 153.877 232.74C153.975 233.081 154.239 232.804 154.144 232.45C153.447 229.96 152.964 227.093 152.621 224.08C152.987 225.265 153.368 226.388 153.745 227.426C154.431 229.322 155.2 231.049 155.991 232.724C155.452 250.595 154.359 269.338 154.359 269.338C161.951 276.043 165.295 267.756 165.295 267.756C164.948 259.237 164.918 241.846 164.956 228.306C166.192 231.336 167.531 234.196 168.775 236.973C168.891 237.231 169.08 236.865 168.971 236.6C167.674 233.38 166.475 229.83 165.416 226.164C167.101 229.329 168.922 232.149 170.874 234.439C171.379 235.039 171.9 235.56 172.427 236.058C172.68 236.305 172.936 236.545 173.193 236.773C173.2 236.779 173.208 236.785 173.212 236.791C173.245 236.819 173.276 236.84 173.31 236.868C174.885 238.238 176.518 239.272 178.184 240.094C178.297 240.15 178.406 240.211 178.515 240.264C178.979 240.485 179.447 240.685 179.914 240.879C180.106 240.959 180.299 241.04 180.495 241.116C180.924 241.286 181.354 241.446 181.788 241.6C182.04 241.689 182.293 241.775 182.542 241.858C182.934 241.988 183.326 242.12 183.718 242.243C184.091 242.36 184.46 242.474 184.834 242.588C185.727 242.859 186.62 243.124 187.51 243.401C187.597 243.425 187.672 243.41 187.74 243.376C187.766 243.364 187.785 243.345 187.808 243.327C187.849 243.293 187.891 243.25 187.925 243.195C187.944 243.167 187.962 243.139 187.981 243.105C188.019 243.028 188.053 242.939 188.079 242.84C188.083 242.819 188.094 242.807 188.098 242.785C188.128 242.662 188.147 242.53 188.158 242.388C188.162 242.345 188.162 242.305 188.166 242.262C188.17 242.157 188.173 242.052 188.166 241.945C188.166 241.898 188.162 241.855 188.158 241.809C188.147 241.689 188.132 241.575 188.109 241.464C188.106 241.437 188.102 241.409 188.094 241.384C188.087 241.347 188.068 241.317 188.06 241.283C187.993 241.043 187.895 240.833 187.755 240.719C187.133 240.224 186.511 239.774 185.893 239.34C185.516 239.072 185.139 238.808 184.758 238.555C184.189 237.992 183.627 237.382 183.077 236.726C183.039 236.597 182.99 236.483 182.907 236.428C182.794 236.354 182.696 236.225 182.587 236.138C181.569 234.845 180.615 233.371 179.752 231.604C179.673 231.453 179.597 231.277 179.518 231.102C185.241 238.804 192.331 242.954 199.03 241.861C199.042 241.858 199.057 241.858 199.068 241.855C199.645 241.76 200.214 241.621 200.783 241.446C200.836 241.43 200.885 241.415 200.938 241.4C201.481 241.227 202.02 241.015 202.555 240.766C202.63 240.732 202.702 240.698 202.774 240.661C203.29 240.411 203.803 240.125 204.308 239.805C204.395 239.75 204.481 239.691 204.564 239.633C205.058 239.306 205.548 238.949 206.031 238.549C206.125 238.472 206.215 238.386 206.31 238.306C206.781 237.899 207.252 237.468 207.712 236.991C207.734 236.967 207.761 236.948 207.783 236.923C208.209 236.462 208.635 236.024 209.05 235.51C209.389 235.095 209.22 233.876 208.813 234.122C208.432 234.356 208.04 234.507 207.652 234.701C207.603 234.658 207.55 234.605 207.486 234.593C207.03 234.454 206.573 234.294 206.11 234.113C206.106 234.113 206.106 234.116 206.102 234.116C202.054 232.564 198.122 229.402 194.763 224.523C195.649 225.206 196.542 225.859 197.439 226.533C197.873 226.866 198.054 225.539 197.658 225.154C195.502 223.079 193.172 220.942 191.253 217.882C193.918 219.689 196.636 220.813 198.729 221.198C202.826 221.968 210.136 222.919 212.891 215.059C213.193 214.29 212.726 213.274 212.334 213.726Z" fill="#233A2D"/>
<path d="M87.7241 173.887C87.111 174.621 86.458 175.147 85.7816 175.592C85.7716 175.104 85.6384 174.655 85.3851 174.45C85.3385 174.421 85.2985 174.373 85.2452 174.35C84.8754 174.241 84.5022 174.056 84.1324 173.836C84.0557 173.793 83.9824 173.741 83.9058 173.693C83.5493 173.462 83.1928 173.202 82.8329 172.893C82.3432 172.47 81.8567 171.974 81.3736 171.422C81.3703 171.419 81.3703 171.417 81.3669 171.414C80.4074 170.317 79.4645 168.986 78.5482 167.53C78.5315 167.501 78.5115 167.472 78.4949 167.444C78.0584 166.744 77.6286 166.016 77.2055 165.27C77.1555 165.182 77.1055 165.093 77.0555 165.005C76.6424 164.271 76.2392 163.523 75.8461 162.766C75.8294 162.737 75.8161 162.709 75.8028 162.68C75.4429 161.989 75.0964 161.292 74.7532 160.598C74.6566 160.404 74.56 160.207 74.4667 160.013C74.1535 159.37 73.8503 158.733 73.5538 158.108C73.4338 157.853 73.3172 157.605 73.2006 157.354C72.914 156.737 72.6275 156.12 72.361 155.537C71.2415 153.107 70.2019 150.619 69.2157 148.069C71.5413 150.351 74.0269 151.659 76.4458 153.592C76.7357 153.832 76.9489 152.878 76.689 152.521C73.817 148.711 70.4518 147.295 67.6764 143.108C67.5564 142.919 67.4298 142.759 67.3066 142.571C67.2233 142.422 67.14 142.274 67.0567 142.134C66.6802 141.034 66.3037 139.932 65.9438 138.801C71.1215 141.509 76.6657 141.46 81.7701 138.91C82.4531 138.573 82.3765 136.311 81.6768 136.262C81.257 136.236 80.8338 136.199 80.4107 136.165C80.5406 136.116 80.6706 136.074 80.8005 136.014C80.9071 135.965 80.8938 135.608 80.7839 135.597C80.5107 135.562 80.2408 135.494 79.9676 135.442C79.9176 135.385 79.8809 135.3 79.8143 135.28C74.8565 133.732 70.3852 129.111 66.3637 122.762C65.9305 122.088 65.5007 121.354 65.0776 120.608C67.2233 121.359 69.3856 121.534 71.518 121.022C73.6704 120.854 75.7828 119.851 77.612 117.961C78.8747 117.504 80.1108 116.721 81.2936 115.362C81.3836 115.253 81.3569 114.956 81.257 114.945C80.1575 114.819 79.0613 114.768 77.9751 114.728C77.9818 114.177 77.8352 113.594 77.5386 113.594C74.45 113.64 71.6846 112.277 69.1891 109.895C68.6493 109.376 68.1195 108.813 67.6031 108.205C67.5931 108.193 67.5798 108.179 67.5698 108.165C67.05 107.548 66.5402 106.888 66.0405 106.183C65.5307 105.46 65.0309 104.695 64.5445 103.889C64.5378 103.881 64.5311 103.869 64.5278 103.861C63.5882 102.307 62.6953 100.599 61.8423 98.7855C61.769 98.6284 61.6957 98.4713 61.6224 98.3142C61.2226 97.446 60.8261 96.5607 60.443 95.6439C64.108 100.105 67.7097 102.398 71.9611 99.7708C72.3077 99.5538 72.201 98.4713 71.8445 98.5998C69.0291 99.6309 65.9505 96.7035 63.3717 92.865C64.8577 93.479 66.4036 93.6675 67.9863 93.3619C68.4594 93.2734 68.5194 91.8454 68.0262 91.7254C67.5265 91.6026 67.03 91.4199 66.5436 91.2028C66.3137 91.1 66.0871 90.9686 65.8605 90.8458C65.624 90.7173 65.3874 90.5888 65.1542 90.4402C64.851 90.2432 64.5545 90.029 64.2579 89.7976C64.1313 89.6977 64.0014 89.5949 63.8748 89.4892C63.5249 89.195 63.1751 88.8866 62.8352 88.5439C62.8019 88.5124 62.7719 88.4753 62.7386 88.4439C62.0722 87.767 61.4359 87.0073 60.8195 86.1448C60.8161 86.1419 60.8128 86.1391 60.8128 86.1391C59.3068 84.0513 57.9441 81.4781 56.7946 78.4507C56.5414 77.7253 56.2815 77.0113 56.0216 76.3173C55.7451 75.4633 55.4985 74.5922 55.2553 73.7269C57.7508 78.5678 60.8161 81.9208 64.0314 83.8943C64.5711 84.2227 64.7977 82.6062 64.3046 82.1207C61.3092 79.1933 58.7037 74.4837 56.6047 68.9774C59.2768 71.7448 62.1755 73.1728 65.4141 73.2414C65.4774 73.2442 65.5307 73.2014 65.574 73.1414C65.5807 73.13 65.5873 73.1214 65.5973 73.11C65.6806 72.9729 65.7173 72.7558 65.7106 72.5388C65.7106 72.5331 65.7106 72.5302 65.7106 72.5245C65.6973 72.2503 65.6173 71.9933 65.4507 71.9619C65.1942 71.9247 64.9343 71.8533 64.6811 71.7648C64.5378 71.7163 64.3945 71.6448 64.2546 71.582C64.1213 71.522 63.9847 71.4706 63.8514 71.3964C63.6749 71.2993 63.4983 71.1793 63.3217 71.0622C63.2417 71.008 63.1651 70.9623 63.0851 70.908C62.8919 70.7652 62.6986 70.6081 62.5054 70.4425C62.4487 70.3939 62.3921 70.3511 62.3388 70.2997C62.1289 70.114 61.9223 69.9141 61.7191 69.6999C61.6824 69.6628 61.6458 69.6285 61.6124 69.5914C61.3925 69.36 61.1726 69.1144 60.9561 68.8574C60.9394 68.8374 60.9228 68.8174 60.9028 68.7946C60.433 68.2348 59.9698 67.615 59.5167 66.9524C57.3344 63.748 55.3652 59.5125 53.7693 55.6741C54.9354 57.3505 56.1449 58.5215 57.351 58.9956C57.5076 59.0556 57.5909 58.5586 57.431 58.4701C50.031 54.5145 48.6049 32.6918 47.1189 19.6484C47.0856 19.3542 47.0123 19.1172 46.9223 18.9173C46.9124 18.8973 46.899 18.883 46.889 18.863C46.8024 18.6859 46.7024 18.5574 46.5892 18.4689C46.5858 18.466 46.5858 18.4603 46.5825 18.4574C46.5725 18.4489 46.5592 18.4489 46.5458 18.4403C46.4659 18.3889 46.3893 18.3432 46.3093 18.3346C46.2093 18.3203 46.1127 18.3346 46.0227 18.3975C45.9994 17.7806 45.9828 17.1751 45.9461 16.5611C45.9328 16.3783 45.9095 16.2212 45.8728 16.0841C45.8695 16.067 45.8628 16.0612 45.8562 16.0441C45.5996 15.1673 44.8933 15.4015 44.7033 16.4411C40.0088 42.3736 32.7054 67.8264 19.3547 73.4698C19.3447 73.4556 19.3314 73.4384 19.318 73.4242C18.9848 73.5641 18.6683 73.7526 18.3251 73.8725C18.1452 73.9211 18.1452 74.418 18.2618 74.6265C20.9973 79.5446 25.7785 76.203 29.8033 71.3707C29.2103 72.4417 28.6005 73.5041 27.9442 74.4952C25.7218 77.8281 23.013 82.7776 20.2509 83.5801C20.221 83.5801 20.191 83.5915 20.1577 83.5915C20.1377 83.5915 20.1243 83.6229 20.1043 83.6429H20.0944C20.091 83.6429 20.091 83.6429 20.0877 83.6429C20.0477 83.6715 20.0111 83.7115 19.9844 83.7715C19.9777 83.7915 19.9777 83.8114 19.9711 83.8314C19.8944 84.0685 19.9044 84.4255 20.0644 84.5454C20.4042 84.8053 20.7707 85.0395 21.1572 85.2594C21.1639 85.2623 21.1672 85.2651 21.1739 85.268C21.4904 85.4451 21.8202 85.6079 22.1634 85.7564C22.3034 85.8164 22.4533 85.8621 22.5966 85.9163C22.8331 86.0077 23.073 86.0963 23.3196 86.1705C23.4828 86.2191 23.6528 86.2562 23.8194 86.299C24.0592 86.359 24.2991 86.419 24.549 86.4647C24.7223 86.4961 24.8955 86.5218 25.0688 86.5447C25.322 86.5789 25.5786 86.6075 25.8384 86.6275C26.0117 86.6389 26.1816 86.6503 26.3582 86.6532C26.6314 86.6617 26.9046 86.656 27.1812 86.6446C27.3478 86.6389 27.511 86.6332 27.6776 86.6189C27.9842 86.5932 28.2874 86.5475 28.5939 86.4961C28.7305 86.4732 28.8671 86.459 29.007 86.4304C29.4502 86.339 29.8966 86.2248 30.3364 86.0763C28.9604 90.2403 27.3644 93.9503 25.0022 97.1461C24.3258 98.0686 23.6394 98.9883 22.9497 99.8908C22.9297 99.9165 22.9131 99.9422 22.8931 99.965C22.1867 100.876 21.4771 101.773 20.7574 102.627C20.3476 103.115 19.9344 103.589 19.5179 104.046C19.4613 104.106 19.408 104.169 19.3513 104.232C18.9915 104.623 18.625 104.994 18.2585 105.354C18.1585 105.454 18.0586 105.557 17.9553 105.654C17.6155 105.98 17.2723 106.277 16.9258 106.571C16.8058 106.671 16.6892 106.782 16.5693 106.879C16.1128 107.248 15.6497 107.591 15.1832 107.893C14.5035 107.933 13.8505 107.973 13.2707 108.03C13.0342 108.05 12.9642 108.616 13.1341 108.933C13.2841 109.201 13.4573 109.441 13.6206 109.687C13.6073 109.958 13.6372 110.227 13.7005 110.447C13.7005 110.449 13.7005 110.458 13.7005 110.461C13.7005 110.464 13.7039 110.464 13.7039 110.467C13.7339 110.575 13.7772 110.658 13.8272 110.729C13.8405 110.749 13.8505 110.778 13.8638 110.795C13.9271 110.864 14.0037 110.901 14.097 110.886C14.227 110.878 14.3702 110.829 14.5002 110.798C14.7601 111.066 15.0333 111.303 15.3132 111.515C15.4064 111.586 15.5064 111.638 15.603 111.7C15.7929 111.829 15.9829 111.96 16.1828 112.066C16.3127 112.134 16.4493 112.186 16.5826 112.246C16.7558 112.323 16.9224 112.406 17.099 112.466C17.2623 112.523 17.4289 112.563 17.5921 112.606C17.7454 112.646 17.8953 112.694 18.0486 112.726C18.2452 112.766 18.4451 112.788 18.645 112.814C18.7716 112.828 18.8949 112.851 19.0215 112.86C19.2581 112.88 19.498 112.883 19.7378 112.883C19.8278 112.883 19.9144 112.888 20.0044 112.886C20.2909 112.88 20.5775 112.857 20.8673 112.826C20.9073 112.82 20.944 112.82 20.984 112.814C21.4437 112.763 21.9035 112.691 22.3633 112.591C21.2871 114.382 20.1343 116.019 18.9082 117.05C17.822 117.427 16.6692 117.515 15.4264 117.21C15.2832 117.181 15.1865 117.607 15.2865 117.824C15.3232 117.892 15.3631 117.944 15.3965 118.012C15.2365 117.984 15.2032 118.458 15.3132 118.638C15.753 119.372 16.2294 119.817 16.7225 120.066C16.8791 120.263 17.0457 120.423 17.209 120.583C17.2156 120.588 17.2223 120.594 17.229 120.6C17.8554 121.222 18.5084 121.654 19.1881 121.873C19.1948 121.876 19.1981 121.879 19.2047 121.882C19.4546 121.953 19.7045 122.019 19.9644 122.051C17.3489 124.538 14.3802 126.097 11.6648 126.235C11.3316 126.195 10.9984 126.115 10.6586 126.018C10.2887 125.769 9.92223 125.503 9.55906 125.215C8.90602 124.678 8.54952 126.443 8.8827 127.466C10.492 132.438 13.7472 134.791 16.8258 135.891C17.2423 136.042 17.6554 136.168 18.0586 136.273C17.6688 137.207 17.2623 138.118 16.8291 138.992C16.5493 139.558 16.2261 140.152 15.8896 140.752C15.7463 141.003 15.593 141.263 15.4431 141.517C15.2499 141.848 15.0499 142.183 14.84 142.52C14.6201 142.871 14.3969 143.225 14.167 143.579C14.0337 143.785 13.8938 143.988 13.7572 144.193C11.9613 146.858 9.84893 149.48 7.74987 151.407C7.74654 151.41 7.74321 151.413 7.73988 151.416C7.34672 151.776 6.95356 152.116 6.56374 152.43C6.11727 152.781 5.6708 153.118 5.23766 153.384C3.43181 153.432 1.66593 153.135 0.0033391 152.353C-0.136598 152.293 -0.333176 152.621 -0.226557 152.961C0.0666449 153.884 0.406492 154.68 0.769663 155.392C0.802981 155.457 0.832969 155.534 0.866287 155.6C0.866287 155.603 0.869619 155.606 0.872951 155.609C1.16615 156.154 1.47935 156.625 1.8092 157.051C1.87584 157.137 1.94247 157.217 2.00911 157.299C2.3323 157.691 2.66548 158.045 3.01866 158.333C3.02532 158.339 3.03198 158.348 3.04198 158.353C3.40182 158.647 3.77499 158.879 4.15815 159.079C4.24811 159.124 4.33473 159.167 4.42469 159.21C4.80786 159.387 5.19435 159.538 5.59084 159.636C4.1215 160.261 2.64549 160.807 1.16282 161.332C0.916264 161.421 0.989564 162.115 1.18947 162.195C3.70168 163.166 6.89359 163.206 9.98887 161.938C9.11926 163.177 8.26964 164.299 7.50998 165.29C7.09683 165.822 6.67702 166.304 6.25054 166.75C6.21389 166.787 6.17724 166.818 6.14059 166.856C5.7441 167.264 5.34095 167.641 4.93447 167.981C4.91114 168.001 4.88449 168.018 4.86117 168.041C4.33807 168.472 3.8083 168.849 3.26854 169.175C3.22856 169.2 3.18858 169.226 3.14527 169.252C2.58552 169.583 2.0191 169.863 1.44936 170.086C1.42937 170.094 1.40938 170.097 1.38939 170.106C0.876282 170.303 0.359847 170.448 -0.15992 170.566C-0.283199 170.594 -0.409809 170.623 -0.533087 170.645C-1.07285 170.748 -1.61927 170.823 -2.16236 170.845C-2.87537 170.528 -3.58505 170.231 -4.30473 169.963C-4.47132 169.903 -4.54463 170.4 -4.45133 170.637C-4.42801 170.697 -4.40136 170.737 -4.3747 170.797C-4.50798 170.885 -4.54463 171.282 -4.42468 171.462C-4.10482 171.968 -3.7783 172.405 -3.44512 172.802C-3.23521 173.21 -3.00865 173.547 -2.79208 173.913C-2.78874 173.918 -2.78541 173.921 -2.78208 173.924C-1.22278 176.546 0.576416 178.254 2.52221 179.236C2.53887 179.245 2.55886 179.251 2.57552 179.259C3.04198 179.493 3.5151 179.696 3.99489 179.85C4.05486 179.87 4.11483 179.879 4.17147 179.899C4.61461 180.033 5.06108 180.153 5.51421 180.23C5.65414 180.253 5.80075 180.259 5.94068 180.276C6.31718 180.325 6.69701 180.376 7.08017 180.39C7.61327 180.41 8.14969 180.396 8.68612 180.347C8.2763 180.642 7.85982 180.896 7.44334 181.127C7.06018 181.333 6.67369 181.507 6.28719 181.664C6.25388 181.678 6.22056 181.695 6.18724 181.71C5.20101 181.71 4.22145 181.77 3.24189 181.918C3.09529 181.938 2.97201 182.075 2.88205 182.272C2.1757 182.11 1.48601 181.924 0.8363 181.71C0.336523 181.541 0.2399 183.009 0.556425 183.543C7.0935 194.724 17.7454 189.655 25.7918 183.949C25.5419 185.414 25.242 186.853 24.9655 188.304C24.7056 189.655 24.4624 191.009 24.1759 192.351C23.6528 194.807 23.0963 197.255 22.4833 199.711C22.46 199.814 22.46 199.914 22.4733 200.005C22.4766 200.017 22.4799 200.022 22.4799 200.031C22.5066 200.177 22.5666 200.274 22.6399 200.259C22.6732 200.259 22.7065 200.239 22.7365 200.177C23.0397 199.591 23.3396 199.028 23.6394 198.452C23.876 198.043 24.1092 197.598 24.3458 197.161C24.1059 197.775 23.8727 198.4 23.6161 198.986C23.4995 199.254 23.6594 199.651 23.796 199.414C27.4277 192.868 30.9362 187.173 33.7083 179.011C34.1514 183.543 34.8444 187.47 36.0539 191.529C36.1405 191.846 36.3737 191.589 36.2904 191.26C35.674 188.95 35.2476 186.291 34.9444 183.495C35.2676 184.594 35.6041 185.637 35.9373 186.599C36.5437 188.358 37.2234 189.961 37.923 191.514C37.4466 208.093 36.4804 225.481 36.4804 225.481C43.1907 231.701 46.146 224.013 46.146 224.013C45.8395 216.11 45.8128 199.98 45.8462 187.416C46.939 190.226 48.1218 192.879 49.2213 195.456C49.3246 195.696 49.4912 195.356 49.3946 195.11C48.2484 192.123 47.1889 188.83 46.2526 185.428C47.742 188.364 49.3513 190.983 51.0772 193.105C51.5236 193.662 51.9834 194.145 52.4499 194.607C52.6764 194.836 52.8997 195.059 53.1262 195.27C53.1329 195.276 53.1396 195.281 53.1429 195.287C53.1729 195.313 53.1995 195.333 53.2295 195.359C54.6222 196.629 56.0649 197.589 57.5376 198.352C57.6376 198.403 57.7342 198.46 57.8341 198.509C58.2439 198.714 58.6571 198.9 59.0702 199.08C59.2402 199.154 59.4134 199.228 59.5834 199.3C59.9632 199.457 60.343 199.605 60.7262 199.748C60.9494 199.831 61.1726 199.911 61.3925 199.988C61.7391 200.108 62.0856 200.231 62.4321 200.345C62.7619 200.454 63.0884 200.559 63.4183 200.662C64.2079 200.913 64.9976 201.159 65.7839 201.416C65.8605 201.439 65.9272 201.425 65.9872 201.393C66.0105 201.382 66.0271 201.365 66.0471 201.348C66.0838 201.316 66.1204 201.276 66.1504 201.228C66.1671 201.202 66.1837 201.176 66.2004 201.142C66.2337 201.071 66.2637 200.988 66.287 200.896C66.2937 200.876 66.3003 200.865 66.3037 200.845C66.3303 200.731 66.347 200.608 66.357 200.476C66.3603 200.437 66.3603 200.399 66.3637 200.357C66.367 200.259 66.3703 200.162 66.3637 200.062C66.3637 200.02 66.3603 199.98 66.357 199.937C66.347 199.825 66.3337 199.72 66.3137 199.617C66.3103 199.591 66.307 199.565 66.3003 199.543C66.2937 199.508 66.277 199.48 66.2704 199.448C66.2104 199.226 66.1238 199.031 66.0005 198.926C65.4507 198.466 64.901 198.049 64.3545 197.646C64.0214 197.398 63.6882 197.152 63.3517 196.918C62.8452 196.395 62.3521 195.83 61.8657 195.221C61.8323 195.101 61.789 194.996 61.7157 194.944C61.6158 194.876 61.5291 194.756 61.4325 194.676C60.5363 193.476 59.69 192.108 58.927 190.469C58.857 190.329 58.7904 190.166 58.7204 190.004C63.7781 197.146 70.0453 200.996 75.966 199.985C75.976 199.982 75.9893 199.982 75.9993 199.98C76.5091 199.891 77.0122 199.762 77.5153 199.6C77.562 199.585 77.6053 199.571 77.6519 199.557C78.1317 199.397 78.6082 199.2 79.0813 198.969C79.1446 198.937 79.2112 198.906 79.2745 198.871C79.731 198.64 80.1841 198.374 80.6306 198.077C80.7072 198.026 80.7839 197.972 80.8605 197.917C81.297 197.615 81.7301 197.283 82.1566 196.912C82.2399 196.841 82.3198 196.761 82.4031 196.687C82.823 196.31 83.2361 195.91 83.6426 195.467C83.6626 195.444 83.6859 195.427 83.7059 195.404C84.0824 194.976 84.4589 194.57 84.8254 194.093C85.1253 193.708 84.9753 192.577 84.6155 192.805C84.279 193.022 83.9325 193.162 83.5893 193.342C83.546 193.302 83.4993 193.254 83.4427 193.242C83.0395 193.111 82.6364 192.965 82.2266 192.794C82.2266 192.794 82.2232 192.797 82.2199 192.797C78.6415 191.357 75.1664 188.424 72.1977 183.897C72.9807 184.534 73.7703 185.137 74.5633 185.762C74.9465 186.071 75.1064 184.84 74.7566 184.483C72.8507 182.558 70.7917 180.576 69.0958 177.737C71.4514 179.413 73.8536 180.456 75.7028 180.813C79.3245 181.527 85.785 182.409 88.2205 175.118C88.4838 174.413 88.0739 173.467 87.7241 173.887Z" fill="#233A2D"/>
</svg>
