<svg width="557" height="300" viewBox="0 0 557 300" fill="none" xmlns="http://www.w3.org/2000/svg">
<path d="M345.556 260.648C345.106 261.168 344.629 261.545 344.133 261.861C344.125 261.514 344.028 261.195 343.842 261.05C343.807 261.029 343.78 260.993 343.74 260.978C343.468 260.899 343.196 260.769 342.926 260.612C342.869 260.581 342.816 260.545 342.759 260.511C342.498 260.348 342.236 260.161 341.975 259.942C341.616 259.641 341.258 259.289 340.905 258.894C340.902 258.892 340.902 258.89 340.899 258.887C340.199 258.107 339.506 257.16 338.835 256.124C338.822 256.104 338.808 256.084 338.795 256.064C338.474 255.568 338.159 255.048 337.849 254.518C337.811 254.456 337.776 254.393 337.738 254.328C337.436 253.805 337.14 253.274 336.851 252.735C336.841 252.715 336.83 252.695 336.819 252.675C336.555 252.184 336.302 251.688 336.051 251.194C335.981 251.055 335.908 250.916 335.841 250.777C335.612 250.32 335.388 249.867 335.172 249.423C335.084 249.243 335 249.064 334.914 248.887C334.704 248.447 334.493 248.01 334.297 247.595C333.477 245.865 332.715 244.096 331.992 242.284C333.696 243.905 335.517 244.836 337.288 246.213C337.501 246.383 337.657 245.706 337.466 245.45C335.361 242.741 332.895 241.732 330.863 238.755C330.774 238.621 330.683 238.509 330.594 238.374C330.532 238.269 330.472 238.163 330.41 238.065C330.133 237.282 329.858 236.497 329.594 235.694C333.388 237.621 337.45 237.585 341.188 235.772C341.689 235.532 341.632 233.924 341.118 233.888C340.81 233.871 340.501 233.846 340.191 233.821C340.288 233.788 340.382 233.756 340.476 233.714C340.554 233.678 340.546 233.424 340.463 233.417C340.261 233.393 340.064 233.343 339.864 233.308C339.827 233.267 339.8 233.207 339.751 233.193C336.118 232.092 332.844 228.804 329.898 224.289C329.58 223.809 329.268 223.286 328.955 222.757C330.526 223.291 332.111 223.414 333.674 223.051C335.251 222.93 336.798 222.217 338.14 220.873C339.067 220.548 339.972 219.992 340.837 219.025C340.902 218.947 340.883 218.736 340.81 218.729C340.005 218.639 339.204 218.603 338.406 218.576C338.412 218.184 338.304 217.769 338.086 217.769C335.822 217.803 333.798 216.834 331.968 215.138C331.572 214.768 331.187 214.369 330.807 213.936C330.798 213.927 330.79 213.918 330.782 213.909C330.4 213.469 330.028 213.001 329.664 212.498C329.289 211.985 328.925 211.44 328.567 210.865C328.562 210.859 328.559 210.852 328.554 210.843C327.866 209.737 327.211 208.524 326.586 207.232C326.532 207.122 326.478 207.01 326.427 206.898C326.133 206.281 325.845 205.649 325.565 204.998C328.249 208.172 330.89 209.802 334.003 207.932C334.256 207.777 334.178 207.008 333.917 207.1C331.855 207.833 329.599 205.752 327.71 203.022C328.799 203.46 329.933 203.594 331.092 203.374C331.44 203.312 331.483 202.296 331.122 202.21C330.755 202.123 330.392 201.993 330.033 201.838C329.866 201.764 329.699 201.672 329.535 201.585C329.362 201.495 329.19 201.401 329.017 201.295C328.796 201.156 328.578 201.004 328.36 200.84C328.265 200.77 328.174 200.696 328.079 200.62C327.823 200.409 327.567 200.192 327.317 199.947C327.292 199.925 327.271 199.898 327.246 199.875C326.759 199.395 326.292 198.853 325.84 198.24C325.837 198.238 325.837 198.238 325.834 198.236C324.732 196.751 323.732 194.921 322.889 192.766C322.703 192.25 322.511 191.743 322.323 191.249C322.118 190.642 321.94 190.023 321.762 189.408C323.592 192.851 325.837 195.235 328.192 196.639C328.589 196.872 328.753 195.722 328.395 195.376C326.198 193.295 324.29 189.944 322.754 186.028C324.713 187.995 326.837 189.013 329.208 189.06C329.257 189.063 329.292 189.031 329.324 188.989C329.33 188.982 329.335 188.973 329.341 188.966C329.4 188.87 329.429 188.715 329.424 188.56C329.424 188.558 329.424 188.553 329.424 188.551C329.416 188.356 329.354 188.174 329.233 188.152C329.044 188.125 328.855 188.076 328.669 188.013C328.564 187.977 328.459 187.928 328.357 187.883C328.26 187.84 328.16 187.802 328.063 187.751C327.934 187.681 327.804 187.598 327.675 187.513C327.618 187.475 327.559 187.443 327.503 187.403C327.36 187.302 327.22 187.19 327.077 187.071C327.036 187.037 326.996 187.006 326.953 186.97C326.799 186.838 326.648 186.694 326.497 186.544C326.47 186.517 326.443 186.492 326.419 186.465C326.257 186.302 326.098 186.127 325.939 185.945C325.926 185.929 325.915 185.916 325.902 185.9C325.557 185.501 325.22 185.061 324.886 184.59C323.288 182.312 321.843 179.299 320.676 176.57C321.53 177.761 322.417 178.595 323.301 178.934C323.417 178.976 323.476 178.622 323.36 178.559C317.938 175.744 316.895 160.224 315.806 150.945C315.782 150.737 315.728 150.568 315.663 150.425C315.655 150.409 315.647 150.4 315.639 150.387C315.574 150.261 315.502 150.169 315.418 150.106C315.415 150.104 315.415 150.1 315.413 150.1C315.405 150.093 315.394 150.095 315.386 150.088C315.329 150.05 315.273 150.019 315.213 150.012C315.141 150.001 315.07 150.012 315.003 150.057C314.987 149.62 314.973 149.189 314.947 148.752C314.938 148.622 314.92 148.509 314.893 148.413C314.89 148.402 314.885 148.395 314.882 148.384C314.693 147.76 314.176 147.926 314.038 148.666C310.599 167.112 305.247 185.216 295.467 189.231C295.459 189.22 295.451 189.208 295.44 189.199C295.198 189.298 294.963 189.433 294.712 189.518C294.58 189.554 294.58 189.906 294.667 190.054C296.672 193.553 300.175 191.175 303.124 187.739C302.69 188.502 302.242 189.255 301.76 189.962C300.132 192.333 298.146 195.854 296.125 196.424C296.103 196.424 296.079 196.43 296.057 196.43C296.044 196.43 296.033 196.453 296.02 196.466C296.017 196.466 296.014 196.466 296.011 196.466C295.985 196.486 295.955 196.516 295.936 196.558C295.931 196.572 295.931 196.587 295.925 196.601C295.869 196.769 295.877 197.025 295.995 197.108C296.243 197.292 296.513 197.46 296.796 197.615C296.801 197.617 296.804 197.619 296.806 197.621C297.038 197.747 297.281 197.864 297.531 197.969C297.634 198.012 297.742 198.043 297.847 198.083C298.022 198.148 298.194 198.211 298.375 198.265C298.494 198.301 298.617 198.328 298.741 198.357C298.917 198.4 299.095 198.442 299.275 198.474C299.402 198.496 299.528 198.514 299.655 198.53C299.841 198.554 300.03 198.575 300.218 198.588C300.345 198.597 300.472 198.604 300.598 198.606C300.798 198.61 301 198.608 301.202 198.599C301.323 198.595 301.445 198.59 301.566 198.581C301.79 198.563 302.013 198.53 302.237 198.494C302.337 198.478 302.439 198.467 302.539 198.447C302.865 198.382 303.188 198.301 303.512 198.196C302.504 201.158 301.334 203.796 299.604 206.068C299.108 206.723 298.607 207.378 298.1 208.019C298.087 208.037 298.073 208.055 298.06 208.073C297.545 208.724 297.025 209.363 296.499 209.971C296.2 210.318 295.896 210.655 295.591 210.98C295.551 211.022 295.51 211.067 295.47 211.112C295.206 211.39 294.939 211.655 294.669 211.911C294.594 211.98 294.521 212.056 294.448 212.124C294.2 212.355 293.947 212.568 293.694 212.774C293.608 212.846 293.521 212.924 293.432 212.994C293.098 213.256 292.761 213.501 292.416 213.716C291.918 213.743 291.438 213.772 291.015 213.815C290.842 213.828 290.789 214.232 290.915 214.456C291.026 214.647 291.152 214.817 291.274 214.992C291.266 215.185 291.287 215.376 291.33 215.533C291.33 215.535 291.33 215.54 291.33 215.542C291.33 215.544 291.333 215.544 291.333 215.546C291.354 215.625 291.387 215.683 291.425 215.735C291.435 215.748 291.441 215.771 291.452 215.782C291.5 215.831 291.554 215.858 291.621 215.847C291.716 215.84 291.821 215.804 291.918 215.784C292.109 215.975 292.309 216.143 292.513 216.293C292.581 216.343 292.656 216.381 292.726 216.426C292.866 216.517 293.007 216.609 293.152 216.686C293.246 216.735 293.346 216.771 293.443 216.814C293.57 216.867 293.694 216.928 293.823 216.971C293.942 217.011 294.063 217.038 294.184 217.071C294.295 217.101 294.405 217.134 294.518 217.157C294.661 217.186 294.809 217.202 294.955 217.22C295.047 217.231 295.138 217.246 295.233 217.253C295.405 217.267 295.58 217.269 295.758 217.269C295.823 217.269 295.887 217.271 295.955 217.269C296.165 217.264 296.375 217.249 296.585 217.226C296.612 217.224 296.642 217.222 296.669 217.22C297.006 217.181 297.343 217.132 297.68 217.06C296.887 218.33 296.044 219.494 295.146 220.227C294.351 220.496 293.508 220.559 292.594 220.342C292.489 220.321 292.419 220.624 292.492 220.779C292.519 220.828 292.548 220.864 292.573 220.914C292.457 220.893 292.43 221.232 292.513 221.36C292.837 221.882 293.184 222.199 293.546 222.376C293.661 222.517 293.783 222.629 293.904 222.744C293.909 222.748 293.915 222.75 293.92 222.757C294.378 223.201 294.858 223.506 295.354 223.663C295.357 223.665 295.362 223.668 295.365 223.67C295.548 223.719 295.731 223.769 295.923 223.791C294.006 225.561 291.832 226.669 289.843 226.767C289.6 226.74 289.355 226.682 289.107 226.613C288.837 226.438 288.565 226.247 288.301 226.041C287.821 225.659 287.563 226.915 287.805 227.642C288.986 231.179 291.368 232.852 293.626 233.635C293.931 233.743 294.233 233.832 294.532 233.909C294.246 234.573 293.95 235.221 293.629 235.842C293.422 236.243 293.187 236.665 292.942 237.094C292.837 237.273 292.724 237.457 292.616 237.639C292.473 237.874 292.327 238.112 292.174 238.352C292.015 238.603 291.85 238.854 291.681 239.105C291.584 239.251 291.481 239.397 291.381 239.543C290.066 241.438 288.517 243.304 286.98 244.674C286.978 244.677 286.975 244.679 286.972 244.681C286.684 244.937 286.396 245.177 286.11 245.401C285.784 245.65 285.458 245.89 285.137 246.081C283.814 246.114 282.52 245.904 281.302 245.347C281.2 245.305 281.054 245.538 281.132 245.778C281.348 246.435 281.596 247 281.863 247.507C281.887 247.554 281.908 247.608 281.935 247.655C281.935 247.657 281.938 247.66 281.938 247.662C282.151 248.05 282.383 248.384 282.625 248.687C282.674 248.747 282.722 248.806 282.771 248.864C283.008 249.142 283.253 249.393 283.509 249.6C283.515 249.604 283.52 249.611 283.526 249.615C283.79 249.824 284.065 249.99 284.342 250.131C284.407 250.165 284.471 250.194 284.536 250.225C284.816 250.351 285.099 250.459 285.39 250.528C284.315 250.972 283.232 251.36 282.146 251.735C281.965 251.798 282.019 252.291 282.167 252.349C284.008 253.04 286.347 253.069 288.614 252.166C287.975 253.047 287.355 253.845 286.797 254.552C286.495 254.929 286.188 255.274 285.876 255.59C285.849 255.617 285.822 255.64 285.795 255.667C285.504 255.956 285.21 256.225 284.911 256.467C284.892 256.483 284.876 256.494 284.857 256.51C284.474 256.817 284.083 257.084 283.69 257.317C283.66 257.335 283.631 257.356 283.601 257.371C283.191 257.607 282.776 257.806 282.356 257.966C282.342 257.97 282.326 257.975 282.313 257.981C281.938 258.123 281.558 258.224 281.178 258.309C281.087 258.329 280.995 258.349 280.903 258.365C280.507 258.439 280.108 258.49 279.709 258.506C279.187 258.28 278.666 258.069 278.141 257.878C278.02 257.836 277.966 258.19 278.033 258.358C278.049 258.401 278.068 258.428 278.09 258.47C277.993 258.533 277.966 258.816 278.052 258.944C278.286 259.302 278.526 259.614 278.772 259.894C278.925 260.184 279.09 260.424 279.251 260.686C279.254 260.688 279.254 260.691 279.257 260.695C280.399 262.559 281.717 263.775 283.143 264.474C283.156 264.481 283.17 264.486 283.183 264.492C283.526 264.658 283.87 264.802 284.224 264.914C284.267 264.927 284.31 264.934 284.353 264.948C284.679 265.044 285.005 265.129 285.337 265.183C285.439 265.201 285.544 265.203 285.649 265.217C285.927 265.25 286.202 265.289 286.482 265.298C286.873 265.311 287.263 265.3 287.66 265.268C287.358 265.479 287.053 265.659 286.749 265.822C286.468 265.97 286.185 266.094 285.9 266.204C285.876 266.213 285.851 266.226 285.827 266.235C285.105 266.235 284.388 266.278 283.668 266.383C283.561 266.397 283.472 266.495 283.404 266.637C282.887 266.52 282.383 266.39 281.906 266.235C281.539 266.114 281.469 267.159 281.701 267.54C286.49 275.494 294.292 271.887 300.189 267.83C300.008 268.873 299.787 269.898 299.582 270.927C299.394 271.887 299.213 272.852 299.006 273.807C298.623 275.554 298.213 277.295 297.766 279.042C297.747 279.116 297.75 279.185 297.76 279.253C297.76 279.259 297.763 279.264 297.766 279.271C297.785 279.374 297.831 279.441 297.882 279.432C297.906 279.432 297.93 279.419 297.955 279.372C298.176 278.954 298.397 278.553 298.618 278.145C298.793 277.853 298.962 277.537 299.135 277.227C298.96 277.665 298.787 278.109 298.601 278.526C298.515 278.717 298.634 278.999 298.733 278.831C301.393 274.175 303.964 270.124 305.994 264.317C306.32 267.54 306.826 270.335 307.713 273.222C307.778 273.448 307.948 273.264 307.888 273.031C307.438 271.387 307.126 269.496 306.902 267.507C307.139 268.29 307.384 269.032 307.63 269.716C308.074 270.968 308.57 272.107 309.082 273.213C308.732 285.006 308.023 297.373 308.023 297.373C312.941 301.798 315.106 296.33 315.106 296.33C314.882 290.709 314.86 279.235 314.887 270.299C315.688 272.3 316.553 274.186 317.361 276.016C317.437 276.187 317.561 275.947 317.488 275.769C316.65 273.645 315.871 271.302 315.186 268.884C316.278 270.972 317.458 272.834 318.72 274.345C319.048 274.742 319.385 275.085 319.725 275.413C319.889 275.574 320.054 275.734 320.221 275.884C320.226 275.888 320.229 275.893 320.234 275.897C320.256 275.915 320.277 275.931 320.299 275.949C321.32 276.853 322.377 277.535 323.455 278.077C323.527 278.113 323.597 278.154 323.67 278.19C323.969 278.335 324.271 278.468 324.576 278.595C324.7 278.649 324.826 278.703 324.95 278.752C325.228 278.862 325.508 278.97 325.788 279.071C325.95 279.129 326.115 279.185 326.279 279.241C326.532 279.327 326.786 279.414 327.039 279.495C327.282 279.573 327.521 279.647 327.761 279.721C328.341 279.899 328.92 280.076 329.494 280.257C329.551 280.273 329.599 280.264 329.645 280.242C329.661 280.235 329.675 280.222 329.691 280.21C329.718 280.188 329.745 280.159 329.766 280.125C329.78 280.105 329.791 280.087 329.801 280.065C329.826 280.013 329.847 279.955 329.866 279.89C329.869 279.876 329.874 279.867 329.877 279.854C329.896 279.773 329.909 279.683 329.917 279.591C329.92 279.562 329.92 279.535 329.923 279.508C329.925 279.439 329.925 279.369 329.923 279.3C329.923 279.268 329.92 279.239 329.917 279.21C329.912 279.132 329.901 279.055 329.885 278.981C329.882 278.963 329.88 278.945 329.877 278.927V278.925C329.871 278.901 329.861 278.883 329.855 278.86C329.809 278.701 329.747 278.564 329.656 278.488C329.252 278.16 328.85 277.864 328.448 277.579C328.203 277.402 327.958 277.23 327.715 277.064C327.346 276.691 326.982 276.29 326.627 275.857C326.602 275.772 326.57 275.695 326.516 275.66C326.443 275.61 326.381 275.525 326.309 275.469C325.651 274.614 325.034 273.641 324.473 272.477C324.422 272.376 324.374 272.262 324.322 272.147C328.028 277.23 332.62 279.968 336.957 279.248C336.965 279.246 336.973 279.246 336.981 279.244C337.353 279.181 337.725 279.089 338.091 278.975C338.124 278.963 338.156 278.954 338.191 278.943C338.544 278.829 338.892 278.687 339.237 278.526C339.285 278.504 339.331 278.481 339.379 278.456C339.714 278.29 340.045 278.104 340.374 277.891C340.43 277.855 340.484 277.815 340.541 277.779C340.862 277.564 341.177 277.328 341.49 277.064C341.552 277.012 341.611 276.956 341.67 276.902C341.977 276.633 342.279 276.35 342.578 276.034C342.595 276.018 342.611 276.005 342.624 275.989C342.899 275.684 343.177 275.395 343.443 275.056C343.662 274.78 343.554 273.977 343.29 274.139C343.042 274.294 342.791 274.392 342.538 274.52C342.506 274.491 342.471 274.455 342.43 274.448C342.136 274.356 341.84 274.251 341.541 274.13C341.538 274.13 341.538 274.13 341.535 274.132C338.913 273.109 336.369 271.021 334.192 267.801C334.766 268.254 335.342 268.682 335.924 269.126C336.205 269.344 336.323 268.471 336.067 268.216C334.671 266.845 333.162 265.434 331.92 263.418C333.647 264.611 335.404 265.351 336.76 265.605C339.414 266.112 344.147 266.74 345.931 261.554C346.114 261.023 345.812 260.352 345.556 260.648Z" fill="#233A2D"/>
<path d="M519.614 220.571C518.944 221.267 518.234 221.769 517.495 222.195C517.483 221.73 517.339 221.303 517.062 221.108C517.01 221.081 516.97 221.033 516.909 221.012C516.504 220.907 516.099 220.733 515.698 220.523C515.613 220.481 515.533 220.433 515.449 220.385C515.06 220.165 514.67 219.916 514.281 219.622C513.747 219.22 513.218 218.748 512.688 218.22C512.684 218.217 512.684 218.214 512.68 218.211C511.637 217.166 510.605 215.899 509.606 214.511C509.586 214.484 509.566 214.457 509.546 214.43C509.068 213.764 508.599 213.07 508.141 212.362C508.085 212.277 508.033 212.193 507.977 212.106C507.527 211.407 507.086 210.695 506.657 209.975C506.641 209.947 506.624 209.92 506.608 209.893C506.215 209.236 505.838 208.572 505.465 207.912C505.36 207.726 505.252 207.539 505.152 207.356C504.811 206.744 504.478 206.137 504.157 205.54C504.024 205.296 503.9 205.059 503.771 204.822C503.458 204.234 503.145 203.648 502.852 203.093C501.632 200.778 500.497 198.408 499.421 195.982C501.957 198.153 504.67 199.399 507.307 201.243C507.624 201.471 507.856 200.564 507.572 200.222C504.437 196.595 500.766 195.244 497.74 191.259C497.608 191.079 497.471 190.929 497.339 190.749C497.246 190.608 497.158 190.467 497.066 190.334C496.656 189.287 496.243 188.236 495.85 187.161C501.5 189.74 507.547 189.692 513.113 187.266C513.86 186.944 513.775 184.792 513.009 184.744C512.551 184.72 512.09 184.684 511.629 184.651C511.773 184.605 511.913 184.563 512.054 184.506C512.17 184.458 512.158 184.119 512.034 184.11C511.733 184.077 511.44 184.011 511.143 183.963C511.087 183.909 511.047 183.828 510.974 183.81C505.565 182.335 500.689 177.934 496.303 171.889C495.83 171.247 495.364 170.547 494.899 169.839C497.238 170.553 499.598 170.718 501.925 170.232C504.273 170.073 506.576 169.115 508.575 167.316C509.955 166.881 511.304 166.136 512.592 164.842C512.688 164.737 512.66 164.455 512.552 164.446C511.352 164.326 510.16 164.278 508.972 164.242C508.98 163.716 508.82 163.161 508.494 163.161C505.124 163.206 502.11 161.909 499.385 159.639C498.795 159.143 498.222 158.609 497.656 158.029C497.644 158.017 497.632 158.005 497.62 157.993C497.05 157.405 496.496 156.777 495.954 156.105C495.396 155.417 494.855 154.688 494.325 153.919C494.317 153.91 494.313 153.901 494.305 153.889C493.282 152.409 492.306 150.784 491.376 149.055C491.295 148.907 491.215 148.757 491.139 148.607C490.701 147.781 490.272 146.938 489.855 146.064C493.851 150.313 497.784 152.496 502.419 149.991C502.796 149.784 502.68 148.754 502.291 148.877C499.217 149.859 495.862 147.073 493.049 143.419C494.67 144.004 496.36 144.184 498.085 143.89C498.603 143.806 498.667 142.446 498.129 142.332C497.583 142.215 497.042 142.041 496.508 141.833C496.259 141.734 496.01 141.611 495.766 141.494C495.509 141.374 495.248 141.248 494.995 141.107C494.666 140.921 494.341 140.716 494.016 140.497C493.875 140.404 493.735 140.305 493.599 140.203C493.217 139.921 492.836 139.629 492.463 139.302C492.427 139.272 492.395 139.236 492.359 139.206C491.632 138.564 490.934 137.837 490.264 137.017C490.26 137.014 490.26 137.014 490.256 137.011C488.615 135.023 487.126 132.573 485.87 129.688C485.593 128.997 485.308 128.319 485.027 127.655C484.722 126.841 484.457 126.013 484.192 125.19C486.917 129.799 490.26 132.994 493.767 134.87C494.357 135.183 494.602 133.642 494.068 133.18C490.798 130.393 487.957 125.908 485.669 120.665C488.587 123.298 491.749 124.661 495.28 124.724C495.352 124.727 495.404 124.685 495.453 124.628C495.461 124.619 495.469 124.61 495.477 124.598C495.565 124.469 495.609 124.262 495.601 124.055C495.601 124.049 495.601 124.046 495.601 124.043C495.589 123.782 495.497 123.538 495.316 123.508C495.035 123.472 494.754 123.406 494.477 123.322C494.321 123.274 494.164 123.208 494.012 123.148C493.868 123.091 493.719 123.04 493.575 122.971C493.382 122.878 493.189 122.767 492.997 122.653C492.912 122.602 492.824 122.56 492.74 122.506C492.527 122.37 492.319 122.22 492.106 122.061C492.046 122.016 491.985 121.974 491.921 121.926C491.693 121.749 491.468 121.557 491.243 121.356C491.203 121.32 491.163 121.286 491.127 121.25C490.886 121.031 490.649 120.797 490.412 120.554C490.392 120.533 490.372 120.515 490.356 120.494C489.843 119.959 489.341 119.371 488.843 118.74C486.464 115.69 484.313 111.657 482.575 108.003C483.847 109.6 485.168 110.714 486.484 111.168C486.656 111.225 486.745 110.75 486.572 110.666C478.498 106.898 476.945 86.12 475.324 73.6982C475.288 73.4189 475.208 73.1937 475.111 73.0016C475.099 72.9806 475.087 72.9685 475.075 72.9505C474.979 72.7824 474.87 72.6593 474.746 72.5752C474.742 72.5722 474.742 72.5692 474.738 72.5662C474.726 72.5572 474.71 72.5602 474.698 72.5512C474.614 72.5001 474.529 72.4581 474.441 72.4491C474.333 72.4341 474.228 72.4491 474.128 72.5091C474.104 71.9236 474.084 71.3471 474.044 70.7616C474.032 70.5875 474.004 70.4373 473.964 70.3082C473.96 70.2932 473.952 70.2842 473.948 70.2692C473.667 69.4345 472.896 69.6567 472.691 70.6475C467.571 95.341 459.601 119.575 445.039 124.953C445.027 124.938 445.015 124.923 444.999 124.911C444.637 125.043 444.288 125.223 443.915 125.337C443.718 125.385 443.718 125.856 443.847 126.055C446.832 130.739 452.049 127.556 456.439 122.956C455.793 123.977 455.127 124.986 454.409 125.932C451.985 129.105 449.027 133.819 446.018 134.582C445.986 134.582 445.954 134.591 445.917 134.591C445.897 134.591 445.881 134.621 445.861 134.639C445.857 134.639 445.853 134.639 445.849 134.639C445.809 134.666 445.765 134.705 445.737 134.762C445.729 134.78 445.729 134.801 445.721 134.819C445.637 135.044 445.649 135.387 445.825 135.498C446.194 135.744 446.596 135.969 447.017 136.176C447.021 136.179 447.029 136.182 447.033 136.185C447.378 136.354 447.739 136.51 448.113 136.651C448.265 136.708 448.426 136.75 448.582 136.804C448.843 136.891 449.1 136.975 449.369 137.047C449.545 137.095 449.73 137.128 449.914 137.17C450.175 137.227 450.44 137.284 450.709 137.326C450.897 137.356 451.086 137.38 451.275 137.402C451.552 137.435 451.832 137.462 452.113 137.48C452.302 137.492 452.491 137.501 452.679 137.504C452.976 137.51 453.277 137.507 453.578 137.495C453.759 137.489 453.939 137.483 454.12 137.471C454.453 137.447 454.786 137.401 455.119 137.353C455.268 137.332 455.42 137.317 455.568 137.29C456.054 137.203 456.536 137.095 457.017 136.954C455.516 140.921 453.775 144.452 451.198 147.493C450.46 148.37 449.714 149.247 448.959 150.106C448.939 150.13 448.919 150.154 448.895 150.178C448.129 151.051 447.354 151.904 446.572 152.718C446.126 153.183 445.673 153.634 445.219 154.069C445.159 154.126 445.099 154.186 445.039 154.246C444.645 154.618 444.248 154.973 443.847 155.315C443.738 155.408 443.626 155.51 443.518 155.6C443.149 155.91 442.771 156.195 442.394 156.474C442.266 156.57 442.137 156.675 442.005 156.768C441.507 157.12 441.006 157.447 440.492 157.735C439.75 157.771 439.035 157.81 438.405 157.867C438.149 157.885 438.068 158.426 438.257 158.726C438.421 158.981 438.61 159.209 438.791 159.444C438.779 159.702 438.811 159.957 438.875 160.167C438.875 160.17 438.875 160.176 438.875 160.179C438.875 160.182 438.879 160.182 438.879 160.185C438.911 160.29 438.959 160.368 439.015 160.437C439.031 160.456 439.039 160.486 439.055 160.501C439.128 160.567 439.208 160.603 439.308 160.588C439.449 160.579 439.605 160.531 439.75 160.504C440.035 160.759 440.332 160.984 440.637 161.185C440.737 161.251 440.849 161.302 440.954 161.362C441.162 161.485 441.371 161.608 441.588 161.711C441.728 161.777 441.876 161.825 442.021 161.882C442.21 161.954 442.394 162.032 442.587 162.092C442.763 162.146 442.944 162.182 443.125 162.227C443.289 162.266 443.454 162.311 443.622 162.341C443.835 162.38 444.055 162.401 444.272 162.425C444.409 162.44 444.545 162.461 444.685 162.47C444.942 162.488 445.203 162.491 445.464 162.491C445.56 162.491 445.657 162.494 445.757 162.494C446.07 162.488 446.383 162.467 446.696 162.437C446.736 162.434 446.78 162.431 446.82 162.428C447.322 162.377 447.824 162.311 448.325 162.215C447.145 163.915 445.889 165.473 444.553 166.455C443.369 166.815 442.113 166.899 440.753 166.608C440.596 166.581 440.492 166.986 440.6 167.193C440.641 167.259 440.685 167.307 440.721 167.374C440.548 167.346 440.508 167.8 440.632 167.971C441.114 168.671 441.632 169.094 442.169 169.331C442.342 169.52 442.523 169.671 442.703 169.824C442.711 169.83 442.719 169.833 442.727 169.842C443.409 170.436 444.124 170.845 444.862 171.055C444.866 171.058 444.874 171.061 444.878 171.061C445.151 171.127 445.424 171.193 445.705 171.223C442.852 173.592 439.613 175.075 436.652 175.207C436.291 175.171 435.925 175.093 435.556 175C435.155 174.766 434.75 174.511 434.356 174.234C433.642 173.724 433.257 175.405 433.618 176.378C435.376 181.113 438.923 183.353 442.286 184.401C442.739 184.545 443.189 184.666 443.63 184.768C443.205 185.656 442.763 186.524 442.286 187.356C441.977 187.893 441.628 188.458 441.263 189.031C441.106 189.272 440.937 189.518 440.777 189.761C440.564 190.076 440.348 190.394 440.119 190.716C439.882 191.052 439.637 191.388 439.384 191.725C439.24 191.92 439.088 192.115 438.939 192.31C436.981 194.847 434.673 197.346 432.386 199.18C432.382 199.183 432.378 199.186 432.374 199.189C431.945 199.531 431.515 199.853 431.09 200.156C430.604 200.489 430.115 200.811 429.641 201.066C427.671 201.111 425.745 200.829 423.931 200.084C423.778 200.027 423.562 200.339 423.678 200.66C423.999 201.54 424.368 202.297 424.766 202.975C424.802 203.038 424.834 203.111 424.874 203.174C424.874 203.177 424.878 203.18 424.878 203.18C425.195 203.699 425.54 204.146 425.897 204.552C425.969 204.633 426.042 204.711 426.118 204.789C426.471 205.161 426.836 205.498 427.217 205.774C427.225 205.78 427.233 205.789 427.241 205.795C427.635 206.074 428.04 206.296 428.457 206.485C428.554 206.531 428.65 206.57 428.746 206.612C429.164 206.78 429.585 206.924 430.018 207.017C428.417 207.611 426.804 208.131 425.187 208.632C424.918 208.716 424.998 209.38 425.219 209.455C427.96 210.38 431.443 210.419 434.818 209.209C433.867 210.389 432.944 211.458 432.113 212.404C431.664 212.911 431.206 213.37 430.741 213.794C430.701 213.83 430.66 213.86 430.62 213.896C430.187 214.283 429.75 214.644 429.304 214.968C429.276 214.989 429.252 215.004 429.224 215.025C428.654 215.436 428.072 215.794 427.486 216.106C427.442 216.13 427.398 216.157 427.354 216.178C426.744 216.493 426.126 216.76 425.5 216.974C425.48 216.983 425.456 216.986 425.436 216.995C424.878 217.184 424.312 217.319 423.746 217.433C423.61 217.46 423.473 217.487 423.337 217.508C422.747 217.607 422.153 217.676 421.559 217.697C420.781 217.394 420.006 217.112 419.224 216.856C419.043 216.799 418.963 217.274 419.063 217.499C419.087 217.556 419.115 217.592 419.147 217.649C419.003 217.733 418.963 218.112 419.091 218.283C419.44 218.763 419.798 219.181 420.163 219.556C420.391 219.943 420.636 220.264 420.877 220.616C420.881 220.622 420.881 220.625 420.885 220.628C422.587 223.123 424.549 224.75 426.672 225.687C426.692 225.696 426.712 225.702 426.732 225.711C427.241 225.933 427.755 226.126 428.281 226.276C428.345 226.294 428.409 226.303 428.473 226.321C428.959 226.45 429.445 226.564 429.938 226.636C430.091 226.66 430.247 226.663 430.404 226.681C430.817 226.726 431.226 226.777 431.644 226.789C432.225 226.807 432.807 226.792 433.397 226.75C432.948 227.032 432.494 227.273 432.041 227.492C431.624 227.687 431.202 227.855 430.777 228.002C430.741 228.014 430.705 228.032 430.668 228.044C429.593 228.044 428.526 228.101 427.458 228.242C427.298 228.26 427.165 228.392 427.065 228.582C426.294 228.426 425.544 228.251 424.834 228.044C424.288 227.885 424.184 229.281 424.529 229.792C431.66 240.436 443.277 235.611 452.057 230.179C451.788 231.575 451.459 232.947 451.154 234.326C450.873 235.611 450.605 236.902 450.296 238.181C449.726 240.52 449.116 242.85 448.45 245.189C448.422 245.285 448.426 245.381 448.442 245.471C448.446 245.48 448.446 245.486 448.45 245.495C448.482 245.633 448.546 245.724 448.622 245.712C448.658 245.712 448.694 245.694 448.731 245.633C449.06 245.075 449.389 244.537 449.718 243.991C449.979 243.601 450.231 243.177 450.488 242.763C450.227 243.348 449.97 243.943 449.694 244.501C449.565 244.757 449.742 245.135 449.89 244.91C453.851 238.676 457.679 233.254 460.701 225.48C461.183 229.795 461.941 233.536 463.257 237.4C463.353 237.704 463.606 237.457 463.518 237.145C462.848 234.944 462.382 232.413 462.049 229.75C462.402 230.798 462.768 231.788 463.133 232.707C463.795 234.383 464.533 235.908 465.296 237.388C464.774 253.176 463.723 269.732 463.723 269.732C471.042 275.657 474.269 268.336 474.269 268.336C473.935 260.812 473.903 245.45 473.943 233.488C475.135 236.166 476.423 238.691 477.627 241.142C477.74 241.37 477.924 241.048 477.816 240.811C476.568 237.968 475.408 234.83 474.389 231.593C476.014 234.389 477.772 236.881 479.65 238.902C480.139 239.433 480.641 239.892 481.147 240.331C481.391 240.547 481.636 240.76 481.885 240.961C481.893 240.967 481.897 240.973 481.905 240.979C481.937 241.003 481.969 241.024 481.997 241.048C483.518 242.259 485.091 243.171 486.696 243.898C486.805 243.946 486.909 244 487.018 244.048C487.463 244.243 487.912 244.42 488.366 244.592C488.55 244.664 488.739 244.733 488.924 244.802C489.337 244.949 489.754 245.093 490.172 245.228C490.412 245.306 490.657 245.381 490.902 245.456C491.279 245.57 491.656 245.688 492.034 245.796C492.391 245.901 492.752 246 493.109 246.099C493.972 246.336 494.835 246.573 495.689 246.816C495.774 246.837 495.846 246.825 495.914 246.795C495.938 246.786 495.958 246.768 495.982 246.75C496.022 246.72 496.063 246.681 496.095 246.636C496.115 246.609 496.131 246.585 496.147 246.555C496.183 246.486 496.215 246.408 496.243 246.321C496.247 246.303 496.255 246.291 496.259 246.273C496.287 246.165 496.307 246.045 496.319 245.922C496.323 245.886 496.323 245.847 496.327 245.811C496.331 245.718 496.331 245.624 496.327 245.531C496.327 245.489 496.323 245.45 496.319 245.411C496.311 245.306 496.295 245.204 496.271 245.108C496.267 245.084 496.263 245.06 496.259 245.036V245.033C496.251 245 496.235 244.976 496.227 244.946C496.159 244.733 496.067 244.55 495.93 244.447C495.332 244.009 494.73 243.613 494.132 243.231C493.767 242.994 493.402 242.763 493.041 242.541C492.491 242.042 491.949 241.505 491.42 240.925C491.384 240.811 491.335 240.709 491.255 240.661C491.147 240.595 491.054 240.481 490.946 240.406C489.967 239.265 489.048 237.959 488.213 236.4C488.137 236.265 488.065 236.112 487.989 235.959C493.506 242.763 500.344 246.429 506.801 245.465C506.813 245.462 506.825 245.462 506.837 245.459C507.391 245.375 507.945 245.252 508.49 245.099C508.539 245.084 508.591 245.072 508.639 245.057C509.165 244.904 509.682 244.718 510.196 244.498C510.268 244.468 510.336 244.438 510.409 244.405C510.906 244.183 511.4 243.934 511.889 243.649C511.974 243.601 512.054 243.547 512.138 243.499C512.616 243.21 513.085 242.895 513.551 242.544C513.643 242.475 513.731 242.4 513.82 242.328C514.277 241.967 514.726 241.589 515.172 241.166C515.196 241.145 515.22 241.127 515.24 241.106C515.653 240.697 516.063 240.31 516.464 239.856C516.789 239.487 516.629 238.412 516.235 238.628C515.866 238.836 515.493 238.968 515.116 239.139C515.068 239.1 515.015 239.052 514.955 239.043C514.518 238.92 514.076 238.779 513.631 238.616C513.627 238.616 513.627 238.619 513.623 238.619C509.718 237.25 505.93 234.455 502.688 230.146C503.543 230.75 504.401 231.326 505.268 231.921C505.685 232.212 505.862 231.044 505.481 230.701C503.402 228.87 501.155 226.981 499.305 224.279C501.877 225.876 504.494 226.867 506.512 227.209C510.465 227.888 517.511 228.729 520.168 221.787C520.441 221.069 519.995 220.171 519.614 220.571Z" fill="#233A2D"/>
<path d="M465.942 203.557C465.492 204.079 465.015 204.454 464.519 204.77C464.511 204.422 464.414 204.104 464.228 203.958C464.193 203.938 464.164 203.902 464.123 203.886C463.851 203.808 463.579 203.678 463.309 203.521C463.253 203.489 463.199 203.453 463.142 203.418C462.881 203.254 462.619 203.068 462.358 202.848C461.999 202.547 461.641 202.195 461.288 201.8C461.285 201.798 461.285 201.796 461.283 201.794C460.579 201.013 459.889 200.067 459.218 199.03C459.205 199.01 459.191 198.99 459.178 198.97C458.857 198.474 458.542 197.954 458.235 197.425C458.197 197.362 458.162 197.299 458.127 197.234C457.825 196.711 457.528 196.18 457.24 195.642C457.229 195.621 457.219 195.601 457.208 195.581C456.944 195.09 456.69 194.594 456.44 194.101C456.37 193.962 456.297 193.823 456.229 193.686C456 193.228 455.777 192.775 455.561 192.329C455.472 192.149 455.389 191.97 455.302 191.793C455.092 191.353 454.882 190.916 454.685 190.501C453.866 188.772 453.103 187.002 452.381 185.19C454.084 186.811 455.906 187.742 457.677 189.119C457.89 189.29 458.046 188.612 457.855 188.357C455.75 185.647 453.287 184.64 451.252 181.662C451.163 181.527 451.071 181.415 450.982 181.28C450.92 181.175 450.861 181.07 450.799 180.971C450.524 180.188 450.247 179.403 449.982 178.6C453.777 180.527 457.838 180.491 461.576 178.679C462.078 178.439 462.021 176.831 461.506 176.795C461.199 176.777 460.889 176.75 460.579 176.725C460.676 176.692 460.771 176.66 460.865 176.618C460.943 176.582 460.935 176.328 460.854 176.321C460.655 176.297 460.455 176.247 460.256 176.212C460.218 176.171 460.191 176.111 460.143 176.097C456.51 174.996 453.235 171.708 450.29 167.193C449.972 166.713 449.659 166.19 449.346 165.661C450.918 166.195 452.502 166.318 454.065 165.955C455.642 165.834 457.189 165.121 458.531 163.777C459.458 163.452 460.364 162.896 461.229 161.929C461.293 161.851 461.275 161.64 461.202 161.633C460.396 161.543 459.596 161.507 458.798 161.48C458.803 161.088 458.695 160.673 458.477 160.673C456.213 160.707 454.189 159.738 452.359 158.042C451.963 157.672 451.578 157.273 451.198 156.84C451.19 156.831 451.182 156.822 451.174 156.813C450.791 156.373 450.419 155.905 450.055 155.402C449.681 154.889 449.317 154.344 448.958 153.769C448.953 153.763 448.95 153.756 448.945 153.747C448.258 152.641 447.603 151.428 446.978 150.136C446.924 150.026 446.87 149.914 446.816 149.802C446.522 149.185 446.234 148.555 445.953 147.902C448.638 151.076 451.279 152.706 454.391 150.836C454.645 150.681 454.567 149.912 454.305 150.004C452.241 150.737 449.988 148.656 448.099 145.924C449.187 146.361 450.322 146.496 451.481 146.276C451.829 146.213 451.872 145.197 451.511 145.112C451.144 145.025 450.78 144.894 450.422 144.74C450.252 144.666 450.088 144.574 449.923 144.486C449.751 144.397 449.578 144.302 449.406 144.197C449.185 144.058 448.966 143.905 448.748 143.742C448.654 143.672 448.562 143.596 448.468 143.522C448.209 143.311 447.956 143.093 447.705 142.849C447.681 142.827 447.659 142.8 447.635 142.777C447.147 142.297 446.681 141.754 446.228 141.142C446.226 141.14 446.226 141.14 446.223 141.138C445.121 139.653 444.121 137.823 443.277 135.667C443.091 135.151 442.9 134.645 442.711 134.151C442.507 133.543 442.329 132.924 442.151 132.31C443.981 135.753 446.223 138.137 448.581 139.541C448.977 139.774 449.142 138.623 448.783 138.278C446.587 136.197 444.679 132.846 443.143 128.93C445.099 130.897 447.225 131.915 449.597 131.962C449.646 131.964 449.681 131.933 449.713 131.89C449.718 131.884 449.724 131.877 449.729 131.868C449.788 131.771 449.818 131.617 449.813 131.462C449.813 131.46 449.813 131.455 449.813 131.453C449.805 131.258 449.743 131.074 449.621 131.054C449.433 131.027 449.244 130.978 449.055 130.915C448.95 130.879 448.845 130.829 448.743 130.785C448.646 130.742 448.546 130.704 448.449 130.652C448.32 130.583 448.19 130.498 448.061 130.415C448.004 130.376 447.945 130.345 447.888 130.305C447.746 130.204 447.603 130.089 447.463 129.973C447.422 129.939 447.382 129.908 447.339 129.872C447.185 129.739 447.034 129.596 446.883 129.446C446.856 129.419 446.829 129.394 446.805 129.367C446.643 129.203 446.484 129.028 446.325 128.847C446.312 128.831 446.298 128.818 446.288 128.802C445.943 128.403 445.606 127.963 445.274 127.492C443.676 125.213 442.232 122.201 441.065 119.472C441.919 120.665 442.806 121.497 443.69 121.836C443.806 121.878 443.868 121.524 443.749 121.461C438.327 118.646 437.284 103.126 436.195 93.8469C436.171 93.6383 436.117 93.4701 436.052 93.3266C436.044 93.3109 436.036 93.3019 436.028 93.2884C435.963 93.1628 435.89 93.0709 435.807 93.0081C435.804 93.0058 435.804 93.0014 435.801 93.0014C435.793 92.9946 435.782 92.9969 435.774 92.9901C435.718 92.952 435.661 92.9206 435.602 92.9161C435.529 92.9049 435.459 92.9161 435.392 92.961C435.376 92.5236 435.362 92.093 435.335 91.6556C435.327 91.5255 435.308 91.4134 435.281 91.317C435.279 91.3058 435.273 91.299 435.27 91.2878C435.082 90.6643 434.564 90.8303 434.427 91.5704C430.988 110.016 425.636 128.12 415.856 132.135C415.848 132.124 415.839 132.112 415.829 132.103C415.586 132.202 415.352 132.337 415.101 132.422C414.969 132.456 414.969 132.81 415.055 132.958C417.06 136.457 420.564 134.079 423.512 130.643C423.078 131.406 422.631 132.16 422.148 132.866C420.521 135.237 418.534 138.758 416.513 139.328C416.492 139.328 416.467 139.334 416.446 139.334C416.432 139.334 416.422 139.357 416.408 139.37C416.405 139.37 416.403 139.37 416.403 139.37C416.376 139.391 416.346 139.42 416.327 139.462C416.322 139.476 416.322 139.491 416.317 139.505C416.26 139.673 416.268 139.929 416.387 140.012C416.635 140.196 416.904 140.364 417.187 140.519C417.19 140.521 417.195 140.523 417.198 140.525C417.43 140.651 417.672 140.768 417.923 140.873C418.025 140.916 418.133 140.947 418.238 140.987C418.411 141.052 418.586 141.115 418.766 141.169C418.885 141.205 419.009 141.23 419.133 141.261C419.308 141.304 419.486 141.346 419.666 141.378C419.793 141.4 419.92 141.418 420.046 141.434C420.232 141.458 420.421 141.479 420.61 141.492C420.736 141.501 420.86 141.508 420.99 141.51C421.189 141.514 421.391 141.512 421.593 141.503C421.715 141.499 421.833 141.494 421.957 141.485C422.181 141.467 422.405 141.434 422.628 141.398C422.728 141.382 422.83 141.371 422.93 141.351C423.256 141.286 423.58 141.205 423.903 141.1C422.895 144.062 421.725 146.7 419.995 148.972C419.499 149.627 418.998 150.282 418.491 150.923C418.478 150.941 418.464 150.959 418.448 150.977C417.934 151.63 417.413 152.267 416.888 152.875C416.589 153.222 416.284 153.559 415.98 153.884C415.939 153.927 415.899 153.971 415.858 154.016C415.594 154.294 415.327 154.559 415.058 154.815C414.985 154.884 414.91 154.96 414.837 155.028C414.589 155.259 414.336 155.472 414.082 155.68C413.996 155.752 413.91 155.831 413.821 155.9C413.487 156.163 413.147 156.407 412.805 156.622C412.306 156.649 411.827 156.678 411.404 156.721C411.231 156.735 411.177 157.138 411.304 157.363C411.414 157.553 411.538 157.724 411.662 157.899C411.654 158.092 411.676 158.282 411.719 158.439C411.719 158.441 411.719 158.446 411.719 158.448C411.719 158.45 411.722 158.45 411.722 158.453C411.743 158.531 411.775 158.589 411.813 158.641C411.824 158.654 411.829 158.677 411.84 158.688C411.889 158.737 411.945 158.764 412.01 158.753C412.104 158.746 412.209 158.711 412.306 158.69C412.498 158.881 412.697 159.049 412.902 159.199C412.969 159.249 413.045 159.287 413.115 159.332C413.255 159.424 413.395 159.516 413.541 159.592C413.635 159.641 413.735 159.677 413.832 159.72C413.958 159.774 414.082 159.832 414.212 159.877C414.33 159.917 414.452 159.944 414.573 159.978C414.683 160.007 414.794 160.041 414.907 160.063C415.05 160.092 415.198 160.108 415.344 160.126C415.435 160.137 415.527 160.153 415.621 160.159C415.794 160.173 415.969 160.175 416.147 160.175C416.211 160.175 416.276 160.177 416.343 160.175C416.554 160.171 416.764 160.155 416.974 160.132C417.001 160.13 417.031 160.128 417.058 160.126C417.395 160.088 417.731 160.038 418.068 159.967C417.276 161.236 416.432 162.4 415.535 163.133C414.737 163.403 413.896 163.465 412.983 163.248C412.878 163.228 412.808 163.53 412.88 163.685C412.907 163.735 412.937 163.77 412.961 163.82C412.843 163.8 412.818 164.138 412.899 164.266C413.223 164.789 413.57 165.105 413.931 165.282C414.047 165.423 414.169 165.536 414.29 165.65C414.295 165.654 414.301 165.657 414.306 165.663C414.764 166.107 415.244 166.413 415.74 166.57C415.745 166.572 415.748 166.574 415.751 166.576C415.934 166.626 416.117 166.675 416.306 166.697C414.39 168.467 412.215 169.575 410.226 169.674C409.983 169.647 409.738 169.588 409.49 169.519C409.221 169.344 408.948 169.153 408.684 168.947C408.205 168.566 407.943 169.822 408.188 170.548C409.369 174.085 411.751 175.759 414.01 176.541C414.314 176.649 414.616 176.739 414.912 176.815C414.627 177.479 414.33 178.127 414.012 178.748C413.805 179.15 413.57 179.571 413.325 180C413.223 180.179 413.109 180.363 412.999 180.545C412.856 180.78 412.711 181.018 412.557 181.258C412.398 181.509 412.234 181.76 412.064 182.012C411.967 182.157 411.864 182.303 411.765 182.449C410.45 184.344 408.9 186.21 407.364 187.581C407.361 187.583 407.358 187.585 407.356 187.587C407.067 187.843 406.779 188.083 406.493 188.307C406.167 188.556 405.838 188.796 405.52 188.987C404.197 189.021 402.903 188.81 401.685 188.254C401.583 188.211 401.437 188.444 401.518 188.684C401.734 189.341 401.982 189.907 402.249 190.413C402.273 190.46 402.294 190.514 402.321 190.561C402.324 190.564 402.324 190.566 402.324 190.568C402.537 190.956 402.769 191.29 403.011 191.593C403.06 191.654 403.108 191.712 403.16 191.77C403.397 192.048 403.642 192.3 403.898 192.506C403.903 192.51 403.909 192.517 403.914 192.522C404.178 192.73 404.45 192.896 404.731 193.038C404.795 193.071 404.86 193.1 404.927 193.132C405.208 193.257 405.491 193.365 405.782 193.435C404.704 193.879 403.623 194.267 402.537 194.641C402.356 194.704 402.41 195.197 402.559 195.256C404.399 195.947 406.738 195.976 409.005 195.072C408.366 195.953 407.746 196.752 407.189 197.458C406.887 197.835 406.579 198.18 406.267 198.497C406.24 198.524 406.213 198.546 406.186 198.573C405.895 198.862 405.601 199.131 405.302 199.374C405.283 199.389 405.264 199.401 405.248 199.416C404.865 199.724 404.475 199.99 404.081 200.224C404.052 200.242 404.022 200.262 403.992 200.278C403.583 200.513 403.168 200.713 402.75 200.872C402.736 200.876 402.72 200.881 402.707 200.888C402.332 201.029 401.952 201.13 401.572 201.215C401.481 201.235 401.389 201.255 401.297 201.271C400.901 201.345 400.502 201.397 400.103 201.412C399.581 201.186 399.06 200.975 398.532 200.784C398.411 200.744 398.357 201.096 398.424 201.264C398.441 201.307 398.459 201.334 398.481 201.377C398.384 201.439 398.357 201.722 398.443 201.85C398.678 202.209 398.918 202.52 399.163 202.801C399.316 203.09 399.481 203.33 399.643 203.592C399.645 203.597 399.645 203.599 399.648 203.601C400.791 205.465 402.108 206.681 403.534 207.381C403.548 207.387 403.561 207.392 403.575 207.399C403.917 207.565 404.262 207.708 404.615 207.82C404.658 207.834 404.701 207.84 404.744 207.854C405.07 207.95 405.396 208.036 405.728 208.089C405.83 208.107 405.935 208.11 406.04 208.123C406.318 208.157 406.593 208.195 406.873 208.204C407.264 208.217 407.655 208.206 408.051 208.175C407.749 208.385 407.445 208.565 407.14 208.729C406.86 208.874 406.577 209 406.291 209.11C406.267 209.119 406.243 209.132 406.218 209.141C405.496 209.141 404.779 209.184 404.062 209.289C403.955 209.303 403.866 209.401 403.798 209.543C403.281 209.426 402.777 209.296 402.3 209.141C401.933 209.02 401.863 210.065 402.095 210.447C406.884 218.4 414.686 214.793 420.583 210.736C420.402 211.779 420.181 212.804 419.976 213.833C419.788 214.793 419.607 215.758 419.4 216.713C419.017 218.46 418.607 220.201 418.16 221.948C418.141 222.022 418.144 222.092 418.155 222.159C418.157 222.166 418.157 222.17 418.16 222.177C418.181 222.28 418.225 222.347 418.276 222.338C418.3 222.338 418.324 222.325 418.349 222.278C418.57 221.861 418.791 221.459 419.012 221.051C419.187 220.759 419.356 220.443 419.529 220.134C419.354 220.571 419.181 221.015 418.995 221.432C418.909 221.623 419.028 221.905 419.127 221.737C421.787 217.081 424.358 213.03 426.388 207.224C426.714 210.447 427.22 213.241 428.107 216.128C428.172 216.354 428.342 216.17 428.282 215.937C427.832 214.293 427.52 212.402 427.296 210.413C427.533 211.196 427.778 211.936 428.024 212.622C428.468 213.874 428.967 215.013 429.479 216.119C429.129 227.912 428.42 240.279 428.42 240.279C433.335 244.704 435.502 239.236 435.502 239.236C435.279 233.615 435.257 222.141 435.284 213.205C436.084 215.206 436.949 217.092 437.758 218.922C437.833 219.093 437.957 218.853 437.885 218.676C437.046 216.552 436.268 214.208 435.583 211.79C436.675 213.878 437.855 215.74 439.116 217.252C439.445 217.648 439.782 217.992 440.121 218.319C440.286 218.481 440.45 218.64 440.617 218.79C440.623 218.795 440.625 218.799 440.631 218.804C440.652 218.822 440.674 218.837 440.695 218.855C441.717 219.759 442.773 220.441 443.851 220.984C443.924 221.02 443.994 221.06 444.067 221.096C444.366 221.242 444.668 221.374 444.972 221.502C445.096 221.556 445.223 221.607 445.347 221.659C445.625 221.769 445.905 221.876 446.185 221.977C446.347 222.036 446.511 222.092 446.676 222.148C446.929 222.233 447.182 222.32 447.436 222.401C447.676 222.48 447.918 222.554 448.158 222.628C448.737 222.805 449.314 222.982 449.891 223.164C449.947 223.179 449.996 223.17 450.042 223.148C450.058 223.141 450.071 223.128 450.088 223.114C450.115 223.092 450.141 223.063 450.163 223.029C450.177 223.009 450.187 222.991 450.198 222.969C450.222 222.917 450.244 222.859 450.263 222.794C450.265 222.78 450.271 222.771 450.274 222.758C450.292 222.677 450.306 222.587 450.314 222.495C450.317 222.466 450.317 222.439 450.319 222.412C450.322 222.343 450.322 222.273 450.319 222.204C450.317 222.172 450.317 222.143 450.314 222.114C450.309 222.036 450.298 221.959 450.282 221.885C450.279 221.867 450.276 221.849 450.274 221.831C450.268 221.807 450.257 221.787 450.252 221.764C450.206 221.605 450.144 221.468 450.053 221.392C449.651 221.064 449.247 220.768 448.845 220.483C448.6 220.306 448.355 220.134 448.112 219.968C447.743 219.595 447.379 219.194 447.023 218.761C446.999 218.676 446.967 218.599 446.913 218.564C446.84 218.514 446.778 218.429 446.705 218.373C446.048 217.518 445.431 216.545 444.87 215.381C444.819 215.28 444.77 215.166 444.719 215.051C448.425 220.134 453.017 222.872 457.353 222.152C457.361 222.15 457.369 222.15 457.378 222.148C457.749 222.085 458.121 221.993 458.488 221.879C458.52 221.867 458.555 221.858 458.588 221.847C458.941 221.733 459.288 221.591 459.633 221.43C459.682 221.408 459.728 221.385 459.776 221.36C460.11 221.194 460.442 221.008 460.771 220.795C460.827 220.759 460.881 220.719 460.938 220.683C461.258 220.468 461.574 220.232 461.886 219.968C461.948 219.916 462.008 219.86 462.067 219.806C462.374 219.537 462.676 219.254 462.975 218.938C462.991 218.922 463.007 218.909 463.021 218.893C463.296 218.588 463.573 218.299 463.843 217.96C464.061 217.684 463.953 216.881 463.689 217.043C463.441 217.198 463.191 217.296 462.937 217.424C462.905 217.395 462.87 217.359 462.83 217.352C462.536 217.26 462.239 217.155 461.94 217.034C461.937 217.034 461.937 217.036 461.937 217.036C459.315 216.013 456.771 213.925 454.594 210.705C455.168 211.155 455.744 211.586 456.327 212.03C456.607 212.248 456.725 211.375 456.469 211.12C455.073 209.751 453.564 208.338 452.322 206.322C454.049 207.515 455.806 208.255 457.162 208.509C459.817 209.018 464.549 209.644 466.333 204.458C466.497 203.931 466.198 203.258 465.942 203.557Z" fill="#233A2D"/>
<path d="M403.468 235.802C402.903 236.454 402.305 236.924 401.683 237.323C401.673 236.887 401.551 236.488 401.317 236.305C401.274 236.28 401.24 236.235 401.189 236.218C400.847 236.12 400.506 235.957 400.168 235.76C400.097 235.721 400.029 235.676 399.958 235.631C399.63 235.425 399.302 235.192 398.974 234.916C398.524 234.54 398.078 234.098 397.632 233.603C397.628 233.601 397.628 233.598 397.625 233.595C396.746 232.617 395.877 231.43 395.035 230.131C395.018 230.106 395.001 230.081 394.984 230.055C394.582 229.431 394.186 228.782 393.797 228.118C393.753 228.039 393.706 227.961 393.662 227.879C393.283 227.224 392.911 226.558 392.55 225.883C392.536 225.858 392.523 225.832 392.509 225.807C392.178 225.191 391.86 224.57 391.545 223.951C391.457 223.777 391.366 223.603 391.282 223.431C390.994 222.858 390.714 222.29 390.443 221.73C390.331 221.502 390.227 221.28 390.118 221.058C389.855 220.507 389.591 219.959 389.344 219.439C388.316 217.271 387.359 215.053 386.453 212.781C388.59 214.814 390.876 215.98 393.097 217.707C393.365 217.92 393.561 217.071 393.321 216.751C390.68 213.355 387.589 212.089 385.036 208.358C384.925 208.19 384.81 208.049 384.698 207.88C384.62 207.748 384.546 207.616 384.468 207.492C384.123 206.511 383.775 205.527 383.444 204.521C388.205 206.936 393.3 206.891 397.99 204.619C398.619 204.318 398.548 202.302 397.902 202.257C397.517 202.235 397.128 202.201 396.739 202.17C396.857 202.128 396.979 202.089 397.098 202.035C397.196 201.99 397.185 201.672 397.084 201.664C396.83 201.633 396.584 201.571 396.333 201.526C396.286 201.476 396.252 201.4 396.191 201.383C391.633 200.002 387.525 195.881 383.829 190.221C383.43 189.619 383.034 188.964 382.646 188.301C384.617 188.97 386.605 189.124 388.566 188.669C390.544 188.517 392.485 187.623 394.169 185.939C395.332 185.531 396.469 184.834 397.554 183.622C397.635 183.524 397.612 183.259 397.52 183.251C396.509 183.139 395.505 183.094 394.504 183.06C394.511 182.568 394.376 182.048 394.102 182.048C391.261 182.09 388.722 180.875 386.426 178.75C385.929 178.286 385.445 177.785 384.969 177.243C384.958 177.231 384.948 177.22 384.938 177.209C384.458 176.658 383.991 176.07 383.535 175.44C383.065 174.797 382.608 174.113 382.162 173.394C382.155 173.385 382.152 173.377 382.145 173.365C381.283 171.979 380.461 170.458 379.677 168.839C379.609 168.701 379.541 168.561 379.477 168.42C379.109 167.647 378.747 166.854 378.395 166.039C381.763 170.017 385.077 172.061 388.982 169.716C389.3 169.522 389.202 168.558 388.874 168.673C386.284 169.592 383.457 166.983 381.087 163.559C382.453 164.107 383.876 164.276 385.33 164C385.767 163.921 385.821 162.648 385.368 162.541C384.908 162.431 384.455 162.268 384.001 162.074C383.788 161.981 383.582 161.866 383.376 161.756C383.16 161.644 382.943 161.526 382.727 161.394C382.449 161.219 382.176 161.028 381.902 160.823C381.783 160.736 381.668 160.643 381.55 160.548C381.229 160.283 380.908 160.011 380.593 159.704C380.563 159.676 380.536 159.642 380.505 159.614C379.893 159.012 379.305 158.332 378.74 157.564C378.737 157.562 378.737 157.562 378.733 157.559C377.35 155.698 376.096 153.403 375.037 150.701C374.804 150.055 374.567 149.419 374.327 148.798C374.07 148.036 373.847 147.26 373.624 146.49C375.92 150.805 378.737 153.797 381.692 155.554C382.189 155.847 382.395 154.404 381.946 153.971C379.19 151.362 376.796 147.162 374.868 142.253C377.327 144.718 379.991 145.995 382.967 146.054C383.028 146.057 383.072 146.017 383.112 145.964C383.119 145.955 383.126 145.944 383.132 145.936C383.207 145.815 383.244 145.621 383.237 145.427C383.237 145.421 383.237 145.418 383.237 145.416C383.227 145.171 383.149 144.94 382.997 144.915C382.761 144.881 382.524 144.82 382.287 144.741C382.155 144.696 382.023 144.634 381.895 144.578C381.773 144.524 381.648 144.477 381.526 144.412C381.364 144.325 381.202 144.221 381.043 144.114C380.972 144.066 380.897 144.027 380.826 143.976C380.647 143.85 380.468 143.706 380.292 143.56C380.241 143.518 380.187 143.478 380.137 143.433C379.944 143.268 379.755 143.088 379.565 142.899C379.531 142.866 379.497 142.835 379.467 142.801C379.264 142.596 379.065 142.376 378.865 142.149C378.848 142.129 378.835 142.112 378.818 142.092C378.385 141.592 377.962 141.041 377.543 140.45C375.538 137.594 373.726 133.818 372.261 130.396C373.333 131.892 374.446 132.935 375.555 133.36C375.7 133.413 375.778 132.969 375.629 132.89C368.826 129.362 367.517 109.905 366.151 98.274C366.121 98.0125 366.053 97.8016 365.972 97.6217C365.962 97.602 365.952 97.5908 365.942 97.5739C365.86 97.4165 365.769 97.3012 365.664 97.2225C365.661 97.2196 365.661 97.214 365.658 97.214C365.647 97.2056 365.634 97.2084 365.624 97.2C365.553 97.1522 365.482 97.1128 365.407 97.1044C365.316 97.0903 365.228 97.1072 365.144 97.1606C365.123 96.6123 365.106 96.0725 365.073 95.5243C365.062 95.3612 365.039 95.2206 365.005 95.0997C365.002 95.0856 364.995 95.0772 364.991 95.0632C364.755 94.2815 364.105 94.4896 363.93 95.4174C359.615 118.54 352.9 141.235 340.629 146.268C340.619 146.253 340.608 146.239 340.595 146.228C340.291 146.352 339.996 146.521 339.682 146.627C339.516 146.67 339.516 147.114 339.624 147.299C342.14 151.685 346.536 148.705 350.235 144.398C349.691 145.354 349.129 146.298 348.524 147.184C346.482 150.156 343.99 154.57 341.454 155.284C341.427 155.284 341.396 155.293 341.369 155.293C341.352 155.293 341.339 155.321 341.322 155.338H341.315C341.278 155.363 341.241 155.4 341.217 155.453C341.21 155.47 341.21 155.489 341.204 155.506C341.133 155.717 341.143 156.038 341.291 156.142C341.603 156.372 341.941 156.583 342.296 156.777C342.299 156.78 342.306 156.783 342.309 156.786C342.6 156.943 342.904 157.089 343.219 157.221C343.347 157.275 343.483 157.314 343.614 157.365C343.834 157.446 344.051 157.525 344.277 157.593C344.426 157.638 344.581 157.668 344.737 157.708C344.957 157.761 345.18 157.815 345.407 157.854C345.565 157.882 345.724 157.905 345.883 157.924C346.117 157.955 346.353 157.981 346.59 157.997C346.749 158.009 346.908 158.017 347.067 158.02C347.317 158.026 347.571 158.023 347.824 158.011C347.976 158.006 348.129 158 348.281 157.989C348.561 157.966 348.842 157.924 349.123 157.879C349.248 157.86 349.376 157.846 349.501 157.82C349.911 157.739 350.316 157.638 350.722 157.505C349.457 161.219 347.99 164.526 345.819 167.374C345.197 168.195 344.568 169.016 343.932 169.82C343.915 169.843 343.898 169.865 343.878 169.888C343.232 170.706 342.58 171.504 341.92 172.266C341.545 172.702 341.163 173.124 340.781 173.531C340.73 173.585 340.679 173.641 340.625 173.697C340.294 174.046 339.959 174.378 339.621 174.698C339.53 174.785 339.438 174.881 339.344 174.965C339.033 175.255 338.715 175.522 338.397 175.783C338.289 175.873 338.181 175.972 338.069 176.059C337.65 176.388 337.224 176.694 336.794 176.964C336.169 176.998 335.567 177.035 335.036 177.088C334.819 177.105 334.752 177.611 334.911 177.892C335.049 178.131 335.205 178.345 335.36 178.564C335.35 178.806 335.377 179.045 335.432 179.242C335.432 179.244 335.432 179.25 335.432 179.253C335.432 179.256 335.435 179.256 335.435 179.259C335.462 179.357 335.502 179.43 335.55 179.495C335.563 179.512 335.57 179.54 335.584 179.554C335.645 179.616 335.716 179.649 335.797 179.635C335.915 179.627 336.047 179.582 336.169 179.557C336.409 179.796 336.659 180.006 336.916 180.195C337 180.257 337.095 180.304 337.183 180.361C337.359 180.476 337.535 180.591 337.717 180.687C337.836 180.749 337.961 180.794 338.082 180.847C338.241 180.915 338.397 180.988 338.559 181.044C338.708 181.094 338.86 181.128 339.012 181.17C339.151 181.207 339.29 181.249 339.432 181.277C339.611 181.314 339.797 181.333 339.979 181.356C340.094 181.37 340.209 181.39 340.328 181.398C340.544 181.415 340.764 181.418 340.984 181.418C341.065 181.418 341.146 181.421 341.231 181.421C341.494 181.415 341.758 181.395 342.022 181.367C342.059 181.364 342.093 181.362 342.127 181.359C342.549 181.311 342.972 181.249 343.395 181.159C342.4 182.751 341.342 184.21 340.216 185.129C339.215 185.466 338.16 185.545 337.014 185.272C336.882 185.247 336.794 185.627 336.885 185.821C336.919 185.883 336.956 185.928 336.987 185.989C336.838 185.964 336.808 186.389 336.913 186.549C337.318 187.201 337.755 187.6 338.208 187.823C338.353 188 338.505 188.14 338.657 188.284C338.664 188.289 338.671 188.292 338.678 188.298C339.252 188.854 339.854 189.237 340.476 189.434C340.48 189.436 340.487 189.439 340.49 189.439C340.72 189.501 340.95 189.563 341.187 189.591C338.782 191.809 336.054 193.198 333.558 193.322C333.254 193.288 332.946 193.215 332.635 193.128C332.297 192.909 331.955 192.67 331.624 192.411C331.022 191.933 330.694 193.508 331.002 194.419C332.483 198.852 335.472 200.95 338.306 201.931C338.688 202.066 339.066 202.178 339.438 202.274C339.08 203.106 338.708 203.919 338.309 204.698C338.049 205.201 337.754 205.73 337.447 206.267C337.315 206.491 337.176 206.722 337.038 206.95C336.858 207.245 336.676 207.543 336.483 207.844C336.284 208.159 336.077 208.474 335.864 208.789C335.743 208.971 335.614 209.154 335.489 209.337C333.839 211.713 331.895 214.052 329.967 215.77C329.964 215.772 329.96 215.775 329.957 215.778C329.595 216.099 329.233 216.399 328.878 216.683C328.469 216.995 328.057 217.296 327.658 217.535C325.997 217.577 324.374 217.313 322.846 216.616C322.718 216.562 322.535 216.855 322.636 217.156C322.907 217.98 323.218 218.688 323.553 219.323C323.583 219.382 323.61 219.45 323.644 219.509C323.644 219.512 323.647 219.515 323.647 219.517C323.915 220.004 324.205 220.423 324.51 220.802C324.571 220.878 324.631 220.951 324.696 221.024C324.993 221.373 325.301 221.688 325.622 221.947C325.629 221.952 325.636 221.961 325.642 221.966C325.974 222.228 326.319 222.436 326.667 222.613C326.748 222.655 326.829 222.692 326.91 222.731C327.262 222.889 327.617 223.023 327.982 223.111C326.633 223.667 325.274 224.154 323.911 224.623C323.685 224.702 323.752 225.323 323.938 225.394C326.248 226.26 329.183 226.296 332.026 225.163C331.225 226.268 330.447 227.269 329.747 228.155C329.369 228.63 328.983 229.06 328.591 229.456C328.557 229.49 328.523 229.518 328.49 229.552C328.124 229.915 327.756 230.252 327.38 230.556C327.357 230.575 327.333 230.589 327.313 230.609C326.833 230.994 326.342 231.329 325.849 231.621C325.812 231.644 325.774 231.669 325.737 231.689C325.223 231.984 324.702 232.234 324.178 232.434C324.161 232.442 324.141 232.445 324.124 232.454C323.654 232.631 323.177 232.757 322.701 232.864C322.586 232.889 322.471 232.915 322.356 232.934C321.859 233.027 321.358 233.092 320.858 233.111C320.202 232.827 319.549 232.563 318.89 232.324C318.738 232.271 318.667 232.715 318.755 232.926C318.775 232.979 318.799 233.013 318.826 233.066C318.704 233.145 318.67 233.499 318.778 233.66C319.072 234.11 319.373 234.5 319.681 234.852C319.874 235.214 320.08 235.515 320.283 235.844C320.286 235.85 320.29 235.853 320.29 235.856C321.723 238.192 323.377 239.716 325.166 240.593C325.183 240.601 325.199 240.607 325.213 240.616C325.642 240.824 326.075 241.003 326.518 241.144C326.572 241.161 326.626 241.169 326.681 241.186C327.09 241.307 327.499 241.414 327.915 241.481C328.043 241.504 328.175 241.507 328.307 241.524C328.655 241.566 329 241.614 329.352 241.625C329.842 241.642 330.332 241.628 330.829 241.588C330.451 241.853 330.069 242.078 329.687 242.283C329.335 242.466 328.98 242.623 328.621 242.761C328.591 242.772 328.561 242.789 328.53 242.8C327.624 242.8 326.724 242.854 325.825 242.986C325.69 243.003 325.578 243.126 325.494 243.303C324.844 243.157 324.212 242.994 323.614 242.8C323.154 242.651 323.066 243.958 323.357 244.436C329.365 254.406 339.154 249.885 346.553 244.799C346.323 246.107 346.049 247.389 345.792 248.682C345.555 249.885 345.329 251.094 345.068 252.292C344.588 254.482 344.074 256.664 343.513 258.854C343.489 258.947 343.493 259.034 343.506 259.118C343.51 259.127 343.51 259.133 343.513 259.141C343.537 259.27 343.594 259.357 343.658 259.343C343.689 259.343 343.719 259.327 343.75 259.267C344.027 258.745 344.301 258.241 344.581 257.73C344.801 257.364 345.014 256.968 345.231 256.58C345.011 257.128 344.795 257.685 344.561 258.208C344.453 258.447 344.602 258.801 344.727 258.59C348.064 252.753 351.29 247.675 353.836 240.396C354.245 244.436 354.881 247.94 355.994 251.558C356.075 251.842 356.288 251.612 356.213 251.319C355.649 249.258 355.256 246.888 354.976 244.394C355.273 245.375 355.581 246.303 355.889 247.164C356.447 248.733 357.072 250.161 357.715 251.547C357.275 266.33 356.386 281.833 356.386 281.833C362.553 287.38 365.272 280.526 365.272 280.526C364.991 273.48 364.964 259.096 364.998 247.895C366.002 250.403 367.088 252.767 368.102 255.064C368.197 255.278 368.353 254.977 368.261 254.755C367.21 252.092 366.232 249.154 365.374 246.123C366.743 248.741 368.224 251.075 369.81 252.97C370.222 253.467 370.645 253.897 371.071 254.308C371.277 254.51 371.484 254.71 371.693 254.898C371.7 254.904 371.703 254.91 371.71 254.915C371.737 254.938 371.764 254.957 371.791 254.98C373.073 256.113 374.398 256.968 375.751 257.648C375.842 257.693 375.93 257.744 376.021 257.789C376.397 257.971 376.776 258.137 377.158 258.297C377.317 258.365 377.472 258.432 377.628 258.494C377.976 258.632 378.328 258.767 378.679 258.894C378.885 258.967 379.088 259.037 379.295 259.107C379.612 259.214 379.93 259.324 380.248 259.425C380.549 259.523 380.853 259.616 381.154 259.709C381.881 259.931 382.608 260.153 383.329 260.381C383.4 260.401 383.46 260.389 383.518 260.361C383.538 260.353 383.555 260.336 383.575 260.322C383.609 260.294 383.643 260.257 383.67 260.215C383.687 260.19 383.701 260.167 383.714 260.139C383.744 260.074 383.772 260.001 383.795 259.92C383.799 259.903 383.805 259.892 383.809 259.875C383.832 259.774 383.849 259.661 383.859 259.546C383.863 259.512 383.863 259.476 383.866 259.439C383.87 259.352 383.87 259.265 383.866 259.178C383.866 259.138 383.863 259.102 383.859 259.065C383.853 258.967 383.839 258.871 383.819 258.778C383.816 258.756 383.812 258.733 383.809 258.711C383.802 258.68 383.788 258.655 383.782 258.626C383.724 258.427 383.646 258.255 383.531 258.16C383.028 257.749 382.52 257.378 382.017 257.021C381.709 256.799 381.401 256.582 381.097 256.374C380.634 255.908 380.177 255.404 379.731 254.862C379.7 254.755 379.66 254.659 379.592 254.614C379.501 254.552 379.423 254.446 379.332 254.375C378.507 253.304 377.732 252.084 377.029 250.625C376.965 250.498 376.904 250.355 376.84 250.211C381.489 256.582 387.251 260.015 392.692 259.113C392.702 259.11 392.712 259.11 392.722 259.107C393.189 259.029 393.655 258.913 394.115 258.77C394.156 258.756 394.196 258.745 394.24 258.73C394.68 258.587 395.119 258.41 395.552 258.208C395.613 258.179 395.671 258.151 395.731 258.12C396.151 257.912 396.567 257.679 396.979 257.412C397.05 257.367 397.118 257.316 397.189 257.271C397.591 257.001 397.987 256.706 398.379 256.377C398.457 256.313 398.531 256.242 398.606 256.175C398.991 255.837 399.37 255.483 399.745 255.087C399.765 255.067 399.786 255.05 399.803 255.03C400.151 254.648 400.496 254.285 400.834 253.861C401.108 253.515 400.973 252.508 400.641 252.711C400.33 252.905 400.016 253.029 399.698 253.189C399.657 253.152 399.613 253.107 399.563 253.099C399.194 252.984 398.822 252.851 398.447 252.7C398.443 252.7 398.443 252.702 398.44 252.702C395.15 251.42 391.958 248.803 389.226 244.765C389.946 245.333 390.67 245.87 391.4 246.427C391.752 246.703 391.9 245.606 391.579 245.286C389.828 243.57 387.934 241.802 386.375 239.272C388.543 240.767 390.747 241.695 392.448 242.013C395.779 242.651 401.716 243.436 403.955 236.935C404.165 236.272 403.789 235.431 403.468 235.802Z" fill="#233A2D"/>
<path d="M567.462 189.135C566.824 189.812 566.145 190.297 565.441 190.708C565.431 190.257 565.292 189.844 565.029 189.654C564.98 189.628 564.938 189.583 564.883 189.562C564.498 189.462 564.11 189.291 563.725 189.088C563.645 189.048 563.569 189.001 563.489 188.956C563.119 188.743 562.748 188.503 562.373 188.219C561.864 187.829 561.358 187.371 560.852 186.86C560.848 186.857 560.848 186.855 560.845 186.852C559.85 185.841 558.865 184.614 557.912 183.271C557.895 183.244 557.874 183.218 557.857 183.192C557.403 182.546 556.955 181.875 556.515 181.187C556.463 181.106 556.411 181.024 556.359 180.943C555.929 180.266 555.51 179.576 555.101 178.878C555.084 178.852 555.07 178.825 555.056 178.799C554.682 178.162 554.321 177.519 553.964 176.879C553.863 176.7 553.763 176.518 553.666 176.339C553.34 175.747 553.025 175.159 552.716 174.58C552.591 174.346 552.47 174.116 552.349 173.885C552.051 173.316 551.753 172.747 551.475 172.21C550.311 169.969 549.229 167.672 548.203 165.323C550.623 167.427 553.208 168.634 555.725 170.416C556.027 170.638 556.248 169.758 555.974 169.429C552.987 165.916 549.486 164.61 546.598 160.749C546.473 160.575 546.342 160.428 546.213 160.254C546.127 160.117 546.04 159.98 545.953 159.853C545.562 158.84 545.17 157.823 544.796 156.78C550.182 159.277 555.95 159.232 561.261 156.88C561.971 156.569 561.892 154.484 561.164 154.439C560.727 154.415 560.287 154.384 559.85 154.349C559.985 154.305 560.12 154.265 560.255 154.21C560.366 154.165 560.352 153.836 560.238 153.825C559.954 153.794 559.673 153.731 559.389 153.683C559.337 153.631 559.299 153.552 559.226 153.533C554.068 152.106 549.416 147.845 545.232 141.99C544.782 141.369 544.335 140.69 543.894 140.005C546.127 140.697 548.376 140.855 550.595 140.387C552.834 140.231 555.032 139.307 556.935 137.564C558.248 137.142 559.534 136.421 560.765 135.167C560.859 135.067 560.831 134.793 560.727 134.783C559.579 134.667 558.443 134.619 557.312 134.582C557.319 134.074 557.167 133.537 556.855 133.537C553.642 133.579 550.765 132.323 548.168 130.127C547.607 129.647 547.056 129.128 546.522 128.568C546.511 128.554 546.498 128.544 546.487 128.531C545.946 127.962 545.416 127.353 544.896 126.703C544.366 126.037 543.846 125.331 543.34 124.588C543.333 124.578 543.326 124.57 543.322 124.559C542.345 123.127 541.416 121.552 540.529 119.88C540.452 119.735 540.376 119.59 540.3 119.445C539.884 118.645 539.471 117.828 539.073 116.983C542.886 121.099 546.633 123.211 551.056 120.788C551.416 120.588 551.305 119.59 550.934 119.708C548.005 120.659 544.803 117.96 542.12 114.42C543.666 114.987 545.274 115.16 546.92 114.879C547.413 114.797 547.475 113.48 546.962 113.37C546.439 113.256 545.926 113.085 545.416 112.888C545.177 112.793 544.941 112.672 544.705 112.559C544.459 112.44 544.213 112.321 543.971 112.185C543.655 112.003 543.347 111.805 543.038 111.595C542.906 111.502 542.771 111.408 542.64 111.31C542.276 111.039 541.912 110.755 541.558 110.436C541.523 110.407 541.492 110.373 541.458 110.344C540.764 109.722 540.102 109.019 539.457 108.224C539.454 108.221 539.454 108.219 539.451 108.219C537.884 106.293 536.466 103.921 535.27 101.129C535.007 100.46 534.736 99.8018 534.466 99.1619C534.175 98.3745 533.922 97.5713 533.669 96.7733C536.265 101.237 539.454 104.329 542.799 106.149C543.361 106.451 543.596 104.961 543.087 104.511C539.967 101.811 537.26 97.4686 535.076 92.3912C537.856 94.943 540.872 96.2598 544.241 96.323C544.31 96.3256 544.362 96.2861 544.407 96.2308C544.414 96.2203 544.421 96.2124 544.432 96.2019C544.518 96.0781 544.556 95.8753 544.55 95.6752C544.55 95.6699 544.55 95.6673 544.55 95.662C544.536 95.4092 544.452 95.1722 544.279 95.1432C544.012 95.109 543.745 95.0431 543.478 94.9615C543.329 94.9167 543.18 94.8509 543.031 94.7929C542.893 94.7376 542.75 94.6876 542.612 94.6218C542.428 94.5322 542.244 94.4242 542.061 94.3136C541.978 94.2662 541.898 94.2215 541.815 94.1714C541.61 94.0398 541.409 93.8949 541.211 93.7422C541.153 93.6974 541.094 93.6579 541.038 93.6131C540.82 93.4419 540.605 93.255 540.393 93.0601C540.355 93.0259 540.317 92.9943 540.282 92.96C540.054 92.7467 539.825 92.5229 539.6 92.2858C539.582 92.2674 539.565 92.249 539.544 92.2279C539.055 91.7091 538.574 91.1403 538.102 90.5293C535.832 87.5745 533.783 83.669 532.123 80.1296C533.336 81.6755 534.594 82.7552 535.849 83.1924C536.012 83.2477 536.099 82.7895 535.932 82.7078C528.234 79.0604 526.75 58.9379 525.204 46.9107C525.169 46.6395 525.093 46.4209 524.999 46.2365C524.989 46.2155 524.975 46.2049 524.965 46.1865C524.875 46.0232 524.771 45.9047 524.653 45.8231C524.649 45.8204 524.646 45.8152 524.646 45.8125C524.635 45.8046 524.622 45.8046 524.608 45.7967C524.525 45.7493 524.445 45.7046 524.362 45.6993C524.261 45.6861 524.157 45.6993 524.064 45.7572C524.039 45.1884 524.022 44.6327 523.984 44.0639C523.97 43.8953 523.946 43.7479 523.908 43.6241C523.904 43.6083 523.897 43.6004 523.89 43.5872C523.623 42.7787 522.888 42.9947 522.691 43.9533C517.81 67.8654 510.209 91.3352 496.319 96.5389C496.305 96.5258 496.295 96.51 496.281 96.4968C495.934 96.6258 495.605 96.7997 495.248 96.9103C495.061 96.955 495.061 97.4133 495.182 97.6055C498.028 102.14 503.002 99.0592 507.19 94.606C506.573 95.5935 505.938 96.5732 505.255 97.487C502.943 100.56 500.125 105.124 497.252 105.864C497.22 105.864 497.189 105.875 497.155 105.875C497.134 105.875 497.12 105.904 497.099 105.922H497.092C497.089 105.922 497.089 105.922 497.085 105.922C497.044 105.948 497.005 105.988 496.978 106.041C496.971 106.059 496.971 106.077 496.964 106.096C496.884 106.314 496.895 106.644 497.061 106.754C497.414 106.994 497.796 107.213 498.198 107.413C498.205 107.415 498.208 107.418 498.215 107.423C498.544 107.586 498.888 107.737 499.245 107.874C499.39 107.929 499.546 107.971 499.695 108.021C499.941 108.103 500.188 108.187 500.447 108.255C500.617 108.3 500.794 108.334 500.967 108.374C501.217 108.429 501.467 108.484 501.727 108.527C501.907 108.556 502.087 108.579 502.267 108.6C502.531 108.632 502.798 108.658 503.068 108.677C503.248 108.687 503.425 108.698 503.609 108.7C503.893 108.708 504.177 108.703 504.465 108.693C504.638 108.685 504.808 108.682 504.978 108.669C505.297 108.645 505.612 108.603 505.931 108.556C506.073 108.535 506.215 108.521 506.361 108.495C506.822 108.411 507.287 108.305 507.744 108.168C506.312 112.008 504.652 115.429 502.195 118.376C501.491 119.227 500.78 120.074 500.059 120.907C500.038 120.93 500.021 120.954 500 120.975C499.269 121.821 498.531 122.645 497.785 123.435C497.359 123.885 496.929 124.32 496.496 124.744C496.437 124.799 496.381 124.86 496.323 124.915C495.948 125.276 495.567 125.618 495.186 125.95C495.082 126.042 494.978 126.137 494.87 126.226C494.517 126.527 494.16 126.8 493.799 127.072C493.674 127.164 493.553 127.267 493.428 127.356C492.953 127.696 492.472 128.012 491.986 128.291C491.279 128.328 490.6 128.365 489.997 128.417C489.75 128.436 489.678 128.957 489.854 129.25C490.01 129.497 490.191 129.718 490.36 129.945C490.347 130.195 490.378 130.443 490.444 130.645C490.444 130.648 490.444 130.653 490.444 130.659C490.444 130.661 490.447 130.661 490.447 130.664C490.478 130.764 490.523 130.84 490.575 130.906C490.589 130.925 490.6 130.951 490.614 130.967C490.683 131.03 490.759 131.064 490.856 131.051C490.991 131.043 491.14 130.996 491.276 130.969C491.546 131.217 491.83 131.435 492.121 131.63C492.218 131.696 492.322 131.744 492.423 131.801C492.621 131.92 492.818 132.041 493.026 132.139C493.161 132.202 493.303 132.249 493.442 132.304C493.619 132.376 493.796 132.452 493.979 132.507C494.149 132.56 494.322 132.597 494.492 132.636C494.652 132.673 494.808 132.718 494.967 132.747C495.172 132.784 495.38 132.805 495.588 132.829C495.719 132.844 495.848 132.863 495.979 132.871C496.226 132.889 496.475 132.892 496.725 132.892C496.818 132.892 496.908 132.897 497.002 132.894C497.3 132.889 497.598 132.868 497.9 132.839C497.941 132.836 497.979 132.834 498.021 132.829C498.499 132.781 498.978 132.715 499.456 132.623C498.33 134.269 497.13 135.778 495.858 136.729C494.728 137.076 493.532 137.158 492.236 136.876C492.087 136.85 491.99 137.242 492.09 137.442C492.128 137.506 492.17 137.553 492.205 137.616C492.038 137.59 492.004 138.027 492.118 138.193C492.575 138.87 493.071 139.281 493.584 139.51C493.751 139.691 493.92 139.839 494.09 139.986C494.097 139.992 494.104 139.997 494.111 140.002C494.763 140.576 495.442 140.974 496.149 141.177C496.156 141.179 496.16 141.182 496.167 141.185C496.427 141.25 496.687 141.311 496.957 141.34C494.236 143.634 491.147 145.072 488.322 145.198C487.976 145.161 487.629 145.087 487.275 144.998C486.891 144.769 486.509 144.521 486.132 144.258C485.452 143.763 485.081 145.39 485.428 146.333C487.102 150.918 490.489 153.088 493.692 154.102C494.125 154.239 494.555 154.357 494.974 154.455C494.569 155.316 494.146 156.156 493.695 156.962C493.4 157.483 493.068 158.031 492.718 158.584C492.572 158.816 492.409 159.053 492.253 159.29C492.052 159.595 491.844 159.904 491.626 160.214C491.397 160.538 491.165 160.865 490.926 161.191C490.787 161.381 490.645 161.568 490.499 161.757C488.631 164.215 486.433 166.632 484.249 168.41C484.246 168.412 484.242 168.415 484.239 168.418C483.83 168.749 483.421 169.06 483.015 169.352C482.551 169.676 482.086 169.987 481.636 170.232C479.757 170.277 477.92 170.003 476.19 169.281C476.045 169.226 475.84 169.529 475.951 169.84C476.256 170.693 476.61 171.425 476.987 172.081C477.022 172.141 477.053 172.212 477.088 172.27C477.091 172.273 477.091 172.276 477.091 172.278C477.396 172.781 477.722 173.216 478.065 173.608C478.135 173.687 478.204 173.761 478.273 173.837C478.61 174.196 478.956 174.522 479.324 174.791C479.331 174.796 479.338 174.804 479.348 174.809C479.722 175.08 480.111 175.294 480.509 175.478C480.603 175.52 480.693 175.56 480.787 175.599C481.185 175.762 481.587 175.902 482.003 175.992C480.475 176.568 478.936 177.071 477.393 177.556C477.136 177.637 477.213 178.277 477.421 178.351C480.034 179.247 483.355 179.283 486.575 178.114C485.671 179.257 484.787 180.292 483.996 181.206C483.567 181.696 483.133 182.141 482.686 182.552C482.648 182.586 482.61 182.615 482.572 182.649C482.159 183.026 481.74 183.371 481.317 183.687C481.293 183.705 481.265 183.723 481.241 183.742C480.696 184.14 480.145 184.487 479.584 184.787C479.542 184.811 479.501 184.835 479.459 184.859C478.877 185.164 478.287 185.422 477.695 185.628C477.674 185.635 477.653 185.638 477.632 185.646C477.098 185.828 476.561 185.962 476.02 186.07C475.892 186.096 475.76 186.123 475.632 186.144C475.067 186.238 474.502 186.307 473.937 186.328C473.195 186.036 472.457 185.762 471.708 185.514C471.535 185.459 471.459 185.917 471.556 186.136C471.58 186.191 471.608 186.228 471.635 186.283C471.497 186.365 471.459 186.731 471.583 186.897C471.916 187.363 472.256 187.766 472.606 188.129C472.824 188.506 473.06 188.817 473.285 189.154C473.289 189.159 473.292 189.162 473.296 189.164C474.918 191.582 476.79 193.154 478.814 194.063C478.832 194.07 478.852 194.076 478.87 194.084C479.355 194.297 479.847 194.487 480.346 194.629C480.409 194.647 480.471 194.655 480.53 194.674C480.991 194.797 481.456 194.908 481.927 194.979C482.073 195 482.222 195.005 482.371 195.021C482.762 195.066 483.157 195.113 483.556 195.127C484.111 195.145 484.669 195.132 485.227 195.087C484.797 195.358 484.367 195.593 483.93 195.806C483.532 195.996 483.13 196.156 482.728 196.301C482.693 196.314 482.658 196.33 482.624 196.343C481.598 196.343 480.579 196.399 479.559 196.535C479.407 196.554 479.279 196.68 479.185 196.862C478.45 196.712 477.733 196.541 477.057 196.343C476.537 196.188 476.436 197.541 476.766 198.034C483.567 208.341 494.648 203.67 503.02 198.408C502.763 199.759 502.448 201.086 502.16 202.424C501.893 203.67 501.636 204.918 501.338 206.158C500.794 208.423 500.212 210.68 499.577 212.945C499.553 213.04 499.553 213.132 499.567 213.216C499.571 213.227 499.571 213.232 499.574 213.24C499.602 213.371 499.664 213.461 499.74 213.448C499.775 213.448 499.806 213.429 499.841 213.371C500.156 212.832 500.468 212.31 500.78 211.781C501.026 211.404 501.269 210.993 501.515 210.59C501.266 211.157 501.023 211.733 500.756 212.273C500.635 212.521 500.801 212.887 500.943 212.668C504.721 206.632 508.371 201.381 511.255 193.855C511.716 198.034 512.438 201.655 513.696 205.397C513.786 205.689 514.029 205.452 513.942 205.15C513.301 203.019 512.857 200.567 512.541 197.989C512.878 199.003 513.228 199.964 513.574 200.852C514.205 202.474 514.912 203.951 515.64 205.384C515.145 220.671 514.139 236.704 514.139 236.704C521.121 242.44 524.195 235.351 524.195 235.351C523.876 228.064 523.849 213.19 523.883 201.605C525.02 204.196 526.251 206.643 527.395 209.018C527.502 209.239 527.675 208.926 527.575 208.7C526.383 205.945 525.28 202.909 524.306 199.772C525.856 202.479 527.53 204.892 529.325 206.851C529.79 207.364 530.268 207.809 530.75 208.236C530.986 208.447 531.218 208.652 531.454 208.847C531.461 208.852 531.468 208.858 531.471 208.863C531.502 208.887 531.53 208.905 531.561 208.929C533.01 210.101 534.511 210.985 536.043 211.689C536.147 211.736 536.248 211.789 536.348 211.833C536.775 212.023 537.204 212.194 537.634 212.36C537.811 212.429 537.988 212.497 538.168 212.563C538.563 212.708 538.958 212.845 539.357 212.976C539.589 213.053 539.821 213.126 540.054 213.198C540.414 213.308 540.775 213.421 541.135 213.527C541.478 213.627 541.818 213.724 542.161 213.822C542.983 214.053 543.804 214.28 544.622 214.517C544.702 214.538 544.771 214.525 544.834 214.496C544.858 214.485 544.875 214.47 544.896 214.454C544.934 214.425 544.972 214.388 545.004 214.343C545.021 214.317 545.038 214.296 545.056 214.264C545.09 214.198 545.121 214.122 545.146 214.038C545.149 214.022 545.156 214.009 545.163 213.99C545.191 213.885 545.208 213.769 545.218 213.651C545.222 213.614 545.222 213.579 545.225 213.543C545.229 213.453 545.229 213.364 545.225 213.271C545.225 213.232 545.222 213.195 545.218 213.155C545.208 213.053 545.194 212.955 545.173 212.86C545.17 212.837 545.167 212.813 545.16 212.792V212.789C545.153 212.758 545.135 212.734 545.128 212.705C545.063 212.5 544.976 212.321 544.848 212.223C544.276 211.799 543.704 211.415 543.135 211.043C542.789 210.814 542.442 210.588 542.092 210.372C541.565 209.89 541.052 209.368 540.546 208.808C540.511 208.697 540.466 208.6 540.39 208.552C540.286 208.489 540.196 208.378 540.095 208.305C539.159 207.198 538.282 205.937 537.489 204.425C537.416 204.296 537.347 204.146 537.274 203.999C542.536 210.588 549.056 214.138 555.215 213.203C555.226 213.2 555.24 213.2 555.25 213.198C555.78 213.116 556.304 212.997 556.827 212.847C556.876 212.834 556.921 212.821 556.969 212.808C557.468 212.66 557.964 212.479 558.456 212.265C558.522 212.236 558.592 212.207 558.657 212.176C559.132 211.962 559.604 211.718 560.068 211.444C560.148 211.396 560.228 211.346 560.307 211.296C560.761 211.017 561.212 210.712 561.656 210.369C561.742 210.303 561.826 210.23 561.912 210.161C562.349 209.814 562.779 209.445 563.202 209.037C563.223 209.016 563.247 209 563.268 208.979C563.659 208.584 564.051 208.21 564.432 207.77C564.744 207.414 564.588 206.372 564.214 206.582C563.86 206.782 563.503 206.911 563.146 207.077C563.101 207.04 563.053 206.993 562.994 206.985C562.574 206.867 562.155 206.73 561.729 206.574C561.725 206.574 561.725 206.577 561.722 206.577C557.999 205.25 554.383 202.545 551.295 198.371C552.11 198.958 552.931 199.514 553.756 200.091C554.155 200.375 554.321 199.24 553.957 198.911C551.974 197.136 549.832 195.308 548.068 192.691C550.519 194.236 553.018 195.198 554.942 195.527C558.709 196.185 565.431 196.999 567.964 190.276C568.252 189.62 567.826 188.751 567.462 189.135Z" fill="#233A2D"/>
<path d="M427.054 228.159C426.558 228.736 426.029 229.148 425.482 229.498C425.474 229.115 425.367 228.763 425.162 228.601C425.124 228.579 425.092 228.541 425.048 228.523C424.749 228.437 424.447 228.292 424.148 228.119C424.086 228.085 424.024 228.045 423.965 228.007C423.677 227.825 423.388 227.621 423.097 227.379C422.701 227.047 422.308 226.657 421.917 226.222C421.914 226.219 421.911 226.217 421.911 226.215C421.135 225.354 420.373 224.308 419.632 223.164C419.618 223.142 419.602 223.12 419.588 223.097C419.235 222.548 418.888 221.976 418.545 221.39C418.505 221.321 418.465 221.251 418.424 221.182C418.09 220.605 417.764 220.018 417.446 219.423C417.435 219.401 417.422 219.379 417.411 219.356C417.12 218.813 416.84 218.266 416.562 217.721C416.484 217.569 416.406 217.414 416.327 217.261C416.074 216.757 415.829 216.256 415.589 215.763C415.492 215.563 415.398 215.368 415.303 215.171C415.072 214.686 414.84 214.202 414.622 213.744C413.716 211.836 412.875 209.88 412.077 207.879C413.959 209.671 415.969 210.699 417.926 212.217C418.16 212.405 418.333 211.656 418.122 211.376C415.799 208.384 413.077 207.272 410.832 203.984C410.733 203.835 410.633 203.71 410.533 203.562C410.466 203.445 410.398 203.329 410.331 203.221C410.027 202.357 409.722 201.492 409.431 200.604C413.619 202.73 418.103 202.692 422.232 200.689C422.785 200.424 422.723 198.648 422.157 198.61C421.817 198.589 421.475 198.563 421.135 198.533C421.24 198.495 421.346 198.462 421.451 198.414C421.537 198.376 421.526 198.096 421.437 198.087C421.216 198.06 420.998 198.006 420.777 197.966C420.736 197.921 420.707 197.856 420.653 197.838C416.643 196.622 413.026 192.993 409.773 188.008C409.423 187.478 409.075 186.9 408.733 186.316C410.469 186.906 412.218 187.041 413.942 186.642C415.683 186.509 417.392 185.722 418.872 184.237C419.893 183.878 420.893 183.264 421.85 182.196C421.922 182.111 421.901 181.878 421.82 181.869C420.931 181.77 420.047 181.73 419.165 181.698C419.171 181.266 419.052 180.808 418.812 180.808C416.314 180.844 414.077 179.774 412.059 177.903C411.622 177.495 411.194 177.053 410.776 176.576C410.768 176.564 410.76 176.556 410.749 176.544C410.328 176.06 409.916 175.542 409.512 174.988C409.099 174.42 408.695 173.819 408.302 173.187C408.296 173.178 408.291 173.171 408.288 173.162C407.528 171.942 406.806 170.601 406.116 169.177C406.057 169.053 405.998 168.93 405.938 168.806C405.615 168.125 405.294 167.429 404.984 166.709C407.949 170.215 410.862 172.014 414.301 169.95C414.581 169.78 414.495 168.93 414.207 169.031C411.929 169.84 409.439 167.541 407.353 164.527C408.555 165.009 409.806 165.157 411.086 164.917C411.468 164.848 411.517 163.726 411.118 163.632C410.714 163.536 410.312 163.39 409.919 163.222C409.733 163.141 409.55 163.038 409.366 162.941C409.175 162.84 408.984 162.739 408.795 162.623C408.55 162.468 408.31 162.302 408.07 162.12C407.968 162.042 407.862 161.961 407.76 161.878C407.477 161.647 407.194 161.405 406.919 161.134C406.892 161.109 406.868 161.08 406.841 161.055C406.302 160.526 405.787 159.927 405.286 159.25C405.283 159.247 405.281 159.245 405.281 159.245C404.063 157.606 402.96 155.585 402.03 153.207C401.826 152.638 401.615 152.077 401.405 151.532C401.182 150.861 400.982 150.177 400.785 149.498C402.807 153.299 405.283 155.932 407.884 157.482C408.321 157.74 408.504 156.471 408.105 156.089C405.682 153.79 403.575 150.092 401.877 145.768C404.038 147.941 406.383 149.062 409.002 149.116C409.054 149.119 409.097 149.085 409.132 149.038C409.137 149.029 409.143 149.022 409.151 149.013C409.218 148.906 409.248 148.735 409.242 148.565C409.242 148.56 409.242 148.558 409.242 148.553C409.232 148.338 409.167 148.136 409.032 148.112C408.825 148.082 408.617 148.026 408.41 147.957C408.294 147.919 408.178 147.863 408.062 147.813C407.954 147.766 407.844 147.724 407.736 147.667C407.593 147.591 407.45 147.497 407.307 147.405C407.243 147.365 407.181 147.327 407.116 147.284C406.957 147.172 406.801 147.048 406.647 146.918C406.601 146.88 406.555 146.847 406.512 146.808C406.343 146.663 406.175 146.503 406.011 146.337C405.981 146.308 405.952 146.281 405.925 146.252C405.747 146.071 405.569 145.88 405.394 145.676C405.38 145.66 405.367 145.644 405.351 145.626C404.971 145.185 404.596 144.7 404.23 144.18C402.464 141.663 400.872 138.337 399.581 135.323C400.524 136.639 401.502 137.559 402.478 137.931C402.607 137.978 402.672 137.588 402.543 137.518C396.557 134.41 395.403 117.274 394.202 107.031C394.175 106.8 394.115 106.614 394.043 106.457C394.034 106.439 394.024 106.43 394.016 106.414C393.945 106.275 393.865 106.174 393.773 106.105C393.77 106.103 393.77 106.098 393.768 106.096C393.76 106.089 393.749 106.089 393.738 106.083C393.673 106.04 393.611 106.004 393.547 106C393.466 105.988 393.388 106 393.315 106.049C393.296 105.564 393.283 105.089 393.253 104.607C393.242 104.463 393.223 104.338 393.194 104.232C393.191 104.219 393.185 104.212 393.18 104.201C392.973 103.512 392.401 103.696 392.248 104.513C388.45 124.878 382.543 144.864 371.744 149.298C371.736 149.287 371.725 149.273 371.714 149.262C371.445 149.372 371.189 149.52 370.911 149.614C370.766 149.652 370.766 150.043 370.86 150.206C373.073 154.069 376.94 151.444 380.196 147.652C379.716 148.493 379.223 149.327 378.692 150.105C376.894 152.723 374.703 156.61 372.469 157.24C372.445 157.24 372.421 157.249 372.396 157.249C372.38 157.249 372.369 157.274 372.353 157.289H372.348C372.345 157.289 372.345 157.289 372.342 157.289C372.31 157.312 372.28 157.343 372.259 157.39C372.253 157.406 372.253 157.422 372.248 157.437C372.186 157.624 372.194 157.906 372.324 157.998C372.598 158.202 372.895 158.388 373.207 158.559C373.213 158.561 373.216 158.566 373.221 158.568C373.477 158.707 373.744 158.835 374.021 158.951C374.135 158.998 374.256 159.034 374.372 159.077C374.563 159.149 374.757 159.218 374.957 159.277C375.089 159.315 375.226 159.344 375.361 159.377C375.555 159.425 375.749 159.472 375.951 159.508C376.091 159.532 376.231 159.552 376.371 159.57C376.576 159.597 376.784 159.62 376.994 159.635C377.134 159.644 377.272 159.653 377.414 159.656C377.635 159.662 377.856 159.658 378.08 159.647C378.215 159.642 378.347 159.638 378.482 159.626C378.73 159.606 378.975 159.57 379.223 159.53C379.333 159.512 379.444 159.501 379.557 159.478C379.915 159.407 380.276 159.317 380.632 159.2C379.519 162.47 378.228 165.384 376.317 167.894C375.77 168.618 375.215 169.34 374.657 170.049C374.641 170.069 374.628 170.089 374.612 170.107C374.043 170.827 373.469 171.529 372.889 172.202C372.558 172.586 372.224 172.956 371.887 173.317C371.841 173.364 371.798 173.416 371.752 173.463C371.461 173.77 371.165 174.061 370.868 174.344C370.787 174.423 370.707 174.503 370.623 174.58C370.348 174.835 370.07 175.069 369.79 175.3C369.693 175.378 369.599 175.466 369.502 175.542C369.133 175.831 368.758 176.1 368.381 176.338C367.831 176.369 367.303 176.401 366.834 176.446C366.642 176.461 366.586 176.905 366.723 177.154C366.845 177.365 366.982 177.554 367.117 177.746C367.106 177.96 367.133 178.17 367.181 178.343C367.181 178.345 367.181 178.35 367.181 178.354C367.181 178.357 367.184 178.357 367.184 178.359C367.208 178.444 367.243 178.509 367.284 178.565C367.295 178.581 367.303 178.603 367.314 178.617C367.367 178.671 367.429 178.7 367.502 178.688C367.607 178.682 367.723 178.641 367.828 178.619C368.038 178.83 368.259 179.016 368.486 179.182C368.561 179.238 368.642 179.278 368.72 179.328C368.874 179.429 369.03 179.532 369.189 179.615C369.294 179.669 369.405 179.709 369.513 179.756C369.653 179.817 369.788 179.882 369.93 179.929C370.062 179.974 370.197 180.005 370.329 180.039C370.453 180.07 370.574 180.108 370.698 180.133C370.857 180.164 371.019 180.182 371.181 180.202C371.283 180.216 371.383 180.232 371.485 180.238C371.677 180.254 371.871 180.256 372.065 180.256C372.138 180.256 372.208 180.258 372.28 180.258C372.512 180.254 372.744 180.236 372.978 180.211C373.011 180.209 373.04 180.207 373.073 180.202C373.445 180.162 373.817 180.106 374.188 180.027C373.313 181.429 372.38 182.714 371.391 183.524C370.512 183.82 369.583 183.89 368.575 183.65C368.459 183.627 368.381 183.961 368.462 184.132C368.491 184.186 368.524 184.226 368.551 184.28C368.421 184.258 368.394 184.63 368.483 184.771C368.839 185.348 369.224 185.697 369.623 185.893C369.75 186.047 369.885 186.173 370.017 186.299C370.022 186.303 370.027 186.307 370.033 186.312C370.539 186.801 371.068 187.14 371.617 187.312C371.623 187.315 371.625 187.317 371.631 187.319C371.833 187.375 372.035 187.427 372.245 187.451C370.13 189.405 367.729 190.63 365.532 190.737C365.263 190.706 364.993 190.645 364.718 190.567C364.419 190.372 364.123 190.163 363.829 189.936C363.301 189.515 363.012 190.901 363.282 191.704C364.583 195.609 367.216 197.457 369.707 198.32C370.044 198.437 370.378 198.538 370.704 198.621C370.389 199.354 370.06 200.07 369.709 200.756C369.48 201.2 369.222 201.667 368.949 202.138C368.833 202.335 368.71 202.537 368.588 202.739C368.432 202.999 368.27 203.261 368.1 203.526C367.923 203.802 367.742 204.08 367.556 204.358C367.448 204.52 367.338 204.679 367.225 204.84C365.772 206.933 364.063 208.992 362.365 210.506C362.363 210.508 362.36 210.51 362.357 210.512C362.039 210.795 361.721 211.06 361.406 211.309C361.045 211.585 360.684 211.849 360.333 212.058C358.873 212.096 357.444 211.863 356.1 211.246C355.986 211.199 355.827 211.457 355.914 211.721C356.151 212.448 356.426 213.072 356.719 213.63C356.746 213.682 356.771 213.742 356.798 213.792C356.798 213.794 356.8 213.796 356.803 213.798C357.04 214.227 357.293 214.597 357.56 214.931C357.614 214.998 357.668 215.061 357.722 215.126C357.983 215.431 358.253 215.709 358.539 215.938C358.544 215.942 358.549 215.949 358.557 215.954C358.848 216.185 359.15 216.366 359.46 216.523C359.533 216.559 359.603 216.593 359.676 216.627C359.986 216.766 360.298 216.884 360.619 216.961C359.431 217.452 358.237 217.88 357.037 218.293C356.838 218.363 356.897 218.908 357.059 218.97C359.091 219.733 361.673 219.764 364.177 218.768C363.473 219.742 362.786 220.623 362.171 221.402C361.837 221.819 361.498 222.198 361.153 222.548C361.123 222.577 361.093 222.602 361.064 222.631C360.743 222.949 360.417 223.245 360.088 223.514C360.069 223.53 360.048 223.544 360.029 223.561C359.606 223.9 359.177 224.196 358.741 224.452C358.708 224.472 358.676 224.492 358.644 224.512C358.191 224.773 357.733 224.992 357.269 225.167C357.253 225.174 357.237 225.176 357.221 225.183C356.806 225.338 356.388 225.452 355.968 225.544C355.868 225.567 355.765 225.589 355.666 225.607C355.229 225.688 354.79 225.746 354.348 225.764C353.771 225.515 353.197 225.282 352.615 225.071C352.48 225.024 352.421 225.414 352.496 225.6C352.515 225.647 352.537 225.679 352.558 225.726C352.451 225.795 352.421 226.107 352.518 226.248C352.777 226.645 353.041 226.989 353.31 227.298C353.48 227.619 353.663 227.883 353.838 228.171C353.841 228.175 353.844 228.177 353.847 228.18C355.108 230.238 356.563 231.577 358.137 232.351C358.15 232.358 358.167 232.362 358.18 232.369C358.557 232.551 358.94 232.712 359.328 232.833C359.377 232.849 359.425 232.856 359.471 232.872C359.829 232.977 360.191 233.071 360.557 233.132C360.67 233.152 360.789 233.154 360.902 233.168C361.207 233.206 361.514 233.246 361.821 233.257C362.252 233.273 362.686 233.262 363.12 233.224C362.789 233.455 362.452 233.654 362.115 233.836C361.805 233.998 361.492 234.134 361.18 234.258C361.153 234.269 361.126 234.282 361.099 234.294C360.301 234.294 359.509 234.341 358.716 234.457C358.598 234.473 358.498 234.581 358.425 234.735C357.854 234.608 357.296 234.462 356.771 234.294C356.366 234.161 356.288 235.314 356.544 235.733C361.832 244.512 370.448 240.533 376.956 236.052C376.757 237.203 376.512 238.333 376.288 239.472C376.078 240.533 375.881 241.596 375.649 242.653C375.226 244.582 374.776 246.504 374.28 248.433C374.261 248.513 374.261 248.592 374.272 248.664C374.275 248.673 374.275 248.677 374.277 248.684C374.299 248.796 374.347 248.872 374.407 248.861C374.434 248.861 374.461 248.845 374.485 248.796C374.73 248.336 374.973 247.892 375.215 247.441C375.407 247.121 375.595 246.771 375.787 246.427C375.593 246.91 375.404 247.401 375.196 247.861C375.102 248.071 375.231 248.383 375.342 248.197C378.279 243.056 381.117 238.584 383.36 232.174C383.718 235.733 384.279 238.817 385.257 242.005C385.327 242.253 385.516 242.052 385.448 241.794C384.95 239.979 384.605 237.891 384.359 235.695C384.621 236.559 384.893 237.378 385.163 238.133C385.653 239.515 386.203 240.773 386.769 241.993C386.383 255.013 385.602 268.668 385.602 268.668C391.03 273.553 393.42 267.515 393.42 267.515C393.172 261.309 393.15 248.641 393.177 238.775C394.061 240.982 395.018 243.065 395.907 245.088C395.991 245.277 396.126 245.01 396.048 244.817C395.12 242.471 394.264 239.885 393.506 237.214C394.711 239.519 396.013 241.574 397.409 243.243C397.77 243.68 398.142 244.059 398.519 244.422C398.699 244.602 398.883 244.777 399.066 244.943C399.071 244.947 399.077 244.952 399.079 244.956C399.104 244.976 399.128 244.992 399.15 245.012C400.276 246.01 401.443 246.764 402.634 247.363C402.715 247.403 402.793 247.448 402.874 247.486C403.206 247.648 403.54 247.793 403.874 247.935C404.011 247.993 404.151 248.051 404.289 248.107C404.596 248.231 404.903 248.347 405.213 248.46C405.394 248.525 405.574 248.587 405.755 248.648C406.035 248.742 406.316 248.839 406.596 248.928C406.863 249.013 407.127 249.096 407.394 249.179C408.032 249.377 408.671 249.57 409.307 249.772C409.369 249.79 409.423 249.778 409.471 249.754C409.49 249.745 409.504 249.731 409.52 249.718C409.55 249.693 409.579 249.662 409.603 249.624C409.617 249.601 409.63 249.583 409.644 249.559C409.671 249.502 409.695 249.437 409.714 249.366C409.717 249.352 409.725 249.341 409.727 249.325C409.749 249.236 409.762 249.137 409.771 249.036C409.773 249.005 409.773 248.975 409.776 248.942C409.779 248.865 409.779 248.789 409.776 248.713C409.773 248.679 409.773 248.648 409.771 248.614C409.762 248.527 409.752 248.444 409.736 248.363C409.733 248.343 409.73 248.323 409.725 248.305V248.302C409.719 248.276 409.706 248.255 409.7 248.231C409.652 248.056 409.582 247.903 409.482 247.82C409.037 247.459 408.593 247.132 408.151 246.815C407.881 246.62 407.612 246.427 407.34 246.244C406.93 245.833 406.531 245.389 406.138 244.911C406.111 244.817 406.076 244.734 406.016 244.694C405.936 244.64 405.865 244.546 405.787 244.483C405.06 243.541 404.378 242.467 403.761 241.179C403.704 241.069 403.65 240.941 403.594 240.816C407.685 246.427 412.754 249.451 417.543 248.655C417.551 248.652 417.562 248.652 417.57 248.65C417.982 248.581 418.389 248.48 418.796 248.352C418.834 248.341 418.869 248.329 418.907 248.318C419.295 248.193 419.68 248.038 420.063 247.856C420.117 247.831 420.168 247.807 420.219 247.78C420.588 247.598 420.955 247.39 421.316 247.156C421.378 247.116 421.44 247.073 421.499 247.031C421.852 246.793 422.203 246.533 422.548 246.241C422.615 246.185 422.68 246.122 422.747 246.064C423.084 245.768 423.421 245.454 423.747 245.106C423.763 245.088 423.782 245.075 423.798 245.057C424.103 244.721 424.407 244.402 424.704 244.028C424.946 243.725 424.825 242.837 424.534 243.016C424.262 243.187 423.984 243.296 423.704 243.438C423.669 243.406 423.631 243.366 423.585 243.359C423.259 243.258 422.933 243.142 422.601 243.009C422.599 243.009 422.599 243.012 422.596 243.012C419.702 241.881 416.891 239.578 414.489 236.023C415.123 236.521 415.762 236.996 416.403 237.487C416.713 237.73 416.842 236.763 416.559 236.483C415.018 234.971 413.352 233.414 411.98 231.185C413.886 232.502 415.829 233.32 417.325 233.601C420.254 234.161 425.48 234.854 427.45 229.128C427.668 228.572 427.337 227.832 427.054 228.159Z" fill="#233A2D"/>
</svg>
