<svg width="562" height="612" viewBox="0 0 562 612" fill="none" xmlns="http://www.w3.org/2000/svg">
<g filter="url(#filter0_d_10_135)">
<rect x="205.66" y="261.011" width="18" height="102.757" transform="rotate(84.7115 205.66 261.011)" fill="#BCBCBC"/>
</g>
<g filter="url(#filter1_d_10_135)">
<rect x="105" y="117.536" width="18" height="361" transform="rotate(-31.9913 105 117.536)" fill="#BCBCBC"/>
</g>
<g filter="url(#filter2_d_10_135)">
<rect x="444.879" y="252.331" width="18" height="102.757" transform="rotate(57.6649 444.879 252.331)" fill="#BCBCBC"/>
</g>
<g filter="url(#filter3_d_10_135)">
<rect x="308" y="165.01" width="18" height="102.757" transform="rotate(-0.033199 308 165.01)" fill="#BCBCBC"/>
</g>
<g filter="url(#filter4_d_10_135)">
<rect x="259" y="258" width="116" height="346" rx="47" fill="#D3D3D3"/>
</g>
<g filter="url(#filter5_d_10_135)">
<path d="M43.7144 256.929C35.6563 249.438 41.0855 235.957 52.0858 236.141L137.948 237.582C146.362 237.723 152.021 246.257 148.878 254.063L125.913 311.089C122.769 318.895 112.775 321.125 106.611 315.395L43.7144 256.929Z" fill="#9EEA9E"/>
</g>
<g filter="url(#filter6_d_10_135)">
<path d="M78.9193 87.7092C75.5405 76.6076 88.3192 67.6521 97.6013 74.6166L185.472 140.547C191.999 145.445 191.84 155.289 185.157 159.972L129.273 199.137C122.59 203.82 113.282 200.611 110.906 192.804L78.9193 87.7092Z" fill="#9EEA9E"/>
</g>
<g filter="url(#filter7_d_10_135)">
<path d="M497.614 213.529C508.572 210.798 516.891 223.338 510.116 232.372L454.257 306.862C449.283 313.495 439.241 313.206 434.657 306.297L400.172 254.322C395.588 247.413 399.225 238.048 407.27 236.044L497.614 213.529Z" fill="#9EEA9E"/>
</g>
<g filter="url(#filter8_d_10_135)">
<path d="M309.571 6.98005C314.104 2.98963 320.896 2.98963 325.429 6.98005L401.784 74.1961C405.208 77.2104 406.627 81.9054 405.446 86.3115L375.43 198.241C374.024 203.486 369.27 207.132 363.84 207.132H271.16C265.73 207.132 260.976 203.486 259.57 198.241L229.554 86.3115C228.373 81.9054 229.792 77.2104 233.216 74.1961L309.571 6.98005Z" fill="#56BEFF"/>
<path d="M309.571 6.98005C314.104 2.98963 320.896 2.98963 325.429 6.98005L401.784 74.1961C405.208 77.2104 406.627 81.9054 405.446 86.3115L375.43 198.241C374.024 203.486 369.27 207.132 363.84 207.132H271.16C265.73 207.132 260.976 203.486 259.57 198.241L229.554 86.3115C228.373 81.9054 229.792 77.2104 233.216 74.1961L309.571 6.98005Z" stroke="#E32BFF"/>
</g>
<defs>
<filter id="filter0_d_10_135" x="99.3409" y="261.011" width="111.978" height="35.3945" filterUnits="userSpaceOnUse" color-interpolation-filters="sRGB">
<feFlood flood-opacity="0" result="BackgroundImageFix"/>
<feColorMatrix in="SourceAlpha" type="matrix" values="0 0 0 0 0 0 0 0 0 0 0 0 0 0 0 0 0 0 127 0" result="hardAlpha"/>
<feOffset dy="4"/>
<feGaussianBlur stdDeviation="2"/>
<feComposite in2="hardAlpha" operator="out"/>
<feColorMatrix type="matrix" values="0 0 0 0 0 0 0 0 0 0 0 0 0 0 0 0 0 0 0.25 0"/>
<feBlend mode="normal" in2="BackgroundImageFix" result="effect1_dropShadow_10_135"/>
<feBlend mode="normal" in="SourceGraphic" in2="effect1_dropShadow_10_135" result="shape"/>
</filter>
<filter id="filter1_d_10_135" x="101" y="108" width="214.52" height="323.711" filterUnits="userSpaceOnUse" color-interpolation-filters="sRGB">
<feFlood flood-opacity="0" result="BackgroundImageFix"/>
<feColorMatrix in="SourceAlpha" type="matrix" values="0 0 0 0 0 0 0 0 0 0 0 0 0 0 0 0 0 0 127 0" result="hardAlpha"/>
<feOffset dy="4"/>
<feGaussianBlur stdDeviation="2"/>
<feComposite in2="hardAlpha" operator="out"/>
<feColorMatrix type="matrix" values="0 0 0 0 0 0 0 0 0 0 0 0 0 0 0 0 0 0 0.25 0"/>
<feBlend mode="normal" in2="BackgroundImageFix" result="effect1_dropShadow_10_135"/>
<feBlend mode="normal" in="SourceGraphic" in2="effect1_dropShadow_10_135" result="shape"/>
</filter>
<filter id="filter2_d_10_135" x="354.057" y="252.331" width="104.45" height="78.1703" filterUnits="userSpaceOnUse" color-interpolation-filters="sRGB">
<feFlood flood-opacity="0" result="BackgroundImageFix"/>
<feColorMatrix in="SourceAlpha" type="matrix" values="0 0 0 0 0 0 0 0 0 0 0 0 0 0 0 0 0 0 127 0" result="hardAlpha"/>
<feOffset dy="4"/>
<feGaussianBlur stdDeviation="2"/>
<feComposite in2="hardAlpha" operator="out"/>
<feColorMatrix type="matrix" values="0 0 0 0 0 0 0 0 0 0 0 0 0 0 0 0 0 0 0.25 0"/>
<feBlend mode="normal" in2="BackgroundImageFix" result="effect1_dropShadow_10_135"/>
<feBlend mode="normal" in="SourceGraphic" in2="effect1_dropShadow_10_135" result="shape"/>
</filter>
<filter id="filter3_d_10_135" x="304" y="165" width="26.0595" height="110.767" filterUnits="userSpaceOnUse" color-interpolation-filters="sRGB">
<feFlood flood-opacity="0" result="BackgroundImageFix"/>
<feColorMatrix in="SourceAlpha" type="matrix" values="0 0 0 0 0 0 0 0 0 0 0 0 0 0 0 0 0 0 127 0" result="hardAlpha"/>
<feOffset dy="4"/>
<feGaussianBlur stdDeviation="2"/>
<feComposite in2="hardAlpha" operator="out"/>
<feColorMatrix type="matrix" values="0 0 0 0 0 0 0 0 0 0 0 0 0 0 0 0 0 0 0.25 0"/>
<feBlend mode="normal" in2="BackgroundImageFix" result="effect1_dropShadow_10_135"/>
<feBlend mode="normal" in="SourceGraphic" in2="effect1_dropShadow_10_135" result="shape"/>
</filter>
<filter id="filter4_d_10_135" x="255" y="258" width="124" height="354" filterUnits="userSpaceOnUse" color-interpolation-filters="sRGB">
<feFlood flood-opacity="0" result="BackgroundImageFix"/>
<feColorMatrix in="SourceAlpha" type="matrix" values="0 0 0 0 0 0 0 0 0 0 0 0 0 0 0 0 0 0 127 0" result="hardAlpha"/>
<feOffset dy="4"/>
<feGaussianBlur stdDeviation="2"/>
<feComposite in2="hardAlpha" operator="out"/>
<feColorMatrix type="matrix" values="0 0 0 0 0 0 0 0 0 0 0 0 0 0 0 0 0 0 0.25 0"/>
<feBlend mode="normal" in2="BackgroundImageFix" result="effect1_dropShadow_10_135"/>
<feBlend mode="normal" in="SourceGraphic" in2="effect1_dropShadow_10_135" result="shape"/>
</filter>
<filter id="filter5_d_10_135" x="35.8587" y="236.139" width="117.899" height="90.4702" filterUnits="userSpaceOnUse" color-interpolation-filters="sRGB">
<feFlood flood-opacity="0" result="BackgroundImageFix"/>
<feColorMatrix in="SourceAlpha" type="matrix" values="0 0 0 0 0 0 0 0 0 0 0 0 0 0 0 0 0 0 127 0" result="hardAlpha"/>
<feOffset dy="4"/>
<feGaussianBlur stdDeviation="2"/>
<feComposite in2="hardAlpha" operator="out"/>
<feColorMatrix type="matrix" values="0 0 0 0 0 0 0 0 0 0 0 0 0 0 0 0 0 0 0.25 0"/>
<feBlend mode="normal" in2="BackgroundImageFix" result="effect1_dropShadow_10_135"/>
<feBlend mode="normal" in="SourceGraphic" in2="effect1_dropShadow_10_135" result="shape"/>
</filter>
<filter id="filter6_d_10_135" x="74.3645" y="72.1619" width="119.905" height="137.154" filterUnits="userSpaceOnUse" color-interpolation-filters="sRGB">
<feFlood flood-opacity="0" result="BackgroundImageFix"/>
<feColorMatrix in="SourceAlpha" type="matrix" values="0 0 0 0 0 0 0 0 0 0 0 0 0 0 0 0 0 0 127 0" result="hardAlpha"/>
<feOffset dy="4"/>
<feGaussianBlur stdDeviation="2"/>
<feComposite in2="hardAlpha" operator="out"/>
<feColorMatrix type="matrix" values="0 0 0 0 0 0 0 0 0 0 0 0 0 0 0 0 0 0 0.25 0"/>
<feBlend mode="normal" in2="BackgroundImageFix" result="effect1_dropShadow_10_135"/>
<feBlend mode="normal" in="SourceGraphic" in2="effect1_dropShadow_10_135" result="shape"/>
</filter>
<filter id="filter7_d_10_135" x="394.163" y="213.148" width="122.399" height="106.515" filterUnits="userSpaceOnUse" color-interpolation-filters="sRGB">
<feFlood flood-opacity="0" result="BackgroundImageFix"/>
<feColorMatrix in="SourceAlpha" type="matrix" values="0 0 0 0 0 0 0 0 0 0 0 0 0 0 0 0 0 0 127 0" result="hardAlpha"/>
<feOffset dy="4"/>
<feGaussianBlur stdDeviation="2"/>
<feComposite in2="hardAlpha" operator="out"/>
<feColorMatrix type="matrix" values="0 0 0 0 0 0 0 0 0 0 0 0 0 0 0 0 0 0 0.25 0"/>
<feBlend mode="normal" in2="BackgroundImageFix" result="effect1_dropShadow_10_135"/>
<feBlend mode="normal" in="SourceGraphic" in2="effect1_dropShadow_10_135" result="shape"/>
</filter>
<filter id="filter8_d_10_135" x="224.644" y="3.48724" width="185.711" height="212.145" filterUnits="userSpaceOnUse" color-interpolation-filters="sRGB">
<feFlood flood-opacity="0" result="BackgroundImageFix"/>
<feColorMatrix in="SourceAlpha" type="matrix" values="0 0 0 0 0 0 0 0 0 0 0 0 0 0 0 0 0 0 127 0" result="hardAlpha"/>
<feOffset dy="4"/>
<feGaussianBlur stdDeviation="2"/>
<feComposite in2="hardAlpha" operator="out"/>
<feColorMatrix type="matrix" values="0 0 0 0 0 0 0 0 0 0 0 0 0 0 0 0 0 0 0.25 0"/>
<feBlend mode="normal" in2="BackgroundImageFix" result="effect1_dropShadow_10_135"/>
<feBlend mode="normal" in="SourceGraphic" in2="effect1_dropShadow_10_135" result="shape"/>
</filter>
</defs>
</svg>
