<svg width="557" height="312" viewBox="0 0 557 312" fill="none" xmlns="http://www.w3.org/2000/svg">
<path d="M484.664 260.831C484.194 261.377 483.697 261.767 483.18 262.098C483.173 261.734 483.071 261.4 482.875 261.25C482.839 261.228 482.809 261.192 482.766 261.176C482.481 261.096 482.199 260.958 481.914 260.795C481.855 260.762 481.798 260.723 481.739 260.687C481.467 260.516 481.192 260.322 480.92 260.091C480.546 259.776 480.175 259.408 479.804 258.994C479.8 258.991 479.8 258.991 479.797 258.989C479.065 258.171 478.343 257.182 477.64 256.097C477.627 256.075 477.614 256.056 477.597 256.034C477.262 255.514 476.934 254.97 476.61 254.415C476.57 254.349 476.534 254.283 476.497 254.216C476.182 253.67 475.871 253.115 475.573 252.551C475.563 252.529 475.549 252.51 475.54 252.488C475.265 251.974 474.999 251.455 474.738 250.941C474.665 250.795 474.589 250.651 474.519 250.505C474.281 250.027 474.045 249.552 473.82 249.085C473.727 248.897 473.638 248.71 473.548 248.525C473.33 248.066 473.111 247.608 472.906 247.174C472.051 245.365 471.256 243.515 470.5 241.618C472.279 243.316 474.181 244.288 476.03 245.727C476.252 245.904 476.414 245.197 476.215 244.929C474.019 242.095 471.444 241.04 469.321 237.928C469.228 237.787 469.132 237.668 469.039 237.528C468.976 237.417 468.913 237.307 468.847 237.204C468.559 236.384 468.27 235.564 467.995 234.724C471.958 236.74 476.199 236.702 480.102 234.805C480.625 234.553 480.566 232.871 480.029 232.835C479.708 232.816 479.383 232.788 479.062 232.764C479.161 232.728 479.26 232.697 479.36 232.65C479.439 232.615 479.433 232.347 479.346 232.341C479.138 232.313 478.929 232.264 478.724 232.225C478.684 232.184 478.657 232.12 478.604 232.104C474.811 230.952 471.391 227.514 468.313 222.791C467.982 222.289 467.654 221.742 467.329 221.189C468.969 221.747 470.626 221.877 472.256 221.496C473.903 221.369 475.52 220.623 476.918 219.218C477.885 218.878 478.83 218.295 479.734 217.284C479.804 217.202 479.784 216.981 479.708 216.975C478.866 216.881 478.028 216.845 477.196 216.815C477.203 216.403 477.09 215.973 476.862 215.973C474.499 216.006 472.385 214.995 470.474 213.222C470.059 212.835 469.655 212.416 469.261 211.965C469.251 211.954 469.244 211.946 469.234 211.935C468.837 211.477 468.446 210.985 468.065 210.46C467.674 209.922 467.293 209.353 466.922 208.754C466.919 208.745 466.912 208.74 466.909 208.731C466.19 207.574 465.507 206.307 464.854 204.956C464.798 204.84 464.742 204.721 464.689 204.605C464.381 203.959 464.079 203.299 463.788 202.62C466.591 205.939 469.347 207.646 472.601 205.688C472.866 205.525 472.783 204.721 472.511 204.818C470.358 205.586 468.002 203.407 466.031 200.551C467.167 201.01 468.35 201.148 469.562 200.919C469.924 200.852 469.97 199.789 469.592 199.701C469.208 199.61 468.83 199.472 468.456 199.311C468.28 199.234 468.108 199.137 467.936 199.046C467.753 198.952 467.575 198.856 467.396 198.745C467.164 198.599 466.935 198.441 466.71 198.267C466.61 198.193 466.514 198.116 466.418 198.038C466.15 197.82 465.885 197.591 465.623 197.334C465.6 197.309 465.573 197.284 465.55 197.259C465.04 196.757 464.553 196.191 464.082 195.55C464.079 195.55 464.079 195.547 464.076 195.544C462.923 193.99 461.882 192.076 461.001 189.825C460.809 189.286 460.61 188.753 460.408 188.237C460.196 187.602 460.01 186.953 459.822 186.309C461.733 189.911 464.076 192.404 466.534 193.874C466.948 194.119 467.121 192.915 466.743 192.554C464.45 190.377 462.456 186.873 460.852 182.777C462.896 184.835 465.116 185.898 467.591 185.95C467.641 185.95 467.681 185.92 467.714 185.876C467.72 185.867 467.724 185.862 467.73 185.851C467.793 185.751 467.823 185.589 467.816 185.426C467.816 185.423 467.816 185.42 467.816 185.415C467.806 185.21 467.744 185.02 467.618 184.998C467.419 184.97 467.223 184.917 467.028 184.851C466.919 184.815 466.809 184.763 466.7 184.713C466.597 184.669 466.494 184.63 466.392 184.575C466.256 184.503 466.123 184.415 465.988 184.326C465.928 184.288 465.868 184.252 465.805 184.21C465.656 184.105 465.507 183.987 465.361 183.862C465.318 183.827 465.275 183.793 465.232 183.758C465.073 183.619 464.914 183.47 464.758 183.313C464.732 183.285 464.702 183.26 464.675 183.23C464.507 183.059 464.341 182.877 464.172 182.686C464.159 182.669 464.145 182.656 464.132 182.639C463.771 182.222 463.42 181.761 463.072 181.269C461.402 178.886 459.894 175.735 458.675 172.879C459.57 174.125 460.494 174.997 461.415 175.351C461.535 175.395 461.601 175.025 461.475 174.959C455.813 172.015 454.723 155.782 453.586 146.077C453.563 145.859 453.507 145.682 453.437 145.533C453.43 145.516 453.42 145.508 453.41 145.492C453.344 145.359 453.268 145.262 453.182 145.199C453.179 145.196 453.179 145.193 453.175 145.191C453.165 145.185 453.155 145.185 453.149 145.18C453.089 145.141 453.029 145.105 452.966 145.102C452.89 145.091 452.817 145.102 452.748 145.149C452.731 144.691 452.718 144.241 452.688 143.785C452.678 143.65 452.658 143.531 452.632 143.431C452.629 143.42 452.622 143.412 452.619 143.401C452.423 142.749 451.88 142.923 451.737 143.697C448.146 162.99 442.556 181.921 432.345 186.122C432.335 186.11 432.328 186.099 432.318 186.088C432.063 186.193 431.821 186.331 431.56 186.42C431.421 186.456 431.421 186.826 431.51 186.98C433.604 190.64 437.262 188.154 440.34 184.558C439.886 185.354 439.419 186.144 438.918 186.884C437.219 189.364 435.145 193.045 433.034 193.644C433.011 193.644 432.988 193.653 432.965 193.653C432.951 193.653 432.938 193.675 432.925 193.691C432.921 193.691 432.918 193.691 432.918 193.691C432.888 193.713 432.858 193.744 432.839 193.788C432.832 193.802 432.832 193.818 432.829 193.832C432.769 194.009 432.779 194.274 432.902 194.362C433.16 194.556 433.442 194.73 433.736 194.893C433.74 194.895 433.743 194.898 433.75 194.901C433.992 195.033 434.243 195.155 434.508 195.263C434.614 195.307 434.73 195.34 434.84 195.381C435.022 195.448 435.204 195.517 435.393 195.572C435.519 195.608 435.648 195.636 435.774 195.669C435.956 195.713 436.142 195.757 436.331 195.79C436.463 195.815 436.596 195.832 436.728 195.851C436.924 195.876 437.119 195.898 437.318 195.912C437.451 195.92 437.58 195.928 437.716 195.931C437.924 195.937 438.133 195.934 438.345 195.923C438.471 195.917 438.597 195.914 438.723 195.903C438.958 195.884 439.19 195.851 439.425 195.812C439.531 195.796 439.634 195.785 439.74 195.763C440.081 195.694 440.419 195.611 440.757 195.5C439.704 198.599 438.484 201.358 436.675 203.736C436.158 204.42 435.635 205.105 435.105 205.776C435.092 205.796 435.075 205.815 435.062 205.832C434.525 206.514 433.982 207.179 433.432 207.815C433.117 208.179 432.802 208.53 432.484 208.87C432.441 208.914 432.398 208.963 432.355 209.008C432.08 209.298 431.798 209.574 431.52 209.842C431.444 209.916 431.368 209.994 431.288 210.065C431.03 210.306 430.765 210.529 430.499 210.747C430.41 210.822 430.321 210.905 430.228 210.977C429.88 211.25 429.525 211.507 429.168 211.731C428.647 211.758 428.147 211.789 427.703 211.833C427.521 211.847 427.468 212.269 427.6 212.504C427.716 212.703 427.846 212.882 427.975 213.065C427.965 213.266 427.988 213.468 428.034 213.631C428.034 213.633 428.034 213.639 428.034 213.642C428.034 213.644 428.034 213.644 428.038 213.647C428.061 213.727 428.094 213.791 428.134 213.843C428.144 213.857 428.15 213.879 428.164 213.893C428.213 213.946 428.273 213.973 428.343 213.959C428.442 213.951 428.551 213.915 428.651 213.893C428.85 214.092 429.058 214.269 429.274 214.426C429.346 214.479 429.423 214.517 429.496 214.564C429.641 214.661 429.787 214.757 429.94 214.835C430.039 214.887 430.142 214.923 430.244 214.967C430.377 215.025 430.506 215.086 430.639 215.133C430.761 215.174 430.89 215.205 431.016 215.238C431.132 215.268 431.248 215.304 431.364 215.326C431.513 215.357 431.666 215.373 431.818 215.393C431.914 215.404 432.01 215.42 432.106 215.429C432.289 215.442 432.471 215.445 432.653 215.445C432.723 215.445 432.789 215.448 432.858 215.445C433.077 215.44 433.296 215.423 433.518 215.401C433.548 215.398 433.577 215.395 433.607 215.393C433.959 215.354 434.31 215.302 434.661 215.227C433.833 216.555 432.951 217.773 432.014 218.538C431.182 218.82 430.301 218.886 429.35 218.657C429.24 218.635 429.168 218.952 429.244 219.115C429.27 219.168 429.303 219.207 429.33 219.256C429.207 219.234 429.181 219.588 429.267 219.723C429.605 220.27 429.966 220.601 430.344 220.783C430.463 220.93 430.592 221.049 430.718 221.167C430.725 221.173 430.728 221.176 430.735 221.181C431.215 221.645 431.715 221.965 432.232 222.128C432.236 222.131 432.239 222.134 432.246 222.134C432.438 222.186 432.627 222.236 432.825 222.261C430.824 224.111 428.555 225.271 426.477 225.373C426.222 225.343 425.967 225.285 425.709 225.21C425.427 225.025 425.145 224.827 424.867 224.614C424.367 224.213 424.095 225.528 424.35 226.29C425.583 229.991 428.071 231.739 430.427 232.557C430.745 232.667 431.059 232.764 431.371 232.841C431.073 233.534 430.761 234.214 430.43 234.863C430.215 235.282 429.969 235.724 429.711 236.172C429.602 236.359 429.486 236.55 429.37 236.74C429.221 236.989 429.068 237.235 428.909 237.486C428.743 237.748 428.571 238.011 428.392 238.273C428.29 238.425 428.184 238.577 428.081 238.729C426.706 240.712 425.092 242.662 423.485 244.095C423.482 244.098 423.482 244.098 423.479 244.1C423.177 244.368 422.876 244.62 422.581 244.854C422.24 245.114 421.898 245.365 421.564 245.564C420.182 245.6 418.834 245.379 417.561 244.796C417.455 244.752 417.303 244.995 417.386 245.246C417.611 245.934 417.869 246.525 418.148 247.055C418.174 247.105 418.197 247.16 418.221 247.21C418.221 247.213 418.224 247.213 418.224 247.216C418.449 247.622 418.688 247.969 418.94 248.287C418.989 248.351 419.042 248.411 419.092 248.472C419.34 248.762 419.596 249.024 419.864 249.243C419.871 249.248 419.874 249.254 419.881 249.259C420.156 249.477 420.44 249.651 420.735 249.798C420.802 249.834 420.871 249.864 420.937 249.894C421.229 250.027 421.527 250.14 421.832 250.212C420.709 250.676 419.579 251.082 418.443 251.474C418.254 251.54 418.31 252.057 418.466 252.115C420.387 252.838 422.829 252.866 425.198 251.921C424.532 252.844 423.883 253.678 423.303 254.415C422.988 254.81 422.667 255.169 422.342 255.501C422.316 255.528 422.286 255.553 422.259 255.581C421.955 255.884 421.65 256.163 421.338 256.417C421.319 256.434 421.299 256.445 421.282 256.462C420.881 256.785 420.477 257.064 420.063 257.304C420.033 257.323 420 257.343 419.97 257.362C419.543 257.608 419.109 257.815 418.671 257.983C418.655 257.989 418.641 257.994 418.625 258C418.234 258.146 417.836 258.254 417.439 258.342C417.343 258.362 417.25 258.384 417.154 258.4C416.74 258.478 416.325 258.533 415.908 258.549C415.365 258.312 414.821 258.091 414.268 257.892C414.142 257.848 414.082 258.218 414.155 258.395C414.172 258.439 414.192 258.469 414.215 258.514C414.112 258.58 414.086 258.875 414.175 259.008C414.42 259.384 414.669 259.709 414.927 260.005C415.09 260.309 415.259 260.557 415.428 260.831C415.431 260.833 415.431 260.836 415.434 260.839C416.627 262.789 418.005 264.059 419.493 264.791C419.506 264.796 419.519 264.802 419.533 264.81C419.891 264.984 420.252 265.133 420.619 265.249C420.666 265.263 420.709 265.271 420.755 265.285C421.097 265.385 421.438 265.476 421.782 265.531C421.892 265.55 422.001 265.553 422.11 265.567C422.399 265.603 422.687 265.641 422.982 265.653C423.389 265.666 423.8 265.655 424.211 265.622C423.896 265.84 423.578 266.031 423.26 266.202C422.969 266.357 422.674 266.487 422.375 266.6C422.349 266.611 422.322 266.625 422.299 266.633C421.547 266.633 420.795 266.677 420.046 266.788C419.934 266.801 419.841 266.904 419.771 267.053C419.231 266.931 418.704 266.793 418.207 266.633C417.826 266.509 417.75 267.6 417.992 267.997C422.995 276.313 431.142 272.543 437.298 268.298C437.109 269.389 436.877 270.461 436.665 271.538C436.467 272.543 436.281 273.551 436.062 274.548C435.662 276.373 435.234 278.196 434.767 280.022C434.747 280.099 434.75 280.174 434.76 280.24C434.76 280.248 434.764 280.254 434.767 280.259C434.787 280.367 434.833 280.439 434.89 280.428C434.913 280.428 434.939 280.414 434.966 280.367C435.198 279.93 435.426 279.511 435.658 279.083C435.84 278.779 436.019 278.447 436.198 278.124C436.016 278.58 435.837 279.047 435.642 279.483C435.552 279.682 435.675 279.977 435.781 279.801C438.561 274.932 441.241 270.693 443.361 264.622C443.699 267.994 444.23 270.916 445.157 273.935C445.223 274.17 445.402 273.979 445.339 273.736C444.869 272.018 444.541 270.038 444.309 267.959C444.558 268.776 444.813 269.552 445.068 270.267C445.532 271.576 446.052 272.769 446.585 273.924C446.221 286.257 445.482 299.193 445.482 299.193C450.617 303.819 452.877 298.102 452.877 298.102C452.642 292.223 452.622 280.223 452.648 270.878C453.483 272.968 454.388 274.943 455.233 276.857C455.312 277.033 455.441 276.782 455.365 276.6C454.491 274.379 453.676 271.927 452.963 269.397C454.103 271.582 455.335 273.529 456.654 275.109C456.995 275.523 457.35 275.882 457.704 276.224C457.877 276.396 458.049 276.561 458.221 276.716C458.225 276.721 458.231 276.724 458.235 276.73C458.258 276.749 458.278 276.766 458.301 276.785C459.368 277.729 460.471 278.445 461.597 279.011C461.674 279.049 461.747 279.091 461.823 279.127C462.138 279.279 462.452 279.42 462.767 279.552C462.896 279.607 463.029 279.663 463.158 279.715C463.45 279.831 463.741 279.944 464.033 280.049C464.202 280.11 464.374 280.171 464.543 280.229C464.808 280.32 465.073 280.411 465.338 280.494C465.59 280.574 465.842 280.654 466.094 280.731C466.697 280.916 467.303 281.101 467.903 281.292C467.962 281.309 468.012 281.298 468.058 281.275C468.075 281.267 468.088 281.253 468.105 281.242C468.134 281.217 468.161 281.19 468.184 281.151C468.197 281.132 468.211 281.112 468.221 281.088C468.247 281.032 468.27 280.972 468.287 280.905C468.29 280.892 468.297 280.88 468.3 280.867C468.32 280.781 468.333 280.69 468.34 280.593C468.343 280.563 468.343 280.535 468.343 280.505C468.347 280.433 468.347 280.361 468.343 280.287C468.343 280.254 468.34 280.223 468.34 280.193C468.333 280.11 468.323 280.033 468.307 279.955C468.303 279.936 468.3 279.917 468.297 279.9C468.29 279.875 468.28 279.853 468.274 279.828C468.227 279.663 468.161 279.519 468.065 279.439C467.644 279.096 467.223 278.787 466.806 278.489C466.551 278.304 466.296 278.122 466.041 277.948C465.653 277.558 465.275 277.138 464.904 276.685C464.881 276.594 464.844 276.517 464.788 276.478C464.712 276.426 464.646 276.338 464.573 276.28C463.887 275.387 463.241 274.368 462.654 273.151C462.601 273.046 462.548 272.924 462.495 272.805C466.365 278.119 471.159 280.985 475.689 280.231C475.699 280.229 475.705 280.229 475.715 280.229C476.103 280.162 476.49 280.066 476.875 279.947C476.908 279.936 476.944 279.928 476.978 279.914C477.345 279.795 477.71 279.649 478.071 279.478C478.121 279.453 478.17 279.431 478.22 279.406C478.571 279.232 478.916 279.036 479.26 278.815C479.32 278.776 479.376 278.735 479.436 278.696C479.771 278.47 480.102 278.224 480.427 277.948C480.49 277.895 480.552 277.834 480.615 277.779C480.937 277.497 481.252 277.202 481.563 276.873C481.58 276.857 481.596 276.843 481.613 276.826C481.901 276.509 482.189 276.205 482.471 275.851C482.699 275.564 482.587 274.722 482.308 274.893C482.05 275.056 481.788 275.158 481.523 275.294C481.49 275.263 481.454 275.227 481.411 275.219C481.102 275.122 480.794 275.012 480.48 274.888L480.476 274.89C477.74 273.822 475.079 271.637 472.809 268.271C473.409 268.743 474.012 269.193 474.618 269.657C474.91 269.886 475.033 268.972 474.768 268.704C473.31 267.271 471.736 265.796 470.437 263.686C472.24 264.932 474.075 265.708 475.49 265.973C478.263 266.503 483.203 267.16 485.068 261.736C485.247 261.22 484.933 260.519 484.664 260.831Z" fill="#4A5E51"/>
<path d="M365.089 276.999C364.735 277.445 364.361 277.762 363.972 278.032C363.967 277.735 363.889 277.463 363.742 277.341C363.715 277.323 363.692 277.294 363.66 277.281C363.445 277.215 363.234 277.103 363.019 276.97C362.974 276.943 362.932 276.911 362.887 276.882C362.682 276.743 362.475 276.585 362.271 276.396C361.989 276.14 361.707 275.84 361.431 275.503C361.428 275.501 361.428 275.501 361.426 275.498C360.875 274.832 360.331 274.027 359.802 273.142C359.792 273.124 359.782 273.109 359.77 273.091C359.518 272.668 359.271 272.224 359.027 271.772C358.999 271.718 358.969 271.664 358.942 271.61C358.705 271.165 358.473 270.712 358.244 270.253C358.236 270.235 358.226 270.217 358.219 270.201C358.012 269.783 357.812 269.36 357.615 268.941C357.563 268.827 357.506 268.707 357.451 268.59C357.271 268.201 357.094 267.814 356.925 267.434C356.855 267.281 356.787 267.128 356.72 266.977C356.555 266.603 356.388 266.23 356.236 265.877C355.59 264.403 354.994 262.895 354.426 261.349C355.765 262.731 357.196 263.525 358.588 264.698C358.755 264.842 358.877 264.266 358.727 264.047C357.074 261.739 355.137 260.879 353.538 258.343C353.468 258.228 353.396 258.132 353.326 258.017C353.279 257.927 353.231 257.837 353.182 257.754C352.965 257.085 352.748 256.417 352.541 255.733C355.523 257.376 358.715 257.344 361.653 255.798C362.047 255.593 362.002 254.223 361.598 254.194C361.356 254.178 361.111 254.156 360.87 254.135C360.944 254.106 361.019 254.079 361.094 254.043C361.154 254.014 361.149 253.796 361.084 253.791C360.927 253.769 360.77 253.728 360.615 253.697C360.585 253.663 360.565 253.611 360.525 253.598C357.67 252.659 355.097 249.858 352.78 246.01C352.531 245.6 352.284 245.155 352.039 244.705C353.274 245.159 354.521 245.265 355.748 244.955C356.987 244.851 358.204 244.244 359.256 243.098C359.984 242.821 360.695 242.347 361.376 241.523C361.428 241.456 361.413 241.276 361.356 241.271C360.722 241.195 360.091 241.163 359.466 241.141C359.471 240.805 359.386 240.454 359.214 240.454C357.436 240.481 355.842 239.656 354.406 238.213C354.094 237.898 353.79 237.556 353.493 237.189C353.488 237.18 353.481 237.174 353.476 237.165C353.177 236.791 352.882 236.391 352.595 235.963C352.301 235.524 352.014 235.061 351.735 234.572C351.733 234.566 351.728 234.561 351.725 234.554C351.184 233.612 350.67 232.579 350.179 231.478C350.137 231.384 350.094 231.289 350.054 231.193C349.823 230.666 349.596 230.128 349.376 229.575C351.486 232.279 353.561 233.67 356.007 232.075C356.206 231.942 356.144 231.287 355.94 231.366C354.319 231.991 352.546 230.216 351.062 227.889C351.917 228.263 352.807 228.375 353.72 228.191C353.992 228.137 354.027 227.271 353.745 227.199C353.456 227.124 353.172 227.012 352.89 226.881C352.758 226.818 352.628 226.74 352.498 226.665C352.361 226.589 352.226 226.51 352.092 226.42C351.917 226.301 351.745 226.173 351.576 226.031C351.501 225.97 351.428 225.907 351.356 225.844C351.154 225.666 350.955 225.479 350.758 225.27C350.74 225.25 350.72 225.23 350.703 225.209C350.319 224.8 349.952 224.339 349.596 223.817C349.593 223.814 349.593 223.814 349.591 223.812C348.723 222.543 347.937 220.986 347.276 219.15C347.132 218.711 346.982 218.277 346.83 217.856C346.671 217.338 346.531 216.81 346.389 216.285C347.828 219.22 349.591 221.251 351.441 222.449C351.753 222.649 351.882 221.668 351.598 221.373C349.872 219.6 348.371 216.744 347.164 213.407C348.703 215.084 350.374 215.95 352.236 215.993C352.274 215.993 352.304 215.968 352.329 215.932C352.334 215.925 352.336 215.919 352.341 215.912C352.389 215.831 352.411 215.698 352.406 215.565C352.406 215.563 352.406 215.561 352.406 215.556C352.398 215.39 352.351 215.234 352.256 215.216C352.107 215.194 351.96 215.151 351.812 215.097C351.735 215.068 351.653 215.025 351.571 214.985C351.493 214.949 351.416 214.917 351.339 214.872C351.236 214.814 351.137 214.742 351.034 214.67C350.99 214.638 350.945 214.609 350.897 214.575C350.785 214.49 350.673 214.393 350.563 214.292C350.531 214.262 350.498 214.235 350.466 214.206C350.346 214.094 350.227 213.972 350.109 213.844C350.089 213.821 350.067 213.801 350.047 213.776C349.92 213.639 349.795 213.491 349.67 213.335C349.66 213.322 349.65 213.311 349.64 213.297C349.371 212.957 349.104 212.582 348.843 212.181C347.586 210.239 346.451 207.672 345.533 205.345C346.207 206.36 346.902 207.071 347.596 207.359C347.688 207.395 347.735 207.093 347.643 207.039C343.381 204.641 342.561 191.414 341.706 183.507C341.686 183.329 341.646 183.185 341.593 183.064C341.588 183.05 341.581 183.044 341.573 183.03C341.524 182.922 341.464 182.843 341.399 182.792C341.396 182.789 341.396 182.787 341.394 182.785C341.386 182.78 341.381 182.78 341.374 182.776C341.329 182.744 341.284 182.715 341.237 182.713C341.179 182.704 341.125 182.713 341.072 182.751C341.06 182.378 341.05 182.011 341.027 181.64C341.02 181.527 341.005 181.432 340.985 181.351C340.982 181.342 340.977 181.336 340.975 181.327C340.825 180.796 340.419 180.937 340.312 181.568C337.609 197.287 333.404 212.712 325.716 216.135C325.709 216.126 325.704 216.117 325.696 216.108C325.504 216.193 325.322 216.306 325.125 216.378C325.02 216.407 325.02 216.708 325.088 216.834C326.664 219.816 329.417 217.791 331.733 214.861C331.392 215.511 331.04 216.155 330.664 216.756C329.384 218.776 327.823 221.776 326.232 222.264C326.215 222.264 326.197 222.271 326.18 222.271C326.17 222.271 326.16 222.289 326.15 222.302H326.148C326.125 222.32 326.1 222.345 326.085 222.381C326.08 222.392 326.08 222.406 326.078 222.417C326.033 222.561 326.04 222.777 326.133 222.849C326.327 223.007 326.539 223.148 326.761 223.281C326.764 223.283 326.766 223.286 326.771 223.288C326.953 223.396 327.143 223.495 327.342 223.583C327.422 223.619 327.509 223.646 327.591 223.679C327.729 223.733 327.866 223.79 328.008 223.835C328.103 223.864 328.2 223.886 328.295 223.913C328.434 223.949 328.571 223.985 328.714 224.012C328.813 224.033 328.913 224.046 329.013 224.062C329.16 224.082 329.307 224.1 329.457 224.111C329.556 224.118 329.654 224.125 329.756 224.127C329.913 224.132 330.07 224.129 330.23 224.12C330.324 224.116 330.419 224.114 330.514 224.105C330.691 224.089 330.866 224.062 331.043 224.03C331.122 224.017 331.2 224.008 331.28 223.99C331.536 223.934 331.791 223.866 332.045 223.776C331.252 226.301 330.334 228.549 328.973 230.486C328.584 231.044 328.19 231.602 327.791 232.149C327.781 232.165 327.768 232.18 327.759 232.194C327.355 232.75 326.946 233.292 326.532 233.81C326.295 234.107 326.058 234.392 325.818 234.669C325.786 234.705 325.754 234.746 325.721 234.782C325.514 235.018 325.302 235.243 325.093 235.461C325.035 235.522 324.978 235.585 324.918 235.643C324.721 235.841 324.524 236.021 324.325 236.199C324.257 236.26 324.188 236.328 324.12 236.386C323.858 236.611 323.592 236.818 323.322 237C322.931 237.025 322.554 237.048 322.22 237.084C322.083 237.095 322.043 237.439 322.14 237.63C322.228 237.792 322.325 237.939 322.422 238.087C322.415 238.251 322.432 238.413 322.467 238.548C322.467 238.551 322.467 238.555 322.467 238.557C322.467 238.56 322.467 238.56 322.469 238.562C322.487 238.627 322.512 238.679 322.542 238.722C322.549 238.735 322.554 238.751 322.564 238.762C322.602 238.805 322.646 238.827 322.699 238.816C322.774 238.809 322.856 238.78 322.931 238.762C323.08 238.924 323.237 239.068 323.4 239.196C323.454 239.239 323.512 239.271 323.567 239.309C323.676 239.388 323.786 239.466 323.901 239.529C323.976 239.572 324.053 239.602 324.13 239.638C324.23 239.685 324.327 239.734 324.427 239.773C324.519 239.806 324.616 239.831 324.711 239.858C324.799 239.883 324.886 239.912 324.976 239.93C325.088 239.955 325.202 239.968 325.317 239.984C325.39 239.993 325.462 240.007 325.534 240.013C325.671 240.025 325.808 240.027 325.946 240.027C325.998 240.027 326.048 240.029 326.1 240.027C326.265 240.022 326.429 240.009 326.596 239.991C326.619 239.989 326.641 239.986 326.664 239.984C326.928 239.953 327.192 239.91 327.457 239.849C326.833 240.931 326.17 241.924 325.464 242.547C324.838 242.776 324.175 242.83 323.459 242.644C323.377 242.626 323.322 242.884 323.38 243.017C323.4 243.06 323.424 243.091 323.444 243.132C323.352 243.114 323.332 243.402 323.397 243.512C323.651 243.958 323.923 244.228 324.208 244.376C324.297 244.496 324.395 244.592 324.489 244.689C324.494 244.694 324.497 244.696 324.502 244.7C324.863 245.078 325.24 245.339 325.629 245.472C325.631 245.474 325.634 245.477 325.639 245.477C325.784 245.519 325.926 245.56 326.078 245.578C324.572 247.086 322.863 248.031 321.297 248.114C321.105 248.089 320.913 248.042 320.719 247.981C320.507 247.83 320.295 247.668 320.085 247.495C319.709 247.169 319.504 248.24 319.696 248.861C320.624 251.876 322.497 253.301 324.27 253.967C324.509 254.057 324.746 254.135 324.981 254.198C324.756 254.763 324.522 255.317 324.272 255.845C324.11 256.187 323.926 256.547 323.731 256.912C323.649 257.065 323.562 257.22 323.474 257.376C323.362 257.578 323.247 257.778 323.128 257.983C323.003 258.197 322.873 258.411 322.739 258.627C322.661 258.75 322.582 258.874 322.504 258.998C321.469 260.614 320.253 262.202 319.046 263.37C319.043 263.372 319.043 263.372 319.041 263.374C318.814 263.593 318.587 263.798 318.362 263.989C318.105 264.2 317.849 264.405 317.599 264.567C316.559 264.596 315.542 264.416 314.584 263.942C314.505 263.906 314.39 264.104 314.452 264.308C314.622 264.869 314.816 265.35 315.026 265.782C315.046 265.823 315.063 265.868 315.083 265.908C315.083 265.91 315.086 265.91 315.086 265.913C315.253 266.243 315.435 266.529 315.624 266.786C315.662 266.837 315.702 266.887 315.739 266.937C315.926 267.173 316.118 267.387 316.32 267.564C316.325 267.569 316.327 267.573 316.332 267.578C316.539 267.756 316.754 267.897 316.976 268.017C317.026 268.046 317.078 268.071 317.13 268.095C317.35 268.203 317.574 268.293 317.804 268.354C316.958 268.732 316.108 269.063 315.253 269.382C315.111 269.436 315.153 269.857 315.27 269.904C316.717 270.494 318.554 270.517 320.337 269.747C319.836 270.499 319.347 271.178 318.911 271.779C318.674 272.101 318.432 272.393 318.188 272.663C318.168 272.686 318.145 272.706 318.125 272.728C317.896 272.976 317.667 273.203 317.432 273.41C317.417 273.424 317.405 273.433 317.39 273.446C317.088 273.709 316.784 273.937 316.472 274.133C316.45 274.148 316.425 274.164 316.402 274.18C316.081 274.38 315.754 274.549 315.425 274.686C315.412 274.691 315.402 274.693 315.39 274.697C315.096 274.817 314.796 274.904 314.497 274.976C314.425 274.992 314.353 275.01 314.283 275.024C313.971 275.087 313.659 275.132 313.345 275.145C312.934 274.954 312.527 274.772 312.111 274.61C312.016 274.574 311.971 274.875 312.026 275.019C312.038 275.055 312.053 275.08 312.071 275.116C311.993 275.17 311.974 275.411 312.041 275.519C312.225 275.825 312.412 276.09 312.607 276.331C312.729 276.578 312.859 276.783 312.983 277.004C312.986 277.006 312.986 277.008 312.988 277.01C313.886 278.599 314.924 279.634 316.043 280.23C316.053 280.235 316.063 280.239 316.073 280.246C316.342 280.388 316.614 280.509 316.891 280.604C316.926 280.615 316.958 280.622 316.993 280.633C317.248 280.714 317.507 280.789 317.766 280.834C317.849 280.849 317.931 280.849 318.013 280.863C318.23 280.892 318.447 280.924 318.669 280.933C318.976 280.944 319.285 280.935 319.594 280.908C319.357 281.088 319.118 281.241 318.879 281.38C318.659 281.506 318.437 281.612 318.213 281.704C318.193 281.713 318.175 281.725 318.155 281.731C317.589 281.731 317.023 281.767 316.46 281.857C316.375 281.869 316.305 281.952 316.253 282.073C315.846 281.974 315.45 281.862 315.076 281.731C314.789 281.63 314.732 282.519 314.914 282.843C318.677 289.62 324.811 286.547 329.444 283.088C329.302 283.977 329.128 284.85 328.968 285.728C328.818 286.547 328.679 287.368 328.514 288.18C328.212 289.668 327.891 291.153 327.539 292.64C327.524 292.703 327.527 292.764 327.534 292.818C327.534 292.825 327.537 292.829 327.539 292.834C327.554 292.921 327.589 292.98 327.631 292.971C327.649 292.971 327.669 292.96 327.689 292.919C327.863 292.564 328.035 292.222 328.21 291.873C328.347 291.625 328.482 291.355 328.616 291.092C328.479 291.463 328.345 291.844 328.197 292.199C328.13 292.361 328.222 292.602 328.3 292.458C330.392 288.491 332.409 285.037 334.008 280.091C334.262 282.838 334.661 285.219 335.359 287.679C335.409 287.87 335.544 287.715 335.496 287.517C335.142 286.117 334.895 284.504 334.721 282.809C334.908 283.475 335.1 284.108 335.292 284.69C335.641 285.757 336.033 286.729 336.434 287.67C336.16 297.719 335.601 308.259 335.601 308.259C339.466 312.028 341.167 307.37 341.167 307.37C340.99 302.579 340.975 292.802 340.995 285.188C341.623 286.891 342.304 288.5 342.94 290.059C343 290.203 343.097 289.998 343.04 289.85C342.381 288.041 341.768 286.043 341.232 283.981C342.09 285.761 343.017 287.348 344.01 288.635C344.267 288.972 344.533 289.265 344.8 289.544C344.93 289.683 345.06 289.818 345.189 289.944C345.192 289.949 345.197 289.951 345.199 289.956C345.217 289.971 345.232 289.985 345.249 290.001C346.052 290.77 346.882 291.353 347.73 291.814C347.788 291.846 347.843 291.88 347.9 291.909C348.137 292.033 348.374 292.147 348.611 292.255C348.708 292.3 348.808 292.345 348.905 292.388C349.124 292.483 349.344 292.575 349.563 292.658C349.69 292.708 349.82 292.757 349.947 292.804C350.147 292.879 350.346 292.953 350.546 293.02C350.735 293.086 350.925 293.151 351.114 293.214C351.568 293.365 352.024 293.515 352.476 293.671C352.521 293.684 352.558 293.675 352.593 293.657C352.605 293.65 352.615 293.639 352.628 293.63C352.65 293.61 352.67 293.587 352.688 293.556C352.698 293.54 352.708 293.524 352.715 293.504C352.735 293.459 352.753 293.41 352.765 293.356C352.768 293.344 352.773 293.335 352.775 293.324C352.79 293.254 352.8 293.18 352.805 293.101C352.807 293.077 352.807 293.054 352.807 293.029C352.81 292.971 352.81 292.912 352.807 292.852C352.807 292.825 352.805 292.8 352.802 292.775C352.797 292.708 352.79 292.645 352.778 292.582C352.775 292.566 352.773 292.55 352.77 292.537C352.765 292.516 352.758 292.498 352.753 292.478C352.718 292.343 352.668 292.226 352.595 292.161C352.279 291.882 351.962 291.63 351.648 291.387C351.456 291.236 351.264 291.088 351.072 290.946C350.78 290.628 350.496 290.286 350.217 289.917C350.199 289.845 350.172 289.78 350.129 289.749C350.072 289.706 350.022 289.634 349.967 289.587C349.451 288.86 348.965 288.03 348.523 287.037C348.483 286.952 348.444 286.853 348.404 286.756C351.316 291.085 354.925 293.421 358.333 292.807C358.341 292.804 358.346 292.804 358.353 292.804C358.648 292.75 358.937 292.672 359.226 292.575C359.251 292.566 359.279 292.559 359.303 292.548C359.58 292.451 359.855 292.332 360.126 292.192C360.164 292.174 360.201 292.154 360.239 292.134C360.503 291.992 360.762 291.832 361.019 291.652C361.064 291.621 361.106 291.587 361.151 291.556C361.403 291.371 361.653 291.171 361.897 290.946C361.944 290.903 361.992 290.854 362.039 290.808C362.281 290.579 362.518 290.338 362.752 290.07C362.765 290.057 362.777 290.046 362.79 290.032C363.007 289.773 363.224 289.526 363.436 289.238C363.608 289.004 363.523 288.318 363.313 288.457C363.119 288.59 362.922 288.673 362.722 288.783C362.697 288.759 362.67 288.729 362.638 288.723C362.406 288.644 362.174 288.554 361.939 288.453L361.937 288.455C359.877 287.584 357.875 285.804 356.166 283.061C356.618 283.446 357.072 283.813 357.528 284.191C357.747 284.378 357.84 283.633 357.64 283.414C356.543 282.247 355.358 281.045 354.381 279.326C355.738 280.341 357.119 280.973 358.184 281.189C360.271 281.621 363.989 282.157 365.393 277.737C365.525 277.319 365.288 276.747 365.089 276.999Z" fill="#4A5E51"/>
<path d="M510.498 266.117C510.1 266.636 509.678 267.005 509.244 267.32C509.238 266.974 509.151 266.659 508.986 266.515C508.955 266.494 508.93 266.46 508.894 266.445C508.653 266.366 508.415 266.238 508.174 266.083C508.124 266.052 508.076 266.015 508.026 265.981C507.794 265.818 507.564 265.635 507.334 265.415C507.018 265.116 506.702 264.768 506.391 264.375C506.388 264.372 506.388 264.37 506.385 264.37C505.767 263.594 505.156 262.657 504.563 261.63C504.552 261.609 504.54 261.59 504.526 261.569C504.244 261.077 503.967 260.561 503.692 260.034C503.659 259.971 503.628 259.908 503.594 259.846C503.328 259.327 503.065 258.8 502.813 258.266C502.805 258.245 502.793 258.227 502.785 258.206C502.553 257.718 502.329 257.226 502.108 256.739C502.046 256.6 501.982 256.464 501.923 256.325C501.721 255.872 501.522 255.421 501.332 254.981C501.254 254.803 501.178 254.625 501.105 254.449C500.918 254.014 500.733 253.579 500.562 253.168C499.84 251.452 499.165 249.697 498.53 247.897C500.033 249.508 501.64 250.43 503.202 251.795C503.39 251.963 503.527 251.292 503.359 251.038C501.503 248.35 499.328 247.35 497.533 244.397C497.455 244.264 497.373 244.151 497.295 244.017C497.242 243.913 497.189 243.808 497.133 243.711C496.889 242.933 496.646 242.157 496.413 241.358C499.762 243.271 503.345 243.234 506.643 241.434C507.085 241.196 507.035 239.601 506.581 239.567C506.31 239.548 506.035 239.525 505.764 239.498C505.848 239.464 505.932 239.433 506.016 239.391C506.083 239.357 506.077 239.103 506.005 239.098C505.828 239.071 505.655 239.024 505.478 238.988C505.445 238.948 505.422 238.888 505.378 238.872C502.172 237.78 499.283 234.518 496.682 230.039C496.402 229.562 496.125 229.043 495.851 228.519C497.236 229.048 498.636 229.172 500.013 228.81C501.405 228.692 502.771 227.982 503.953 226.649C504.77 226.327 505.568 225.774 506.332 224.815C506.391 224.739 506.374 224.527 506.31 224.522C505.599 224.433 504.89 224.396 504.188 224.37C504.193 223.979 504.098 223.568 503.905 223.568C501.909 223.602 500.12 222.641 498.507 220.959C498.157 220.592 497.816 220.194 497.483 219.767C497.477 219.756 497.469 219.748 497.463 219.738C497.127 219.303 496.797 218.837 496.475 218.339C496.144 217.828 495.822 217.289 495.509 216.72C495.506 216.712 495.501 216.707 495.498 216.699C494.89 215.602 494.314 214.399 493.762 213.118C493.714 213.008 493.667 212.898 493.619 212.785C493.362 212.172 493.104 211.546 492.858 210.902C495.226 214.051 497.555 215.67 500.302 213.812C500.526 213.658 500.456 212.895 500.226 212.987C498.407 213.715 496.416 211.648 494.75 208.942C495.711 209.377 496.71 209.508 497.735 209.291C498.04 209.228 498.079 208.219 497.763 208.135C497.438 208.049 497.119 207.918 496.802 207.766C496.654 207.693 496.508 207.601 496.363 207.515C496.209 207.425 496.058 207.334 495.906 207.229C495.71 207.09 495.517 206.941 495.327 206.776C495.243 206.705 495.162 206.632 495.081 206.558C494.854 206.351 494.627 206.134 494.409 205.89C494.389 205.867 494.367 205.843 494.347 205.82C493.916 205.343 493.504 204.806 493.104 204.198C493.101 204.198 493.101 204.195 493.099 204.193C492.124 202.718 491.245 200.902 490.5 198.767C490.338 198.257 490.17 197.751 489.999 197.261C489.82 196.658 489.663 196.043 489.504 195.432C491.119 198.849 493.099 201.214 495.176 202.608C495.526 202.841 495.671 201.699 495.352 201.356C493.415 199.291 491.732 195.967 490.374 192.082C492.102 194.034 493.978 195.042 496.069 195.092C496.111 195.095 496.144 195.063 496.172 195.021C496.178 195.013 496.181 195.008 496.186 194.998C496.24 194.903 496.265 194.749 496.259 194.594C496.259 194.592 496.259 194.589 496.259 194.584C496.251 194.39 496.198 194.209 496.091 194.188C495.923 194.162 495.758 194.112 495.593 194.049C495.501 194.015 495.408 193.965 495.316 193.918C495.229 193.876 495.142 193.84 495.055 193.787C494.941 193.719 494.829 193.635 494.714 193.552C494.663 193.515 494.613 193.481 494.56 193.442C494.434 193.342 494.308 193.229 494.185 193.111C494.148 193.077 494.112 193.046 494.076 193.012C493.941 192.881 493.807 192.739 493.675 192.59C493.653 192.564 493.628 192.54 493.605 192.512C493.462 192.349 493.322 192.176 493.18 191.995C493.168 191.98 493.157 191.967 493.146 191.951C492.844 191.555 492.544 191.118 492.25 190.652C490.839 188.391 489.565 185.402 488.535 182.693C489.291 183.874 490.072 184.702 490.85 185.038C490.954 185.079 491.007 184.728 490.904 184.666C486.119 181.873 485.198 166.474 484.238 157.269C484.215 157.062 484.171 156.894 484.112 156.753C484.106 156.737 484.098 156.729 484.089 156.713C484.033 156.59 483.966 156.499 483.893 156.436C483.891 156.433 483.891 156.43 483.888 156.428C483.879 156.423 483.871 156.423 483.865 156.417C483.815 156.381 483.765 156.347 483.711 156.344C483.647 156.333 483.585 156.344 483.527 156.389C483.513 155.954 483.502 155.527 483.476 155.094C483.468 154.966 483.451 154.853 483.429 154.759C483.426 154.749 483.42 154.741 483.418 154.73C483.25 154.112 482.793 154.277 482.673 155.011C479.638 173.312 474.918 191.27 466.287 195.254C466.278 195.244 466.273 195.233 466.264 195.223C466.049 195.322 465.845 195.453 465.623 195.537C465.506 195.571 465.506 195.922 465.581 196.069C467.351 199.54 470.441 197.182 473.042 193.772C472.659 194.526 472.264 195.275 471.838 195.977C470.402 198.33 468.65 201.822 466.866 202.39C466.847 202.39 466.827 202.398 466.808 202.398C466.796 202.398 466.785 202.419 466.774 202.435H466.771C466.746 202.456 466.718 202.485 466.701 202.527C466.696 202.54 466.696 202.555 466.693 202.569C466.642 202.736 466.651 202.988 466.754 203.072C466.973 203.255 467.211 203.42 467.46 203.574C467.463 203.577 467.465 203.58 467.471 203.582C467.675 203.708 467.888 203.823 468.112 203.926C468.202 203.967 468.3 203.999 468.392 204.038C468.546 204.101 468.7 204.167 468.86 204.219C468.966 204.253 469.075 204.279 469.182 204.311C469.338 204.353 469.492 204.394 469.652 204.426C469.764 204.449 469.876 204.465 469.988 204.484C470.153 204.51 470.318 204.528 470.486 204.541C470.598 204.549 470.707 204.557 470.822 204.559C470.999 204.565 471.175 204.562 471.354 204.552C471.46 204.546 471.567 204.544 471.673 204.533C471.872 204.515 472.068 204.484 472.267 204.447C472.356 204.431 472.443 204.421 472.533 204.4C472.821 204.334 473.107 204.256 473.392 204.148C472.502 207.087 471.472 209.705 469.943 211.96C469.506 212.61 469.064 213.26 468.616 213.896C468.605 213.914 468.591 213.933 468.58 213.948C468.126 214.596 467.667 215.227 467.202 215.829C466.936 216.175 466.67 216.508 466.402 216.83C466.365 216.875 466.329 216.919 466.292 216.961C466.06 217.236 465.825 217.498 465.587 217.755C465.523 217.826 465.458 217.899 465.391 217.967C465.17 218.195 464.949 218.407 464.725 218.614C464.646 218.685 464.571 218.763 464.495 218.832C464.201 219.094 463.902 219.335 463.599 219.549C463.16 219.576 462.737 219.604 462.362 219.646C462.208 219.659 462.163 220.06 462.275 220.283C462.373 220.472 462.482 220.642 462.591 220.815C462.583 221.006 462.603 221.195 462.642 221.352C462.642 221.354 462.642 221.36 462.642 221.362C462.642 221.365 462.642 221.365 462.645 221.367C462.664 221.443 462.692 221.504 462.723 221.553C462.731 221.567 462.737 221.588 462.748 221.601C462.79 221.65 462.841 221.677 462.899 221.663C462.983 221.656 463.076 221.622 463.16 221.601C463.328 221.789 463.504 221.957 463.686 222.106C463.748 222.156 463.812 222.193 463.874 222.237C463.997 222.329 464.12 222.421 464.249 222.494C464.333 222.544 464.42 222.578 464.506 222.62C464.618 222.675 464.727 222.732 464.839 222.774C464.943 222.814 465.052 222.842 465.159 222.874C465.257 222.903 465.355 222.937 465.453 222.958C465.579 222.986 465.707 223.002 465.836 223.021C465.917 223.031 465.998 223.047 466.08 223.055C466.234 223.068 466.388 223.07 466.542 223.07C466.6 223.07 466.656 223.073 466.715 223.07C466.9 223.065 467.085 223.049 467.272 223.028C467.297 223.026 467.323 223.023 467.348 223.021C467.645 222.984 467.941 222.934 468.238 222.863C467.538 224.123 466.794 225.279 466.001 226.007C465.299 226.274 464.554 226.337 463.75 226.12C463.658 226.099 463.596 226.4 463.661 226.554C463.683 226.604 463.711 226.638 463.734 226.688C463.63 226.667 463.608 227.002 463.68 227.131C463.966 227.65 464.271 227.964 464.59 228.137C464.691 228.276 464.8 228.388 464.907 228.501C464.912 228.506 464.915 228.509 464.921 228.514C465.327 228.954 465.749 229.258 466.186 229.413C466.189 229.413 466.192 229.418 466.197 229.418C466.36 229.468 466.519 229.515 466.687 229.538C464.996 231.294 463.079 232.394 461.323 232.491C461.108 232.465 460.892 232.407 460.674 232.336C460.436 232.161 460.198 231.972 459.963 231.77C459.54 231.393 459.31 232.637 459.526 233.36C460.567 236.871 462.67 238.529 464.66 239.305C464.929 239.409 465.195 239.501 465.458 239.574C465.206 240.232 464.943 240.876 464.663 241.492C464.481 241.89 464.274 242.309 464.056 242.734C463.963 242.912 463.865 243.093 463.767 243.273C463.641 243.509 463.512 243.742 463.378 243.981C463.235 244.23 463.093 244.478 462.941 244.727C462.855 244.871 462.765 245.015 462.678 245.16C461.516 247.041 460.153 248.89 458.795 250.25C458.792 250.252 458.792 250.255 458.79 250.255C458.535 250.509 458.28 250.747 458.031 250.97C457.742 251.219 457.454 251.455 457.171 251.643C456.004 251.677 454.862 251.468 453.787 250.915C453.697 250.873 453.568 251.104 453.638 251.342C453.829 251.994 454.047 252.555 454.282 253.058C454.305 253.105 454.324 253.157 454.347 253.205C454.347 253.207 454.349 253.207 454.349 253.21C454.537 253.595 454.741 253.928 454.954 254.226C454.996 254.287 455.041 254.344 455.083 254.402C455.293 254.677 455.508 254.926 455.735 255.133C455.741 255.138 455.744 255.143 455.749 255.148C455.982 255.355 456.222 255.52 456.471 255.662C456.527 255.693 456.586 255.725 456.645 255.754C456.891 255.879 457.143 255.987 457.401 256.055C456.452 256.495 455.497 256.88 454.537 257.252C454.377 257.315 454.425 257.805 454.557 257.862C456.18 258.549 458.244 258.575 460.245 257.679C459.683 258.554 459.134 259.345 458.644 260.045C458.378 260.419 458.106 260.762 457.832 261.074C457.81 261.1 457.784 261.124 457.762 261.15C457.505 261.438 457.247 261.703 456.984 261.944C456.967 261.96 456.953 261.97 456.936 261.986C456.597 262.29 456.256 262.557 455.906 262.785C455.881 262.803 455.853 262.822 455.828 262.84C455.466 263.073 455.1 263.27 454.73 263.429C454.716 263.435 454.705 263.44 454.691 263.445C454.361 263.584 454.025 263.686 453.689 263.77C453.608 263.788 453.526 263.809 453.448 263.825C453.098 263.898 452.748 263.951 452.395 263.966C451.936 263.744 451.477 263.532 451.01 263.343C450.903 263.301 450.853 263.652 450.914 263.82C450.928 263.862 450.945 263.89 450.965 263.932C450.878 263.995 450.856 264.275 450.931 264.401C451.138 264.758 451.348 265.067 451.567 265.344C451.704 265.632 451.849 265.868 451.989 266.128C451.992 266.13 451.992 266.133 451.995 266.135C453.003 267.985 454.167 269.19 455.424 269.884C455.436 269.889 455.447 269.895 455.458 269.903C455.76 270.068 456.066 270.209 456.376 270.319C456.415 270.332 456.452 270.34 456.491 270.353C456.777 270.447 457.068 270.534 457.359 270.586C457.451 270.605 457.544 270.607 457.636 270.62C457.88 270.654 458.123 270.691 458.372 270.702C458.717 270.715 459.064 270.704 459.411 270.673C459.145 270.882 458.876 271.061 458.608 271.223C458.361 271.37 458.112 271.493 457.86 271.6C457.838 271.611 457.818 271.621 457.796 271.632C457.16 271.632 456.525 271.674 455.892 271.778C455.797 271.791 455.718 271.888 455.66 272.03C455.203 271.915 454.758 271.784 454.338 271.632C454.016 271.511 453.952 272.548 454.156 272.926C458.381 280.814 465.268 277.238 470.469 273.211C470.31 274.246 470.114 275.262 469.935 276.284C469.767 277.238 469.61 278.194 469.425 279.14C469.086 280.871 468.725 282.6 468.331 284.332C468.314 284.405 468.317 284.476 468.325 284.539C468.325 284.547 468.328 284.552 468.331 284.557C468.347 284.659 468.387 284.727 468.434 284.717C468.454 284.717 468.476 284.704 468.499 284.659C468.694 284.245 468.888 283.847 469.084 283.441C469.238 283.153 469.389 282.839 469.54 282.53C469.386 282.962 469.235 283.405 469.07 283.818C468.994 284.007 469.098 284.287 469.187 284.12C471.536 279.499 473.801 275.48 475.593 269.722C475.878 272.92 476.326 275.692 477.11 278.555C477.166 278.778 477.317 278.597 477.264 278.367C476.866 276.737 476.589 274.859 476.393 272.886C476.603 273.662 476.819 274.398 477.034 275.076C477.426 276.318 477.866 277.45 478.317 278.545C478.009 290.245 477.384 302.515 477.384 302.515C481.724 306.903 483.633 301.48 483.633 301.48C483.434 295.903 483.418 284.521 483.44 275.655C484.145 277.639 484.91 279.512 485.624 281.33C485.691 281.497 485.8 281.259 485.736 281.086C484.996 278.98 484.308 276.654 483.706 274.254C484.669 276.326 485.71 278.173 486.825 279.671C487.113 280.064 487.413 280.405 487.712 280.73C487.858 280.892 488.003 281.049 488.149 281.199C488.152 281.201 488.157 281.207 488.16 281.212C488.18 281.23 488.196 281.243 488.216 281.264C489.117 282.16 490.05 282.839 491.002 283.376C491.066 283.412 491.128 283.452 491.192 283.486C491.458 283.63 491.724 283.763 491.99 283.889C492.099 283.942 492.211 283.994 492.32 284.044C492.567 284.154 492.813 284.261 493.059 284.361C493.202 284.418 493.348 284.476 493.49 284.531C493.714 284.617 493.938 284.704 494.162 284.782C494.375 284.858 494.588 284.934 494.801 285.008C495.31 285.183 495.822 285.359 496.329 285.54C496.38 285.555 496.422 285.547 496.461 285.524C496.475 285.516 496.486 285.503 496.5 285.492C496.525 285.469 496.548 285.443 496.567 285.406C496.578 285.388 496.59 285.369 496.598 285.346C496.62 285.293 496.64 285.236 496.654 285.173C496.657 285.16 496.662 285.149 496.665 285.136C496.682 285.055 496.693 284.968 496.699 284.877C496.702 284.848 496.702 284.822 496.702 284.793C496.704 284.725 496.704 284.657 496.702 284.586C496.702 284.557 496.699 284.526 496.696 284.497C496.69 284.418 496.682 284.342 496.668 284.272C496.665 284.253 496.662 284.235 496.66 284.219C496.654 284.196 496.646 284.175 496.64 284.151C496.601 283.994 496.545 283.858 496.464 283.782C496.108 283.457 495.752 283.164 495.4 282.881C495.184 282.705 494.969 282.532 494.753 282.367C494.426 281.998 494.106 281.6 493.793 281.17C493.773 281.083 493.742 281.01 493.695 280.973C493.63 280.924 493.574 280.84 493.513 280.785C492.933 279.939 492.387 278.972 491.892 277.817C491.847 277.717 491.802 277.602 491.757 277.489C495.027 282.53 499.078 285.246 502.905 284.534C502.914 284.534 502.919 284.531 502.928 284.531C503.258 284.468 503.583 284.376 503.908 284.264C503.936 284.253 503.967 284.245 503.995 284.235C504.305 284.122 504.613 283.981 504.918 283.821C504.96 283.8 505.002 283.777 505.044 283.753C505.338 283.588 505.632 283.402 505.921 283.192C505.971 283.156 506.019 283.116 506.069 283.08C506.352 282.865 506.632 282.632 506.906 282.37C506.959 282.32 507.012 282.262 507.066 282.21C507.337 281.943 507.603 281.662 507.866 281.351C507.88 281.335 507.894 281.322 507.908 281.306C508.152 281.005 508.395 280.717 508.633 280.381C508.827 280.109 508.731 279.31 508.496 279.472C508.278 279.627 508.057 279.724 507.833 279.852C507.805 279.823 507.774 279.789 507.738 279.781C507.477 279.69 507.217 279.585 506.951 279.467C506.951 279.467 506.948 279.467 506.948 279.47C504.633 278.456 502.388 276.384 500.47 273.19C500.977 273.638 501.486 274.065 501.998 274.505C502.245 274.723 502.351 273.856 502.124 273.602C500.893 272.242 499.563 270.843 498.465 268.842C499.988 270.023 501.539 270.759 502.735 271.011C505.078 271.514 509.252 272.137 510.828 266.992C510.991 266.487 510.725 265.821 510.498 266.117Z" fill="#4A5E51"/>
<path d="M450.504 276.063C450.115 276.521 449.697 276.848 449.271 277.126C449.267 276.82 449.18 276.542 449.019 276.414C448.99 276.396 448.965 276.365 448.928 276.351C448.692 276.282 448.456 276.167 448.22 276.031C448.171 276.004 448.125 275.972 448.075 275.941C447.848 275.798 447.62 275.635 447.393 275.441C447.082 275.176 446.772 274.867 446.462 274.523C446.462 274.523 446.458 274.52 446.458 274.516C445.849 273.832 445.245 273.005 444.662 272.094C444.65 272.077 444.637 272.059 444.629 272.042C444.352 271.608 444.079 271.152 443.81 270.687C443.777 270.631 443.748 270.575 443.714 270.52C443.454 270.061 443.193 269.595 442.945 269.123C442.937 269.106 442.928 269.088 442.916 269.071C442.688 268.64 442.465 268.205 442.25 267.775C442.188 267.653 442.126 267.531 442.068 267.41C441.869 267.01 441.675 266.614 441.488 266.221C441.414 266.061 441.339 265.908 441.265 265.752C441.083 265.366 440.901 264.984 440.731 264.619C440.02 263.104 439.358 261.554 438.729 259.963C440.21 261.384 441.79 262.201 443.326 263.406C443.512 263.556 443.648 262.962 443.479 262.739C441.65 260.366 439.511 259.48 437.744 256.873C437.665 256.755 437.587 256.658 437.508 256.54C437.454 256.446 437.401 256.356 437.351 256.269C437.111 255.581 436.871 254.896 436.643 254.191C439.937 255.879 443.466 255.848 446.71 254.26C447.145 254.052 447.095 252.641 446.652 252.609C446.387 252.592 446.114 252.571 445.849 252.55C445.932 252.523 446.015 252.495 446.098 252.456C446.164 252.425 446.16 252.203 446.085 252.196C445.912 252.175 445.738 252.13 445.568 252.099C445.535 252.064 445.51 252.012 445.469 251.998C442.316 251.032 439.469 248.151 436.912 244.196C436.639 243.776 436.362 243.317 436.093 242.855C437.458 243.324 438.832 243.432 440.189 243.112C441.559 243.008 442.903 242.382 444.066 241.204C444.869 240.919 445.655 240.433 446.408 239.585C446.466 239.515 446.449 239.331 446.383 239.324C445.684 239.244 444.989 239.213 444.294 239.189C444.298 238.845 444.207 238.483 444.017 238.483C442.051 238.511 440.293 237.663 438.704 236.179C438.361 235.856 438.025 235.505 437.694 235.126C437.686 235.119 437.682 235.109 437.674 235.102C437.343 234.716 437.02 234.306 436.701 233.865C436.379 233.413 436.06 232.937 435.75 232.433C435.746 232.426 435.741 232.419 435.737 232.416C435.141 231.446 434.571 230.383 434.028 229.253C433.983 229.156 433.937 229.059 433.888 228.958C433.631 228.416 433.383 227.863 433.139 227.294C435.468 230.074 437.765 231.505 440.467 229.865C440.686 229.73 440.62 229.055 440.392 229.135C438.6 229.778 436.643 227.954 435.001 225.559C435.944 225.942 436.929 226.06 437.938 225.869C438.24 225.813 438.278 224.924 437.963 224.847C437.645 224.771 437.33 224.656 437.02 224.52C436.875 224.454 436.73 224.374 436.585 224.298C436.437 224.218 436.283 224.138 436.139 224.044C435.944 223.923 435.758 223.787 435.568 223.645C435.485 223.582 435.406 223.52 435.324 223.45C435.1 223.266 434.877 223.075 434.662 222.859C434.641 222.839 434.62 222.818 434.599 222.797C434.177 222.376 433.768 221.9 433.379 221.365L433.375 221.362C432.419 220.058 431.55 218.456 430.818 216.569C430.656 216.118 430.491 215.673 430.325 215.239C430.147 214.707 429.994 214.161 429.837 213.623C431.426 216.639 433.375 218.731 435.419 219.961C435.762 220.166 435.907 219.158 435.592 218.856C433.685 217.032 432.03 214.095 430.694 210.665C432.394 212.389 434.239 213.282 436.3 213.324C436.341 213.324 436.374 213.299 436.399 213.261C436.403 213.254 436.408 213.247 436.412 213.24C436.466 213.157 436.49 213.021 436.482 212.886C436.482 212.882 436.482 212.879 436.482 212.876C436.474 212.705 436.424 212.545 436.317 212.525C436.151 212.5 435.99 212.458 435.828 212.403C435.737 212.372 435.646 212.33 435.555 212.288C435.468 212.25 435.386 212.219 435.299 212.174C435.187 212.114 435.075 212.038 434.964 211.965C434.914 211.934 434.864 211.902 434.815 211.868C434.691 211.781 434.566 211.68 434.446 211.576C434.409 211.545 434.376 211.52 434.339 211.489C434.206 211.374 434.074 211.246 433.946 211.117C433.921 211.093 433.9 211.072 433.875 211.048C433.735 210.905 433.594 210.752 433.458 210.592C433.445 210.578 433.437 210.568 433.424 210.554C433.127 210.203 432.833 209.817 432.543 209.404C431.157 207.406 429.899 204.768 428.886 202.374C429.63 203.42 430.396 204.146 431.165 204.445C431.265 204.483 431.318 204.174 431.215 204.118C426.506 201.651 425.6 188.05 424.653 179.918C424.632 179.734 424.587 179.588 424.529 179.463C424.52 179.449 424.512 179.442 424.508 179.428C424.45 179.317 424.388 179.237 424.318 179.181C424.318 179.181 424.314 179.178 424.314 179.174C424.305 179.167 424.297 179.171 424.289 179.164C424.239 179.129 424.189 179.101 424.14 179.098C424.078 179.087 424.016 179.098 423.958 179.136C423.945 178.75 423.933 178.375 423.908 177.993C423.9 177.878 423.883 177.781 423.863 177.697C423.858 177.687 423.854 177.684 423.854 177.673C423.689 177.128 423.242 177.273 423.122 177.92C420.135 194.086 415.488 209.949 406.998 213.466C406.99 213.456 406.981 213.445 406.977 213.438C406.766 213.525 406.563 213.643 406.344 213.716C406.228 213.748 406.228 214.057 406.303 214.186C408.045 217.251 411.086 215.169 413.647 212.156C413.27 212.823 412.881 213.487 412.464 214.106C411.053 216.184 409.327 219.27 407.569 219.77C407.548 219.77 407.532 219.777 407.511 219.777C407.499 219.777 407.49 219.798 407.478 219.808C407.478 219.808 407.474 219.808 407.47 219.808C407.445 219.826 407.42 219.853 407.403 219.888C407.399 219.902 407.399 219.913 407.395 219.926C407.345 220.072 407.354 220.298 407.457 220.371C407.672 220.535 407.908 220.68 408.152 220.816C408.156 220.819 408.161 220.819 408.161 220.823C408.363 220.934 408.57 221.035 408.789 221.129C408.876 221.167 408.972 221.195 409.063 221.23C409.211 221.285 409.365 221.341 409.522 221.389C409.625 221.421 409.733 221.445 409.84 221.469C409.993 221.508 410.147 221.542 410.304 221.574C410.416 221.594 410.523 221.608 410.635 221.622C410.796 221.643 410.958 221.66 411.123 221.674C411.231 221.681 411.342 221.688 411.454 221.692C411.628 221.695 411.802 221.692 411.98 221.685C412.083 221.681 412.191 221.678 412.294 221.667C412.488 221.65 412.683 221.622 412.877 221.591C412.964 221.577 413.051 221.567 413.138 221.549C413.419 221.49 413.705 221.421 413.982 221.327C413.105 223.923 412.091 226.234 410.589 228.228C410.159 228.802 409.725 229.375 409.286 229.938C409.274 229.955 409.261 229.969 409.249 229.987C408.802 230.557 408.351 231.116 407.896 231.648C407.635 231.954 407.37 232.246 407.105 232.534C407.068 232.572 407.035 232.61 406.998 232.649C406.766 232.892 406.534 233.125 406.303 233.347C406.237 233.41 406.175 233.476 406.112 233.535C405.897 233.736 405.678 233.924 405.459 234.105C405.384 234.167 405.31 234.237 405.231 234.296C404.942 234.525 404.648 234.741 404.35 234.928C403.92 234.953 403.502 234.977 403.133 235.015C402.984 235.029 402.939 235.38 403.047 235.578C403.142 235.745 403.249 235.894 403.357 236.047C403.349 236.218 403.369 236.384 403.407 236.52C403.407 236.523 403.407 236.527 403.407 236.53C403.407 236.53 403.407 236.534 403.411 236.534C403.431 236.603 403.456 236.655 403.489 236.697C403.498 236.711 403.506 236.728 403.514 236.739C403.555 236.78 403.605 236.805 403.663 236.794C403.746 236.787 403.837 236.76 403.92 236.739C404.085 236.906 404.259 237.055 404.437 237.187C404.495 237.232 404.561 237.264 404.623 237.302C404.743 237.382 404.867 237.465 404.991 237.531C405.074 237.573 405.161 237.604 405.244 237.642C405.351 237.691 405.459 237.743 405.57 237.781C405.674 237.816 405.781 237.84 405.885 237.868C405.98 237.892 406.079 237.924 406.175 237.941C406.299 237.965 406.427 237.979 406.551 237.997C406.63 238.007 406.708 238.021 406.791 238.025C406.94 238.035 407.093 238.038 407.246 238.038C407.304 238.038 407.358 238.042 407.416 238.038C407.598 238.035 407.78 238.021 407.962 238.004C407.987 238 408.012 238 408.036 237.997C408.33 237.965 408.62 237.92 408.914 237.858C408.227 238.97 407.49 239.991 406.712 240.634C406.021 240.871 405.289 240.926 404.499 240.735C404.408 240.718 404.346 240.982 404.412 241.117C404.437 241.159 404.462 241.194 404.482 241.235C404.379 241.218 404.358 241.513 404.429 241.625C404.71 242.083 405.012 242.361 405.322 242.514C405.421 242.639 405.529 242.737 405.633 242.838C405.637 242.841 405.641 242.844 405.645 242.848C406.042 243.237 406.46 243.505 406.89 243.644C406.894 243.644 406.899 243.647 406.899 243.647C407.056 243.692 407.217 243.734 407.383 243.751C405.719 245.301 403.829 246.274 402.103 246.358C401.892 246.333 401.681 246.285 401.462 246.222C401.226 246.069 400.994 245.903 400.763 245.722C400.349 245.388 400.121 246.486 400.332 247.126C401.354 250.225 403.427 251.692 405.384 252.377C405.649 252.47 405.91 252.55 406.17 252.616C405.922 253.197 405.666 253.767 405.388 254.312C405.21 254.663 405.004 255.035 404.788 255.407C404.697 255.563 404.598 255.723 404.503 255.883C404.379 256.091 404.251 256.296 404.118 256.508C403.977 256.727 403.837 256.95 403.688 257.169C403.601 257.297 403.514 257.422 403.427 257.551C402.285 259.212 400.941 260.845 399.604 262.048L399.6 262.051C399.348 262.274 399.099 262.486 398.851 262.684C398.566 262.903 398.284 263.111 398.007 263.278C396.857 263.309 395.736 263.121 394.676 262.635C394.589 262.6 394.461 262.802 394.531 263.014C394.718 263.591 394.933 264.084 395.165 264.529C395.185 264.571 395.206 264.619 395.227 264.657C395.227 264.661 395.231 264.661 395.231 264.664C395.417 265.005 395.616 265.297 395.827 265.564C395.868 265.617 395.909 265.669 395.955 265.721C396.162 265.964 396.373 266.183 396.596 266.367C396.6 266.371 396.604 266.378 396.613 266.381C396.84 266.565 397.08 266.708 397.324 266.833C397.382 266.861 397.436 266.888 397.494 266.916C397.738 267.027 397.982 267.121 398.239 267.18C397.304 267.57 396.364 267.91 395.421 268.237C395.264 268.292 395.309 268.727 395.438 268.775C397.035 269.38 399.066 269.404 401.036 268.616C400.481 269.387 399.943 270.089 399.459 270.708C399.199 271.038 398.93 271.34 398.661 271.618C398.636 271.642 398.615 271.66 398.59 271.684C398.338 271.938 398.082 272.174 397.825 272.386C397.808 272.4 397.792 272.41 397.779 272.421C397.448 272.692 397.109 272.925 396.766 273.13C396.741 273.144 396.716 273.161 396.687 273.178C396.331 273.383 395.971 273.557 395.607 273.7C395.595 273.703 395.582 273.706 395.57 273.713C395.243 273.835 394.916 273.925 394.585 273.998C394.507 274.016 394.428 274.033 394.349 274.047C394.006 274.11 393.658 274.158 393.311 274.172C392.86 273.974 392.405 273.79 391.95 273.623C391.846 273.585 391.797 273.894 391.859 274.044C391.871 274.082 391.892 274.106 391.908 274.144C391.821 274.2 391.801 274.447 391.875 274.558C392.078 274.874 392.285 275.145 392.5 275.392C392.632 275.646 392.777 275.854 392.918 276.083C392.918 276.087 392.922 276.087 392.922 276.09C393.915 277.724 395.061 278.787 396.298 279.402C396.311 279.409 396.323 279.413 396.331 279.416C396.629 279.562 396.927 279.687 397.233 279.784C397.271 279.798 397.308 279.802 397.345 279.816C397.626 279.899 397.912 279.976 398.201 280.021C398.293 280.035 398.384 280.038 398.475 280.048C398.715 280.08 398.955 280.111 399.199 280.118C399.538 280.128 399.877 280.121 400.221 280.094C399.96 280.278 399.695 280.434 399.43 280.58C399.186 280.709 398.942 280.816 398.694 280.914C398.673 280.921 398.652 280.935 398.632 280.942C398.003 280.942 397.382 280.98 396.757 281.07C396.666 281.084 396.588 281.167 396.53 281.293C396.079 281.192 395.64 281.077 395.231 280.942C394.912 280.837 394.85 281.751 395.053 282.085C399.211 289.052 405.988 285.894 411.106 282.339C410.949 283.253 410.759 284.149 410.581 285.053C410.416 285.894 410.262 286.738 410.08 287.575C409.749 289.104 409.394 290.634 409.005 292.163C408.988 292.225 408.992 292.288 409 292.347C409 292.354 409.005 292.357 409.005 292.364C409.021 292.454 409.058 292.514 409.104 292.507C409.125 292.507 409.145 292.496 409.166 292.454C409.36 292.09 409.547 291.739 409.741 291.381C409.894 291.127 410.043 290.849 410.192 290.578C410.039 290.96 409.89 291.349 409.729 291.714C409.654 291.881 409.758 292.128 409.845 291.982C412.153 287.902 414.388 284.351 416.15 279.263C416.432 282.088 416.874 284.538 417.644 287.065C417.702 287.263 417.847 287.103 417.797 286.898C417.404 285.459 417.135 283.798 416.94 282.057C417.147 282.742 417.358 283.391 417.573 283.993C417.958 285.091 418.393 286.088 418.835 287.058C418.533 297.393 417.917 308.231 417.917 308.231C422.187 312.109 424.065 307.317 424.065 307.317C423.871 302.393 423.854 292.336 423.875 284.507C424.57 286.258 425.323 287.913 426.022 289.518C426.089 289.667 426.196 289.455 426.134 289.303C425.406 287.44 424.731 285.386 424.136 283.27C425.083 285.101 426.109 286.731 427.206 288.055C427.491 288.403 427.781 288.701 428.079 288.99C428.223 289.132 428.364 289.271 428.509 289.403C428.513 289.407 428.517 289.41 428.521 289.414C428.538 289.431 428.559 289.442 428.575 289.459C429.461 290.251 430.379 290.849 431.314 291.325C431.376 291.356 431.438 291.391 431.5 291.422C431.761 291.551 432.022 291.666 432.287 291.777C432.394 291.822 432.506 291.871 432.613 291.916C432.858 292.013 433.098 292.107 433.342 292.194C433.482 292.246 433.623 292.295 433.768 292.343C433.987 292.42 434.206 292.496 434.43 292.566C434.641 292.635 434.848 292.698 435.059 292.764C435.559 292.92 436.064 293.073 436.565 293.233C436.614 293.247 436.656 293.24 436.697 293.219C436.71 293.212 436.722 293.202 436.734 293.191C436.759 293.17 436.78 293.146 436.801 293.115C436.813 293.097 436.821 293.083 436.834 293.063C436.854 293.017 436.875 292.965 436.888 292.91C436.892 292.899 436.896 292.889 436.9 292.878C436.916 292.809 436.929 292.729 436.933 292.649C436.933 292.625 436.937 292.6 436.937 292.576C436.941 292.514 436.941 292.454 436.937 292.392C436.937 292.364 436.933 292.34 436.933 292.312C436.929 292.243 436.916 292.176 436.904 292.114C436.9 292.1 436.9 292.083 436.896 292.069C436.896 292.069 436.896 292.069 436.896 292.065C436.892 292.044 436.883 292.027 436.875 292.01C436.834 291.871 436.78 291.749 436.701 291.683C436.35 291.398 436.002 291.137 435.654 290.887C435.439 290.731 435.228 290.581 435.017 290.435C434.695 290.109 434.38 289.758 434.074 289.379C434.053 289.303 434.024 289.237 433.979 289.205C433.917 289.164 433.859 289.087 433.801 289.038C433.23 288.291 432.692 287.436 432.208 286.418C432.167 286.331 432.121 286.231 432.076 286.13C435.295 290.585 439.279 292.983 443.048 292.354C443.057 292.354 443.061 292.35 443.069 292.35C443.392 292.295 443.714 292.215 444.033 292.114C444.062 292.103 444.091 292.097 444.12 292.086C444.426 291.985 444.728 291.864 445.03 291.721C445.072 291.7 445.113 291.683 445.154 291.662C445.444 291.516 445.734 291.353 446.019 291.165C446.069 291.134 446.114 291.099 446.164 291.064C446.441 290.877 446.718 290.668 446.987 290.439C447.041 290.394 447.091 290.345 447.144 290.3C447.409 290.064 447.674 289.817 447.931 289.539C447.943 289.525 447.96 289.515 447.972 289.501C448.212 289.233 448.452 288.979 448.684 288.684C448.874 288.444 448.779 287.739 448.551 287.881C448.336 288.017 448.117 288.104 447.898 288.215C447.869 288.191 447.84 288.159 447.802 288.152C447.546 288.072 447.289 287.979 447.029 287.874C447.029 287.874 447.024 287.874 447.024 287.878C444.749 286.981 442.535 285.15 440.649 282.332C441.145 282.728 441.65 283.103 442.15 283.492C442.395 283.683 442.498 282.919 442.275 282.696C441.062 281.498 439.751 280.26 438.675 278.492C440.173 279.538 441.699 280.187 442.879 280.41C445.183 280.855 449.292 281.404 450.843 276.862C450.988 276.389 450.728 275.802 450.504 276.063Z" fill="#4A5E51"/>
<path d="M413.933 266.072C413.517 266.642 413.077 267.048 412.62 267.393C412.614 267.013 412.523 266.665 412.35 266.51C412.318 266.487 412.292 266.449 412.254 266.432C412.002 266.346 411.752 266.205 411.5 266.032C411.448 265.998 411.398 265.957 411.348 265.92C411.105 265.742 410.864 265.54 410.624 265.299C410.293 264.971 409.962 264.588 409.636 264.156C409.633 264.154 409.633 264.154 409.63 264.151C408.983 263.299 408.344 262.269 407.722 261.138C407.711 261.115 407.699 261.095 407.684 261.072C407.388 260.531 407.098 259.965 406.811 259.386C406.776 259.317 406.744 259.248 406.708 259.179C406.43 258.61 406.157 258.031 405.891 257.444C405.879 257.421 405.87 257.401 405.861 257.378C405.618 256.843 405.384 256.302 405.152 255.764C405.088 255.615 405.02 255.462 404.956 255.312C404.745 254.815 404.537 254.32 404.337 253.834C404.255 253.638 404.176 253.442 404.1 253.25C403.906 252.772 403.713 252.295 403.531 251.843C402.775 249.958 402.072 248.031 401.403 246.054C402.977 247.821 404.66 248.836 406.295 250.335C406.491 250.519 406.635 249.783 406.459 249.504C404.516 246.552 402.239 245.453 400.36 242.211C400.278 242.064 400.193 241.94 400.111 241.793C400.055 241.678 400 241.563 399.941 241.457C399.686 240.602 399.431 239.748 399.188 238.873C402.693 240.971 406.445 240.933 409.897 238.957C410.36 238.695 410.307 236.943 409.833 236.905C409.548 236.885 409.261 236.856 408.977 236.831C409.065 236.793 409.153 236.759 409.241 236.713C409.311 236.675 409.305 236.399 409.229 236.39C409.044 236.362 408.86 236.31 408.678 236.27C408.643 236.226 408.619 236.16 408.572 236.143C405.217 234.943 402.192 231.361 399.469 226.442C399.176 225.918 398.886 225.348 398.599 224.773C400.049 225.354 401.515 225.489 402.957 225.092C404.413 224.96 405.844 224.183 407.081 222.719C407.936 222.365 408.772 221.758 409.572 220.705C409.633 220.619 409.616 220.389 409.548 220.383C408.804 220.285 408.062 220.248 407.327 220.216C407.333 219.787 407.233 219.338 407.031 219.338C404.941 219.373 403.068 218.32 401.38 216.473C401.014 216.07 400.656 215.633 400.307 215.161C400.299 215.152 400.293 215.141 400.284 215.129C399.932 214.652 399.586 214.14 399.249 213.593C398.903 213.032 398.566 212.439 398.238 211.815C398.235 211.806 398.229 211.801 398.226 211.792C397.59 210.587 396.987 209.266 396.409 207.859C396.359 207.738 396.31 207.617 396.26 207.494C395.99 206.821 395.72 206.133 395.463 205.425C397.942 208.883 400.381 210.661 403.256 208.622C403.49 208.452 403.417 207.615 403.177 207.715C401.272 208.515 399.188 206.245 397.444 203.27C398.449 203.748 399.495 203.892 400.568 203.656C400.888 203.587 400.929 202.479 400.595 202.387C400.255 202.292 399.92 202.148 399.589 201.981C399.434 201.901 399.282 201.8 399.129 201.705C398.968 201.607 398.81 201.507 398.651 201.389C398.446 201.236 398.244 201.072 398.045 200.891C397.957 200.813 397.872 200.733 397.787 200.652C397.549 200.425 397.312 200.183 397.083 199.919C397.063 199.893 397.039 199.867 397.019 199.841C396.568 199.317 396.137 198.728 395.718 198.06C395.715 198.06 395.715 198.057 395.712 198.054C394.692 196.435 393.771 194.441 392.992 192.096C392.822 191.535 392.646 190.98 392.47 190.442C392.283 189.78 392.118 189.104 391.951 188.434C393.643 192.185 395.715 194.783 397.889 196.314C398.256 196.57 398.408 195.315 398.074 194.939C396.046 192.671 394.281 189.021 392.863 184.754C394.671 186.897 396.635 188.005 398.824 188.057C398.868 188.06 398.903 188.025 398.933 187.979C398.939 187.97 398.942 187.962 398.947 187.953C399.003 187.847 399.029 187.68 399.024 187.51C399.024 187.507 399.024 187.504 399.024 187.499C399.015 187.286 398.959 187.087 398.848 187.064C398.672 187.035 398.499 186.981 398.326 186.912C398.229 186.874 398.133 186.82 398.036 186.768C397.945 186.722 397.854 186.679 397.763 186.624C397.643 186.549 397.526 186.457 397.406 186.365C397.353 186.325 397.3 186.287 397.245 186.244C397.113 186.135 396.981 186.011 396.852 185.882C396.814 185.844 396.776 185.81 396.737 185.772C396.597 185.629 396.456 185.473 396.318 185.309C396.295 185.28 396.269 185.255 396.245 185.226C396.096 185.047 395.949 184.857 395.803 184.659C395.791 184.642 395.779 184.627 395.767 184.61C395.451 184.176 395.137 183.695 394.829 183.183C393.352 180.7 392.019 177.418 390.94 174.443C391.732 175.74 392.549 176.649 393.364 177.018C393.472 177.064 393.528 176.678 393.417 176.609C388.408 173.542 387.444 156.631 386.438 146.521C386.415 146.294 386.368 146.11 386.307 145.955C386.301 145.937 386.292 145.929 386.283 145.911C386.224 145.773 386.154 145.676 386.078 145.606C386.075 145.604 386.075 145.601 386.072 145.598C386.063 145.592 386.057 145.592 386.049 145.586C385.996 145.546 385.943 145.509 385.887 145.506C385.82 145.494 385.756 145.506 385.694 145.555C385.679 145.077 385.668 144.608 385.641 144.133C385.632 143.992 385.615 143.869 385.591 143.765C385.588 143.754 385.583 143.745 385.58 143.734C385.404 143.055 384.926 143.236 384.8 144.041C381.623 164.14 376.679 183.862 367.646 188.238C367.637 188.226 367.631 188.215 367.622 188.203C367.397 188.313 367.183 188.459 366.951 188.549C366.828 188.586 366.828 188.972 366.907 189.133C368.759 192.945 371.995 190.355 374.718 186.61C374.316 187.438 373.903 188.261 373.46 189.032C371.957 191.616 370.122 195.451 368.255 196.072C368.235 196.072 368.214 196.081 368.194 196.081C368.182 196.081 368.17 196.104 368.159 196.121H368.156C368.129 196.144 368.1 196.176 368.082 196.222C368.076 196.236 368.076 196.253 368.074 196.268C368.021 196.452 368.03 196.728 368.138 196.82C368.367 197.021 368.616 197.203 368.877 197.372C368.88 197.375 368.882 197.378 368.885 197.381C369.099 197.519 369.322 197.646 369.557 197.758C369.65 197.804 369.753 197.839 369.85 197.882C370.011 197.951 370.172 198.023 370.339 198.08C370.45 198.118 370.565 198.146 370.676 198.181C370.84 198.227 371.001 198.273 371.169 198.307C371.286 198.33 371.403 198.351 371.52 198.368C371.693 198.397 371.866 198.417 372.042 198.431C372.159 198.44 372.273 198.448 372.394 198.451C372.578 198.457 372.763 198.451 372.951 198.443C373.062 198.437 373.173 198.434 373.285 198.423C373.493 198.402 373.698 198.368 373.906 198.328C374 198.31 374.091 198.299 374.184 198.276C374.486 198.204 374.785 198.118 375.084 198C374.152 201.228 373.074 204.102 371.473 206.579C371.016 207.292 370.553 208.006 370.084 208.705C370.072 208.725 370.058 208.745 370.046 208.763C369.571 209.473 369.091 210.167 368.604 210.828C368.326 211.208 368.047 211.573 367.766 211.927C367.728 211.973 367.69 212.022 367.651 212.071C367.408 212.376 367.162 212.661 366.913 212.943C366.846 213.02 366.778 213.101 366.708 213.176C366.479 213.426 366.245 213.659 366.01 213.886C365.931 213.964 365.849 214.05 365.77 214.125C365.462 214.41 365.149 214.678 364.832 214.911C364.372 214.939 363.929 214.971 363.537 215.017C363.375 215.032 363.328 215.472 363.443 215.716C363.545 215.923 363.66 216.11 363.774 216.3C363.765 216.51 363.786 216.717 363.827 216.89C363.827 216.893 363.827 216.899 363.827 216.902C363.827 216.904 363.83 216.904 363.83 216.904C363.85 216.988 363.879 217.054 363.915 217.109C363.923 217.123 363.929 217.146 363.941 217.16C363.985 217.212 364.038 217.244 364.099 217.23C364.187 217.221 364.284 217.184 364.372 217.16C364.548 217.368 364.732 217.552 364.923 217.716C364.987 217.77 365.055 217.811 365.119 217.86C365.248 217.96 365.377 218.061 365.512 218.142C365.6 218.196 365.691 218.234 365.782 218.28C365.899 218.34 366.013 218.403 366.13 218.452C366.239 218.495 366.353 218.527 366.464 218.562C366.567 218.593 366.67 218.631 366.772 218.654C366.904 218.685 367.039 218.703 367.177 218.723C367.262 218.734 367.347 218.751 367.432 218.76C367.593 218.774 367.754 218.777 367.915 218.777C367.977 218.777 368.035 218.78 368.097 218.777C368.29 218.772 368.484 218.754 368.68 218.731C368.707 218.728 368.733 218.726 368.759 218.723C369.07 218.682 369.381 218.628 369.691 218.55C368.959 219.934 368.179 221.203 367.35 222C366.614 222.293 365.834 222.362 364.993 222.123C364.896 222.1 364.832 222.431 364.899 222.601C364.923 222.656 364.952 222.693 364.976 222.748C364.867 222.725 364.844 223.093 364.92 223.234C365.219 223.804 365.538 224.149 365.872 224.339C365.978 224.491 366.092 224.615 366.204 224.739C366.209 224.744 366.212 224.747 366.218 224.753C366.643 225.236 367.086 225.57 367.543 225.74C367.546 225.743 367.549 225.745 367.555 225.745C367.725 225.8 367.892 225.852 368.068 225.878C366.297 227.805 364.29 229.014 362.449 229.12C362.224 229.091 361.998 229.028 361.769 228.95C361.52 228.758 361.271 228.551 361.025 228.329C360.582 227.912 360.342 229.281 360.568 230.075C361.658 233.931 363.859 235.752 365.943 236.603C366.224 236.718 366.503 236.819 366.778 236.9C366.514 237.622 366.239 238.33 365.946 239.006C365.755 239.443 365.538 239.903 365.31 240.369C365.213 240.565 365.11 240.763 365.008 240.962C364.876 241.221 364.741 241.477 364.6 241.739C364.454 242.012 364.302 242.285 364.143 242.559C364.052 242.717 363.959 242.875 363.868 243.033C362.651 245.099 361.221 247.13 359.803 248.623C359.8 248.626 359.8 248.626 359.797 248.629C359.53 248.908 359.263 249.17 359.002 249.415C358.701 249.685 358.399 249.947 358.103 250.154C356.881 250.191 355.685 249.961 354.559 249.354C354.465 249.308 354.331 249.561 354.404 249.826C354.603 250.542 354.832 251.158 355.078 251.71C355.101 251.762 355.122 251.82 355.142 251.872C355.142 251.874 355.145 251.874 355.145 251.877C355.342 252.3 355.556 252.663 355.779 252.994C355.822 253.06 355.869 253.123 355.913 253.186C356.133 253.488 356.359 253.762 356.596 253.989C356.602 253.995 356.605 254.001 356.611 254.006C356.854 254.234 357.106 254.415 357.367 254.57C357.426 254.605 357.487 254.639 357.549 254.671C357.807 254.809 358.07 254.927 358.34 255.002C357.347 255.485 356.347 255.908 355.342 256.317C355.175 256.386 355.225 256.924 355.362 256.987C357.062 257.741 359.222 257.769 361.318 256.786C360.729 257.746 360.154 258.615 359.641 259.386C359.363 259.798 359.079 260.172 358.791 260.517C358.768 260.546 358.742 260.572 358.718 260.6C358.449 260.917 358.179 261.207 357.903 261.472C357.886 261.489 357.868 261.501 357.854 261.518C357.499 261.855 357.141 262.145 356.775 262.399C356.749 262.419 356.719 262.439 356.693 262.459C356.315 262.715 355.931 262.931 355.544 263.106C355.529 263.112 355.518 263.115 355.503 263.121C355.157 263.273 354.805 263.385 354.457 263.477C354.372 263.498 354.287 263.521 354.205 263.538C353.838 263.618 353.472 263.676 353.103 263.693C352.619 263.449 352.141 263.216 351.652 263.008C351.54 262.962 351.488 263.348 351.552 263.532C351.567 263.578 351.584 263.61 351.605 263.656C351.514 263.725 351.491 264.033 351.57 264.171C351.787 264.562 352.006 264.899 352.235 265.207C352.379 265.523 352.528 265.785 352.678 266.067C352.681 266.07 352.681 266.072 352.684 266.075C353.739 268.107 354.958 269.43 356.274 270.192C356.286 270.201 356.297 270.204 356.309 270.213C356.626 270.394 356.945 270.549 357.27 270.67C357.311 270.684 357.349 270.693 357.391 270.707C357.692 270.811 357.994 270.906 358.299 270.963C358.396 270.984 358.493 270.986 358.589 271.001C358.844 271.038 359.099 271.078 359.36 271.09C359.721 271.104 360.084 271.093 360.447 271.058C360.169 271.288 359.888 271.484 359.606 271.663C359.348 271.824 359.087 271.959 358.824 272.077C358.8 272.088 358.777 272.1 358.756 272.111C358.088 272.111 357.426 272.157 356.763 272.272C356.664 272.287 356.582 272.393 356.52 272.549C356.042 272.422 355.576 272.278 355.137 272.111C354.8 271.982 354.732 273.118 354.946 273.533C359.369 282.198 366.579 278.268 372.024 273.846C371.857 274.983 371.652 276.099 371.465 277.221C371.289 278.268 371.125 279.318 370.931 280.357C370.577 282.259 370.198 284.157 369.785 286.059C369.768 286.14 369.771 286.217 369.779 286.286C369.779 286.295 369.782 286.298 369.785 286.306C369.803 286.419 369.844 286.493 369.894 286.482C369.914 286.482 369.938 286.468 369.958 286.416C370.163 285.961 370.365 285.524 370.571 285.078C370.732 284.762 370.89 284.416 371.048 284.077C370.887 284.551 370.729 285.038 370.553 285.492C370.474 285.699 370.582 286.007 370.676 285.823C373.135 280.751 375.506 276.335 377.382 270.011C377.681 273.524 378.15 276.568 378.971 279.712C379.029 279.957 379.187 279.758 379.132 279.505C378.716 277.716 378.425 275.653 378.22 273.487C378.44 274.341 378.666 275.147 378.891 275.892C379.302 277.255 379.762 278.498 380.234 279.701C379.911 292.55 379.255 306.025 379.255 306.025C383.798 310.844 385.797 304.886 385.797 304.886C385.588 298.761 385.571 286.26 385.594 276.525C386.333 278.703 387.133 280.76 387.88 282.756C387.951 282.94 388.065 282.679 387.998 282.489C387.224 280.176 386.503 277.621 385.873 274.985C386.881 277.261 387.971 279.289 389.138 280.935C389.44 281.367 389.75 281.741 390.067 282.097C390.219 282.276 390.372 282.448 390.527 282.612C390.53 282.618 390.536 282.621 390.539 282.627C390.559 282.647 390.577 282.664 390.597 282.684C391.541 283.668 392.517 284.413 393.514 285.003C393.581 285.043 393.645 285.087 393.713 285.124C393.991 285.282 394.27 285.429 394.548 285.567C394.662 285.625 394.78 285.682 394.894 285.737C395.152 285.858 395.41 285.976 395.668 286.085C395.817 286.148 395.97 286.212 396.119 286.272C396.354 286.367 396.588 286.462 396.823 286.548C397.045 286.632 397.268 286.715 397.491 286.796C398.024 286.991 398.561 287.181 399.091 287.38C399.144 287.397 399.188 287.385 399.229 287.362C399.243 287.354 399.255 287.339 399.27 287.328C399.296 287.302 399.32 287.273 399.34 287.233C399.352 287.213 399.364 287.193 399.372 287.167C399.396 287.109 399.416 287.046 399.431 286.977C399.434 286.962 399.44 286.951 399.443 286.937C399.46 286.847 399.472 286.752 399.478 286.652C399.481 286.62 399.481 286.591 399.481 286.56C399.484 286.485 399.484 286.41 399.481 286.332C399.481 286.298 399.478 286.266 399.475 286.235C399.469 286.148 399.46 286.068 399.446 285.987C399.443 285.967 399.44 285.947 399.437 285.93C399.431 285.904 399.422 285.881 399.416 285.855C399.375 285.682 399.317 285.533 399.232 285.449C398.859 285.092 398.487 284.77 398.118 284.459C397.892 284.267 397.667 284.077 397.441 283.896C397.098 283.49 396.764 283.053 396.436 282.581C396.415 282.486 396.383 282.405 396.333 282.365C396.266 282.31 396.207 282.218 396.143 282.158C395.536 281.229 394.964 280.167 394.446 278.898C394.399 278.789 394.352 278.662 394.305 278.539C397.728 284.074 401.969 287.06 405.976 286.275C405.984 286.272 405.99 286.272 405.999 286.272C406.342 286.203 406.685 286.102 407.025 285.978C407.054 285.967 407.086 285.958 407.116 285.944C407.441 285.82 407.763 285.668 408.083 285.489C408.127 285.464 408.171 285.44 408.215 285.415C408.523 285.233 408.83 285.029 409.132 284.799C409.185 284.759 409.235 284.715 409.288 284.675C409.584 284.439 409.877 284.183 410.164 283.896C410.22 283.841 410.275 283.778 410.331 283.72C410.612 283.427 410.894 283.119 411.169 282.776C411.184 282.759 411.198 282.745 411.213 282.727C411.468 282.397 411.723 282.08 411.972 281.712C412.174 281.413 412.075 280.535 411.829 280.714C411.6 280.883 411.368 280.99 411.134 281.131C411.105 281.099 411.072 281.062 411.034 281.053C410.762 280.952 410.489 280.837 410.211 280.708L410.208 280.711C407.787 279.597 405.433 277.322 403.426 273.815C403.956 274.306 404.49 274.775 405.026 275.259C405.284 275.498 405.395 274.545 405.158 274.266C403.868 272.773 402.476 271.237 401.327 269.039C402.922 270.336 404.545 271.145 405.797 271.424C408.25 271.976 412.62 272.661 414.27 267.01C414.449 266.481 414.17 265.75 413.933 266.072Z" fill="#4A5E51"/>
<path d="M567.242 266.024C566.72 266.641 566.165 267.081 565.596 267.455C565.588 267.043 565.474 266.669 565.258 266.498C565.217 266.473 565.184 266.432 565.136 266.413C564.82 266.32 564.508 266.167 564.192 265.983C564.126 265.946 564.063 265.902 563.997 265.862C563.692 265.668 563.391 265.45 563.09 265.188C562.674 264.833 562.259 264.418 561.851 263.95C561.848 263.947 561.848 263.944 561.844 263.944C561.032 263.021 560.231 261.905 559.452 260.683C559.437 260.658 559.422 260.636 559.404 260.611C559.033 260.025 558.669 259.411 558.309 258.784C558.265 258.709 558.225 258.634 558.18 258.559C557.831 257.942 557.486 257.315 557.155 256.679C557.144 256.654 557.13 256.632 557.119 256.608C556.814 256.028 556.52 255.441 556.229 254.861C556.149 254.696 556.064 254.534 555.987 254.369C555.722 253.829 555.461 253.293 555.212 252.769C555.109 252.557 555.009 252.345 554.914 252.136C554.668 251.619 554.425 251.101 554.201 250.612C553.253 248.57 552.368 246.481 551.533 244.339C553.507 246.256 555.616 247.354 557.666 248.978C557.912 249.178 558.092 248.379 557.872 248.077C555.436 244.878 552.581 243.687 550.225 240.173C550.122 240.014 550.016 239.88 549.913 239.721C549.843 239.596 549.773 239.471 549.7 239.356C549.38 238.43 549.06 237.507 548.755 236.556C553.15 238.832 557.853 238.789 562.182 236.647C562.763 236.363 562.696 234.464 562.101 234.424C561.745 234.402 561.385 234.374 561.028 234.342C561.138 234.302 561.249 234.264 561.359 234.215C561.447 234.174 561.44 233.872 561.344 233.865C561.113 233.834 560.885 233.778 560.653 233.734C560.609 233.688 560.58 233.616 560.521 233.597C556.314 232.297 552.522 228.415 549.108 223.084C548.741 222.516 548.377 221.899 548.017 221.275C549.836 221.905 551.673 222.052 553.481 221.621C555.307 221.481 557.1 220.636 558.651 219.049C559.724 218.666 560.771 218.008 561.774 216.866C561.851 216.776 561.829 216.524 561.745 216.517C560.811 216.411 559.882 216.368 558.959 216.336C558.967 215.872 558.842 215.382 558.588 215.382C555.968 215.423 553.62 214.279 551.504 212.277C551.045 211.84 550.596 211.366 550.159 210.858C550.152 210.846 550.141 210.836 550.133 210.824C549.692 210.306 549.259 209.751 548.836 209.159C548.403 208.551 547.98 207.909 547.569 207.232C547.565 207.223 547.558 207.217 547.554 207.207C546.757 205.901 546 204.47 545.276 202.945C545.213 202.814 545.151 202.683 545.088 202.549C544.75 201.819 544.412 201.074 544.089 200.307C547.198 204.055 550.255 205.982 553.859 203.771C554.153 203.587 554.061 202.68 553.76 202.789C551.372 203.656 548.759 201.196 546.573 197.975C547.833 198.493 549.145 198.648 550.49 198.39C550.89 198.315 550.942 197.114 550.527 197.015C550.1 196.912 549.681 196.756 549.266 196.575C549.071 196.488 548.88 196.379 548.689 196.276C548.487 196.17 548.289 196.061 548.09 195.936C547.833 195.771 547.58 195.593 547.33 195.396C547.22 195.312 547.113 195.225 547.006 195.138C546.709 194.891 546.411 194.633 546.125 194.343C546.099 194.315 546.069 194.287 546.044 194.258C545.478 193.691 544.938 193.052 544.412 192.328C544.409 192.328 544.409 192.325 544.405 192.322C543.126 190.567 541.972 188.406 540.995 185.865C540.782 185.257 540.561 184.655 540.337 184.072C540.102 183.355 539.896 182.622 539.687 181.896C541.807 185.962 544.405 188.777 547.131 190.436C547.591 190.713 547.782 189.354 547.363 188.946C544.82 186.489 542.612 182.532 540.83 177.908C543.097 180.231 545.559 181.431 548.304 181.491C548.359 181.494 548.403 181.456 548.439 181.406C548.447 181.397 548.451 181.391 548.458 181.378C548.528 181.266 548.561 181.082 548.553 180.898C548.553 180.895 548.553 180.892 548.553 180.886C548.542 180.655 548.473 180.44 548.333 180.415C548.112 180.384 547.896 180.324 547.679 180.25C547.558 180.209 547.436 180.15 547.315 180.094C547.201 180.044 547.087 180 546.973 179.938C546.823 179.857 546.676 179.757 546.525 179.657C546.459 179.614 546.393 179.573 546.323 179.526C546.158 179.408 545.992 179.274 545.831 179.133C545.783 179.093 545.735 179.055 545.687 179.015C545.511 178.859 545.335 178.691 545.162 178.513C545.132 178.482 545.099 178.454 545.07 178.419C544.883 178.226 544.699 178.02 544.511 177.805C544.497 177.786 544.482 177.771 544.467 177.752C544.071 177.281 543.677 176.761 543.292 176.206C541.44 173.515 539.768 169.957 538.416 166.733C539.408 168.14 540.433 169.125 541.454 169.524C541.59 169.574 541.66 169.156 541.524 169.081C535.245 165.758 534.036 147.43 532.775 136.474C532.746 136.228 532.687 136.028 532.61 135.86C532.603 135.841 532.592 135.832 532.581 135.813C532.507 135.666 532.419 135.557 532.323 135.483C532.32 135.479 532.32 135.476 532.316 135.473C532.305 135.467 532.294 135.467 532.287 135.461C532.22 135.417 532.154 135.377 532.084 135.373C532 135.361 531.919 135.373 531.842 135.426C531.824 134.909 531.809 134.401 531.776 133.886C531.765 133.733 531.743 133.599 531.713 133.487C531.71 133.475 531.702 133.465 531.699 133.453C531.478 132.717 530.879 132.913 530.721 133.786C526.738 155.568 520.543 176.942 509.215 181.684C509.204 181.671 509.196 181.659 509.185 181.646C508.902 181.765 508.634 181.921 508.344 182.021C508.189 182.061 508.189 182.479 508.289 182.654C510.611 186.785 514.668 183.979 518.081 179.919C517.578 180.817 517.06 181.709 516.501 182.544C514.616 185.344 512.316 189.501 509.975 190.177C509.949 190.177 509.924 190.186 509.898 190.186C509.883 190.186 509.869 190.211 509.854 190.23H509.85C509.817 190.255 509.78 190.289 509.758 190.339C509.751 190.355 509.751 190.374 509.747 190.389C509.681 190.589 509.692 190.888 509.828 190.988C510.115 191.206 510.427 191.402 510.754 191.586C510.758 191.59 510.762 191.593 510.769 191.596C511.037 191.745 511.316 191.883 511.61 192.004C511.728 192.054 511.857 192.091 511.978 192.138C512.18 192.213 512.382 192.291 512.591 192.353C512.731 192.394 512.874 192.425 513.014 192.463C513.22 192.512 513.422 192.562 513.631 192.6C513.778 192.628 513.925 192.646 514.072 192.668C514.289 192.699 514.506 192.721 514.726 192.737C514.873 192.746 515.017 192.756 515.167 192.759C515.399 192.765 515.63 192.762 515.865 192.749C516.005 192.743 516.145 192.74 516.284 192.728C516.545 192.706 516.802 192.668 517.063 192.625C517.181 192.606 517.295 192.593 517.412 192.569C517.791 192.491 518.166 192.397 518.54 192.269C517.372 195.768 516.02 198.882 514.013 201.567C513.44 202.34 512.86 203.113 512.272 203.871C512.257 203.893 512.239 203.915 512.224 203.933C511.629 204.703 511.026 205.455 510.416 206.172C510.067 206.584 509.718 206.98 509.365 207.363C509.318 207.416 509.27 207.469 509.222 207.519C508.917 207.846 508.608 208.158 508.296 208.464C508.212 208.548 508.127 208.635 508.039 208.716C507.749 208.988 507.458 209.24 507.164 209.486C507.061 209.571 506.962 209.664 506.863 209.745C506.477 210.057 506.084 210.344 505.687 210.599C505.11 210.631 504.555 210.665 504.063 210.715C503.861 210.73 503.802 211.207 503.949 211.472C504.078 211.697 504.221 211.9 504.364 212.105C504.353 212.333 504.379 212.558 504.43 212.745C504.43 212.748 504.43 212.754 504.43 212.757C504.43 212.76 504.43 212.76 504.434 212.763C504.46 212.854 504.497 212.925 504.537 212.985C504.548 213 504.555 213.025 504.57 213.041C504.625 213.1 504.691 213.131 504.769 213.116C504.879 213.106 505 213.066 505.11 213.041C505.331 213.265 505.562 213.465 505.801 213.643C505.882 213.702 505.966 213.745 506.047 213.798C506.209 213.908 506.371 214.017 506.54 214.104C506.65 214.163 506.764 214.204 506.878 214.254C507.025 214.319 507.168 214.388 507.315 214.438C507.451 214.484 507.594 214.519 507.734 214.556C507.862 214.59 507.991 214.631 508.12 214.656C508.285 214.69 508.454 214.709 508.623 214.731C508.73 214.743 508.836 214.762 508.943 214.771C509.145 214.787 509.347 214.79 509.549 214.79C509.626 214.79 509.7 214.793 509.777 214.79C510.019 214.784 510.262 214.765 510.508 214.74C510.541 214.737 510.574 214.734 510.607 214.731C510.997 214.687 511.386 214.628 511.776 214.544C510.857 216.043 509.88 217.418 508.84 218.285C507.918 218.603 506.94 218.678 505.886 218.419C505.764 218.394 505.683 218.753 505.768 218.937C505.797 218.996 505.834 219.037 505.864 219.096C505.728 219.071 505.698 219.47 505.794 219.623C506.169 220.24 506.569 220.614 506.988 220.82C507.12 220.985 507.263 221.119 507.403 221.253C507.41 221.26 507.414 221.263 507.421 221.269C507.954 221.793 508.509 222.154 509.082 222.338C509.086 222.338 509.09 222.345 509.097 222.345C509.31 222.404 509.52 222.46 509.74 222.488C507.521 224.577 505.004 225.887 502.7 226.002C502.417 225.971 502.134 225.902 501.847 225.818C501.535 225.609 501.223 225.385 500.914 225.145C500.359 224.696 500.058 226.177 500.341 227.037C501.708 231.215 504.467 233.189 507.08 234.112C507.433 234.236 507.782 234.346 508.127 234.433C507.796 235.215 507.451 235.982 507.083 236.715C506.845 237.189 506.573 237.688 506.286 238.193C506.165 238.405 506.036 238.62 505.908 238.835C505.742 239.116 505.573 239.393 505.397 239.677C505.209 239.973 505.022 240.27 504.824 240.566C504.71 240.737 504.592 240.909 504.478 241.08C502.953 243.319 501.164 245.52 499.382 247.138C499.378 247.142 499.378 247.145 499.374 247.145C499.04 247.447 498.706 247.731 498.379 247.996C498 248.292 497.622 248.573 497.251 248.797C495.718 248.838 494.219 248.588 492.808 247.93C492.691 247.88 492.522 248.155 492.613 248.439C492.863 249.215 493.15 249.882 493.459 250.481C493.488 250.537 493.514 250.599 493.543 250.655C493.543 250.659 493.547 250.659 493.547 250.662C493.793 251.12 494.061 251.516 494.34 251.871C494.396 251.943 494.454 252.012 494.509 252.08C494.785 252.408 495.068 252.704 495.366 252.95C495.373 252.956 495.377 252.963 495.384 252.969C495.689 253.215 496.005 253.412 496.332 253.58C496.405 253.617 496.483 253.655 496.56 253.689C496.883 253.839 497.214 253.967 497.552 254.048C496.306 254.572 495.053 255.03 493.793 255.473C493.583 255.547 493.646 256.13 493.819 256.199C495.95 257.016 498.658 257.047 501.285 255.981C500.547 257.022 499.826 257.964 499.183 258.796C498.834 259.242 498.478 259.651 498.118 260.022C498.088 260.053 498.055 260.081 498.026 260.112C497.688 260.455 497.35 260.77 497.004 261.057C496.982 261.076 496.964 261.088 496.942 261.107C496.497 261.468 496.049 261.786 495.59 262.058C495.557 262.079 495.52 262.101 495.487 262.123C495.013 262.401 494.531 262.634 494.046 262.825C494.028 262.831 494.013 262.837 493.995 262.843C493.561 263.009 493.121 263.13 492.68 263.23C492.573 263.252 492.466 263.277 492.364 263.295C491.904 263.383 491.445 263.445 490.982 263.464C490.379 263.199 489.777 262.946 489.163 262.722C489.023 262.672 488.957 263.09 489.038 263.289C489.057 263.339 489.079 263.373 489.104 263.423C488.99 263.498 488.961 263.832 489.06 263.981C489.332 264.405 489.608 264.773 489.894 265.104C490.074 265.447 490.265 265.727 490.449 266.036C490.453 266.039 490.453 266.042 490.456 266.045C491.779 268.247 493.308 269.681 494.958 270.507C494.972 270.513 494.987 270.52 495.002 270.529C495.399 270.725 495.799 270.894 496.207 271.025C496.258 271.04 496.306 271.05 496.358 271.065C496.732 271.178 497.115 271.28 497.497 271.343C497.618 271.365 497.739 271.368 497.861 271.383C498.18 271.424 498.5 271.468 498.827 271.48C499.279 271.496 499.735 271.483 500.19 271.446C499.841 271.695 499.488 271.907 499.136 272.1C498.812 272.275 498.485 272.422 498.154 272.549C498.125 272.562 498.099 272.574 498.07 272.587C497.236 272.587 496.402 272.637 495.571 272.761C495.446 272.777 495.344 272.892 495.266 273.061C494.667 272.924 494.083 272.768 493.532 272.587C493.109 272.443 493.025 273.678 493.293 274.127C498.838 283.515 507.877 279.259 514.704 274.467C514.495 275.699 514.238 276.908 514.002 278.124C513.782 279.259 513.576 280.397 513.334 281.523C512.889 283.584 512.415 285.642 511.897 287.703C511.875 287.79 511.879 287.874 511.89 287.949C511.89 287.958 511.893 287.964 511.897 287.971C511.919 288.092 511.97 288.173 512.033 288.161C512.059 288.161 512.088 288.145 512.117 288.092C512.375 287.6 512.628 287.126 512.885 286.642C513.088 286.299 513.286 285.925 513.484 285.557C513.282 286.072 513.084 286.599 512.867 287.091C512.768 287.316 512.904 287.65 513.021 287.45C516.104 281.95 519.077 277.167 521.429 270.314C521.803 274.121 522.391 277.42 523.42 280.828C523.494 281.093 523.692 280.877 523.622 280.603C523.1 278.664 522.737 276.428 522.479 274.08C522.755 275.003 523.038 275.879 523.321 276.687C523.835 278.165 524.412 279.512 525.004 280.815C524.6 294.74 523.78 309.344 523.78 309.344C529.476 314.567 531.982 308.112 531.982 308.112C531.721 301.474 531.699 287.927 531.728 277.376C532.654 279.736 533.657 281.966 534.594 284.129C534.682 284.329 534.826 284.045 534.741 283.839C533.771 281.333 532.867 278.564 532.077 275.708C533.341 278.174 534.708 280.372 536.17 282.156C536.549 282.623 536.942 283.029 537.335 283.415C537.526 283.609 537.717 283.796 537.908 283.974C537.912 283.977 537.919 283.983 537.923 283.989C537.949 284.011 537.971 284.027 537.997 284.051C539.18 285.118 540.403 285.925 541.653 286.565C541.737 286.608 541.818 286.655 541.903 286.695C542.252 286.867 542.601 287.026 542.95 287.176C543.093 287.238 543.24 287.3 543.383 287.36C543.707 287.491 544.03 287.618 544.353 287.737C544.541 287.805 544.732 287.874 544.919 287.94C545.213 288.042 545.507 288.145 545.801 288.239C546.08 288.329 546.36 288.42 546.639 288.507C547.308 288.716 547.98 288.925 548.645 289.14C548.711 289.159 548.767 289.149 548.818 289.121C548.836 289.112 548.851 289.096 548.869 289.084C548.902 289.056 548.932 289.025 548.958 288.981C548.972 288.959 548.987 288.937 548.998 288.909C549.027 288.847 549.053 288.778 549.072 288.703C549.075 288.688 549.083 288.675 549.086 288.66C549.108 288.563 549.123 288.46 549.13 288.351C549.134 288.317 549.134 288.286 549.134 288.251C549.138 288.17 549.138 288.089 549.134 288.005C549.134 287.971 549.13 287.933 549.127 287.899C549.119 287.805 549.108 287.715 549.09 287.631C549.086 287.609 549.083 287.587 549.079 287.568C549.072 287.54 549.06 287.515 549.053 287.487C549.002 287.3 548.928 287.138 548.822 287.048C548.355 286.661 547.888 286.312 547.425 285.975C547.142 285.766 546.859 285.561 546.577 285.364C546.147 284.924 545.728 284.451 545.316 283.939C545.29 283.836 545.25 283.749 545.188 283.705C545.103 283.646 545.03 283.546 544.949 283.481C544.188 282.474 543.472 281.323 542.821 279.948C542.762 279.83 542.704 279.693 542.645 279.559C546.937 285.557 552.254 288.791 557.277 287.943C557.288 287.943 557.295 287.94 557.306 287.94C557.74 287.865 558.166 287.756 558.592 287.622C558.629 287.609 558.669 287.6 558.706 287.587C559.114 287.453 559.518 287.285 559.919 287.095C559.974 287.07 560.029 287.042 560.084 287.014C560.47 286.817 560.856 286.596 561.234 286.346C561.3 286.303 561.363 286.256 561.429 286.212C561.8 285.957 562.167 285.679 562.527 285.367C562.597 285.308 562.667 285.239 562.737 285.177C563.093 284.859 563.442 284.525 563.788 284.154C563.806 284.136 563.824 284.12 563.843 284.101C564.162 283.743 564.482 283.4 564.795 283.001C565.048 282.676 564.923 281.726 564.614 281.919C564.328 282.103 564.038 282.218 563.744 282.371C563.707 282.337 563.666 282.296 563.619 282.287C563.277 282.178 562.935 282.053 562.586 281.913C562.586 281.913 562.582 281.913 562.582 281.916C559.544 280.709 556.597 278.243 554.08 274.442C554.745 274.975 555.414 275.483 556.086 276.007C556.409 276.266 556.549 275.234 556.251 274.932C554.635 273.313 552.889 271.648 551.449 269.266C553.448 270.672 555.483 271.549 557.052 271.848C560.128 272.447 565.607 273.189 567.675 267.065C567.888 266.463 567.539 265.671 567.242 266.024Z" fill="#4A5E51"/>
</svg>
