<svg width="557" height="310" viewBox="0 0 557 310" fill="none" xmlns="http://www.w3.org/2000/svg">
<path d="M176.537 262.956C176.136 263.453 175.705 263.807 175.265 264.108C175.261 263.777 175.171 263.475 175.005 263.336C174.975 263.317 174.949 263.283 174.911 263.268C174.668 263.193 174.424 263.069 174.181 262.922C174.13 262.892 174.083 262.858 174.032 262.824C173.797 262.666 173.562 262.493 173.327 262.282C173.007 261.996 172.687 261.661 172.367 261.288C172.367 261.284 172.363 261.284 172.363 261.28C171.735 260.539 171.116 259.643 170.514 258.656C170.501 258.637 170.489 258.619 170.48 258.6C170.194 258.129 169.912 257.636 169.635 257.131C169.601 257.071 169.571 257.011 169.537 256.951C169.268 256.454 168.999 255.949 168.743 255.441C168.734 255.422 168.726 255.403 168.713 255.384C168.478 254.918 168.248 254.447 168.026 253.98C167.962 253.848 167.898 253.716 167.838 253.585C167.633 253.152 167.432 252.723 167.24 252.297C167.163 252.124 167.086 251.958 167.01 251.789C166.822 251.371 166.634 250.957 166.459 250.561C165.725 248.92 165.042 247.241 164.393 245.516C165.921 247.056 167.552 247.941 169.14 249.247C169.332 249.409 169.473 248.765 169.298 248.524C167.411 245.953 165.204 244.993 163.381 242.169C163.3 242.041 163.219 241.932 163.138 241.808C163.082 241.71 163.027 241.608 162.976 241.514C162.728 240.768 162.481 240.027 162.246 239.262C165.644 241.092 169.285 241.058 172.631 239.338C173.08 239.112 173.028 237.583 172.567 237.549C172.294 237.531 172.013 237.508 171.739 237.485C171.825 237.451 171.91 237.425 171.995 237.384C172.064 237.35 172.059 237.109 171.987 237.101C171.808 237.079 171.628 237.03 171.453 236.996C171.419 236.958 171.394 236.902 171.351 236.887C168.098 235.84 165.161 232.719 162.523 228.434C162.237 227.979 161.956 227.482 161.678 226.981C163.087 227.489 164.504 227.606 165.904 227.259C167.317 227.147 168.704 226.469 169.904 225.192C170.732 224.884 171.543 224.357 172.32 223.438C172.38 223.363 172.363 223.163 172.294 223.156C171.573 223.069 170.856 223.035 170.139 223.009C170.143 222.636 170.049 222.244 169.853 222.244C167.825 222.275 166.011 221.356 164.372 219.748C164.017 219.398 163.672 219.018 163.33 218.607C163.322 218.6 163.317 218.589 163.309 218.581C162.967 218.163 162.634 217.719 162.306 217.241C161.973 216.751 161.644 216.235 161.324 215.69C161.32 215.682 161.315 215.674 161.311 215.671C160.696 214.62 160.107 213.468 159.548 212.244C159.501 212.139 159.454 212.034 159.403 211.928C159.138 211.341 158.882 210.742 158.63 210.125C161.034 213.137 163.403 214.688 166.19 212.911C166.416 212.764 166.348 212.034 166.113 212.12C164.265 212.817 162.246 210.84 160.551 208.25C161.524 208.664 162.54 208.792 163.582 208.585C163.894 208.525 163.932 207.561 163.608 207.478C163.279 207.395 162.954 207.271 162.634 207.124C162.485 207.052 162.335 206.966 162.186 206.883C162.032 206.796 161.874 206.71 161.721 206.608C161.52 206.476 161.328 206.33 161.132 206.175C161.046 206.107 160.965 206.036 160.88 205.964C160.649 205.765 160.419 205.558 160.197 205.324C160.176 205.302 160.154 205.279 160.133 205.257C159.697 204.801 159.275 204.285 158.874 203.705L158.869 203.702C157.883 202.29 156.987 200.554 156.231 198.51C156.065 198.02 155.894 197.538 155.723 197.068C155.54 196.492 155.382 195.9 155.22 195.317C156.859 198.585 158.869 200.851 160.978 202.184C161.332 202.406 161.482 201.315 161.157 200.987C159.189 199.01 157.482 195.829 156.103 192.113C157.858 193.98 159.761 194.948 161.887 194.993C161.93 194.993 161.964 194.967 161.99 194.925C161.994 194.918 161.998 194.91 162.003 194.903C162.058 194.812 162.084 194.665 162.075 194.515C162.075 194.511 162.075 194.507 162.075 194.504C162.067 194.319 162.015 194.146 161.904 194.123C161.734 194.097 161.567 194.048 161.401 193.992C161.307 193.958 161.213 193.912 161.119 193.867C161.029 193.826 160.944 193.792 160.854 193.743C160.739 193.679 160.624 193.596 160.508 193.517C160.457 193.483 160.406 193.449 160.355 193.412C160.227 193.318 160.099 193.208 159.975 193.095C159.936 193.065 159.902 193.035 159.864 193.001C159.727 192.877 159.591 192.742 159.454 192.598C159.428 192.572 159.407 192.55 159.386 192.523C159.241 192.369 159.096 192.203 158.955 192.03C158.942 192.015 158.933 192.004 158.921 191.989C158.613 191.608 158.31 191.194 158.011 190.746C156.581 188.581 155.284 185.723 154.238 183.129C155.006 184.263 155.796 185.053 156.59 185.373C156.692 185.411 156.748 185.08 156.641 185.016C151.783 182.342 150.848 167.606 149.875 158.796C149.854 158.596 149.807 158.438 149.747 158.303C149.739 158.288 149.734 158.28 149.726 158.265C149.67 158.145 149.602 158.058 149.529 157.998C149.529 157.998 149.525 157.994 149.525 157.99C149.517 157.986 149.508 157.986 149.5 157.979C149.448 157.945 149.397 157.911 149.346 157.907C149.282 157.896 149.218 157.907 149.158 157.949C149.141 157.531 149.132 157.124 149.107 156.71C149.098 156.586 149.081 156.48 149.06 156.39C149.056 156.379 149.051 156.375 149.051 156.364C148.881 155.773 148.42 155.931 148.296 156.631C145.214 174.146 140.42 191.333 131.657 195.144C131.648 195.132 131.644 195.121 131.635 195.114C131.418 195.208 131.208 195.336 130.982 195.415C130.863 195.449 130.863 195.784 130.939 195.923C132.737 199.244 135.874 196.988 138.516 193.724C138.128 194.447 137.727 195.162 137.295 195.833C135.836 198.084 134.06 201.427 132.246 201.97C132.224 201.97 132.207 201.977 132.186 201.977C132.173 201.977 132.165 202 132.152 202.011C132.152 202.011 132.147 202.011 132.143 202.011C132.118 202.03 132.092 202.06 132.075 202.098C132.071 202.113 132.071 202.124 132.066 202.139C132.015 202.301 132.024 202.542 132.126 202.621C132.348 202.794 132.591 202.956 132.843 203.103C132.848 203.107 132.848 203.107 132.852 203.11C133.061 203.231 133.274 203.34 133.501 203.438C133.59 203.479 133.688 203.51 133.782 203.547C133.94 203.607 134.094 203.668 134.256 203.72C134.363 203.754 134.474 203.781 134.585 203.807C134.743 203.848 134.901 203.886 135.063 203.92C135.174 203.943 135.289 203.958 135.404 203.973C135.571 203.995 135.737 204.014 135.908 204.029C136.023 204.037 136.134 204.044 136.25 204.048C136.429 204.052 136.608 204.048 136.787 204.04C136.894 204.037 137.005 204.033 137.112 204.022C137.313 204.003 137.513 203.973 137.714 203.939C137.803 203.924 137.893 203.912 137.983 203.894C138.273 203.83 138.563 203.754 138.854 203.653C137.949 206.465 136.903 208.973 135.353 211.13C134.909 211.751 134.461 212.372 134.009 212.982C133.996 212.997 133.983 213.016 133.97 213.031C133.509 213.649 133.044 214.255 132.57 214.831C132.301 215.162 132.028 215.479 131.755 215.791C131.721 215.833 131.682 215.874 131.644 215.915C131.409 216.179 131.17 216.431 130.927 216.672C130.863 216.74 130.794 216.808 130.73 216.875C130.508 217.094 130.282 217.297 130.056 217.493C129.979 217.561 129.902 217.636 129.821 217.7C129.522 217.949 129.219 218.182 128.912 218.385C128.468 218.412 128.037 218.438 127.657 218.479C127.503 218.494 127.456 218.875 127.567 219.089C127.665 219.27 127.776 219.432 127.887 219.598C127.879 219.782 127.9 219.963 127.939 220.11C127.939 220.113 127.939 220.117 127.939 220.117C127.96 220.192 127.985 220.253 128.02 220.298C128.028 220.313 128.037 220.332 128.045 220.343C128.088 220.388 128.139 220.415 128.199 220.403C128.284 220.396 128.378 220.366 128.464 220.343C128.634 220.524 128.814 220.686 128.997 220.829C129.057 220.878 129.125 220.912 129.189 220.957C129.313 221.043 129.441 221.134 129.569 221.205C129.655 221.25 129.744 221.284 129.83 221.326C129.941 221.378 130.052 221.435 130.171 221.476C130.278 221.514 130.389 221.54 130.495 221.57C130.594 221.597 130.692 221.631 130.794 221.65C130.922 221.676 131.055 221.691 131.187 221.71C131.268 221.721 131.349 221.736 131.435 221.74C131.588 221.751 131.746 221.755 131.904 221.755C131.964 221.755 132.019 221.759 132.079 221.755C132.267 221.751 132.455 221.736 132.643 221.714C132.668 221.71 132.694 221.71 132.719 221.706C133.018 221.672 133.321 221.623 133.624 221.555C132.916 222.76 132.156 223.867 131.353 224.564C130.641 224.82 129.885 224.88 129.07 224.673C128.976 224.654 128.912 224.94 128.98 225.087C129.006 225.132 129.031 225.17 129.053 225.215C128.946 225.196 128.925 225.516 128.997 225.637C129.287 226.134 129.599 226.435 129.919 226.601C130.022 226.736 130.133 226.842 130.239 226.951C130.244 226.955 130.248 226.958 130.252 226.962C130.662 227.384 131.093 227.674 131.537 227.824C131.541 227.824 131.546 227.828 131.546 227.828C131.708 227.877 131.874 227.922 132.045 227.941C130.329 229.62 128.382 230.674 126.598 230.769C126.38 230.742 126.163 230.689 125.937 230.622C125.693 230.456 125.454 230.275 125.215 230.08C124.784 229.718 124.553 230.908 124.771 231.601C125.826 234.959 127.964 236.548 129.987 237.29C130.261 237.391 130.53 237.478 130.799 237.549C130.542 238.178 130.278 238.796 129.992 239.387C129.808 239.767 129.595 240.17 129.373 240.576C129.279 240.746 129.181 240.919 129.078 241.092C128.95 241.318 128.818 241.54 128.681 241.77C128.536 242.007 128.391 242.248 128.237 242.485C128.148 242.625 128.058 242.76 127.968 242.899C126.79 244.699 125.403 246.469 124.024 247.771C124.024 247.775 124.02 247.775 124.02 247.779C123.76 248.02 123.503 248.25 123.247 248.464C122.953 248.701 122.662 248.927 122.376 249.108C121.19 249.142 120.033 248.939 118.94 248.412C118.851 248.374 118.718 248.592 118.791 248.822C118.983 249.447 119.205 249.982 119.444 250.463C119.465 250.509 119.487 250.561 119.508 250.603L119.512 250.607C119.704 250.976 119.909 251.292 120.127 251.582C120.17 251.638 120.217 251.695 120.259 251.747C120.473 252.011 120.69 252.248 120.921 252.448C120.925 252.451 120.929 252.459 120.934 252.463C121.168 252.662 121.416 252.817 121.668 252.952C121.728 252.982 121.783 253.012 121.843 253.043C122.095 253.163 122.347 253.265 122.611 253.329C121.647 253.75 120.678 254.119 119.704 254.473C119.542 254.533 119.593 255.004 119.721 255.057C121.369 255.712 123.465 255.738 125.497 254.884C124.925 255.723 124.37 256.48 123.871 257.15C123.602 257.508 123.324 257.835 123.047 258.137C123.021 258.163 123 258.182 122.974 258.208C122.714 258.483 122.449 258.739 122.184 258.969C122.167 258.984 122.15 258.995 122.137 259.006C121.796 259.3 121.446 259.552 121.092 259.771C121.066 259.786 121.04 259.805 121.01 259.823C120.643 260.045 120.272 260.234 119.896 260.388C119.884 260.392 119.871 260.396 119.858 260.403C119.521 260.535 119.183 260.633 118.842 260.712C118.761 260.731 118.68 260.75 118.599 260.765C118.244 260.832 117.886 260.885 117.532 260.9C117.062 260.686 116.597 260.486 116.123 260.305C116.012 260.268 115.965 260.603 116.029 260.761C116.042 260.802 116.063 260.829 116.08 260.87C115.995 260.93 115.969 261.198 116.046 261.318C116.255 261.661 116.469 261.954 116.691 262.222C116.827 262.497 116.977 262.722 117.122 262.971C117.122 262.975 117.126 262.975 117.126 262.978C118.15 264.748 119.329 265.9 120.609 266.567C120.622 266.574 120.635 266.578 120.643 266.582C120.951 266.74 121.258 266.875 121.574 266.981C121.612 266.996 121.651 267 121.689 267.015C121.979 267.105 122.274 267.188 122.573 267.237C122.667 267.252 122.761 267.256 122.855 267.267C123.102 267.301 123.35 267.335 123.602 267.342C123.952 267.353 124.302 267.346 124.656 267.316C124.387 267.515 124.114 267.685 123.841 267.843C123.589 267.982 123.337 268.099 123.081 268.204C123.059 268.212 123.038 268.227 123.012 268.234C122.368 268.234 121.723 268.272 121.079 268.374C120.985 268.389 120.904 268.479 120.844 268.615C120.379 268.506 119.926 268.381 119.504 268.234C119.175 268.122 119.111 269.112 119.32 269.473C123.61 277.022 130.602 273.6 135.883 269.748C135.72 270.738 135.524 271.71 135.34 272.689C135.17 273.6 135.007 274.515 134.824 275.422C134.482 277.079 134.115 278.735 133.714 280.392C133.697 280.46 133.701 280.527 133.71 280.591C133.71 280.599 133.714 280.603 133.714 280.61C133.731 280.708 133.774 280.772 133.821 280.765C133.842 280.765 133.863 280.753 133.885 280.708C134.081 280.313 134.278 279.933 134.478 279.545C134.636 279.27 134.785 278.969 134.943 278.675C134.785 279.089 134.632 279.511 134.465 279.906C134.388 280.087 134.495 280.354 134.585 280.196C136.967 275.776 139.272 271.928 141.09 266.416C141.381 269.477 141.837 272.131 142.631 274.868C142.691 275.083 142.84 274.91 142.789 274.688C142.384 273.129 142.106 271.329 141.906 269.443C142.119 270.185 142.337 270.889 142.559 271.54C142.956 272.73 143.404 273.811 143.861 274.861C143.549 286.058 142.913 297.801 142.913 297.801C147.318 302.003 149.256 296.811 149.256 296.811C149.056 291.476 149.039 280.58 149.06 272.097C149.777 273.995 150.554 275.787 151.275 277.527C151.344 277.689 151.455 277.459 151.391 277.293C150.639 275.275 149.944 273.05 149.329 270.753C150.306 272.737 151.365 274.503 152.496 275.938C152.791 276.314 153.09 276.642 153.397 276.951C153.546 277.105 153.691 277.256 153.841 277.399C153.845 277.402 153.849 277.406 153.854 277.41C153.871 277.429 153.892 277.44 153.909 277.459C154.823 278.317 155.77 278.965 156.735 279.481C156.799 279.515 156.863 279.552 156.927 279.586C157.196 279.725 157.465 279.85 157.738 279.974C157.849 280.023 157.96 280.076 158.075 280.125C158.327 280.23 158.575 280.332 158.827 280.426C158.972 280.482 159.117 280.535 159.266 280.588C159.493 280.67 159.719 280.753 159.949 280.829C160.163 280.904 160.38 280.972 160.598 281.043C161.119 281.213 161.635 281.378 162.152 281.551C162.203 281.567 162.246 281.559 162.284 281.536C162.297 281.529 162.31 281.518 162.327 281.506C162.353 281.484 162.374 281.457 162.395 281.423C162.408 281.405 162.417 281.39 162.425 281.367C162.446 281.318 162.468 281.262 162.485 281.201C162.489 281.19 162.493 281.179 162.493 281.167C162.51 281.092 162.523 281.006 162.528 280.919C162.528 280.893 162.532 280.866 162.532 280.84C162.536 280.776 162.536 280.708 162.532 280.64C162.532 280.61 162.532 280.584 162.528 280.554C162.523 280.478 162.51 280.407 162.498 280.339C162.493 280.324 162.493 280.305 162.489 280.29C162.485 280.268 162.476 280.245 162.468 280.226C162.425 280.076 162.37 279.944 162.289 279.872C161.926 279.564 161.567 279.281 161.209 279.01C160.991 278.844 160.769 278.679 160.551 278.521C160.218 278.167 159.894 277.786 159.578 277.376C159.557 277.293 159.527 277.222 159.48 277.188C159.416 277.143 159.36 277.06 159.296 277.007C158.707 276.198 158.152 275.271 157.653 274.168C157.606 274.074 157.563 273.965 157.516 273.856C160.837 278.679 164.948 281.28 168.837 280.599C168.845 280.599 168.849 280.595 168.858 280.595C169.191 280.535 169.524 280.448 169.853 280.339C169.882 280.328 169.912 280.32 169.942 280.309C170.258 280.2 170.57 280.068 170.881 279.914C170.924 279.891 170.967 279.872 171.009 279.85C171.308 279.692 171.607 279.515 171.902 279.311C171.953 279.277 172 279.24 172.051 279.206C172.337 278.999 172.623 278.777 172.9 278.528C172.956 278.479 173.007 278.426 173.063 278.374C173.336 278.118 173.609 277.85 173.874 277.549C173.886 277.534 173.904 277.523 173.916 277.508C174.164 277.218 174.412 276.943 174.651 276.623C174.847 276.363 174.749 275.599 174.514 275.753C174.292 275.9 174.066 275.994 173.84 276.115C173.81 276.088 173.78 276.054 173.746 276.047C173.481 275.96 173.216 275.859 172.947 275.746C172.947 275.746 172.943 275.746 172.943 275.75C170.595 274.778 168.316 272.794 166.365 269.737C166.882 270.166 167.398 270.576 167.919 270.998C168.171 271.205 168.273 270.377 168.047 270.136C166.796 268.837 165.443 267.497 164.333 265.58C165.878 266.713 167.454 267.417 168.67 267.658C171.048 268.14 175.287 268.735 176.887 263.814C177.037 263.31 176.768 262.674 176.537 262.956Z" fill="#4A5E51"/>
<path d="M214.737 276.347C214.354 276.799 213.943 277.122 213.523 277.396C213.519 277.094 213.434 276.82 213.275 276.693C213.246 276.676 213.222 276.645 213.185 276.631C212.953 276.563 212.721 276.45 212.489 276.316C212.44 276.289 212.395 276.258 212.346 276.227C212.122 276.083 211.898 275.925 211.674 275.734C211.369 275.473 211.063 275.168 210.758 274.829C210.758 274.825 210.754 274.825 210.754 274.822C210.155 274.147 209.565 273.331 208.99 272.433C208.978 272.416 208.966 272.399 208.958 272.382C208.685 271.953 208.416 271.504 208.151 271.045C208.119 270.99 208.09 270.936 208.058 270.881C207.801 270.428 207.545 269.969 207.3 269.506C207.292 269.489 207.284 269.472 207.272 269.455C207.048 269.03 206.828 268.602 206.616 268.177C206.555 268.057 206.494 267.937 206.437 267.817C206.241 267.423 206.05 267.032 205.867 266.645C205.793 266.491 205.72 266.336 205.647 266.182C205.468 265.802 205.288 265.425 205.121 265.065C204.421 263.571 203.769 262.042 203.15 260.472C204.608 261.874 206.164 262.68 207.675 263.869C207.858 264.016 207.993 263.43 207.826 263.211C206.026 260.87 203.92 259.996 202.181 257.426C202.104 257.309 202.026 257.213 201.949 257.097C201.896 257.008 201.843 256.915 201.794 256.829C201.558 256.151 201.322 255.476 201.098 254.78C204.34 256.446 207.813 256.415 211.006 254.848C211.434 254.643 211.385 253.251 210.945 253.221C210.685 253.203 210.416 253.183 210.155 253.162C210.237 253.135 210.318 253.107 210.4 253.07C210.465 253.039 210.461 252.82 210.387 252.813C210.216 252.792 210.045 252.748 209.878 252.717C209.846 252.682 209.821 252.631 209.78 252.617C206.677 251.665 203.875 248.824 201.358 244.923C201.086 244.509 200.817 244.056 200.552 243.601C201.896 244.063 203.248 244.169 204.584 243.854C205.932 243.751 207.256 243.134 208.4 241.973C209.19 241.692 209.964 241.212 210.705 240.376C210.762 240.307 210.746 240.125 210.681 240.119C209.992 240.04 209.308 240.009 208.624 239.985C208.628 239.646 208.538 239.289 208.351 239.289C206.417 239.317 204.686 238.48 203.122 237.017C202.784 236.698 202.454 236.352 202.128 235.979C202.12 235.972 202.116 235.961 202.108 235.955C201.782 235.574 201.464 235.17 201.151 234.734C200.833 234.289 200.519 233.819 200.214 233.326C200.21 233.319 200.206 233.312 200.202 233.309C199.615 232.353 199.053 231.304 198.52 230.19C198.475 230.094 198.43 229.998 198.381 229.899C198.129 229.364 197.885 228.819 197.644 228.257C199.937 230.999 202.197 232.411 204.857 230.793C205.073 230.66 205.007 229.995 204.783 230.074C203.02 230.708 201.094 228.908 199.481 226.55C200.41 226.927 201.379 227.044 202.372 226.855C202.67 226.801 202.706 225.923 202.397 225.848C202.083 225.772 201.774 225.659 201.468 225.526C201.326 225.461 201.183 225.382 201.041 225.306C200.894 225.228 200.743 225.149 200.597 225.056C200.405 224.936 200.222 224.803 200.035 224.662C199.953 224.6 199.876 224.535 199.795 224.474C199.575 224.292 199.355 224.103 199.143 223.891C199.123 223.87 199.102 223.85 199.082 223.829C198.666 223.415 198.263 222.945 197.88 222.417L197.876 222.414C196.936 221.129 196.08 219.549 195.36 217.688C195.201 217.242 195.038 216.804 194.875 216.375C194.7 215.851 194.549 215.313 194.394 214.782C195.958 217.756 197.876 219.819 199.888 221.033C200.226 221.235 200.369 220.241 200.059 219.943C198.182 218.144 196.553 215.248 195.237 211.865C196.911 213.565 198.728 214.446 200.756 214.487C200.796 214.487 200.829 214.463 200.853 214.425C200.858 214.418 200.862 214.411 200.866 214.405C200.919 214.322 200.943 214.189 200.935 214.052C200.935 214.048 200.935 214.045 200.935 214.045C200.927 213.877 200.874 213.719 200.772 213.699C200.609 213.675 200.45 213.633 200.291 213.579C200.202 213.548 200.112 213.507 200.023 213.466C199.937 213.428 199.856 213.397 199.77 213.352C199.66 213.294 199.55 213.219 199.44 213.147C199.391 213.116 199.343 213.085 199.294 213.051C199.171 212.965 199.049 212.866 198.931 212.763C198.895 212.732 198.862 212.708 198.825 212.677C198.695 212.564 198.565 212.441 198.438 212.311C198.414 212.287 198.394 212.266 198.369 212.242C198.231 212.101 198.092 211.951 197.958 211.793C197.946 211.779 197.937 211.769 197.925 211.755C197.632 211.409 197.343 211.029 197.058 210.624C195.693 208.654 194.455 206.053 193.458 203.691C194.191 204.723 194.944 205.443 195.702 205.734C195.799 205.772 195.852 205.467 195.751 205.412C191.116 202.978 190.224 189.564 189.296 181.545C189.275 181.363 189.23 181.219 189.173 181.096C189.165 181.082 189.161 181.075 189.153 181.062C189.096 180.952 189.035 180.873 188.966 180.818C188.966 180.818 188.962 180.815 188.962 180.812C188.953 180.805 188.945 180.808 188.937 180.801C188.888 180.77 188.839 180.74 188.791 180.736C188.729 180.726 188.668 180.736 188.611 180.774C188.595 180.393 188.587 180.023 188.562 179.646C188.554 179.533 188.538 179.437 188.518 179.355C188.514 179.345 188.51 179.341 188.51 179.331C188.347 178.793 187.907 178.937 187.789 179.574C184.848 195.517 180.275 211.162 171.918 214.631C171.91 214.62 171.902 214.61 171.893 214.603C171.686 214.689 171.486 214.806 171.274 214.877C171.16 214.908 171.16 215.213 171.234 215.34C172.948 218.363 175.942 216.31 178.462 213.339C178.092 213.997 177.709 214.648 177.298 215.258C175.909 217.307 174.211 220.351 172.48 220.844C172.46 220.844 172.443 220.851 172.423 220.851C172.411 220.851 172.403 220.872 172.39 220.882C172.39 220.882 172.386 220.882 172.382 220.882C172.358 220.899 172.333 220.926 172.317 220.961C172.313 220.971 172.313 220.985 172.309 220.998C172.26 221.146 172.268 221.365 172.37 221.437C172.582 221.595 172.814 221.742 173.054 221.876C173.058 221.879 173.062 221.879 173.062 221.883C173.262 221.992 173.465 222.092 173.681 222.181C173.767 222.218 173.861 222.246 173.95 222.28C174.097 222.335 174.247 222.39 174.402 222.438C174.504 222.469 174.61 222.493 174.716 222.517C174.866 222.554 175.017 222.589 175.172 222.619C175.278 222.64 175.388 222.654 175.498 222.667C175.657 222.688 175.815 222.705 175.978 222.719C176.084 222.726 176.194 222.733 176.304 222.736C176.475 222.739 176.646 222.736 176.821 222.729C176.923 222.726 177.029 222.722 177.131 222.712C177.322 222.695 177.514 222.667 177.705 222.637C177.791 222.623 177.876 222.613 177.962 222.595C178.238 222.537 178.515 222.469 178.792 222.376C177.929 224.936 176.931 227.219 175.453 229.182C175.029 229.748 174.602 230.313 174.17 230.869C174.158 230.886 174.146 230.899 174.133 230.917C173.694 231.479 173.25 232.03 172.802 232.555C172.545 232.856 172.284 233.144 172.024 233.429C171.991 233.466 171.955 233.504 171.918 233.542C171.694 233.782 171.462 234.011 171.234 234.231C171.169 234.292 171.107 234.357 171.046 234.416C170.835 234.615 170.619 234.8 170.403 234.978C170.33 235.039 170.256 235.108 170.179 235.166C169.894 235.392 169.605 235.605 169.311 235.79C168.888 235.814 168.477 235.838 168.114 235.876C167.968 235.889 167.923 236.236 168.029 236.431C168.122 236.595 168.232 236.743 168.334 236.894C168.326 237.061 168.346 237.226 168.383 237.36C168.383 237.363 168.383 237.367 168.383 237.367C168.383 237.367 168.383 237.37 168.387 237.37C168.407 237.438 168.432 237.49 168.464 237.531C168.473 237.545 168.481 237.562 168.489 237.572C168.53 237.613 168.578 237.637 168.635 237.627C168.717 237.62 168.806 237.593 168.888 237.572C169.051 237.737 169.222 237.884 169.397 238.014C169.454 238.059 169.519 238.09 169.58 238.131C169.698 238.21 169.821 238.292 169.943 238.357C170.024 238.398 170.11 238.429 170.191 238.467C170.297 238.515 170.403 238.563 170.517 238.604C170.619 238.638 170.725 238.662 170.826 238.689C170.92 238.713 171.018 238.744 171.112 238.761C171.234 238.785 171.36 238.799 171.486 238.816C171.564 238.826 171.641 238.84 171.722 238.844C171.869 238.854 172.02 238.857 172.17 238.857C172.227 238.857 172.28 238.861 172.337 238.857C172.517 238.854 172.696 238.84 172.875 238.82C172.899 238.816 172.924 238.816 172.948 238.813C173.233 238.782 173.522 238.737 173.812 238.676C173.136 239.772 172.411 240.78 171.645 241.414C170.965 241.647 170.244 241.702 169.466 241.513C169.377 241.496 169.316 241.757 169.381 241.89C169.405 241.931 169.43 241.966 169.45 242.007C169.352 241.99 169.328 242.281 169.397 242.391C169.674 242.843 169.971 243.117 170.281 243.268C170.378 243.388 170.484 243.487 170.586 243.587C170.59 243.59 170.594 243.594 170.598 243.597C170.989 243.981 171.401 244.245 171.824 244.382C171.828 244.382 171.832 244.385 171.832 244.385C171.987 244.43 172.146 244.471 172.309 244.488C170.672 246.017 168.815 246.976 167.112 247.062C166.905 247.038 166.697 246.99 166.481 246.928C166.249 246.777 166.021 246.613 165.793 246.435C165.381 246.106 165.162 247.189 165.369 247.819C166.375 250.876 168.416 252.323 170.342 252.998C170.602 253.09 170.859 253.169 171.116 253.234C170.871 253.807 170.619 254.369 170.346 254.907C170.171 255.256 169.967 255.62 169.759 255.99C169.67 256.144 169.572 256.302 169.478 256.459C169.356 256.665 169.23 256.867 169.1 257.076C168.961 257.292 168.823 257.511 168.676 257.727C168.591 257.854 168.505 257.977 168.42 258.104C167.296 259.742 165.972 261.353 164.657 262.539C164.657 262.542 164.652 262.542 164.652 262.546C164.404 262.765 164.16 262.974 163.915 263.17C163.634 263.386 163.357 263.591 163.084 263.756C161.952 263.786 160.849 263.601 159.806 263.122C159.721 263.087 159.594 263.286 159.664 263.495C159.847 264.064 160.059 264.551 160.287 264.989C160.307 265.031 160.327 265.079 160.348 265.116C160.348 265.12 160.352 265.12 160.352 265.12C160.535 265.456 160.731 265.743 160.938 266.007C160.979 266.059 161.024 266.11 161.065 266.162C161.268 266.401 161.476 266.617 161.696 266.799C161.7 266.802 161.704 266.809 161.708 266.813C161.932 266.994 162.168 267.135 162.408 267.258C162.465 267.286 162.518 267.313 162.575 267.337C162.816 267.447 163.056 267.539 163.308 267.597C162.388 267.981 161.464 268.317 160.535 268.639C160.38 268.694 160.429 269.123 160.551 269.171C162.123 269.767 164.123 269.791 166.062 269.013C165.516 269.777 164.986 270.466 164.51 271.076C164.253 271.402 163.989 271.7 163.724 271.974C163.699 271.998 163.679 272.015 163.655 272.039C163.406 272.289 163.154 272.522 162.901 272.731C162.885 272.745 162.869 272.755 162.856 272.766C162.531 273.033 162.197 273.263 161.859 273.461C161.834 273.475 161.81 273.492 161.781 273.509C161.431 273.715 161.077 273.883 160.718 274.023C160.706 274.027 160.694 274.03 160.682 274.037C160.36 274.157 160.038 274.246 159.712 274.318C159.635 274.335 159.558 274.352 159.48 274.366C159.142 274.428 158.8 274.476 158.458 274.49C158.01 274.294 157.566 274.113 157.118 273.948C157.012 273.914 156.968 274.215 157.029 274.363C157.041 274.4 157.061 274.424 157.077 274.462C156.992 274.517 156.972 274.76 157.045 274.87C157.244 275.182 157.448 275.449 157.66 275.692C157.79 275.943 157.933 276.148 158.071 276.374C158.071 276.378 158.075 276.378 158.075 276.381C159.053 277.992 160.181 279.041 161.398 279.647C161.411 279.654 161.419 279.658 161.431 279.661C161.724 279.805 162.018 279.928 162.319 280.024C162.356 280.038 162.392 280.042 162.429 280.055C162.706 280.137 162.987 280.213 163.272 280.257C163.361 280.271 163.451 280.275 163.541 280.285C163.777 280.316 164.013 280.347 164.253 280.353C164.587 280.364 164.921 280.357 165.259 280.326C165.003 280.508 164.742 280.662 164.481 280.806C164.241 280.933 164.001 281.039 163.756 281.135C163.736 281.142 163.716 281.155 163.691 281.162C163.076 281.162 162.461 281.2 161.846 281.289C161.757 281.303 161.679 281.385 161.622 281.508C161.179 281.409 160.747 281.296 160.344 281.162C160.03 281.059 159.969 281.961 160.169 282.29C164.261 289.161 170.932 286.046 175.97 282.54C175.815 283.441 175.628 284.325 175.453 285.217C175.29 286.046 175.139 286.879 174.96 287.705C174.634 289.213 174.284 290.717 173.901 292.228C173.885 292.29 173.889 292.352 173.897 292.41C173.897 292.417 173.901 292.42 173.901 292.427C173.918 292.516 173.954 292.575 173.999 292.568C174.019 292.568 174.04 292.557 174.06 292.516C174.251 292.156 174.435 291.81 174.626 291.457C174.777 291.207 174.919 290.933 175.07 290.666C174.919 291.043 174.773 291.427 174.614 291.786C174.541 291.951 174.642 292.194 174.728 292.05C177 288.027 179.2 284.524 180.935 279.507C181.211 282.293 181.647 284.709 182.405 287.201C182.462 287.396 182.604 287.239 182.555 287.036C182.169 285.617 181.904 283.983 181.712 282.262C181.916 282.937 182.124 283.578 182.336 284.171C182.714 285.254 183.142 286.238 183.578 287.194C183.28 297.386 182.674 308.076 182.674 308.076C186.876 311.9 188.725 307.174 188.725 307.174C188.534 302.318 188.518 292.4 188.538 284.678C189.222 286.406 189.963 288.037 190.652 289.62C190.717 289.768 190.823 289.559 190.762 289.408C190.045 287.571 189.381 285.549 188.795 283.455C189.727 285.261 190.737 286.868 191.816 288.174C192.097 288.517 192.383 288.815 192.676 289.096C192.818 289.237 192.957 289.374 193.099 289.504C193.103 289.507 193.107 289.511 193.111 289.514C193.128 289.531 193.148 289.542 193.164 289.559C194.036 290.34 194.94 290.93 195.86 291.399C195.922 291.43 195.983 291.464 196.044 291.495C196.3 291.622 196.557 291.735 196.818 291.848C196.923 291.893 197.029 291.941 197.139 291.985C197.375 292.081 197.616 292.174 197.856 292.259C197.994 292.311 198.133 292.359 198.276 292.407C198.491 292.482 198.707 292.557 198.927 292.626C199.135 292.691 199.338 292.756 199.546 292.821C200.039 292.976 200.536 293.126 201.029 293.284C201.077 293.298 201.118 293.291 201.155 293.27C201.167 293.263 201.179 293.253 201.191 293.243C201.216 293.222 201.236 293.198 201.257 293.168C201.269 293.15 201.277 293.137 201.285 293.116C201.305 293.072 201.326 293.02 201.342 292.965C201.346 292.955 201.35 292.945 201.35 292.934C201.367 292.866 201.379 292.787 201.383 292.708C201.387 292.684 201.387 292.66 201.387 292.636C201.391 292.578 201.391 292.516 201.387 292.458C201.387 292.431 201.387 292.407 201.383 292.379C201.379 292.311 201.367 292.246 201.354 292.184C201.35 292.17 201.35 292.153 201.346 292.139C201.342 292.119 201.334 292.098 201.326 292.078C201.289 291.941 201.232 291.821 201.155 291.756C200.813 291.474 200.467 291.217 200.124 290.971C199.917 290.82 199.705 290.669 199.497 290.525C199.18 290.203 198.87 289.857 198.569 289.483C198.548 289.408 198.52 289.346 198.475 289.312C198.414 289.271 198.361 289.195 198.3 289.147C197.738 288.411 197.208 287.568 196.732 286.563C196.687 286.478 196.646 286.378 196.602 286.279C199.77 290.673 203.696 293.037 207.402 292.417C207.41 292.417 207.418 292.414 207.422 292.414C207.74 292.359 208.058 292.28 208.371 292.18C208.4 292.17 208.428 292.163 208.457 292.153C208.758 292.054 209.056 291.934 209.353 291.793C209.394 291.773 209.434 291.752 209.475 291.735C209.76 291.591 210.045 291.43 210.326 291.245C210.375 291.214 210.42 291.18 210.469 291.149C210.742 290.96 211.014 290.758 211.279 290.532C211.332 290.487 211.381 290.44 211.434 290.392C211.695 290.158 211.955 289.915 212.208 289.641C212.22 289.627 212.236 289.617 212.248 289.603C212.485 289.339 212.721 289.089 212.949 288.798C213.136 288.561 213.043 287.866 212.819 288.006C212.607 288.14 212.391 288.226 212.175 288.335C212.147 288.311 212.118 288.28 212.086 288.274C211.833 288.195 211.581 288.102 211.324 287.999C211.324 287.999 211.32 287.999 211.32 288.003C209.08 287.119 206.901 285.312 205.044 282.533C205.533 282.924 206.03 283.297 206.526 283.678C206.767 283.866 206.865 283.112 206.649 282.893C205.455 281.711 204.164 280.49 203.106 278.746C204.58 279.778 206.083 280.418 207.243 280.638C209.512 281.076 213.556 281.618 215.083 277.139C215.213 276.669 214.957 276.09 214.737 276.347Z" fill="#4A5E51"/>
<path d="M141.134 249.124C140.692 249.646 140.225 250.023 139.742 250.342C139.736 249.993 139.639 249.674 139.459 249.528C139.427 249.506 139.398 249.473 139.356 249.457C139.092 249.38 138.824 249.248 138.557 249.091C138.502 249.061 138.447 249.022 138.393 248.989C138.135 248.824 137.88 248.637 137.623 248.417C137.272 248.115 136.924 247.76 136.576 247.367C136.576 247.364 136.573 247.364 136.569 247.361C135.883 246.577 135.204 245.628 134.547 244.586C134.534 244.564 134.521 244.545 134.508 244.526C134.196 244.028 133.886 243.505 133.584 242.972C133.548 242.909 133.513 242.845 133.477 242.782C133.181 242.257 132.891 241.723 132.608 241.184C132.598 241.165 132.588 241.143 132.575 241.124C132.318 240.629 132.07 240.134 131.825 239.639C131.757 239.498 131.686 239.361 131.619 239.221C131.393 238.761 131.174 238.308 130.965 237.859C130.878 237.678 130.794 237.499 130.71 237.32C130.504 236.88 130.298 236.44 130.108 236.022C129.306 234.287 128.559 232.508 127.853 230.687C129.522 232.315 131.303 233.25 133.036 234.633C133.245 234.804 133.397 234.125 133.21 233.869C131.152 231.149 128.736 230.134 126.745 227.145C126.658 227.01 126.568 226.897 126.481 226.763C126.42 226.658 126.362 226.551 126.301 226.452C126.03 225.665 125.76 224.879 125.502 224.07C129.216 226.004 133.191 225.968 136.853 224.147C137.343 223.908 137.288 222.291 136.785 222.255C136.486 222.236 136.18 222.211 135.88 222.186C135.974 222.153 136.067 222.12 136.16 222.076C136.234 222.041 136.228 221.785 136.148 221.779C135.951 221.755 135.758 221.705 135.561 221.669C135.526 221.628 135.497 221.568 135.452 221.554C131.896 220.448 128.691 217.146 125.805 212.613C125.495 212.132 125.186 211.607 124.883 211.076C126.423 211.612 127.972 211.736 129.502 211.37C131.045 211.249 132.559 210.532 133.873 209.184C134.779 208.857 135.668 208.298 136.515 207.328C136.579 207.251 136.56 207.036 136.489 207.031C135.7 206.94 134.917 206.904 134.134 206.877C134.141 206.483 134.034 206.065 133.819 206.065C131.603 206.098 129.622 205.125 127.831 203.425C127.444 203.054 127.064 202.652 126.694 202.218C126.684 202.21 126.678 202.199 126.671 202.19C126.297 201.75 125.933 201.277 125.576 200.774C125.209 200.257 124.851 199.71 124.503 199.135C124.5 199.127 124.494 199.121 124.49 199.113C123.817 198.002 123.176 196.784 122.564 195.486C122.513 195.376 122.458 195.263 122.406 195.15C122.12 194.529 121.836 193.896 121.562 193.242C124.191 196.429 126.774 198.065 129.821 196.19C130.069 196.036 129.992 195.26 129.738 195.354C127.718 196.091 125.511 194.001 123.663 191.259C124.729 191.699 125.837 191.834 126.974 191.613C127.312 191.55 127.357 190.53 127.003 190.445C126.642 190.357 126.288 190.225 125.937 190.071C125.772 189.996 125.611 189.903 125.447 189.815C125.276 189.724 125.109 189.631 124.941 189.526C124.726 189.386 124.51 189.235 124.297 189.067C124.204 188.995 124.114 188.921 124.023 188.847C123.772 188.635 123.521 188.415 123.276 188.17C123.253 188.148 123.231 188.121 123.208 188.099C122.732 187.618 122.274 187.073 121.83 186.457C121.827 186.454 121.827 186.454 121.823 186.452C120.744 184.958 119.765 183.121 118.94 180.96C118.76 180.443 118.573 179.931 118.386 179.436C118.187 178.825 118.013 178.204 117.839 177.585C119.63 181.042 121.827 183.437 124.133 184.848C124.519 185.082 124.68 183.927 124.329 183.58C122.181 181.49 120.313 178.124 118.808 174.194C120.725 176.172 122.806 177.192 125.128 177.239C125.173 177.239 125.212 177.208 125.241 177.167C125.247 177.159 125.251 177.153 125.257 177.145C125.315 177.049 125.344 176.892 125.338 176.738C125.338 176.735 125.338 176.733 125.338 176.727C125.328 176.532 125.27 176.348 125.151 176.326C124.967 176.298 124.78 176.249 124.597 176.185C124.494 176.15 124.391 176.1 124.291 176.053C124.194 176.009 124.097 175.974 124.001 175.921C123.875 175.853 123.75 175.767 123.621 175.682C123.563 175.644 123.508 175.611 123.45 175.572C123.311 175.47 123.173 175.358 123.034 175.239C122.996 175.206 122.954 175.173 122.915 175.138C122.767 175.006 122.619 174.86 122.471 174.709C122.445 174.684 122.419 174.656 122.393 174.632C122.236 174.467 122.078 174.291 121.923 174.109C121.91 174.095 121.897 174.079 121.885 174.065C121.55 173.664 121.218 173.224 120.892 172.748C119.327 170.46 117.913 167.435 116.769 164.693C117.607 165.889 118.473 166.725 119.34 167.066C119.453 167.107 119.514 166.752 119.398 166.689C114.089 163.862 113.068 148.274 112.002 138.96C111.98 138.751 111.925 138.58 111.86 138.437C111.854 138.421 111.844 138.413 111.838 138.399C111.777 138.272 111.703 138.179 111.622 138.116C111.619 138.113 111.619 138.11 111.616 138.107C111.606 138.102 111.6 138.102 111.59 138.096C111.532 138.058 111.477 138.025 111.419 138.022C111.348 138.011 111.277 138.022 111.213 138.066C111.197 137.626 111.184 137.194 111.158 136.754C111.149 136.622 111.133 136.51 111.107 136.413C111.104 136.402 111.097 136.397 111.094 136.386C110.91 135.759 110.401 135.926 110.266 136.669C106.9 155.194 101.662 173.372 92.0862 177.404C92.0765 177.393 92.0701 177.382 92.0604 177.371C91.822 177.47 91.5933 177.604 91.3485 177.69C91.2197 177.725 91.2197 178.08 91.3034 178.229C93.2651 181.743 96.6955 179.356 99.5817 175.905C99.1565 176.669 98.7184 177.428 98.2481 178.138C96.6569 180.52 94.7114 184.053 92.7304 184.628C92.7078 184.628 92.6853 184.636 92.666 184.636C92.6531 184.636 92.6434 184.658 92.6273 184.672C92.6241 184.672 92.6209 184.672 92.6209 184.672C92.5919 184.694 92.5661 184.722 92.5468 184.763C92.5403 184.777 92.5403 184.793 92.5371 184.807C92.4824 184.977 92.4888 185.233 92.6048 185.316C92.8464 185.5 93.1105 185.67 93.3875 185.825C93.3907 185.827 93.3939 185.83 93.3972 185.833C93.6226 185.959 93.861 186.075 94.1058 186.182C94.2057 186.226 94.312 186.256 94.415 186.298C94.5857 186.361 94.7565 186.427 94.9336 186.479C95.0496 186.515 95.172 186.542 95.2912 186.573C95.4619 186.617 95.6358 186.658 95.813 186.691C95.9354 186.713 96.061 186.732 96.1866 186.749C96.3702 186.773 96.5506 186.793 96.7374 186.806C96.8598 186.815 96.9855 186.823 97.1079 186.826C97.3043 186.831 97.5008 186.826 97.6973 186.817C97.8165 186.812 97.9325 186.809 98.0516 186.798C98.2707 186.779 98.4897 186.746 98.7087 186.71C98.8086 186.694 98.9052 186.683 99.0051 186.663C99.324 186.597 99.6429 186.518 99.9585 186.41C98.9729 189.386 97.8262 192.034 96.1319 194.317C95.6455 194.974 95.1559 195.631 94.6598 196.278C94.6469 196.297 94.6341 196.313 94.618 196.333C94.1155 196.987 93.6065 197.628 93.0911 198.239C92.798 198.588 92.5017 198.926 92.2021 199.253C92.1635 199.297 92.1216 199.341 92.083 199.385C91.8253 199.666 91.5611 199.93 91.3002 200.188C91.2294 200.26 91.1553 200.334 91.0844 200.403C90.8396 200.634 90.5948 200.848 90.3468 201.057C90.2598 201.129 90.1761 201.209 90.0923 201.277C89.7638 201.541 89.4352 201.786 89.097 202.003C88.6106 202.031 88.1403 202.061 87.7248 202.102C87.5541 202.116 87.5026 202.52 87.6282 202.746C87.7345 202.938 87.8601 203.109 87.9793 203.285C87.9696 203.477 87.9922 203.67 88.034 203.827C88.034 203.829 88.034 203.835 88.034 203.838C88.034 203.84 88.034 203.84 88.0372 203.84C88.0598 203.917 88.092 203.978 88.1274 204.03C88.1371 204.044 88.1436 204.066 88.1532 204.077C88.1983 204.126 88.2563 204.151 88.3207 204.14C88.4141 204.132 88.514 204.099 88.6106 204.077C88.7974 204.27 88.9907 204.437 89.1936 204.589C89.2613 204.638 89.3321 204.677 89.3998 204.723C89.5383 204.814 89.6736 204.908 89.8153 204.985C89.9087 205.034 90.0054 205.07 90.102 205.111C90.2244 205.166 90.3468 205.224 90.4724 205.268C90.5884 205.309 90.7076 205.337 90.8267 205.367C90.9362 205.397 91.0425 205.43 91.1553 205.452C91.297 205.48 91.4387 205.496 91.5837 205.515C91.6739 205.526 91.7641 205.543 91.8543 205.548C92.025 205.562 92.1957 205.565 92.3664 205.565C92.4308 205.565 92.4953 205.568 92.5597 205.565C92.7658 205.559 92.972 205.546 93.1781 205.524C93.2071 205.521 93.2329 205.518 93.2619 205.515C93.5904 205.477 93.9222 205.427 94.2507 205.356C93.4745 206.632 92.6466 207.801 91.7705 208.538C90.991 208.807 90.1664 208.87 89.2742 208.653C89.1711 208.631 89.1034 208.936 89.1743 209.093C89.2001 209.143 89.2291 209.178 89.2548 209.228C89.1389 209.206 89.1163 209.547 89.1968 209.676C89.5125 210.202 89.854 210.521 90.2083 210.697C90.321 210.837 90.4402 210.952 90.5594 211.065C90.5658 211.071 90.569 211.073 90.5755 211.076C91.0232 211.522 91.4935 211.827 91.9799 211.986C91.9831 211.986 91.9863 211.992 91.9928 211.992C92.1731 212.041 92.3503 212.091 92.5371 212.113C90.6592 213.889 88.5333 215.003 86.5845 215.102C86.3462 215.075 86.1078 215.017 85.863 214.945C85.5989 214.769 85.3348 214.577 85.0738 214.371C84.6036 213.988 84.3491 215.248 84.5875 215.979C85.7438 219.533 88.0759 221.21 90.2856 221.997C90.5852 222.104 90.8783 222.195 91.1714 222.272C90.8911 222.937 90.6013 223.589 90.2888 224.213C90.0859 224.618 89.8572 225.041 89.6156 225.47C89.5125 225.649 89.403 225.833 89.2967 226.017C89.1582 226.254 89.0133 226.493 88.8651 226.732C88.7072 226.983 88.5462 227.236 88.3819 227.489C88.2853 227.634 88.1854 227.78 88.0888 227.926C86.8004 229.829 85.2864 231.702 83.7822 233.08C83.779 233.082 83.779 233.082 83.7757 233.085C83.4923 233.341 83.2121 233.583 82.9318 233.808C82.6129 234.059 82.2908 234.301 81.9784 234.491C80.6835 234.526 79.4176 234.312 78.2258 233.753C78.1259 233.712 77.9842 233.946 78.0615 234.188C78.2709 234.848 78.5157 235.417 78.7766 235.923C78.7991 235.97 78.8217 236.025 78.8475 236.072C78.8475 236.075 78.8507 236.075 78.8507 236.077C79.0601 236.468 79.2855 236.803 79.5207 237.109C79.569 237.169 79.6173 237.227 79.6656 237.285C79.8975 237.562 80.1359 237.815 80.3904 238.024C80.3968 238.03 80.4 238.035 80.4065 238.041C80.6642 238.25 80.9315 238.418 81.2053 238.561C81.2697 238.594 81.3309 238.624 81.3954 238.654C81.6692 238.781 81.9462 238.888 82.2329 238.959C81.1796 239.405 80.1198 239.795 79.0569 240.169C78.8797 240.233 78.9344 240.73 79.0762 240.785C80.8768 241.479 83.167 241.509 85.3863 240.601C84.7614 241.487 84.1526 242.29 83.6082 242.997C83.3119 243.376 83.0123 243.723 82.7063 244.039C82.6806 244.066 82.6548 244.088 82.6291 244.116C82.3456 244.407 82.0557 244.677 81.7658 244.919C81.7497 244.933 81.7304 244.946 81.711 244.96C81.3342 245.268 80.9541 245.538 80.5708 245.771C80.5418 245.788 80.5128 245.81 80.4838 245.826C80.0812 246.063 79.6753 246.264 79.2662 246.423C79.2533 246.429 79.2372 246.431 79.2243 246.437C78.8571 246.577 78.4867 246.682 78.1131 246.764C78.0229 246.783 77.9327 246.805 77.8457 246.822C77.456 246.896 77.0694 246.948 76.6764 246.965C76.1643 246.739 75.6554 246.525 75.14 246.335C75.0208 246.294 74.9661 246.649 75.0337 246.816C75.0498 246.86 75.0691 246.888 75.0885 246.929C74.9918 246.992 74.9661 247.276 75.053 247.405C75.2817 247.765 75.5169 248.076 75.7552 248.362C75.9066 248.654 76.0677 248.893 76.2255 249.157C76.2287 249.16 76.2287 249.162 76.232 249.165C77.3497 251.038 78.6413 252.256 80.0361 252.96C80.049 252.966 80.0618 252.971 80.0747 252.977C80.4097 253.142 80.7479 253.288 81.0926 253.4C81.1344 253.414 81.1763 253.422 81.2214 253.433C81.5403 253.53 81.8592 253.615 82.1845 253.67C82.2844 253.686 82.3874 253.689 82.4905 253.703C82.7611 253.739 83.0317 253.774 83.3055 253.783C83.6888 253.796 84.0721 253.785 84.4586 253.752C84.1623 253.964 83.866 254.143 83.5664 254.308C83.2926 254.456 83.0156 254.58 82.7353 254.69C82.7128 254.698 82.687 254.712 82.6645 254.723C81.959 254.723 81.2569 254.764 80.5514 254.872C80.4451 254.885 80.3582 254.984 80.2937 255.125C79.788 255.009 79.292 254.877 78.8282 254.723C78.4706 254.602 78.3997 255.65 78.6284 256.032C83.3184 264.018 90.9556 260.397 96.7246 256.324C96.5474 257.371 96.3316 258.4 96.1319 259.434C95.945 260.399 95.7711 261.367 95.565 262.324C95.1913 264.079 94.7887 265.825 94.3506 267.58C94.3313 267.654 94.3345 267.726 94.3442 267.792C94.3442 267.8 94.3474 267.803 94.3474 267.811C94.3667 267.913 94.4118 267.984 94.4601 267.973C94.4827 267.973 94.5052 267.959 94.531 267.913C94.7468 267.495 94.9626 267.09 95.1784 266.681C95.3491 266.389 95.5166 266.07 95.6841 265.759C95.5134 266.199 95.3459 266.645 95.1623 267.063C95.0786 267.255 95.1945 267.539 95.2912 267.368C97.897 262.693 100.409 258.623 102.4 252.792C102.719 256.029 103.215 258.834 104.082 261.733C104.146 261.959 104.31 261.777 104.252 261.541C103.811 259.891 103.505 257.99 103.286 255.994C103.518 256.78 103.759 257.525 103.998 258.213C104.433 259.47 104.919 260.614 105.422 261.722C105.08 273.564 104.384 285.984 104.384 285.984C109.197 290.425 111.316 284.936 111.316 284.936C111.097 279.293 111.078 267.767 111.104 258.796C111.886 260.804 112.733 262.698 113.526 264.538C113.6 264.709 113.719 264.467 113.651 264.291C112.83 262.157 112.07 259.805 111.4 257.377C112.469 259.475 113.622 261.343 114.859 262.861C115.181 263.259 115.51 263.603 115.842 263.933C116.003 264.095 116.164 264.258 116.328 264.406C116.331 264.409 116.338 264.414 116.341 264.42C116.36 264.439 116.383 264.453 116.402 264.472C117.401 265.38 118.435 266.065 119.491 266.609C119.562 266.645 119.633 266.686 119.704 266.722C119.997 266.868 120.293 267.002 120.59 267.129C120.712 267.181 120.834 267.236 120.957 267.286C121.231 267.398 121.504 267.506 121.778 267.605C121.936 267.662 122.097 267.72 122.258 267.778C122.506 267.863 122.754 267.951 123.002 268.034C123.237 268.111 123.473 268.188 123.711 268.262C124.278 268.441 124.845 268.617 125.408 268.801C125.463 268.817 125.511 268.806 125.557 268.784C125.573 268.776 125.586 268.765 125.602 268.751C125.627 268.729 125.653 268.699 125.676 268.663C125.689 268.644 125.702 268.628 125.711 268.603C125.737 268.551 125.756 268.493 125.776 268.427C125.779 268.413 125.785 268.405 125.788 268.391C125.808 268.309 125.817 268.221 125.827 268.127C125.83 268.1 125.83 268.072 125.83 268.042C125.834 267.973 125.834 267.904 125.83 267.833C125.83 267.803 125.827 267.772 125.827 267.742C125.821 267.662 125.811 267.588 125.795 267.514C125.792 267.497 125.792 267.478 125.785 267.462C125.779 267.437 125.769 267.418 125.763 267.393C125.718 267.233 125.656 267.096 125.569 267.019C125.176 266.692 124.78 266.392 124.387 266.106C124.149 265.93 123.907 265.754 123.669 265.586C123.305 265.212 122.951 264.808 122.603 264.376C122.58 264.291 122.548 264.214 122.497 264.178C122.426 264.128 122.364 264.043 122.294 263.985C121.649 263.127 121.044 262.151 120.496 260.982C120.448 260.881 120.396 260.765 120.348 260.65C123.975 265.754 128.472 268.504 132.717 267.781C132.727 267.781 132.733 267.778 132.74 267.778C133.104 267.715 133.468 267.621 133.828 267.506C133.861 267.495 133.893 267.486 133.925 267.475C134.27 267.36 134.611 267.22 134.949 267.055C134.998 267.033 135.043 267.008 135.088 266.986C135.416 266.821 135.738 266.631 136.061 266.419C136.115 266.384 136.17 266.342 136.225 266.307C136.537 266.089 136.85 265.853 137.153 265.589C137.214 265.537 137.272 265.481 137.33 265.426C137.629 265.157 137.926 264.871 138.219 264.555C138.235 264.538 138.248 264.527 138.264 264.511C138.534 264.205 138.805 263.914 139.066 263.576C139.282 263.298 139.172 262.492 138.914 262.654C138.673 262.811 138.425 262.91 138.18 263.037C138.148 263.006 138.116 262.973 138.074 262.965C137.784 262.872 137.494 262.767 137.204 262.646C137.204 262.646 137.201 262.646 137.201 262.649C134.634 261.62 132.144 259.525 130.011 256.291C130.575 256.744 131.139 257.176 131.706 257.622C131.979 257.842 132.095 256.964 131.844 256.709C130.478 255.334 129 253.917 127.786 251.89C129.477 253.087 131.197 253.832 132.524 254.088C135.123 254.597 139.755 255.229 141.501 250.02C141.678 249.501 141.382 248.827 141.134 249.124Z" fill="#4A5E51"/>
<path d="M52.2283 264.472C51.7439 265.011 51.2312 265.399 50.6986 265.726C50.6901 265.368 50.5853 265.036 50.387 264.887C50.3502 264.866 50.319 264.83 50.2765 264.814C49.9847 264.735 49.693 264.599 49.4012 264.435C49.3417 264.404 49.2822 264.365 49.2227 264.331C48.9423 264.161 48.659 263.97 48.3785 263.741C47.9933 263.43 47.608 263.065 47.2284 262.657C47.2256 262.655 47.2256 262.652 47.2228 262.65C46.4692 261.842 45.7242 260.865 45.0018 259.792C44.9877 259.771 44.9735 259.749 44.9594 259.728C44.6137 259.213 44.2766 258.678 43.9424 258.129C43.9027 258.063 43.8631 257.997 43.8234 257.932C43.5005 257.392 43.1804 256.84 42.8687 256.285C42.8574 256.264 42.8461 256.242 42.8348 256.221C42.5515 255.713 42.2767 255.2 42.0076 254.69C41.9311 254.547 41.8546 254.402 41.781 254.259C41.5345 253.787 41.2937 253.318 41.0614 252.857C40.9679 252.671 40.8745 252.487 40.7838 252.304C40.5572 251.85 40.3306 251.396 40.1209 250.967C39.2399 249.18 38.4212 247.347 37.6422 245.471C39.475 247.15 41.4325 248.114 43.3362 249.536C43.5656 249.713 43.7327 249.01 43.526 248.747C41.2625 245.943 38.6139 244.899 36.427 241.819C36.3306 241.68 36.2315 241.562 36.1352 241.424C36.07 241.315 36.0049 241.204 35.9369 241.104C35.6394 240.294 35.3448 239.482 35.0587 238.652C39.1379 240.646 43.5061 240.607 47.5259 238.731C48.0641 238.484 48.0046 236.819 47.4522 236.783C47.1236 236.765 46.7893 236.737 46.4551 236.712C46.5571 236.676 46.6619 236.644 46.7638 236.599C46.846 236.563 46.8375 236.299 46.7497 236.293C46.5344 236.265 46.3219 236.216 46.1066 236.179C46.067 236.136 46.0386 236.075 45.9848 236.059C42.0784 234.92 38.5572 231.518 35.3902 226.847C35.0502 226.35 34.7103 225.81 34.376 225.263C36.0672 225.815 37.7697 225.944 39.4496 225.567C41.1436 225.443 42.8093 224.705 44.2512 223.315C45.2455 222.979 46.22 222.403 47.1519 221.402C47.2228 221.323 47.2029 221.103 47.1236 221.096C46.2568 221.003 45.3956 220.967 44.5373 220.937C44.5429 220.531 44.4268 220.103 44.1917 220.103C41.7583 220.137 39.5799 219.134 37.6139 217.383C37.189 217.002 36.7726 216.587 36.3646 216.137C36.3561 216.128 36.3476 216.117 36.3391 216.108C35.9284 215.654 35.529 215.169 35.1352 214.649C34.7329 214.116 34.342 213.554 33.9568 212.962C33.9511 212.955 33.9483 212.946 33.9426 212.939C33.2032 211.796 32.5007 210.539 31.8265 209.203C31.7698 209.087 31.7103 208.971 31.6537 208.856C31.3393 208.216 31.0276 207.565 30.7245 206.889C33.6112 210.174 36.4496 211.859 39.798 209.926C40.0699 209.765 39.985 208.969 39.7073 209.064C37.4893 209.822 35.0644 207.669 33.0333 204.845C34.2032 205.296 35.4241 205.435 36.6706 205.21C37.0445 205.144 37.0927 204.094 36.7017 204.006C36.3051 203.915 35.9171 203.779 35.5318 203.62C35.3505 203.545 35.172 203.448 34.9936 203.357C34.8066 203.264 34.6225 203.166 34.4383 203.057C34.2004 202.912 33.9653 202.756 33.7301 202.586C33.6282 202.513 33.529 202.436 33.4299 202.359C33.1522 202.141 32.8775 201.914 32.6112 201.662C32.5857 201.637 32.5602 201.612 32.5347 201.587C32.0106 201.091 31.5064 200.53 31.022 199.895C31.0191 199.893 31.0191 199.893 31.0163 199.891C29.8322 198.353 28.7557 196.461 27.8492 194.231C27.6509 193.698 27.4441 193.171 27.2402 192.661C27.0221 192.033 26.8294 191.391 26.6368 190.756C28.6028 194.319 31.0163 196.785 33.5517 198.237C33.9766 198.48 34.155 197.289 33.767 196.93C31.4072 194.777 29.3535 191.309 27.7019 187.258C29.8067 189.295 32.0899 190.345 34.6423 190.395C34.6933 190.397 34.7329 190.365 34.7669 190.322C34.7726 190.315 34.7783 190.306 34.7839 190.3C34.8491 190.2 34.8803 190.039 34.8718 189.88C34.8718 189.878 34.8718 189.873 34.8718 189.871C34.8633 189.669 34.7981 189.481 34.6678 189.458C34.4638 189.431 34.2627 189.379 34.0616 189.313C33.9483 189.276 33.8349 189.224 33.7245 189.177C33.6197 189.131 33.512 189.093 33.4072 189.041C33.2684 188.968 33.1296 188.882 32.9908 188.796C32.9285 188.757 32.8661 188.723 32.8038 188.682C32.6508 188.578 32.4979 188.46 32.3449 188.34C32.2996 188.306 32.2571 188.272 32.2117 188.235C32.0474 188.099 31.886 187.949 31.7217 187.795C31.6933 187.768 31.665 187.743 31.6367 187.713C31.4639 187.543 31.2911 187.364 31.1183 187.174C31.1041 187.158 31.09 187.144 31.0758 187.128C30.7047 186.715 30.3421 186.262 29.9852 185.772C28.2657 183.412 26.7133 180.296 25.4584 177.471C26.379 178.705 27.3308 179.565 28.2798 179.917C28.4045 179.96 28.4696 179.595 28.3421 179.529C22.5122 176.616 21.3876 160.558 20.2177 150.958C20.1922 150.742 20.1355 150.567 20.0647 150.42C20.0562 150.404 20.0477 150.395 20.0392 150.379C19.9712 150.25 19.8919 150.154 19.8013 150.089C19.7984 150.086 19.7984 150.082 19.7956 150.082C19.7871 150.075 19.7758 150.075 19.7673 150.071C19.7049 150.032 19.6454 149.998 19.5803 149.993C19.5038 149.982 19.4273 149.993 19.3537 150.039C19.3367 149.585 19.3225 149.14 19.2913 148.689C19.2829 148.553 19.2602 148.437 19.2347 148.34C19.2319 148.328 19.2262 148.322 19.2205 148.31C19.0166 147.666 18.4613 147.836 18.3112 148.603C14.6144 167.687 8.85814 186.418 -1.65721 190.572C-1.66571 190.56 -1.67421 190.549 -1.68554 190.54C-1.94899 190.642 -2.19827 190.783 -2.46739 190.869C-2.60903 190.905 -2.60904 191.27 -2.51839 191.425C-0.362624 195.045 3.405 192.584 6.57491 189.029C6.1075 189.816 5.62875 190.599 5.11035 191.329C3.35968 193.782 1.22658 197.425 -0.949012 198.017C-0.971674 198.017 -0.997168 198.024 -1.01983 198.024C-1.03399 198.024 -1.04533 198.046 -1.06233 198.06H-1.06799C-1.09915 198.08 -1.13031 198.112 -1.15297 198.155C-1.15864 198.169 -1.15864 198.185 -1.1643 198.198C-1.22663 198.373 -1.21529 198.636 -1.09065 198.725C-0.824366 198.915 -0.535424 199.09 -0.229481 199.249C-0.223815 199.251 -0.220984 199.253 -0.218151 199.255C0.0311357 199.387 0.291752 199.505 0.560868 199.614C0.671348 199.657 0.787495 199.691 0.900807 199.732C1.08777 199.798 1.27474 199.863 1.4702 199.92C1.59768 199.956 1.73082 199.984 1.86396 200.015C2.05376 200.061 2.24355 200.104 2.43902 200.138C2.57499 200.161 2.71097 200.179 2.84977 200.197C3.0509 200.224 3.25203 200.244 3.456 200.258C3.59197 200.267 3.72794 200.274 3.86392 200.279C4.07921 200.283 4.2945 200.281 4.51263 200.272C4.64294 200.267 4.77041 200.263 4.90356 200.254C5.14434 200.233 5.38513 200.201 5.62592 200.163C5.73356 200.147 5.84121 200.136 5.95169 200.115C6.30296 200.047 6.65139 199.963 6.997 199.854C5.91203 202.919 4.65427 205.65 2.79595 208C2.26055 208.679 1.72232 209.355 1.18126 210.019C1.16709 210.037 1.15009 210.056 1.13593 210.074C0.583534 210.747 0.0226364 211.408 -0.541091 212.036C-0.86403 212.397 -1.1898 212.744 -1.51841 213.079C-1.5609 213.125 -1.60622 213.17 -1.64871 213.216C-1.93199 213.504 -2.22094 213.776 -2.50989 214.041C-2.5892 214.114 -2.66852 214.191 -2.74784 214.261C-3.01412 214.5 -3.28607 214.72 -3.55802 214.935C-3.6515 215.01 -3.74499 215.092 -3.83847 215.162C-4.19823 215.434 -4.56083 215.686 -4.9291 215.908C-5.46449 215.938 -5.98007 215.967 -6.43615 216.01C-6.62311 216.024 -6.67977 216.441 -6.54379 216.675C-6.42482 216.872 -6.29167 217.049 -6.15853 217.231C-6.16703 217.43 -6.14437 217.628 -6.09621 217.791C-6.09621 217.793 -6.09621 217.798 -6.09621 217.8C-6.09621 217.802 -6.09338 217.802 -6.09338 217.805C-6.06788 217.884 -6.03672 217.948 -5.99706 218C-5.98573 218.016 -5.98007 218.036 -5.96873 218.047C-5.91774 218.097 -5.85825 218.127 -5.7846 218.113C-5.68262 218.106 -5.56931 218.07 -5.46733 218.05C-5.26337 218.247 -5.04807 218.422 -4.82712 218.578C-4.75346 218.63 -4.67414 218.669 -4.60049 218.717C-4.45035 218.812 -4.30021 218.907 -4.14158 218.984C-4.0396 219.034 -3.93195 219.073 -3.82714 219.116C-3.69116 219.173 -3.55802 219.234 -3.41921 219.279C-3.29174 219.322 -3.16143 219.35 -3.03112 219.384C-2.91214 219.413 -2.79316 219.449 -2.67135 219.472C-2.51555 219.501 -2.35974 219.52 -2.20111 219.538C-2.10196 219.549 -2.00565 219.565 -1.90366 219.572C-1.7167 219.585 -1.52974 219.588 -1.33994 219.588C-1.26912 219.588 -1.20113 219.59 -1.13031 219.588C-0.906517 219.583 -0.679894 219.567 -0.450437 219.545C-0.419276 219.542 -0.390949 219.54 -0.359789 219.538C0.00280991 219.499 0.362574 219.447 0.725172 219.372C-0.127501 220.686 -1.034 221.89 -1.99998 222.65C-2.85549 222.927 -3.76198 222.993 -4.74213 222.768C-4.85544 222.748 -4.9291 223.061 -4.85261 223.22C-4.82428 223.272 -4.79029 223.308 -4.76479 223.358C-4.88944 223.335 -4.91776 223.687 -4.82995 223.818C-4.48435 224.358 -4.11042 224.687 -3.71949 224.869C-3.59485 225.014 -3.46454 225.132 -3.33423 225.25C-3.32857 225.254 -3.3229 225.257 -3.31723 225.263C-2.82433 225.722 -2.30876 226.039 -1.77336 226.2C-1.76769 226.203 -1.76486 226.205 -1.76203 226.207C-1.56373 226.259 -1.36827 226.309 -1.1643 226.332C-3.22658 228.162 -5.56364 229.31 -7.70241 229.41C-7.96302 229.381 -8.22647 229.324 -8.49559 229.249C-8.78454 229.068 -9.07632 228.87 -9.36243 228.657C-9.878 228.262 -10.1584 229.562 -9.89499 230.315C-8.6259 233.974 -6.06505 235.705 -3.63734 236.515C-3.30874 236.626 -2.9858 236.719 -2.66569 236.796C-2.97447 237.484 -3.29174 238.155 -3.63451 238.797C-3.85546 239.212 -4.10758 239.65 -4.37387 240.092C-4.48435 240.278 -4.60616 240.467 -4.72513 240.655C-4.87811 240.9 -5.03674 241.145 -5.20105 241.392C-5.37385 241.651 -5.54948 241.912 -5.73361 242.173C-5.83843 242.322 -5.94607 242.474 -6.05655 242.624C-7.47012 244.584 -9.1358 246.514 -10.7873 247.932C-10.7902 247.934 -10.793 247.937 -10.793 247.939C-11.1046 248.204 -11.4134 248.454 -11.7193 248.685C-12.0706 248.944 -12.4219 249.191 -12.7646 249.389C-14.1895 249.425 -15.5776 249.205 -16.8863 248.629C-16.9968 248.586 -17.1526 248.826 -17.0676 249.075C-16.8354 249.756 -16.5691 250.341 -16.283 250.865C-16.2575 250.913 -16.232 250.97 -16.2065 251.017C-16.2065 251.02 -16.2036 251.022 -16.2036 251.024C-15.9742 251.426 -15.7249 251.77 -15.4671 252.086C-15.4161 252.149 -15.3623 252.208 -15.3085 252.267C-15.0535 252.555 -14.7901 252.814 -14.5125 253.029C-14.5068 253.034 -14.5011 253.041 -14.4955 253.045C-14.2122 253.261 -13.9176 253.433 -13.6173 253.578C-13.5465 253.612 -13.4785 253.644 -13.4077 253.676C-13.1074 253.808 -12.8014 253.919 -12.487 253.989C-13.6456 254.447 -14.8099 254.851 -15.977 255.237C-16.1696 255.302 -16.113 255.813 -15.9544 255.872C-13.9771 256.586 -11.4615 256.616 -9.02249 255.681C-9.70803 256.595 -10.3766 257.419 -10.9743 258.149C-11.3001 258.54 -11.6287 258.896 -11.9658 259.225C-11.9941 259.252 -12.0224 259.275 -12.0508 259.304C-12.3624 259.603 -12.6796 259.88 -12.9997 260.132C-13.0196 260.148 -13.0394 260.159 -13.0592 260.175C-13.47 260.493 -13.8892 260.769 -14.3142 261.01C-14.3453 261.028 -14.3793 261.048 -14.4105 261.067C-14.8524 261.309 -15.2971 261.516 -15.7476 261.681C-15.7617 261.688 -15.7787 261.69 -15.7957 261.697C-16.198 261.842 -16.6059 261.949 -17.0167 262.035C-17.1158 262.056 -17.2121 262.076 -17.3113 262.094C-17.739 262.169 -18.1668 262.224 -18.5945 262.242C-19.1554 262.008 -19.7135 261.788 -20.2829 261.593C-20.4132 261.55 -20.4727 261.915 -20.399 262.09C-20.382 262.133 -20.3594 262.162 -20.3367 262.208C-20.4415 262.273 -20.4698 262.566 -20.3764 262.698C-20.1242 263.07 -19.8665 263.389 -19.603 263.682C-19.4359 263.982 -19.2602 264.231 -19.0874 264.501C-19.0846 264.503 -19.0818 264.508 -19.0818 264.51C-17.8523 266.441 -16.4359 267.695 -14.9034 268.419C-14.8892 268.426 -14.8751 268.43 -14.8609 268.437C-14.4926 268.609 -14.1215 268.757 -13.7419 268.872C-13.6966 268.886 -13.6485 268.895 -13.6031 268.906C-13.2547 269.006 -12.9006 269.095 -12.5437 269.149C-12.4332 269.167 -12.3199 269.17 -12.2066 269.183C-11.9091 269.219 -11.6117 269.258 -11.3114 269.267C-10.8921 269.281 -10.4701 269.269 -10.0451 269.235C-10.3709 269.453 -10.6967 269.639 -11.0253 269.809C-11.3256 269.961 -11.6315 270.091 -11.9374 270.204C-11.9629 270.213 -11.9913 270.227 -12.0168 270.236C-12.7929 270.236 -13.5635 270.279 -14.3368 270.388C-14.453 270.401 -14.5493 270.503 -14.6201 270.649C-15.1753 270.528 -15.7192 270.392 -16.232 270.233C-16.6257 270.109 -16.7022 271.188 -16.4529 271.583C-11.3029 279.811 -2.91214 276.082 3.42767 271.883C3.2322 272.962 2.99425 274.022 2.77612 275.088C2.57216 276.082 2.37953 277.08 2.15574 278.066C1.74215 279.874 1.30306 281.676 0.821489 283.481C0.801659 283.556 0.80449 283.631 0.815821 283.699C0.815821 283.706 0.818656 283.71 0.821489 283.717C0.844151 283.824 0.889478 283.894 0.946134 283.885C0.971629 283.885 0.99712 283.871 1.02262 283.824C1.26057 283.393 1.4957 282.978 1.73648 282.554C1.92345 282.254 2.10758 281.925 2.29171 281.603C2.10191 282.054 1.91778 282.515 1.71665 282.946C1.626 283.143 1.75065 283.436 1.85829 283.261C4.71942 278.443 7.4814 274.253 9.66549 268.244C10.0139 271.579 10.5607 274.471 11.5125 277.456C11.5805 277.69 11.7646 277.499 11.6994 277.259C11.215 275.56 10.8779 273.602 10.6371 271.542C10.8921 272.352 11.1584 273.119 11.419 273.827C11.8977 275.122 12.4331 276.302 12.9827 277.443C12.6059 289.645 11.8439 302.441 11.8439 302.441C17.1299 307.019 19.4585 301.361 19.4585 301.361C19.2177 295.545 19.195 283.674 19.2234 274.428C20.0845 276.497 21.0165 278.45 21.8834 280.344C21.9655 280.519 22.0958 280.271 22.0222 280.09C21.1213 277.892 20.2828 275.469 19.5463 272.965C20.7191 275.127 21.9882 277.052 23.3479 278.613C23.702 279.024 24.0618 279.378 24.4272 279.718C24.6057 279.886 24.7813 280.051 24.9598 280.206C24.9654 280.21 24.9683 280.215 24.9739 280.219C24.9966 280.24 25.0193 280.253 25.0419 280.274C26.1382 281.208 27.277 281.916 28.4356 282.474C28.5121 282.513 28.5914 282.554 28.6679 282.59C28.9909 282.74 29.3166 282.878 29.6424 283.009C29.7755 283.064 29.9115 283.121 30.0475 283.173C30.3478 283.286 30.648 283.4 30.9483 283.502C31.124 283.563 31.2996 283.622 31.4752 283.679C31.7472 283.767 32.0191 283.858 32.2939 283.942C32.5517 284.021 32.8123 284.098 33.0701 284.175C33.6933 284.359 34.3165 284.543 34.9341 284.729C34.9936 284.747 35.0474 284.736 35.0955 284.713C35.1125 284.704 35.1267 284.693 35.1437 284.679C35.172 284.656 35.2004 284.627 35.2259 284.591C35.24 284.57 35.2513 284.552 35.2655 284.529C35.2938 284.477 35.3165 284.416 35.3335 284.348C35.3363 284.334 35.342 284.323 35.3477 284.309C35.3675 284.225 35.3817 284.135 35.3902 284.039C35.393 284.01 35.393 283.983 35.3958 283.953C35.3987 283.881 35.3987 283.81 35.3958 283.738C35.3958 283.706 35.393 283.676 35.3902 283.645C35.3817 283.563 35.3703 283.486 35.3562 283.409C35.3533 283.391 35.3505 283.372 35.3477 283.354C35.342 283.329 35.3307 283.309 35.3222 283.284C35.274 283.121 35.206 282.978 35.1069 282.898C34.6735 282.56 34.24 282.254 33.8095 281.957C33.546 281.775 33.2826 281.594 33.0219 281.422C32.6225 281.036 32.2344 280.621 31.852 280.174C31.8265 280.085 31.7925 280.008 31.733 279.97C31.6537 279.918 31.5857 279.831 31.512 279.772C30.8038 278.89 30.141 277.883 29.5376 276.678C29.4838 276.574 29.4299 276.456 29.3733 276.336C33.359 281.594 38.2966 284.427 42.9594 283.681C42.9679 283.679 42.9764 283.679 42.9849 283.676C43.3843 283.611 43.7837 283.515 44.1803 283.397C44.2172 283.386 44.2512 283.377 44.288 283.366C44.6676 283.248 45.0415 283.102 45.4126 282.932C45.4636 282.91 45.5146 282.885 45.5656 282.862C45.9253 282.692 46.2823 282.497 46.6364 282.277C46.6959 282.24 46.7553 282.2 46.8148 282.161C47.1604 281.936 47.5004 281.694 47.8346 281.422C47.8998 281.369 47.965 281.31 48.0301 281.256C48.3587 280.979 48.6845 280.684 49.0046 280.358C49.0216 280.342 49.0386 280.328 49.0556 280.312C49.353 279.997 49.6505 279.698 49.9394 279.348C50.1745 279.062 50.0584 278.232 49.7723 278.4C49.506 278.561 49.2341 278.663 48.9649 278.795C48.9309 278.765 48.8941 278.729 48.8488 278.722C48.5315 278.627 48.2142 278.518 47.8913 278.393C47.8913 278.393 47.8885 278.395 47.8856 278.395C45.067 277.336 42.3305 275.176 39.9906 271.846C40.6082 272.314 41.2286 272.758 41.8546 273.219C42.1549 273.446 42.2824 272.54 42.0076 272.277C40.5062 270.862 38.883 269.401 37.5487 267.314C39.4042 268.548 41.2965 269.315 42.7526 269.578C45.6052 270.104 50.6958 270.753 52.6136 265.388C52.8289 264.857 52.5031 264.165 52.2283 264.472Z" fill="#4A5E51"/>
<path d="M105.2 266.776C104.765 267.295 104.306 267.664 103.828 267.978C103.822 267.632 103.727 267.315 103.546 267.174C103.513 267.153 103.485 267.119 103.445 267.103C103.182 267.027 102.922 266.896 102.658 266.742C102.603 266.71 102.551 266.674 102.496 266.64C102.242 266.477 101.991 266.294 101.74 266.074C101.394 265.775 101.048 265.427 100.708 265.034C100.708 265.031 100.705 265.031 100.702 265.028C100.025 264.253 99.358 263.315 98.7089 262.285C98.6967 262.264 98.6844 262.246 98.6691 262.225C98.3599 261.733 98.0568 261.216 97.7567 260.69C97.72 260.627 97.6863 260.564 97.6496 260.501C97.3587 259.983 97.074 259.456 96.7954 258.922C96.7831 258.901 96.7739 258.88 96.7647 258.861C96.5106 258.374 96.2657 257.881 96.0238 257.394C95.9565 257.255 95.886 257.119 95.8187 256.98C95.5982 256.527 95.3809 256.076 95.1727 255.634C95.0869 255.455 95.0043 255.277 94.9216 255.102C94.7195 254.667 94.5175 254.232 94.3276 253.821C93.5377 252.105 92.7999 250.349 92.1049 248.55C93.749 250.158 95.5064 251.083 97.2148 252.448C97.4199 252.616 97.57 251.945 97.3863 251.691C95.3564 249.003 92.9774 248.002 91.0149 245.049C90.9292 244.916 90.8404 244.803 90.7547 244.67C90.6965 244.565 90.6383 244.46 90.5771 244.363C90.3107 243.585 90.0443 242.807 89.7902 242.01C93.452 243.923 97.371 243.886 100.978 242.086C101.461 241.848 101.406 240.253 100.91 240.219C100.613 240.2 100.313 240.174 100.016 240.15C100.108 240.116 100.2 240.085 100.292 240.043C100.365 240.009 100.359 239.755 100.28 239.75C100.087 239.723 99.8968 239.676 99.704 239.64C99.6672 239.6 99.6427 239.54 99.5937 239.524C96.0881 238.432 92.9284 235.17 90.0841 230.69C89.778 230.213 89.4749 229.695 89.1748 229.171C90.6904 229.7 92.2212 229.823 93.7276 229.461C95.2492 229.341 96.7433 228.634 98.0353 227.3C98.9293 226.978 99.8019 226.425 100.638 225.466C100.702 225.388 100.684 225.178 100.613 225.173C99.8356 225.084 99.061 225.047 98.2925 225.021C98.2986 224.63 98.1945 224.222 97.9833 224.222C95.8003 224.253 93.8439 223.292 92.0804 221.612C91.6977 221.246 91.3241 220.847 90.9598 220.42C90.9506 220.41 90.9445 220.402 90.9384 220.392C90.571 219.957 90.2097 219.49 89.8576 218.993C89.4963 218.482 89.1442 217.942 88.8013 217.374C88.7982 217.366 88.7921 217.36 88.7891 217.353C88.1247 216.255 87.494 215.052 86.8908 213.771C86.8388 213.661 86.7867 213.551 86.7377 213.439C86.453 212.826 86.1744 212.199 85.905 211.555C88.4951 214.704 91.0425 216.323 94.046 214.466C94.2909 214.311 94.2144 213.549 93.9633 213.64C91.9732 214.369 89.7964 212.302 87.9747 209.593C89.0248 210.028 90.1178 210.159 91.2384 209.944C91.5721 209.881 91.615 208.872 91.266 208.788C90.9108 208.702 90.5618 208.571 90.2158 208.419C90.0535 208.346 89.8943 208.254 89.7351 208.167C89.5667 208.078 89.4014 207.987 89.2361 207.882C89.0217 207.743 88.8105 207.594 88.6023 207.429C88.5105 207.358 88.4217 207.285 88.3329 207.211C88.0849 207.004 87.8369 206.787 87.5981 206.543C87.5766 206.52 87.5521 206.496 87.5307 206.472C87.0592 205.996 86.6091 205.459 86.1713 204.851C86.1683 204.848 86.1683 204.848 86.1652 204.846C85.1028 203.371 84.1384 201.555 83.324 199.42C83.1464 198.909 82.9627 198.403 82.779 197.913C82.583 197.311 82.4085 196.695 82.2371 196.085C84.0037 199.501 86.1683 201.867 88.44 203.26C88.8227 203.494 88.9819 202.351 88.6329 202.008C86.5142 199.944 84.6742 196.619 83.1893 192.734C85.0783 194.686 87.1296 195.694 89.4167 195.744C89.4626 195.744 89.4994 195.715 89.53 195.673C89.5361 195.666 89.5392 195.658 89.5453 195.65C89.6035 195.556 89.631 195.401 89.6249 195.246C89.6249 195.244 89.6249 195.241 89.6249 195.236C89.6157 195.042 89.5575 194.861 89.4412 194.84C89.2575 194.814 89.0769 194.764 88.8962 194.702C88.7952 194.667 88.6941 194.618 88.5931 194.571C88.4982 194.529 88.4033 194.492 88.3084 194.44C88.1829 194.371 88.0604 194.288 87.9349 194.204C87.8797 194.167 87.8246 194.133 87.7665 194.094C87.6287 193.994 87.4909 193.881 87.3562 193.764C87.3164 193.73 87.2766 193.698 87.2368 193.664C87.0898 193.533 86.9429 193.392 86.799 193.242C86.7745 193.216 86.7469 193.192 86.7224 193.164C86.5663 193.001 86.4132 192.828 86.2601 192.648C86.2479 192.632 86.2356 192.619 86.2234 192.603C85.8927 192.207 85.5651 191.77 85.2436 191.304C83.7006 189.043 82.3075 186.053 81.1808 183.345C82.0074 184.526 82.8617 185.354 83.7128 185.689C83.8261 185.731 83.8842 185.38 83.7679 185.317C78.5355 182.525 77.5282 167.125 76.478 157.919C76.4536 157.712 76.4015 157.544 76.3403 157.403C76.3342 157.387 76.325 157.379 76.3158 157.364C76.2545 157.238 76.1841 157.146 76.1045 157.086C76.1015 157.083 76.1015 157.081 76.0984 157.078C76.0892 157.073 76.0831 157.073 76.0739 157.068C76.0188 157.031 75.9637 156.997 75.9055 156.994C75.8351 156.984 75.7677 156.994 75.7034 157.039C75.6881 156.604 75.6759 156.177 75.6483 155.745C75.6391 155.614 75.6208 155.504 75.5963 155.409C75.5932 155.399 75.5871 155.391 75.584 155.38C75.4003 154.762 74.9013 154.927 74.7696 155.661C71.4508 173.963 66.2857 191.922 56.8496 195.907C56.8404 195.896 56.8343 195.886 56.8251 195.875C56.5894 195.975 56.3659 196.106 56.124 196.19C55.9954 196.224 55.9954 196.575 56.0781 196.721C58.0131 200.193 61.3932 197.835 64.2375 194.424C63.818 195.181 63.3863 195.93 62.9209 196.63C61.3503 198.982 59.4337 202.475 57.4834 203.043C57.462 203.043 57.4405 203.051 57.4191 203.051C57.4068 203.051 57.3946 203.072 57.3823 203.088C57.3793 203.088 57.3762 203.088 57.3762 203.088C57.3487 203.109 57.3211 203.137 57.3027 203.179C57.2966 203.192 57.2966 203.208 57.2936 203.221C57.2384 203.389 57.2476 203.64 57.3609 203.724C57.5997 203.908 57.86 204.073 58.1325 204.227C58.1355 204.23 58.1386 204.232 58.1416 204.235C58.3651 204.361 58.5978 204.476 58.8428 204.578C58.9407 204.62 59.0479 204.652 59.1489 204.691C59.3173 204.754 59.4857 204.819 59.6602 204.872C59.7766 204.906 59.896 204.932 60.0123 204.963C60.1838 205.005 60.3522 205.047 60.5267 205.079C60.6492 205.102 60.7716 205.118 60.8941 205.136C61.0747 205.16 61.2554 205.181 61.4391 205.194C61.5615 205.202 61.6809 205.21 61.8065 205.212C61.9994 205.218 62.1923 205.215 62.3882 205.204C62.5045 205.199 62.6209 205.197 62.7372 205.186C62.9546 205.168 63.1689 205.136 63.3863 205.1C63.4843 205.084 63.5792 205.073 63.6772 205.052C63.9925 204.987 64.3048 204.908 64.6171 204.804C63.6435 207.743 62.5168 210.36 60.8451 212.616C60.3675 213.266 59.8837 213.915 59.3939 214.552C59.3816 214.57 59.3663 214.589 59.3541 214.604C58.8581 215.251 58.356 215.883 57.8477 216.485C57.5569 216.831 57.266 217.164 56.9721 217.486C56.9323 217.528 56.8925 217.575 56.8527 217.617C56.5986 217.892 56.3383 218.154 56.0811 218.408C56.0107 218.479 55.9403 218.552 55.8668 218.621C55.6249 218.851 55.3831 219.061 55.1381 219.268C55.0555 219.338 54.9697 219.417 54.8871 219.485C54.5656 219.747 54.238 219.988 53.9073 220.2C53.4267 220.229 52.9643 220.255 52.5541 220.297C52.3857 220.31 52.3367 220.711 52.4592 220.934C52.5663 221.123 52.6857 221.293 52.8051 221.466C52.796 221.657 52.8174 221.846 52.8603 222.003C52.8603 222.005 52.8603 222.011 52.8603 222.013C52.8603 222.016 52.8603 222.016 52.8633 222.019C52.8847 222.094 52.9154 222.155 52.949 222.205C52.9582 222.22 52.9643 222.239 52.9766 222.252C53.0225 222.301 53.0776 222.328 53.1419 222.315C53.2338 222.307 53.3348 222.273 53.4267 222.252C53.6104 222.44 53.8032 222.608 54.0023 222.757C54.0696 222.807 54.14 222.844 54.2074 222.888C54.3421 222.98 54.4768 223.072 54.6176 223.145C54.7095 223.195 54.8044 223.229 54.8993 223.271C55.0187 223.326 55.1412 223.383 55.2637 223.428C55.377 223.467 55.4964 223.496 55.6127 223.528C55.7199 223.556 55.827 223.59 55.9342 223.611C56.0719 223.64 56.2128 223.656 56.3567 223.674C56.4455 223.685 56.5343 223.7 56.6231 223.708C56.7915 223.721 56.9598 223.724 57.1282 223.724C57.1925 223.724 57.2538 223.727 57.3181 223.724C57.5201 223.719 57.7222 223.703 57.9273 223.682C57.9549 223.68 57.9824 223.677 58.01 223.674C58.3345 223.638 58.6591 223.588 58.9836 223.517C58.2182 224.777 57.4038 225.933 56.5373 226.658C55.7688 226.925 54.9544 226.988 54.0757 226.771C53.9747 226.75 53.9073 227.051 53.9778 227.206C54.0023 227.256 54.0329 227.292 54.0574 227.339C53.9441 227.318 53.9196 227.654 53.9992 227.782C54.3115 228.301 54.6452 228.615 54.9942 228.788C55.1075 228.927 55.2239 229.04 55.3402 229.152C55.3463 229.158 55.3494 229.16 55.3555 229.165C55.7995 229.606 56.2618 229.909 56.7394 230.064C56.7425 230.067 56.7455 230.069 56.7516 230.069C56.9292 230.119 57.1037 230.166 57.2874 230.187C55.4382 231.942 53.3409 233.043 51.4182 233.14C51.1824 233.111 50.9467 233.056 50.7079 232.985C50.4476 232.81 50.1874 232.621 49.9302 232.419C49.4679 232.039 49.2168 233.286 49.4526 234.01C50.5915 237.52 52.8909 239.178 55.0677 239.954C55.3616 240.059 55.6525 240.15 55.9403 240.224C55.6647 240.881 55.3769 241.526 55.0708 242.141C54.8718 242.54 54.6452 242.959 54.4064 243.383C54.3054 243.561 54.1982 243.742 54.091 243.923C53.9533 244.159 53.8124 244.392 53.6655 244.63C53.5124 244.879 53.3532 245.128 53.1878 245.38C53.0929 245.524 52.995 245.668 52.9 245.812C51.6294 247.693 50.1354 249.543 48.6535 250.902C48.6504 250.905 48.6504 250.905 48.6474 250.907C48.3688 251.162 48.0901 251.4 47.8177 251.623C47.5023 251.869 47.187 252.107 46.8777 252.296C45.601 252.33 44.3518 252.12 43.1762 251.568C43.0782 251.526 42.9373 251.756 43.0139 251.995C43.2221 252.647 43.4609 253.208 43.7181 253.711C43.7426 253.758 43.764 253.81 43.7854 253.857C43.7854 253.86 43.7885 253.86 43.7885 253.863C43.9936 254.248 44.2171 254.58 44.4498 254.879C44.4957 254.939 44.5447 254.997 44.5906 255.055C44.8203 255.33 45.056 255.579 45.304 255.786C45.3101 255.791 45.3132 255.796 45.3193 255.801C45.5734 256.008 45.8398 256.173 46.1092 256.312C46.1705 256.346 46.2348 256.375 46.296 256.404C46.5654 256.53 46.841 256.634 47.1227 256.705C46.0847 257.145 45.0407 257.53 43.9906 257.902C43.816 257.965 43.8681 258.455 44.012 258.51C45.7878 259.197 48.0442 259.223 50.2333 258.327C49.6179 259.202 49.0178 259.993 48.482 260.693C48.1912 261.067 47.8942 261.408 47.5942 261.722C47.5697 261.748 47.5421 261.772 47.5176 261.798C47.2359 262.086 46.9543 262.351 46.6665 262.592C46.6481 262.608 46.6328 262.618 46.6144 262.634C46.244 262.94 45.8704 263.205 45.4877 263.433C45.4602 263.451 45.4295 263.47 45.402 263.488C45.007 263.721 44.606 263.918 44.2018 264.077C44.1865 264.083 44.1743 264.085 44.159 264.09C43.7977 264.229 43.4303 264.331 43.0659 264.415C42.9771 264.434 42.8884 264.455 42.8026 264.47C42.4199 264.544 42.0372 264.596 41.6514 264.612C41.1493 264.389 40.6472 264.177 40.1359 263.988C40.0196 263.946 39.9644 264.297 40.0318 264.465C40.0471 264.507 40.0655 264.536 40.0869 264.578C39.992 264.641 39.9675 264.921 40.0502 265.047C40.2767 265.403 40.5064 265.712 40.7452 265.992C40.8952 266.281 41.0513 266.519 41.2075 266.776C41.2106 266.778 41.2106 266.781 41.2136 266.784C42.3158 268.633 43.5895 269.838 44.9642 270.533C44.9764 270.538 44.9887 270.543 45.0009 270.551C45.3316 270.716 45.6653 270.857 46.0051 270.968C46.048 270.981 46.0878 270.988 46.1307 271.002C46.446 271.096 46.7614 271.182 47.0798 271.235C47.1808 271.253 47.2819 271.253 47.3829 271.269C47.6493 271.303 47.9156 271.34 48.1881 271.35C48.5647 271.363 48.9444 271.353 49.324 271.321C49.0331 271.531 48.7392 271.709 48.4453 271.871C48.1759 272.018 47.9003 272.141 47.6278 272.249C47.6033 272.259 47.5788 272.272 47.5574 272.28C46.8624 272.28 46.1674 272.322 45.4755 272.427C45.3714 272.44 45.2856 272.537 45.2214 272.678C44.7223 272.563 44.2355 272.432 43.7762 272.28C43.4242 272.162 43.3537 273.197 43.5772 273.574C48.1973 281.465 55.729 277.887 61.4176 273.86C61.2431 274.895 61.0288 275.911 60.8329 276.933C60.6492 277.886 60.4777 278.843 60.2756 279.789C59.9052 281.52 59.5102 283.249 59.0785 284.981C59.0601 285.054 59.0632 285.125 59.0724 285.188C59.0724 285.196 59.0755 285.201 59.0785 285.206C59.0969 285.308 59.1397 285.377 59.1918 285.366C59.2132 285.366 59.2377 285.353 59.2622 285.306C59.4765 284.892 59.6878 284.494 59.9021 284.088C60.0705 283.799 60.2358 283.485 60.4012 283.179C60.2328 283.611 60.0674 284.054 59.8868 284.468C59.8041 284.656 59.9174 284.936 60.0154 284.769C62.5841 280.15 65.061 276.129 67.0236 270.37C67.3359 273.569 67.8257 276.341 68.683 279.204C68.7442 279.427 68.9096 279.246 68.8514 279.016C68.4166 277.386 68.1135 275.508 67.8992 273.535C68.1288 274.31 68.3646 275.047 68.6003 275.725C69.029 276.967 69.5097 278.099 70.0026 279.194C69.6658 290.894 68.9831 303.165 68.9831 303.165C73.7287 307.553 75.8167 302.13 75.8167 302.13C75.5993 296.553 75.581 285.17 75.6055 276.304C76.377 278.287 77.2129 280.161 77.9936 281.976C78.0671 282.144 78.1865 281.905 78.116 281.732C77.3078 279.626 76.5546 277.3 75.8963 274.9C76.9495 276.972 78.0885 278.819 79.307 280.318C79.6224 280.711 79.95 281.051 80.2776 281.376C80.4368 281.539 80.596 281.696 80.7583 281.842C80.7613 281.848 80.7675 281.85 80.7705 281.856C80.792 281.874 80.8103 281.89 80.8318 281.908C81.8176 282.804 82.8372 283.482 83.8781 284.02C83.9485 284.056 84.0159 284.096 84.0863 284.13C84.3772 284.274 84.668 284.407 84.9589 284.533C85.0783 284.585 85.2008 284.638 85.3202 284.688C85.5896 284.798 85.859 284.905 86.1285 285.002C86.2846 285.06 86.4438 285.117 86.6 285.172C86.8449 285.259 87.0898 285.345 87.3348 285.424C87.5675 285.5 87.8001 285.576 88.0328 285.649C88.5901 285.825 89.1503 286 89.7045 286.181C89.7596 286.197 89.8055 286.186 89.8484 286.165C89.8637 286.157 89.876 286.144 89.8913 286.134C89.9188 286.11 89.9433 286.084 89.9647 286.047C89.977 286.029 89.9892 286.011 89.9984 285.987C90.0229 285.935 90.0443 285.877 90.0597 285.814C90.0627 285.801 90.0688 285.791 90.0719 285.777C90.0903 285.696 90.1025 285.61 90.1086 285.518C90.1117 285.489 90.1117 285.463 90.1117 285.434C90.1148 285.366 90.1148 285.298 90.1117 285.227C90.1117 285.196 90.1086 285.167 90.1086 285.138C90.1025 285.06 90.0933 284.986 90.078 284.913C90.075 284.895 90.0719 284.876 90.0688 284.86C90.0627 284.837 90.0535 284.816 90.0474 284.792C90.0046 284.635 89.9433 284.499 89.8545 284.423C89.4657 284.098 89.0769 283.805 88.6911 283.522C88.4553 283.346 88.2196 283.173 87.9838 283.008C87.6256 282.639 87.2766 282.241 86.9337 281.811C86.9123 281.727 86.8786 281.651 86.8265 281.615C86.7561 281.565 86.6949 281.481 86.6275 281.426C85.9938 280.58 85.3967 279.613 84.8548 278.458C84.8058 278.358 84.7568 278.243 84.7078 278.13C88.2839 283.171 92.7141 285.89 96.8995 285.175C96.9086 285.172 96.9148 285.172 96.9239 285.172C97.2852 285.109 97.6404 285.018 97.9955 284.905C98.0261 284.895 98.0598 284.887 98.0904 284.874C98.4303 284.761 98.7671 284.622 99.1008 284.46C99.1467 284.439 99.1927 284.415 99.2386 284.392C99.5631 284.226 99.8815 284.04 100.197 283.831C100.252 283.794 100.304 283.755 100.359 283.718C100.668 283.503 100.975 283.27 101.275 283.008C101.333 282.958 101.391 282.901 101.449 282.848C101.743 282.581 102.037 282.301 102.325 281.989C102.34 281.973 102.355 281.96 102.371 281.945C102.637 281.643 102.903 281.355 103.164 281.02C103.375 280.747 103.271 279.948 103.014 280.111C102.775 280.265 102.533 280.362 102.288 280.491C102.257 280.462 102.224 280.428 102.184 280.42C101.899 280.328 101.614 280.223 101.327 280.105L101.324 280.108C98.7916 279.094 96.3361 277.022 94.2389 273.828C94.793 274.276 95.3502 274.703 95.9105 275.144C96.18 275.361 96.2963 274.494 96.0483 274.24C94.7012 272.88 93.2469 271.481 92.0467 269.479C93.7122 270.661 95.4084 271.397 96.7157 271.649C99.2784 272.152 103.843 272.775 105.567 267.63C105.735 267.148 105.448 266.482 105.2 266.776Z" fill="#4A5E51"/>
</svg>
