<svg width="546" height="304" viewBox="0 0 546 304" fill="none" xmlns="http://www.w3.org/2000/svg">
<path d="M544.549 165.567C545.385 164.733 544.88 163.548 544.344 162.752C544.128 162.431 544.005 161.952 543.871 161.477C543.89 161.477 543.909 161.477 543.931 161.479C543.617 160.361 543.218 159.834 542.25 159.704C542.267 159.726 542.294 159.791 542.313 159.827C542.215 159.811 542.116 159.769 542.015 159.76C542.228 159.542 542.368 159.202 542.439 158.722C542.461 158.68 542.466 158.621 542.488 158.581C542.841 158.375 543.095 158.106 543.308 157.806C543.313 157.803 543.316 157.797 543.322 157.794C543.319 157.794 543.316 157.794 543.316 157.794C543.781 157.126 543.95 156.25 543.896 155.145C543.868 154.587 543.505 154.085 543.056 153.973C542.127 153.74 544.295 152.675 544.546 152.355C545.353 151.333 546.066 149.381 545.087 148.249C544.83 147.949 544.429 147.801 544.112 147.63C544.106 147.628 544.109 147.097 544.073 146.853C544.087 146.678 544.027 146.487 543.833 146.281C543.819 146.319 543.805 146.355 543.792 146.393C543.401 145.99 542.939 146.064 542.441 146.008C542.734 145.53 543.089 145.107 543.089 144.448C543.089 143.639 542.575 142.655 541.949 142.372C541.922 142.359 541.898 142.346 541.87 142.332C541.9 142.314 541.93 142.307 541.96 142.278C541.288 141.976 540.569 140.806 539.938 140.687C539.894 140.678 539.765 140.714 539.61 140.766C539.325 140.761 539.066 140.81 538.749 140.945C538.535 141.057 538.317 141.169 538.098 141.277C537.683 141.398 537.333 141.458 537.248 141.335C537.218 141.29 537.207 141.252 537.188 141.209C537.193 141.082 537.221 140.925 537.303 140.707C537.546 140.725 537.702 140.492 537.776 140.23C538.071 140.089 538.434 139.97 538.803 139.871C539.088 139.932 539.361 140.006 539.498 140.012C539.839 140.026 540.416 139.806 540.596 139.412C540.607 139.385 540.605 139.363 540.616 139.336C540.618 139.331 540.629 139.327 540.632 139.322C540.643 139.298 540.632 139.264 540.64 139.239C540.782 138.834 540.785 138.477 540.599 138.045C540.564 137.96 540.498 137.895 540.427 137.836C540.32 137.565 540.241 137.35 540.26 137.267C540.359 137.153 540.49 137.029 540.561 136.857C540.61 136.734 540.67 136.592 540.73 136.442C540.922 136.046 541.058 135.611 541.053 135.142C541.045 135.151 541.034 135.165 541.023 135.174C541.015 134.347 541.127 133.67 541.96 133.815C542.903 133.984 544.002 133.802 544.213 132.428C544.224 132.379 544.254 132.354 544.262 132.303C544.194 132.809 544.235 132.498 544.262 132.303C544.289 132.108 544.278 132.179 544.262 132.298C544.251 132.233 544.24 132.17 544.229 132.105C544.224 131.801 544.164 131.5 544.068 131.207C544.043 131.07 544.019 130.933 543.994 130.797C543.972 130.806 543.959 130.812 543.939 130.821C543.887 130.682 543.838 130.543 543.792 130.411C543.682 130.088 543.625 129.73 543.598 129.385C543.592 129.174 543.6 128.97 543.631 128.764C543.631 128.741 543.631 128.726 543.633 128.705C544.721 128.114 545.64 127.134 545.366 125.478C545.268 124.862 545.112 124.064 544.809 123.49C544.833 123.495 544.866 123.488 544.891 123.495C544.593 122.816 544.133 122.556 543.513 122.717C543.442 122.739 543.406 122.751 543.371 122.762C543.412 122.748 543.461 122.733 543.513 122.717C543.22 122.809 543.04 122.614 542.849 122.392C542.772 122.195 542.69 121.993 542.455 121.948C542.414 121.941 542.381 121.95 542.343 121.946C542.212 121.874 542.07 121.818 541.878 121.847C541.791 121.206 541.569 120.651 541.211 120.173C541.25 120.119 541.277 120.054 541.313 120.001C541.422 119.846 541.575 119.615 541.687 119.369C541.698 119.346 541.714 119.33 541.723 119.306C541.728 119.292 541.723 119.274 541.728 119.259C541.859 118.925 541.889 118.584 541.583 118.4C539.549 117.172 540.156 117.15 541.233 117.042C541.922 117.567 542.45 117.242 542.906 116.654C543.453 116.379 543.83 115.899 543.685 114.998C543.516 113.934 543.581 112.84 543.513 111.78C543.592 111.565 543.688 111.338 543.639 111.116C543.592 110.915 543.483 110.796 543.368 110.684C543.242 110.054 543.029 109.447 542.619 108.88C542.217 108.588 542.015 108.167 542.015 107.611C542.42 106.524 540.386 107.013 540.197 106.273C540.181 106.206 540.189 106.114 540.197 106.024C540.285 105.758 540.495 105.473 540.635 105.233C541.047 104.532 541.255 103.655 541.359 102.775C541.427 102.548 541.482 102.333 541.49 102.16C541.477 102.183 541.441 102.201 541.422 102.221C541.427 102.098 541.466 101.974 541.463 101.853C541.457 101.008 541.146 100.35 540.678 99.8296C540.749 99.8632 540.812 99.917 540.883 99.9483C540.512 99.4575 540.069 99.1124 539.544 98.9264C539.5 98.9017 539.519 98.83 539.511 98.7784C539.73 98.3885 539.965 97.9402 540.009 97.4673C540.017 97.3889 540.003 97.3194 540.006 97.2409C540.022 97.1647 540.061 97.0796 540.061 97.0101C540.047 97.0572 540.022 97.1042 540.006 97.1513C540.055 94.7801 538.169 93.3211 536.398 93.3592C536.269 93.3636 536.155 93.4017 536.045 93.451C536.13 93.3973 536.217 93.3435 536.327 93.2874C535.848 93.3502 534.963 93.8522 534.148 94.0248C534.047 93.9643 533.94 93.9082 533.817 93.8657C533.722 93.832 533.448 93.8926 533.14 93.962C533.047 93.9217 532.965 93.8522 532.885 93.7805C532.776 93.6169 532.664 93.4578 532.563 93.3009C532.508 93.1709 532.459 93.0319 532.426 92.8571C532.948 93.209 533.328 93.088 533.815 92.6621C533.828 92.6532 533.839 92.6442 533.853 92.6352C533.858 92.6307 533.864 92.6263 533.869 92.6195C534.337 92.2766 534.785 91.7298 535.184 91.2345C535.395 90.9924 535.605 90.7504 535.84 90.524C536.45 89.9413 536.772 89.4437 536.573 88.4979C536.565 88.4531 536.537 88.4217 536.521 88.3836C536.543 87.8547 536.406 87.4827 535.996 87.5633C536.084 87.5118 536.176 87.4602 536.343 87.3235C536.368 87.3034 536.395 87.2832 536.42 87.2653C536.652 87.1196 536.857 86.9515 537.04 86.7677C537.426 86.445 537.784 86.0729 537.942 85.5373C538.169 84.773 538.065 84.0805 537.792 83.4709C537.601 82.933 537.262 82.413 536.761 81.9491C537.275 81.261 538.073 80.3959 537.822 79.4434C537.628 78.7015 537.01 77.8364 536.606 77.0072C536.51 76.7539 536.422 76.4738 536.343 76.1689C536.975 76.1264 537.683 75.9516 537.989 75.2635C538.128 74.9497 538.128 74.7032 538.084 74.4701C538.609 73.103 538.565 71.2159 537.991 70.1378C537.953 69.9675 537.918 69.8173 537.89 69.694C537.83 69.4251 537.625 69.2301 537.396 69.2301C537.177 69.2279 536.983 69.2615 536.797 69.3108C536.614 69.3175 536.422 69.3556 536.212 69.4542C536.122 68.9724 536.267 67.1727 535.988 66.8589C535.589 66.4084 534.506 66.8096 533.88 66.4443C534.156 65.8952 534.752 65.5724 535.255 65.2273C535.433 65.178 535.611 65.1332 535.794 65.0973C536.524 65.187 537.45 64.6647 537.699 63.8064C537.735 63.6965 537.745 63.5867 537.756 63.4747C537.759 63.4164 537.77 63.3604 537.767 63.2976C537.762 62.809 537.565 62.3227 537.24 61.926C537.352 61.6772 537.54 60.6305 537.636 60.0097C537.691 59.7587 537.726 59.557 537.726 59.4763C537.726 59.4292 537.688 59.3418 537.683 59.2836C537.666 59.0169 537.603 58.7614 537.478 58.5574C537.128 57.6766 536.496 56.5538 536.223 56.0741C535.458 54.7227 534.586 56.8429 533.894 57.5646C533.76 57.6721 533.626 57.7483 533.503 57.782C533.418 57.7775 533.339 57.7416 533.265 57.634C533.219 57.569 533.194 57.5063 533.161 57.4435C533.156 57.3203 533.17 57.1656 533.208 56.9661C533.306 56.4552 533.222 55.7066 532.762 55.5094C532.697 55.4802 532.628 55.4354 532.563 55.395C532.459 55.2695 532.333 55.1418 532.161 55.0096C531.746 54.6846 531.469 54.5591 531.251 54.5501C530.915 54.4537 530.581 54.5591 530.253 55.1328C530.196 55.2314 530.133 55.5161 530.07 55.6842C530.062 55.6931 530.056 55.7021 530.045 55.7133C530.152 55.59 529.983 55.3928 529.72 55.1754C529.671 55.097 529.622 55.0163 529.564 54.9468C529.436 54.7854 529.285 54.7428 529.135 54.7361C528.717 54.4403 528.312 54.1579 528.301 53.9943C528.187 52.3716 528.982 49.6575 527.375 48.6221C527.44 48.4809 527.479 48.3352 527.517 48.1918C527.525 48.1604 527.539 48.1335 527.547 48.1021C527.593 47.8959 527.621 47.6897 527.618 47.488C527.618 47.4499 527.607 47.4163 527.604 47.3782C527.596 47.2034 527.572 47.0353 527.528 46.8739C527.525 46.8605 527.52 46.8493 527.514 46.8358C527.29 46.0402 526.675 45.4619 525.841 45.5874C525.265 45.6749 525.327 45.3207 525.554 44.8209C525.718 44.626 525.888 44.4332 526.003 44.2158C526.172 43.902 526.26 43.5569 526.276 43.1938C526.32 43.0145 526.344 42.8442 526.314 42.703C525.792 40.2757 526.358 39.5922 526.517 37.212C526.648 35.2957 526.355 34.8789 525.899 34.9909C525.497 34.4598 524.999 34.9775 524.748 35.484C524.663 35.6543 524.565 35.7776 524.461 35.8762C524.33 35.9479 524.204 36.0062 524.084 36.0309C523.89 36.0712 523.742 36.0847 523.611 36.0847C523.48 36.0466 523.346 35.9883 523.212 35.9031C523.176 35.8807 523.16 35.8538 523.133 35.8292C523.092 35.5961 523.28 35.233 523.537 34.852C523.586 34.8139 523.63 34.7803 523.655 34.7578C524.021 34.4374 524.393 34.0429 524.507 33.4871C524.507 33.4848 524.507 33.4826 524.507 33.4804C524.521 33.4512 524.535 33.4221 524.54 33.3997C524.808 32.0751 524.885 30.7797 524.543 29.8428C524.529 29.7689 524.538 29.677 524.524 29.6053C524.404 28.9822 523.963 28.7536 523.45 28.6483C523.212 28.5519 522.941 28.4847 522.624 28.469C523.056 28.0297 523.477 27.6352 523.635 26.7769C523.824 25.7885 523.43 24.9099 522.706 24.5177C522.682 24.5042 522.671 24.4908 522.646 24.4774C522.272 23.879 522.004 23.2155 522.326 22.3078C522.334 22.281 522.334 22.2608 522.343 22.2339C522.425 21.9829 522.496 21.7207 522.518 21.4271C522.518 21.4203 522.515 21.4181 522.518 21.4114C522.608 20.4252 522.222 19.6206 521.648 18.7667C521.476 18.5112 521.345 18.3297 521.227 18.1795C521.197 18.119 521.159 18.0742 521.129 18.0092C520.987 17.7044 520.692 17.6528 520.457 17.7918C520.421 17.812 520.344 17.8635 520.29 17.8994C520.172 17.9554 520.025 18.0316 519.858 18.1168C519.757 18.0406 519.623 17.9957 519.527 18.0473C519.522 18.0495 519.519 18.054 519.513 18.0563C519.191 16.1669 519.317 13.2354 518.437 11.7091C518.365 11.5836 518.119 11.3259 517.813 11.0591C517.75 11.0009 517.685 10.9493 517.622 10.8955C517.57 10.853 517.524 10.8126 517.472 10.7723C517.436 10.7476 517.401 10.723 517.365 10.6983C516.66 10.1828 515.878 9.86682 515.842 10.7812C515.832 10.8261 515.799 10.8552 515.799 10.9067C515.799 11.0793 515.76 11.1936 515.733 11.3214C515.402 12.1417 514.304 12.1215 514.041 11.1488C514.058 11.0166 514.104 10.9 514.142 10.7767C514.386 10.4899 514.509 10.2613 514.53 10.0125C514.544 9.9968 514.55 9.97439 514.566 9.95871C514.64 9.30203 514.315 7.1258 514.109 6.51619C514.112 6.58791 514.099 6.63721 514.099 6.70221C514.008 6.3593 513.825 6.09483 513.429 5.99398C513.388 4.70303 513.175 3.49277 512.185 2.76886C511.794 2.48422 511.253 2.54922 510.827 2.5806C510.843 2.5806 510.881 2.64559 510.66 2.60076C510.488 2.5649 510.313 2.53577 510.135 2.50215C509.949 2.47078 509.807 2.43267 509.375 2.36768C508.891 2.29596 508.645 1.58773 508.304 1.18207C507.667 0.429019 507 0.875025 506.565 1.61239C506.368 1.94857 506.549 2.43043 506.675 2.73524C507.022 3.58691 506.237 3.20365 505.915 3.60035C505.606 3.98584 505.466 4.58201 505.319 5.07284C505.229 5.36419 505.045 6.10155 504.799 5.99846C504.797 5.99397 504.797 5.98725 504.794 5.98277C504.764 5.94243 504.728 5.93346 504.696 5.89985C504.674 5.87071 504.655 5.85278 504.633 5.8102C504.496 5.53901 504.261 5.33281 504.07 5.12662C503.556 4.5708 503.129 4.60218 502.438 4.74114C501.571 4.90923 500.672 5.14904 499.86 5.61969C499.62 5.75865 499.559 6.18449 499.685 6.45119C499.896 6.89495 500.139 7.32302 500.328 7.78471C499.371 8.25761 497.739 8.8224 498.392 10.4338C498.562 10.8529 498.753 11.2765 498.841 11.6576C498.827 11.792 498.862 11.9332 498.876 12.0722C498.868 12.1999 498.838 12.3187 498.772 12.4218C498.677 12.5428 498.507 12.6527 498.149 12.7401C497.447 12.9126 496.799 12.9978 496.46 13.446C496.402 13.4864 496.337 13.4954 496.279 13.5402C496.039 13.7307 495.976 14.0758 496.102 14.3896C496.342 14.9903 496.099 15.5707 496.044 16.1624C495.645 18.3162 495.446 17.1687 493.661 18.1347C492.884 18.5538 492.83 19.0536 493.043 19.5399C493.051 19.643 493.029 19.7192 493.054 19.8335C493.095 20.0128 493.212 20.1227 493.349 20.1428C493.284 20.3132 493.223 20.5014 493.18 20.7233C492.868 20.535 492.461 20.3983 492.037 20.3311C492.103 20.3109 492.166 20.293 492.231 20.2728C491.239 20.1092 490.949 20.1249 491.296 20.302C490.315 20.3602 489.476 20.878 489.76 22.1734C489.941 22.9802 490.706 23.7333 490.159 24.6298C489.495 24.9525 488.861 26.0148 488.582 26.9943C488.574 27.0234 488.563 27.0503 488.555 27.0794C488.536 27.1556 488.522 27.2251 488.506 27.2991C488.342 27.9445 488.342 28.5922 488.798 29.1727C488.973 29.3946 489.205 29.538 489.44 29.6725C489.894 30.1252 490.091 30.4592 490.239 30.9074C490.233 31.0284 490.225 31.1495 490.236 31.3108C490.266 31.7658 490.558 32.3822 490.659 32.8909C490.649 33.0433 490.629 33.2943 490.613 33.579C490.46 34.0003 490.238 34.5382 490.293 34.9775C490.329 35.2621 490.452 35.5961 490.591 35.9009C490.638 36.4836 490.744 36.8893 490.982 36.7436C490.889 36.8018 490.788 36.8512 490.684 36.8982C490.397 36.9341 489.992 36.9363 489.755 37.1313C489.531 37.3128 489.383 37.5145 489.268 37.7252C489.115 37.9314 489.036 38.2026 489.074 38.5747C489.08 38.8167 489.115 39.0588 489.2 39.3031C488.79 39.2896 488.484 39.3053 488.227 39.3344C487.65 39.321 487.114 39.4106 486.915 40.0158C486.814 40.3295 486.833 40.6702 486.849 41.0019C486.863 41.2955 486.906 41.5891 486.934 41.8805C486.939 41.9746 486.942 42.0665 486.945 42.1629C486.945 42.1651 486.945 42.1673 486.945 42.1696C486.909 42.1584 486.852 42.1404 486.811 42.1292C486.639 41.8894 486.434 41.7191 486.136 41.7684C485.537 41.8625 484.774 41.4927 484.162 41.6631C483.457 41.7415 482.932 42.1629 482.897 43.2207C482.858 43.3933 482.853 43.5748 482.864 43.7608C482.686 43.3036 481.139 43.4381 480.967 43.4964C480.991 43.5233 481.008 43.5278 481.032 43.5524C480.852 43.5995 480.677 43.669 480.491 43.7788C479.955 44.0993 478.96 44.5901 478.969 45.5225C478.969 45.6524 479.089 46.7798 479.111 46.7663C478.742 46.9456 478.283 46.9165 477.982 47.2908C477.782 47.5351 477.585 47.8264 477.561 48.1805C477.476 49.3684 477.143 49.5634 476.336 49.7763C475.713 49.9466 475.183 50.2111 474.795 50.7938C474.792 50.7759 474.789 50.758 474.786 50.74C474.745 50.805 474.729 50.8678 474.704 50.9305C474.68 50.9709 474.65 51 474.628 51.0448C474.505 51.2936 474.524 51.7038 474.718 51.8965C475.065 52.2461 475.333 52.4075 475.781 52.5173C476.257 52.6361 476.429 52.8535 476.443 53.1112C476.429 53.3331 476.325 53.5886 476.186 53.8486C476.022 54.1108 475.82 54.3641 475.68 54.5546C475.505 54.7944 475.388 55.0634 475.298 55.3457C475.295 55.3547 475.287 55.3659 475.284 55.3749C475.278 55.3928 475.278 55.4174 475.276 55.4376C475.084 56.0921 475.068 56.8205 475.155 57.513C475.158 57.5287 475.161 57.5444 475.161 57.5601C475.175 57.7147 475.199 57.8559 475.221 58.0083C475.322 58.7255 475.478 59.5077 475.836 60.0389C476.016 60.3056 476.377 60.5297 476.662 60.5207C476.765 60.5185 476.817 60.5073 476.88 60.4983C477.001 60.5297 477.085 60.5364 477.107 60.4961C477.115 60.5431 477.017 60.7 476.91 61.1281C476.708 61.9192 476.353 62.9726 477.121 63.524C477.126 63.5284 477.132 63.5262 477.14 63.5307C477.241 63.6181 477.372 63.6696 477.531 63.6808C477.87 63.7526 478.195 63.6383 478.501 63.4253C480.576 62.5692 479.619 63.58 479.48 64.974C479.431 65.1713 479.39 65.3707 479.37 65.6038C479.329 66.1103 479.698 66.5362 479.947 66.8432C480.056 66.9777 480.201 67.0472 480.354 67.0942C480.789 67.4708 481.24 67.6478 481.71 67.6747C481.683 67.9571 481.735 68.235 481.844 68.4905C481.44 68.4166 481.051 68.2955 480.641 68.3516C480.067 68.43 479.586 68.9186 479.171 69.3803C479.113 69.4453 479.086 69.5237 479.034 69.591C479.04 69.5551 479.031 69.5372 479.037 69.4991C478.93 69.6447 478.851 69.8039 478.788 69.9697C478.468 70.5928 478.43 71.2584 478.728 71.7761C478.824 72.2849 478.974 72.778 479.124 73.2038C479.144 73.3248 479.146 73.4504 479.187 73.5624C479.283 73.8246 479.316 74.0331 479.318 74.2146C479.236 74.8108 478.679 75.0506 478.222 75.3688C478.195 75.3823 478.165 75.3957 478.138 75.4092C477.566 75.6938 477.525 76.4155 477.749 77.0229C477.815 77.1192 477.872 77.2178 477.938 77.3165C477.965 77.359 477.949 77.4016 477.965 77.4442C477.979 77.9126 477.301 77.953 476.432 77.8454C476.295 77.7804 476.164 77.7199 475.973 77.7176C475.134 77.7042 474.314 77.2559 473.485 77.3456C473.272 77.3254 473.108 77.3299 473.015 77.368C473.056 77.3837 473.116 77.4151 473.163 77.4352C473.051 77.4711 472.936 77.4666 472.824 77.5316C472.061 77.9507 471.531 78.8898 471.591 79.979C471.616 80.4161 471.654 80.8105 471.802 81.214C471.903 81.4964 472.739 81.6398 472.222 82.1037C471.673 82.6035 470.971 82.0141 470.454 82.4802C469.896 82.98 469.549 83.5852 469.049 84.1522C468.59 84.6722 468.385 85.1832 468.423 85.7479C467.423 85.4162 466.28 85.3311 465.482 86.2365C464.175 87.7202 464.11 89.2913 464.181 91.3645C464.186 91.5976 464.334 91.7993 464.531 91.7993C464.604 92.1623 464.604 92.559 464.391 93.1821C464.296 93.4421 464.216 93.6684 464.211 93.7648C464.208 93.8141 464.224 93.8679 464.227 93.9172C464.153 94.4551 464.293 94.7577 464.572 94.9011C464.714 95.0961 464.883 95.2575 465.086 95.3112C465.755 95.4838 466.25 95.2978 466.862 94.9594C467.753 94.473 467.466 96.006 467.198 96.5282C466.958 96.9944 466.917 97.4897 466.955 98.0209C467.086 99.7825 468.461 99.1034 469.262 99.4911C469.175 99.7422 469.167 100.056 469.202 100.388C468.729 100.551 468.193 100.717 467.947 101.082C467.934 101.098 467.909 101.107 467.898 101.123C467.36 101.956 468.683 102.97 468.234 103.568C468.131 103.705 468.076 103.902 468.125 104.086C468.111 104.039 466.813 103.458 466.469 103.476C465.747 103.507 464.995 103.92 464.708 104.803C464.501 105.451 464.779 106.262 464.52 106.858C464.328 107.3 464.235 107.757 464.233 108.252C464.23 108.779 464.501 109.063 464.84 109.216C465.014 109.447 465.217 109.678 465.422 109.893C465.515 110.193 465.668 110.455 465.952 110.652C467.007 111.379 468.046 109.949 468.713 111.121C468.792 111.32 468.855 111.527 468.931 111.681C468.964 111.784 469 111.849 469.03 111.973C469.038 112.008 469.104 112.006 469.167 111.997C469.128 112.022 469.09 112.049 469.052 112.078C468.962 112.116 468.849 112.163 468.688 112.23C468.325 112.383 468.18 112.591 467.961 112.947C467.786 113.237 467.813 113.539 467.915 113.828C467.674 114.516 467.598 115.236 467.794 115.789C467.822 116.045 467.906 116.289 468.166 116.489C468.303 116.594 468.459 116.666 468.614 116.737C469.019 117.08 469.104 117.291 469.388 117.963C469.404 118.042 469.407 118.129 469.434 118.196C468.325 118.609 469.09 118.091 467.721 117.997C467.748 118.028 467.772 118.08 467.8 118.116C466.87 117.968 465.701 118.808 465.427 119.947C465.296 120.498 465.315 120.962 465.485 121.5C465.561 121.753 465.711 121.964 465.837 122.181C465.785 122.085 464.678 122.107 464.533 122.087C463.53 121.971 462.604 122.78 462.442 123.943C461.406 124.178 460.247 125.57 461.005 126.809C461.111 126.986 461.259 127.099 461.423 127.184C462.008 127.484 462.136 127.961 462.027 128.47C461.751 128.757 461.322 129.485 461.067 130.158C460.827 130.523 460.657 130.936 460.876 131.384C460.991 131.621 461.171 131.769 461.363 131.895C461.674 132.217 462.081 132.554 462.481 132.856C462.811 133.517 463.905 133.679 463.888 134.237C463.855 135.185 464.703 135.53 465.301 135.586C465.731 135.622 467.649 134.409 467.819 134.703C467.822 134.71 467.827 134.714 467.833 134.721C467.723 134.813 467.617 134.914 467.521 135.037C467.081 135.434 466.764 135.927 466.857 136.857C466.933 137.572 467.324 137.883 467.794 137.998C467.352 138.148 466.947 138.45 466.772 138.95C466.701 139.123 466.663 139.32 466.657 139.54C466.275 139.504 465.974 139.665 465.717 139.9C465.654 139.95 465.599 140.006 465.545 140.066C465.487 140.138 465.43 140.203 465.383 140.288C464.842 141.147 464.853 142.641 465.564 143.704C465.493 143.791 465.444 143.903 465.375 143.995C465.157 144.291 464.938 144.6 464.771 144.932C464.749 144.977 464.714 145.01 464.692 145.055C464.678 145.091 464.678 145.134 464.667 145.172C464.615 145.308 464.594 145.452 464.574 145.6C464.574 145.602 464.574 145.602 464.574 145.604C464.561 145.728 464.531 145.846 464.547 145.976C464.591 146.317 464.681 146.806 464.963 146.98C465.028 147.019 465.083 147.048 465.137 147.075C465.129 147.084 465.129 147.092 465.121 147.101C464.304 147.805 463.178 146.658 462.259 147.628C461.081 148.883 459.479 147.527 458.654 149.715C458.375 150.454 458.32 151.319 458.315 152.126C458.309 152.949 459.132 154.437 458.782 155.224C458.29 155.277 457.806 155.618 457.402 156.12C457.252 156.223 457.109 156.351 456.989 156.553C456.765 156.931 456.669 157.339 456.609 157.772C456.582 157.909 456.568 158.036 456.56 158.171C456.546 158.319 456.533 158.469 456.516 158.624C456.47 159.117 456.669 159.551 457.016 159.805C457.265 159.984 457.451 160.027 457.544 160.101C457.555 160.204 457.536 160.358 457.506 160.531C457.484 160.582 457.481 160.609 457.446 160.677C456.929 161.723 456.801 163.012 457.446 163.994C458.126 165.033 460.403 165.139 461.363 164.101C461.581 163.978 461.827 163.904 462.114 163.884C462.325 163.926 462.538 163.933 462.748 163.922C462.94 163.973 463.066 164.05 463.153 164.139C463.202 164.419 463.216 164.691 463.169 164.969C462.877 165.69 462.18 166.611 462.492 167.311C462.563 167.763 462.962 167.929 463.355 167.922C463.402 168.758 463.079 169.65 463.694 170.278C463.995 170.585 464.38 170.538 464.755 170.383C464.973 170.388 465.299 170.43 465.651 170.5C466.034 170.991 466.463 171.195 466.969 170.93C467.188 171.058 467.302 171.195 467.209 171.338C467.218 171.334 467.223 171.331 467.231 171.329C466.865 171.907 466.49 172.481 465.936 172.755C465.465 172.985 464.976 173.102 464.522 173.371C463.623 173.902 463.76 175.46 464.022 176.392C464.107 176.695 464.268 176.916 464.446 177.12C464.768 177.723 465.211 178.353 465.692 178.83C465.837 179.07 465.988 179.301 466.176 179.507C466.753 180.151 467.3 179.716 467.658 179.104C467.854 179.205 468.079 179.326 468.3 179.458C468.644 179.79 468.882 180.182 469.095 180.543C469.046 181.045 469.161 181.258 469.464 181.621C470.047 182.327 471.288 181.417 471.949 181.047C472.31 180.899 472.687 180.785 473.073 180.686C473.707 180.576 474.283 180.514 474.841 179.761C475.087 179.436 475.467 178.853 475.47 178.373C475.47 178.337 475.494 178.328 475.497 178.295C475.579 178.109 475.675 177.941 475.803 177.817C475.836 177.799 475.866 177.782 475.902 177.768C475.954 177.73 476.033 177.726 476.093 177.699C476.407 177.649 476.785 177.692 477.102 177.737C477.282 178.34 477.687 178.47 478.239 178.799C478.471 179.57 478.436 180.554 478.758 181.352C478.829 181.76 479.018 182.114 479.526 182.298C479.545 182.304 479.584 182.282 479.608 182.282C480.092 182.446 480.554 182.262 480.907 182.564C480.967 183.084 480.994 183.678 481.196 184.041C481.516 184.624 481.492 184.516 481.314 185.303C481.202 185.816 481.142 186.401 481.276 186.917C481.284 186.955 481.297 186.991 481.311 187.024C481.333 187.094 481.347 187.168 481.377 187.235C481.584 187.677 481.855 187.719 482.221 187.768C482.268 187.775 482.325 187.753 482.374 187.748C482.842 187.802 483.208 187.665 483.706 187.975C483.823 188.109 483.935 188.248 484.034 188.344C484.203 188.508 484.408 188.578 484.619 188.613C485.078 188.838 485.671 188.999 486.283 189.073C486.343 189.169 486.425 189.261 486.568 189.335C487.773 189.958 489.662 188.369 489.798 186.751C489.9 186.504 490.028 186.278 490.214 186.081C490.736 185.763 491.231 185.429 491.548 184.752C491.797 184.221 491.671 183.806 491.449 183.418C491.373 183.217 491.266 183.01 491.124 182.795C491.646 182.788 492.16 182.744 492.669 182.533C492.895 182.441 493.048 182.401 493.166 182.394C493.319 182.468 493.415 182.632 493.437 182.905C493.434 183.013 493.431 183.109 493.417 183.259C493.349 184.008 493.814 184.243 494.306 184.438C494.675 184.767 495.085 185.054 495.407 185.231C495.675 185.547 495.888 185.529 496.14 185.438C496.512 185.438 496.965 185.339 497.444 185.16C497.485 185.148 497.523 185.131 497.561 185.117C498.22 184.857 498.92 184.454 499.527 183.956C500.169 183.649 500.716 182.954 500.975 182.152C501.243 181.524 501.282 180.857 500.989 180.189C501.331 180.142 501.743 180.984 502.011 181.35C502.252 181.675 502.673 181.805 503.105 181.858C503.433 182.053 503.578 182.334 503.687 182.632C503.758 182.945 503.87 183.217 504.02 183.441C504.048 187.036 503.928 190.622 503.832 194.216C503.774 196.464 503.785 198.719 503.788 200.969C503.791 203.291 503.917 205.441 503.375 207.693C502.919 209.594 502.946 211.398 503.042 213.363C503.151 215.683 503.036 218.003 503.116 220.304C502.801 221.286 502.328 222.171 501.861 223.18C501.077 224.879 500.505 225.968 499.048 226.896C497.944 227.602 496.654 228.187 495.443 228.662C495.402 228.646 495.358 228.642 495.312 228.651C495.123 228.693 495.047 228.731 494.874 228.834C494.522 229.043 494.653 229.661 494.973 229.789C496.296 230.318 498.182 230.013 499.726 229.531C499.584 229.883 499.726 230.289 500.032 230.408C501.15 230.843 502.605 230.533 503.774 230.556C504.835 230.578 505.961 230.24 506.983 229.773C506.978 229.798 506.973 229.818 506.964 229.845C506.942 229.955 506.951 230.067 506.978 230.172C506.975 230.228 506.973 230.287 506.973 230.343C506.989 230.674 507.311 230.771 507.456 230.549C508.074 230.627 508.727 230.175 509.255 229.847C509.586 229.639 509.922 229.449 510.258 229.254C511.652 230.036 513.478 230.208 514.828 230.15C515.156 230.134 515.512 229.713 515.367 229.283C515.296 229.065 515.2 228.873 515.096 228.689C516.037 229.014 516.988 229.245 517.966 229.442C518.549 229.558 518.822 228.864 518.581 228.391C518.576 228.379 518.573 228.368 518.568 228.359C518.562 228.35 518.557 228.339 518.549 228.332C518.535 228.308 518.516 228.285 518.499 228.261C518.439 228.189 518.365 228.124 518.27 228.077C516.854 227.344 515.484 226.165 514.186 225.157C512.852 224.126 511.783 222.817 510.698 221.463C510.687 220.634 510.687 219.805 510.619 218.98C510.441 216.907 510.08 214.894 510.078 212.796C510.075 209.515 510.81 205.833 510.359 202.536C510.843 198.688 510.449 194.575 510.548 190.695C510.605 188.342 510.657 185.989 510.693 183.638C510.715 183.638 510.734 183.647 510.756 183.647C510.78 183.705 510.802 183.761 510.835 183.828C510.939 184.048 511.179 184.191 511.382 184.104C511.614 184.003 511.967 183.732 512.3 183.58C512.674 183.611 512.972 183.703 513.112 183.916C513.139 184.01 513.166 184.1 513.177 184.234C513.194 184.422 513.147 184.606 513.076 184.788C512.912 185.157 512.655 185.5 512.584 185.888C512.579 185.911 512.582 185.933 512.576 185.953C512.565 186.029 512.568 186.11 512.576 186.193C512.576 186.287 512.546 186.381 512.576 186.478C512.767 187.085 513.068 187.266 513.544 187.506C514.263 187.867 515.35 186.724 515.812 187.551C515.955 187.804 516.151 187.896 516.395 187.842C516.78 187.757 517.1 187.623 517.436 187.488C517.778 189.106 518.868 188.938 519.989 188.264C520.202 188.197 520.435 188.149 520.689 188.127C521.441 188.748 522.307 188.432 522.887 187.654C523.365 187.309 523.655 186.655 523.534 185.384C524.051 185.052 524.521 184.893 525.079 185.296C525.388 185.518 525.923 185.323 526.145 185.01C526.271 184.83 526.369 184.635 526.467 184.438C526.776 184.082 526.932 183.443 526.784 182.147C526.749 181.838 527.05 181.679 527.468 181.585C527.845 181.598 528.258 181.722 528.422 181.749C528.662 181.787 528.818 181.648 528.897 181.45C529.288 181.675 529.715 181.612 530.108 181.305C530.264 181.816 530.177 182.125 530.239 182.779C530.256 182.966 530.261 183.116 530.395 183.232C530.947 183.707 531.625 183.624 532.15 183.172C532.757 182.641 532.973 181.518 533.107 180.682C533.32 179.366 534.482 181.675 534.933 181.912C535.414 182.168 534.878 182.869 535.274 183.304C535.824 183.905 536.444 183.866 537.13 183.669C537.983 183.432 538.82 182.782 539.426 182.022C539.59 181.811 539.782 181.48 539.787 181.173C539.796 180.341 540.031 179.772 540.484 179.281C541.012 179.808 541.747 179.922 542.299 179.164C542.343 179.104 542.362 179.041 542.4 178.981C542.414 178.96 542.422 178.938 542.436 178.918C542.633 178.609 542.753 178.27 542.808 177.903C542.816 177.851 542.824 177.8 542.827 177.748C542.835 177.627 542.882 177.531 542.871 177.396C542.86 177.237 542.802 177.094 542.731 176.955C542.69 176.811 542.655 176.668 542.581 176.535C542.57 176.565 542.554 176.583 542.543 176.612C542.354 176.28 542.226 175.953 542.625 175.522C542.767 175.368 542.903 175.238 543.04 175.097C543.365 174.825 543.764 174.512 544.092 174.196C544.174 174.14 544.24 174.07 544.328 174.021C544.729 173.785 544.691 173.14 544.645 172.71C544.508 171.32 543.915 170.415 542.928 170.065C542.977 169.202 542.961 168.337 543.1 167.481C543.27 166.535 543.991 166.12 544.549 165.567Z" fill="black"/>
<path d="M480.991 209.174C481.767 208.389 481.298 207.274 480.799 206.525C480.597 206.225 480.484 205.772 480.36 205.325C480.379 205.325 480.398 205.325 480.414 205.328C480.123 204.276 479.754 203.78 478.856 203.657C478.872 203.679 478.897 203.74 478.913 203.773C478.821 203.758 478.73 203.717 478.635 203.71C478.835 203.506 478.961 203.186 479.029 202.735C479.048 202.694 479.053 202.641 479.075 202.602C479.401 202.41 479.638 202.156 479.835 201.874C479.84 201.871 479.843 201.865 479.848 201.862C479.845 201.862 479.843 201.862 479.843 201.862C480.274 201.234 480.43 200.409 480.379 199.37C480.355 198.846 480.018 198.375 479.603 198.267C478.74 198.047 480.751 197.047 480.983 196.744C481.729 195.782 482.392 193.945 481.484 192.88C481.244 192.597 480.872 192.458 480.578 192.299C480.573 192.296 480.576 191.796 480.543 191.568C480.557 191.402 480.5 191.222 480.32 191.029C480.306 191.065 480.295 191.099 480.282 191.135C479.921 190.753 479.492 190.825 479.029 190.774C479.298 190.325 479.63 189.926 479.63 189.305C479.63 188.542 479.153 187.616 478.573 187.351C478.549 187.34 478.525 187.324 478.501 187.313C478.528 187.295 478.557 187.288 478.584 187.261C477.962 186.976 477.293 185.875 476.708 185.765C476.668 185.756 476.549 185.792 476.404 185.839C476.142 185.835 475.9 185.882 475.606 186.01C475.407 186.115 475.207 186.221 475.002 186.322C474.617 186.436 474.294 186.492 474.216 186.378C474.189 186.337 474.178 186.299 474.159 186.259C474.162 186.138 474.191 185.99 474.264 185.785C474.49 185.801 474.633 185.584 474.701 185.335C474.975 185.2 475.31 185.09 475.655 184.996C475.919 185.052 476.169 185.124 476.296 185.128C476.611 185.142 477.148 184.935 477.315 184.563C477.326 184.538 477.32 184.516 477.331 184.491C477.334 184.487 477.344 184.482 477.344 184.478C477.355 184.455 477.344 184.424 477.353 184.399C477.485 184.016 477.487 183.682 477.315 183.276C477.282 183.197 477.22 183.134 477.156 183.081C477.059 182.825 476.983 182.623 477.002 182.545C477.094 182.437 477.215 182.32 477.282 182.159C477.328 182.044 477.385 181.91 477.439 181.768C477.617 181.396 477.743 180.986 477.735 180.546C477.727 180.553 477.716 180.566 477.708 180.575C477.7 179.797 477.805 179.16 478.576 179.297C479.449 179.454 480.471 179.283 480.665 177.992C480.675 177.944 480.702 177.922 480.71 177.873C480.646 178.35 480.686 178.057 480.71 177.873C480.735 177.689 480.727 177.756 480.71 177.868C480.7 177.808 480.689 177.747 480.678 177.686C480.673 177.399 480.616 177.117 480.53 176.841C480.508 176.713 480.484 176.585 480.463 176.455C480.444 176.464 480.43 176.471 480.411 176.48C480.365 176.347 480.317 176.217 480.274 176.094C480.171 175.789 480.12 175.453 480.093 175.127C480.088 174.93 480.096 174.737 480.126 174.544C480.126 174.522 480.126 174.508 480.128 174.49C481.136 173.934 481.988 173.01 481.735 171.454C481.643 170.875 481.497 170.124 481.217 169.583C481.239 169.588 481.271 169.581 481.293 169.588C481.018 168.948 480.589 168.704 480.018 168.856C479.953 168.877 479.921 168.888 479.886 168.899C479.923 168.885 479.969 168.872 480.018 168.856C479.748 168.944 479.579 168.76 479.403 168.549C479.333 168.363 479.258 168.174 479.04 168.132C479.002 168.125 478.972 168.134 478.937 168.13C478.816 168.062 478.684 168.011 478.506 168.035C478.425 167.432 478.22 166.91 477.886 166.461C477.921 166.409 477.945 166.349 477.98 166.299C478.08 166.154 478.223 165.936 478.328 165.705C478.336 165.683 478.352 165.669 478.36 165.647C478.366 165.633 478.36 165.618 478.366 165.602C478.487 165.286 478.514 164.967 478.231 164.795C476.345 163.639 476.908 163.617 477.905 163.516C478.544 164.01 479.034 163.704 479.457 163.153C479.964 162.893 480.314 162.442 480.18 161.594C480.021 160.594 480.083 159.562 480.021 158.564C480.096 158.362 480.182 158.149 480.139 157.94C480.096 157.752 479.996 157.638 479.888 157.532C479.773 156.94 479.573 156.368 479.193 155.834C478.821 155.561 478.633 155.164 478.633 154.641C479.007 153.618 477.121 154.076 476.948 153.383C476.932 153.32 476.943 153.233 476.948 153.15C477.029 152.898 477.223 152.631 477.353 152.405C477.735 151.746 477.927 150.92 478.024 150.093C478.088 149.879 478.137 149.678 478.145 149.514C478.131 149.536 478.102 149.552 478.083 149.57C478.088 149.456 478.123 149.337 478.121 149.225C478.115 148.428 477.827 147.809 477.393 147.32C477.458 147.352 477.517 147.403 477.582 147.433C477.237 146.97 476.827 146.647 476.342 146.47C476.301 146.448 476.318 146.378 476.31 146.331C476.512 145.963 476.73 145.544 476.77 145.098C476.776 145.024 476.765 144.956 476.768 144.885C476.784 144.813 476.816 144.732 476.819 144.667C476.805 144.712 476.784 144.755 476.768 144.799C476.813 142.568 475.064 141.195 473.423 141.231C473.305 141.233 473.2 141.269 473.094 141.316C473.173 141.265 473.253 141.215 473.356 141.161C472.914 141.222 472.092 141.693 471.335 141.854C471.24 141.798 471.141 141.745 471.027 141.704C470.938 141.673 470.685 141.731 470.397 141.794C470.31 141.756 470.235 141.691 470.162 141.623C470.06 141.471 469.957 141.321 469.863 141.173C469.815 141.049 469.769 140.919 469.736 140.756C470.222 141.087 470.575 140.971 471.025 140.572C471.038 140.563 471.049 140.554 471.06 140.545C471.065 140.54 471.07 140.536 471.076 140.531C471.51 140.208 471.925 139.695 472.294 139.228C472.488 138.999 472.685 138.773 472.903 138.56C473.466 138.01 473.768 137.544 473.582 136.651C473.574 136.608 473.55 136.579 473.534 136.543C473.555 136.045 473.429 135.696 473.046 135.772C473.127 135.723 473.213 135.673 473.367 135.548C473.388 135.53 473.412 135.512 473.437 135.494C473.652 135.355 473.841 135.2 474.011 135.025C474.366 134.722 474.701 134.37 474.849 133.868C475.059 133.148 474.962 132.497 474.709 131.923C474.531 131.418 474.216 130.927 473.755 130.492C474.232 129.846 474.97 129.03 474.738 128.135C474.558 127.437 473.986 126.623 473.609 125.843C473.52 125.605 473.439 125.34 473.367 125.055C473.951 125.015 474.609 124.851 474.892 124.203C475.021 123.907 475.021 123.676 474.981 123.456C475.466 122.169 475.426 120.395 474.895 119.381C474.857 119.222 474.825 119.08 474.8 118.964C474.746 118.71 474.555 118.526 474.342 118.526C474.137 118.524 473.959 118.556 473.79 118.603C473.62 118.609 473.442 118.643 473.245 118.737C473.162 118.284 473.296 116.591 473.038 116.295C472.666 115.871 471.663 116.248 471.084 115.905C471.34 115.386 471.892 115.084 472.359 114.761C472.523 114.714 472.687 114.673 472.857 114.64C473.534 114.723 474.393 114.231 474.622 113.426C474.655 113.323 474.666 113.22 474.676 113.114C474.679 113.058 474.69 113.007 474.684 112.948C474.679 112.489 474.498 112.031 474.197 111.657C474.299 111.423 474.477 110.436 474.563 109.851C474.612 109.613 474.647 109.425 474.647 109.349C474.647 109.304 474.612 109.221 474.604 109.167C474.587 108.916 474.531 108.676 474.412 108.485C474.086 107.655 473.501 106.601 473.251 106.148C472.542 104.876 471.733 106.873 471.092 107.552C470.968 107.655 470.844 107.725 470.731 107.756C470.653 107.752 470.577 107.718 470.51 107.617C470.467 107.554 470.445 107.496 470.413 107.438C470.41 107.323 470.421 107.175 470.456 106.987C470.548 106.507 470.469 105.8 470.044 105.617C469.982 105.59 469.92 105.547 469.86 105.509C469.766 105.392 469.647 105.271 469.488 105.146C469.103 104.841 468.847 104.722 468.642 104.715C468.33 104.625 468.02 104.722 467.718 105.264C467.664 105.359 467.607 105.626 467.548 105.783C467.54 105.791 467.535 105.8 467.527 105.809C467.626 105.693 467.467 105.509 467.225 105.303C467.179 105.226 467.133 105.152 467.082 105.087C466.963 104.935 466.823 104.894 466.683 104.89C466.295 104.612 465.92 104.345 465.91 104.192C465.802 102.665 466.54 100.113 465.05 99.1369C465.109 99.0046 465.147 98.8678 465.182 98.731C465.19 98.7018 465.203 98.6771 465.209 98.6457C465.252 98.4506 465.276 98.2577 465.276 98.0671C465.276 98.0312 465.268 97.9998 465.265 97.9639C465.257 97.8002 465.236 97.6409 465.195 97.4884C465.193 97.4772 465.187 97.466 465.185 97.4525C464.974 96.7034 464.408 96.1584 463.632 96.2773C463.096 96.3603 463.155 96.0261 463.368 95.5551C463.519 95.3712 463.675 95.1917 463.783 94.9854C463.939 94.6893 464.023 94.3641 464.036 94.0232C464.08 93.855 464.098 93.6957 464.072 93.5589C463.589 91.2757 464.112 90.632 464.26 88.3914C464.381 86.5881 464.112 86.1956 463.686 86.301C463.314 85.8009 462.853 86.2898 462.619 86.763C462.541 86.9245 462.449 87.0389 462.352 87.1331C462.231 87.2004 462.112 87.2542 462.002 87.2789C461.821 87.317 461.684 87.3282 461.562 87.3305C461.439 87.2946 461.315 87.2385 461.191 87.16C461.156 87.1376 461.142 87.1129 461.118 87.0905C461.08 86.8707 461.253 86.5298 461.492 86.1709C461.538 86.135 461.579 86.1036 461.6 86.0835C461.94 85.7829 462.285 85.4106 462.39 84.888C462.39 84.8858 462.39 84.8835 462.39 84.8835C462.403 84.8566 462.417 84.8275 462.42 84.8073C462.667 83.5602 462.737 82.3423 462.422 81.4609C462.411 81.3914 462.417 81.3061 462.403 81.2366C462.29 80.6512 461.883 80.4337 461.409 80.335C461.188 80.243 460.937 80.1825 460.643 80.1668C461.042 79.7541 461.433 79.3818 461.581 78.5743C461.757 77.6458 461.39 76.8159 460.719 76.4481C460.695 76.4346 460.687 76.4212 460.665 76.41C460.32 75.847 460.069 75.2235 460.369 74.369C460.377 74.3443 460.374 74.3241 460.382 74.2994C460.458 74.0639 460.525 73.815 460.546 73.5391C460.546 73.5324 460.544 73.5301 460.544 73.5234C460.627 72.5949 460.269 71.8368 459.738 71.0361C459.576 70.7961 459.455 70.6234 459.347 70.4843C459.318 70.426 459.285 70.3857 459.258 70.3251C459.126 70.038 458.854 69.9909 458.633 70.121C458.601 70.1389 458.528 70.1905 458.479 70.2219C458.369 70.2757 458.234 70.3475 458.078 70.426C457.984 70.3542 457.86 70.3116 457.771 70.3587C457.765 70.361 457.763 70.3655 457.757 70.3677C457.458 68.5891 457.574 65.8304 456.757 64.395C456.69 64.2783 456.464 64.0361 456.181 63.7827C456.124 63.7266 456.062 63.6795 456.003 63.6301C455.954 63.5898 455.911 63.5516 455.863 63.5158C455.83 63.4911 455.798 63.4687 455.766 63.4462C455.113 62.9618 454.386 62.6635 454.353 63.5247C454.345 63.5673 454.313 63.5943 454.313 63.6414C454.313 63.8051 454.278 63.9127 454.251 64.0316C453.944 64.8032 452.925 64.7852 452.682 63.8701C452.699 63.7445 452.742 63.6369 452.777 63.5202C453 63.2488 453.116 63.0358 453.135 62.8003C453.149 62.7846 453.154 62.7644 453.168 62.7487C453.235 62.1319 452.936 60.0819 452.744 59.5077C452.747 59.575 452.734 59.6199 452.734 59.6849C452.65 59.362 452.48 59.113 452.111 59.0166C452.073 57.8032 451.874 56.6616 450.958 55.982C450.597 55.7151 450.095 55.7756 449.699 55.8048C449.713 55.8048 449.748 55.8676 449.545 55.825C449.386 55.7913 449.222 55.7644 449.058 55.733C448.885 55.7039 448.753 55.668 448.354 55.6052C447.907 55.5379 447.678 54.8718 447.36 54.4905C446.77 53.7817 446.15 54.2011 445.746 54.8964C445.565 55.2127 445.729 55.6657 445.848 55.9528C446.169 56.7558 445.441 56.3947 445.145 56.767C444.856 57.1281 444.729 57.691 444.589 58.1531C444.506 58.4267 444.336 59.122 444.11 59.0233C444.107 59.0188 444.107 59.0121 444.104 59.0098C444.077 58.9717 444.042 58.9627 444.013 58.9313C443.994 58.9044 443.975 58.8887 443.953 58.8484C443.827 58.5949 443.608 58.3998 443.433 58.2047C442.956 57.6821 442.56 57.7112 441.921 57.8413C441.118 58.0006 440.285 58.2248 439.531 58.6667C439.307 58.799 439.251 59.196 439.366 59.4494C439.561 59.8666 439.787 60.2703 439.962 60.7032C439.075 61.1473 437.561 61.6811 438.167 63.1973C438.323 63.5898 438.504 63.9912 438.582 64.3501C438.571 64.4779 438.604 64.6103 438.617 64.7404C438.609 64.8615 438.582 64.9714 438.52 65.0701C438.431 65.1822 438.272 65.2876 437.944 65.3706C437.291 65.5321 436.693 65.6128 436.375 66.0345C436.321 66.0704 436.262 66.0794 436.208 66.1242C435.987 66.3036 435.928 66.6266 436.044 66.9227C436.267 67.4879 436.041 68.0329 435.99 68.5914C435.618 70.6167 435.434 69.5379 433.78 70.4462C433.06 70.8387 433.009 71.3097 433.206 71.7695C433.214 71.8659 433.192 71.9377 433.216 72.0454C433.254 72.2158 433.365 72.319 433.491 72.3369C433.429 72.4984 433.375 72.6756 433.335 72.8842C433.044 72.707 432.669 72.5769 432.276 72.5141C432.335 72.4962 432.397 72.4782 432.456 72.4603C431.537 72.3078 431.268 72.3212 431.589 72.4872C430.678 72.5433 429.899 73.03 430.166 74.2479C430.333 75.0082 431.042 75.7147 430.538 76.558C429.921 76.8608 429.333 77.8611 429.074 78.7829C429.066 78.8098 429.058 78.8368 429.05 78.8637C429.031 78.9354 429.02 79.0027 429.007 79.0722C428.853 79.6801 428.856 80.2879 429.276 80.8351C429.438 81.0437 429.654 81.1783 429.872 81.3061C430.292 81.7323 430.476 82.0463 430.61 82.4679C430.605 82.5801 430.597 82.6967 430.608 82.847C430.635 83.2754 430.907 83.8563 431.001 84.334C430.99 84.4776 430.974 84.7131 430.958 84.9822C430.815 85.3792 430.613 85.8838 430.664 86.2988C430.699 86.5679 430.81 86.8819 430.942 87.169C430.985 87.7185 431.085 88.0998 431.303 87.9607C431.217 88.0146 431.122 88.0617 431.028 88.1065C430.761 88.1424 430.387 88.1424 430.168 88.3263C429.961 88.4968 429.823 88.6874 429.718 88.8848C429.576 89.0799 429.503 89.3356 429.54 89.6855C429.546 89.912 429.578 90.1408 429.659 90.3718C429.279 90.3583 428.996 90.3718 428.756 90.401C428.223 90.3875 427.724 90.4727 427.541 91.0402C427.449 91.3362 427.463 91.6547 427.479 91.9687C427.49 92.2446 427.533 92.5227 427.557 92.7941C427.562 92.8816 427.565 92.969 427.568 93.0587C427.568 93.061 427.568 93.061 427.568 93.0632C427.533 93.0543 427.481 93.0363 427.444 93.0251C427.285 92.8008 427.093 92.6371 426.819 92.6864C426.263 92.7739 425.557 92.4263 424.989 92.5855C424.336 92.6595 423.849 93.0565 423.816 94.0523C423.781 94.2138 423.776 94.3865 423.784 94.5592C423.62 94.1308 422.186 94.2564 422.024 94.3103C422.046 94.3349 422.062 94.3394 422.083 94.3619C421.916 94.4067 421.755 94.4718 421.582 94.5749C421.086 94.8755 420.165 95.3375 420.17 96.2167C420.17 96.3401 420.28 97.3987 420.302 97.3875C419.96 97.5557 419.534 97.5288 419.256 97.8809C419.07 98.1119 418.89 98.3856 418.866 98.7175C418.787 99.8344 418.478 100.018 417.728 100.22C417.149 100.379 416.658 100.628 416.297 101.178C416.295 101.162 416.292 101.144 416.289 101.129C416.251 101.189 416.238 101.247 416.211 101.308C416.189 101.346 416.162 101.373 416.141 101.416C416.028 101.649 416.044 102.037 416.224 102.219C416.545 102.548 416.793 102.699 417.211 102.802C417.653 102.912 417.812 103.118 417.825 103.36C417.812 103.569 417.715 103.811 417.588 104.056C417.437 104.302 417.249 104.54 417.119 104.722C416.958 104.948 416.85 105.202 416.763 105.466C416.761 105.473 416.753 105.486 416.75 105.493C416.745 105.511 416.747 105.534 416.742 105.552C416.564 106.168 416.551 106.852 416.631 107.505C416.634 107.518 416.634 107.534 416.637 107.55C416.65 107.696 416.672 107.828 416.693 107.972C416.788 108.647 416.931 109.382 417.265 109.882C417.432 110.131 417.766 110.345 418.03 110.336C418.127 110.333 418.173 110.322 418.232 110.315C418.343 110.344 418.424 110.351 418.442 110.313C418.451 110.358 418.359 110.506 418.259 110.907C418.071 111.652 417.742 112.641 418.453 113.162C418.459 113.166 418.464 113.164 418.469 113.168C418.564 113.251 418.685 113.298 418.831 113.31C419.146 113.377 419.448 113.269 419.731 113.07C421.652 112.264 420.768 113.213 420.636 114.525C420.593 114.711 420.553 114.9 420.537 115.117C420.499 115.593 420.841 115.994 421.073 116.284C421.175 116.409 421.307 116.476 421.45 116.519C421.852 116.873 422.272 117.039 422.706 117.064C422.682 117.329 422.728 117.591 422.83 117.831C422.455 117.762 422.094 117.647 421.714 117.701C421.181 117.775 420.736 118.235 420.351 118.67C420.297 118.731 420.272 118.805 420.224 118.87C420.229 118.836 420.221 118.818 420.227 118.784C420.127 118.921 420.054 119.071 419.997 119.228C419.701 119.814 419.666 120.44 419.944 120.929C420.033 121.409 420.173 121.871 420.31 122.274C420.326 122.389 420.332 122.508 420.367 122.611C420.456 122.857 420.485 123.053 420.488 123.225C420.413 123.786 419.895 124.013 419.472 124.313C419.445 124.327 419.418 124.338 419.394 124.351C418.866 124.62 418.825 125.3 419.033 125.872C419.092 125.964 419.149 126.056 419.208 126.148C419.232 126.188 419.219 126.228 419.232 126.269C419.246 126.708 418.618 126.749 417.809 126.648C417.682 126.587 417.561 126.529 417.383 126.527C416.604 126.513 415.845 126.092 415.076 126.177C414.877 126.159 414.726 126.161 414.643 126.199C414.683 126.213 414.734 126.244 414.78 126.262C414.675 126.296 414.57 126.294 414.465 126.352C413.759 126.747 413.265 127.63 413.322 128.655C413.346 129.066 413.381 129.438 413.519 129.817C413.613 130.084 414.387 130.219 413.91 130.656C413.4 131.125 412.748 130.571 412.268 131.01C411.751 131.481 411.43 132.049 410.967 132.585C410.541 133.076 410.349 133.556 410.387 134.087C409.46 133.776 408.401 133.695 407.66 134.547C406.447 135.942 406.388 137.423 406.452 139.374C406.458 139.594 406.595 139.782 406.779 139.782C406.846 140.123 406.846 140.495 406.646 141.083C406.56 141.327 406.482 141.541 406.477 141.632C406.474 141.68 406.487 141.729 406.49 141.776C406.42 142.283 406.552 142.568 406.808 142.7C406.94 142.884 407.097 143.036 407.285 143.086C407.905 143.25 408.366 143.075 408.932 142.756C409.759 142.299 409.492 143.741 409.244 144.232C409.023 144.669 408.983 145.136 409.018 145.636C409.139 147.293 410.414 146.654 411.158 147.02C411.077 147.258 411.069 147.551 411.101 147.863C410.662 148.016 410.166 148.173 409.94 148.516C409.929 148.532 409.905 148.538 409.894 148.554C409.395 149.339 410.622 150.292 410.207 150.855C410.112 150.983 410.061 151.169 410.107 151.342C410.093 151.297 408.889 150.752 408.571 150.77C407.902 150.801 407.204 151.187 406.938 152.017C406.743 152.627 407.005 153.392 406.762 153.953C406.584 154.367 406.501 154.798 406.496 155.265C406.493 155.76 406.746 156.027 407.059 156.173C407.223 156.391 407.409 156.606 407.598 156.812C407.684 157.095 407.827 157.341 408.088 157.528C409.067 158.209 410.029 156.864 410.649 157.967C410.721 158.156 410.781 158.349 410.853 158.494C410.883 158.591 410.915 158.651 410.942 158.768C410.95 158.802 411.01 158.799 411.069 158.79C411.034 158.813 410.999 158.837 410.961 158.867C410.878 158.903 410.773 158.947 410.624 159.01C410.287 159.154 410.153 159.351 409.951 159.685C409.786 159.957 409.816 160.241 409.907 160.513C409.684 161.159 409.614 161.836 409.794 162.359C409.821 162.599 409.899 162.83 410.139 163.016C410.266 163.115 410.411 163.184 410.557 163.249C410.932 163.572 411.012 163.77 411.274 164.404C411.287 164.478 411.293 164.559 411.314 164.624C410.287 165.012 410.993 164.523 409.724 164.436C409.751 164.465 409.773 164.514 409.8 164.548C408.937 164.406 407.854 165.2 407.601 166.273C407.477 166.791 407.495 167.228 407.652 167.735C407.724 167.973 407.862 168.17 407.978 168.376C407.929 168.284 406.902 168.307 406.768 168.289C405.838 168.179 404.978 168.942 404.827 170.036C403.868 170.258 402.793 171.566 403.493 172.734C403.59 172.902 403.73 173.008 403.881 173.086C404.423 173.369 404.542 173.818 404.439 174.298C404.183 174.567 403.784 175.253 403.55 175.885C403.329 176.231 403.17 176.617 403.375 177.038C403.483 177.26 403.647 177.402 403.827 177.518C404.119 177.823 404.493 178.137 404.865 178.422C405.172 179.046 406.186 179.198 406.169 179.721C406.14 180.611 406.924 180.939 407.482 180.99C407.878 181.024 409.659 179.882 409.816 180.158C409.818 180.165 409.824 180.169 409.827 180.174C409.724 180.259 409.627 180.356 409.538 180.47C409.129 180.844 408.835 181.306 408.924 182.183C408.994 182.856 409.358 183.148 409.794 183.258C409.385 183.399 409.007 183.684 408.846 184.153C408.781 184.314 408.743 184.5 408.741 184.707C408.385 184.673 408.107 184.826 407.87 185.048C407.813 185.095 407.759 185.146 407.708 185.205C407.654 185.272 407.603 185.335 407.557 185.413C407.056 186.223 407.067 187.629 407.724 188.627C407.66 188.71 407.614 188.813 407.549 188.901C407.344 189.179 407.142 189.47 406.989 189.782C406.967 189.825 406.935 189.856 406.916 189.897C406.903 189.93 406.903 189.971 406.892 190.007C406.843 190.134 406.822 190.271 406.805 190.408C406.805 190.41 406.805 190.41 406.805 190.413C406.792 190.529 406.765 190.639 406.781 190.762C406.822 191.083 406.905 191.543 407.167 191.709C407.226 191.745 407.28 191.774 407.328 191.796C407.32 191.805 407.32 191.812 407.312 191.821C406.555 192.485 405.509 191.404 404.66 192.317C403.566 193.496 402.084 192.222 401.318 194.281C401.06 194.979 401.009 195.791 401.003 196.551C400.998 197.327 401.76 198.725 401.437 199.467C400.982 199.519 400.532 199.837 400.157 200.31C400.017 200.407 399.887 200.528 399.774 200.716C399.567 201.073 399.478 201.456 399.421 201.862C399.394 201.99 399.383 202.111 399.375 202.237C399.362 202.378 399.348 202.517 399.335 202.663C399.292 203.127 399.475 203.535 399.798 203.773C400.03 203.944 400.203 203.982 400.289 204.051C400.3 204.148 400.281 204.294 400.254 204.457C400.232 204.507 400.23 204.531 400.2 204.594C399.72 205.579 399.602 206.792 400.2 207.714C400.831 208.692 402.941 208.793 403.833 207.815C404.035 207.7 404.264 207.629 404.531 207.611C404.728 207.651 404.924 207.656 405.121 207.647C405.299 207.696 405.415 207.766 405.496 207.853C405.542 208.115 405.555 208.371 405.512 208.634C405.24 209.313 404.593 210.179 404.884 210.838C404.951 211.264 405.321 211.421 405.684 211.415C405.727 212.2 405.431 213.041 406 213.633C406.28 213.922 406.636 213.877 406.983 213.732C407.188 213.736 407.487 213.774 407.813 213.841C408.169 214.303 408.568 214.496 409.034 214.245C409.236 214.364 409.344 214.494 409.258 214.631C409.266 214.626 409.271 214.626 409.279 214.622C408.94 215.165 408.592 215.705 408.078 215.963C407.644 216.181 407.188 216.288 406.768 216.542C405.935 217.042 406.062 218.507 406.301 219.384C406.38 219.668 406.528 219.877 406.692 220.07C406.991 220.637 407.401 221.232 407.846 221.68C407.981 221.905 408.121 222.122 408.293 222.317C408.827 222.923 409.333 222.512 409.668 221.938C409.848 222.032 410.058 222.147 410.263 222.27C410.581 222.582 410.802 222.95 411.002 223.291C410.956 223.764 411.064 223.963 411.344 224.307C411.886 224.973 413.034 224.114 413.648 223.766C413.982 223.627 414.333 223.519 414.691 223.425C415.279 223.322 415.815 223.261 416.332 222.555C416.559 222.25 416.912 221.7 416.914 221.25C416.914 221.216 416.936 221.207 416.939 221.176C417.014 221.001 417.103 220.844 417.224 220.727C417.254 220.711 417.284 220.693 417.316 220.68C417.364 220.644 417.437 220.64 417.494 220.615C417.785 220.57 418.135 220.608 418.429 220.651C418.596 221.218 418.971 221.342 419.483 221.649C419.696 222.376 419.663 223.3 419.965 224.051C420.03 224.434 420.205 224.769 420.677 224.939C420.695 224.946 420.731 224.926 420.752 224.923C421.202 225.076 421.628 224.903 421.954 225.19C422.008 225.679 422.035 226.238 422.224 226.581C422.52 227.13 422.498 227.027 422.331 227.767C422.226 228.25 422.17 228.801 422.294 229.286C422.302 229.322 422.315 229.355 422.326 229.389C422.348 229.454 422.358 229.524 422.388 229.586C422.582 230.001 422.83 230.042 423.17 230.086C423.213 230.093 423.264 230.073 423.312 230.066C423.746 230.118 424.086 229.988 424.547 230.279C424.654 230.407 424.76 230.537 424.851 230.629C425.008 230.782 425.196 230.847 425.393 230.883C425.819 231.094 426.368 231.246 426.937 231.316C426.994 231.405 427.069 231.493 427.199 231.562C428.317 232.148 430.069 230.654 430.193 229.131C430.287 228.9 430.403 228.685 430.578 228.501C431.063 228.202 431.521 227.889 431.815 227.252C432.047 226.751 431.928 226.361 431.723 225.998C431.651 225.807 431.554 225.612 431.422 225.41C431.904 225.403 432.381 225.361 432.853 225.163C433.063 225.076 433.206 225.04 433.316 225.031C433.459 225.101 433.545 225.255 433.567 225.511C433.564 225.612 433.561 225.704 433.551 225.843C433.489 226.547 433.92 226.769 434.373 226.953C434.715 227.263 435.095 227.532 435.394 227.7C435.642 227.998 435.841 227.98 436.073 227.895C436.418 227.895 436.839 227.801 437.283 227.633C437.321 227.624 437.356 227.606 437.394 227.592C438.003 227.348 438.652 226.969 439.216 226.5C439.811 226.211 440.318 225.558 440.558 224.802C440.806 224.212 440.843 223.582 440.571 222.954C440.886 222.909 441.269 223.703 441.517 224.046C441.741 224.354 442.132 224.475 442.53 224.524C442.835 224.708 442.97 224.971 443.072 225.251C443.139 225.547 443.242 225.803 443.382 226.013C443.406 229.396 443.296 232.771 443.21 236.153C443.156 238.268 443.166 240.39 443.169 242.507C443.172 244.692 443.288 246.715 442.786 248.835C442.363 250.622 442.39 252.322 442.476 254.17C442.576 256.353 442.474 258.537 442.544 260.704C442.253 261.628 441.814 262.462 441.382 263.409C440.655 265.008 440.126 266.033 438.776 266.908C437.752 267.571 436.556 268.123 435.432 268.57C435.394 268.556 435.354 268.552 435.31 268.561C435.135 268.601 435.065 268.637 434.906 268.733C434.58 268.928 434.701 269.512 434.998 269.633C436.224 270.131 437.973 269.844 439.404 269.39C439.272 269.72 439.404 270.104 439.69 270.216C440.727 270.626 442.075 270.335 443.158 270.357C444.142 270.377 445.188 270.059 446.134 269.619C446.128 269.644 446.123 269.662 446.115 269.687C446.096 269.79 446.101 269.895 446.128 269.994C446.126 270.048 446.123 270.101 446.123 270.153C446.139 270.467 446.435 270.557 446.573 270.346C447.144 270.42 447.753 269.994 448.238 269.684C448.546 269.487 448.858 269.31 449.168 269.126C450.462 269.861 452.152 270.025 453.405 269.969C453.709 269.956 454.038 269.556 453.903 269.15C453.839 268.946 453.75 268.765 453.653 268.592C454.526 268.897 455.407 269.117 456.315 269.301C456.857 269.411 457.108 268.756 456.887 268.312C456.884 268.3 456.879 268.291 456.873 268.282C456.868 268.273 456.862 268.262 456.857 268.256C456.844 268.233 456.827 268.211 456.811 268.188C456.757 268.121 456.687 268.058 456.598 268.016C455.283 267.327 454.016 266.217 452.812 265.268C451.575 264.299 450.583 263.066 449.578 261.792C449.57 261.011 449.57 260.231 449.502 259.455C449.338 257.503 449.004 255.61 449.001 253.637C448.998 250.548 449.68 247.083 449.263 243.981C449.713 240.361 449.346 236.49 449.435 232.839C449.489 230.623 449.537 228.409 449.57 226.197C449.589 226.197 449.607 226.206 449.626 226.206C449.648 226.26 449.669 226.314 449.699 226.377C449.796 226.585 450.017 226.718 450.206 226.637C450.421 226.543 450.747 226.287 451.057 226.144C451.405 226.173 451.68 226.26 451.812 226.46C451.836 226.549 451.86 226.633 451.871 226.758C451.885 226.935 451.844 227.108 451.777 227.281C451.626 227.628 451.389 227.951 451.321 228.317C451.316 228.337 451.319 228.357 451.313 228.38C451.305 228.451 451.305 228.528 451.313 228.604C451.311 228.694 451.284 228.781 451.313 228.873C451.491 229.445 451.769 229.616 452.211 229.842C452.876 230.183 453.887 229.106 454.316 229.882C454.448 230.12 454.631 230.208 454.857 230.156C455.213 230.075 455.512 229.95 455.822 229.822C456.14 231.345 457.148 231.188 458.188 230.553C458.385 230.49 458.601 230.448 458.835 230.425C459.53 231.008 460.336 230.712 460.873 229.981C461.317 229.656 461.584 229.039 461.474 227.844C461.953 227.53 462.387 227.382 462.905 227.761C463.19 227.969 463.689 227.788 463.894 227.492C464.01 227.323 464.101 227.139 464.193 226.953C464.481 226.619 464.624 226.018 464.487 224.798C464.454 224.506 464.732 224.358 465.12 224.269C465.47 224.28 465.853 224.396 466.004 224.421C466.228 224.457 466.373 224.327 466.446 224.138C466.81 224.349 467.203 224.291 467.57 223.999C467.715 224.482 467.634 224.773 467.691 225.388C467.707 225.563 467.71 225.704 467.834 225.814C468.346 226.26 468.976 226.184 469.462 225.758C470.025 225.258 470.224 224.201 470.348 223.416C470.545 222.178 471.623 224.349 472.041 224.574C472.485 224.814 471.989 225.473 472.359 225.883C472.868 226.451 473.445 226.413 474.078 226.229C474.868 226.004 475.644 225.394 476.207 224.679C476.361 224.482 476.536 224.168 476.541 223.88C476.549 223.098 476.768 222.562 477.188 222.1C477.679 222.595 478.358 222.701 478.87 221.99C478.91 221.934 478.926 221.873 478.964 221.817C478.978 221.799 478.986 221.777 478.996 221.756C479.18 221.465 479.29 221.146 479.341 220.801C479.347 220.752 479.355 220.705 479.36 220.655C479.368 220.541 479.411 220.451 479.401 220.326C479.39 220.175 479.336 220.041 479.271 219.908C479.234 219.774 479.201 219.637 479.131 219.514C479.12 219.543 479.107 219.559 479.096 219.585C478.921 219.274 478.802 218.966 479.174 218.56C479.306 218.415 479.433 218.294 479.56 218.159C479.859 217.903 480.231 217.607 480.538 217.311C480.613 217.26 480.673 217.195 480.754 217.145C481.125 216.923 481.09 216.318 481.047 215.912C480.921 214.602 480.371 213.752 479.457 213.424C479.503 212.612 479.487 211.796 479.619 210.993C479.805 210.087 480.473 209.694 480.991 209.174Z" fill="black"/>
<path d="M408.903 239.696C409.803 238.873 409.26 237.703 408.681 236.917C408.447 236.602 408.317 236.126 408.171 235.657C408.194 235.657 408.213 235.657 408.236 235.659C407.898 234.555 407.469 234.035 406.425 233.906C406.441 233.928 406.47 233.991 406.493 234.028C406.386 234.011 406.282 233.969 406.171 233.962C406.402 233.747 406.552 233.41 406.63 232.936C406.653 232.895 406.659 232.836 406.685 232.797C407.065 232.594 407.342 232.328 407.569 232.033C407.576 232.03 407.579 232.023 407.586 232.021C407.582 232.021 407.582 232.021 407.579 232.021C408.08 231.361 408.262 230.497 408.203 229.405C408.174 228.853 407.784 228.36 407.3 228.248C406.298 228.018 408.636 226.966 408.906 226.648C409.774 225.637 410.544 223.713 409.488 222.592C409.211 222.294 408.779 222.15 408.434 221.982C408.428 221.979 408.431 221.454 408.392 221.215C408.405 221.042 408.34 220.853 408.132 220.651C408.119 220.687 408.103 220.724 408.09 220.761C407.67 220.36 407.169 220.436 406.633 220.382C406.948 219.911 407.332 219.491 407.332 218.841C407.332 218.043 406.779 217.071 406.103 216.792C406.074 216.78 406.048 216.766 406.019 216.753C406.051 216.734 406.084 216.729 406.116 216.7C405.391 216.402 404.617 215.244 403.934 215.129C403.889 215.122 403.749 215.156 403.583 215.208C403.278 215.205 402.998 215.252 402.657 215.386C402.426 215.498 402.192 215.606 401.954 215.713C401.506 215.833 401.128 215.891 401.037 215.772C401.005 215.728 400.995 215.689 400.972 215.647C400.976 215.52 401.008 215.366 401.096 215.151C401.359 215.169 401.525 214.939 401.603 214.68C401.922 214.539 402.312 214.424 402.712 214.326C403.017 214.385 403.31 214.46 403.46 214.465C403.827 214.48 404.448 214.263 404.643 213.872C404.656 213.845 404.65 213.823 404.663 213.796C404.666 213.791 404.676 213.786 404.679 213.784C404.692 213.76 404.679 213.728 404.689 213.703C404.841 213.303 404.845 212.951 404.643 212.524C404.607 212.441 404.533 212.377 404.458 212.319C404.344 212.05 404.256 211.838 404.279 211.757C404.383 211.642 404.526 211.523 404.604 211.352C404.659 211.232 404.721 211.09 404.786 210.942C404.994 210.551 405.141 210.121 405.131 209.657C405.121 209.664 405.108 209.679 405.102 209.686C405.092 208.868 405.212 208.202 406.113 208.346C407.127 208.512 408.314 208.331 408.542 206.976C408.551 206.927 408.584 206.902 408.594 206.851C408.519 207.352 408.564 207.044 408.594 206.851C408.623 206.658 408.61 206.729 408.594 206.846C408.581 206.783 408.571 206.719 408.558 206.656C408.551 206.355 408.486 206.058 408.386 205.769C408.36 205.635 408.334 205.501 408.307 205.364C408.285 205.374 408.268 205.381 408.249 205.388C408.194 205.249 408.138 205.115 408.09 204.983C407.973 204.663 407.911 204.309 407.882 203.97C407.875 203.762 407.885 203.559 407.917 203.357C407.917 203.335 407.917 203.32 407.921 203.301C409.091 202.717 410.083 201.747 409.79 200.114C409.683 199.506 409.514 198.719 409.189 198.15C409.215 198.155 409.25 198.148 409.276 198.155C408.955 197.484 408.46 197.23 407.794 197.389C407.719 197.411 407.68 197.42 407.641 197.433C407.686 197.42 407.738 197.406 407.794 197.389C407.478 197.479 407.283 197.286 407.078 197.066C406.997 196.871 406.909 196.673 406.656 196.629C406.614 196.622 406.578 196.632 406.535 196.627C406.392 196.556 406.24 196.502 406.035 196.529C405.94 195.896 405.703 195.347 405.316 194.876C405.355 194.822 405.384 194.759 405.427 194.705C405.544 194.551 405.71 194.324 405.83 194.08C405.84 194.058 405.859 194.043 405.869 194.019C405.875 194.004 405.869 193.987 405.875 193.972C406.015 193.643 406.048 193.306 405.719 193.125C403.528 191.914 404.181 191.889 405.342 191.782C406.087 192.299 406.656 191.98 407.147 191.401C407.735 191.13 408.142 190.656 407.989 189.767C407.807 188.717 407.875 187.635 407.804 186.588C407.891 186.375 407.992 186.151 407.94 185.933C407.891 185.735 407.774 185.616 407.647 185.506C407.511 184.886 407.28 184.282 406.841 183.723C406.409 183.435 406.191 183.018 406.191 182.471C406.627 181.399 404.435 181.877 404.23 181.149C404.211 181.083 404.224 180.993 404.23 180.905C404.325 180.641 404.549 180.361 404.702 180.124C405.147 179.43 405.371 178.563 405.482 177.696C405.557 177.472 405.612 177.262 405.622 177.091C405.606 177.113 405.57 177.13 405.55 177.149C405.557 177.03 405.596 176.905 405.596 176.786C405.589 175.95 405.254 175.301 404.75 174.786C404.825 174.82 404.894 174.874 404.972 174.903C404.568 174.417 404.094 174.077 403.528 173.892C403.479 173.867 403.502 173.797 403.492 173.745C403.726 173.36 403.98 172.918 404.029 172.451C404.035 172.373 404.022 172.305 404.025 172.226C404.042 172.151 404.084 172.068 404.084 171.999C404.068 172.046 404.042 172.092 404.025 172.139C404.077 169.797 402.045 168.356 400.137 168.393C400 168.395 399.877 168.434 399.756 168.483C399.847 168.429 399.942 168.375 400.059 168.322C399.545 168.385 398.589 168.881 397.708 169.049C397.597 168.991 397.484 168.932 397.35 168.893C397.246 168.859 396.954 168.92 396.619 168.988C396.518 168.947 396.43 168.881 396.346 168.81C396.229 168.649 396.105 168.493 395.998 168.336C395.939 168.207 395.887 168.07 395.851 167.899C396.414 168.246 396.824 168.126 397.347 167.706C397.36 167.697 397.376 167.689 397.389 167.679C397.396 167.675 397.402 167.67 397.409 167.665C397.913 167.325 398.394 166.786 398.826 166.297C399.054 166.058 399.282 165.819 399.535 165.596C400.192 165.02 400.54 164.529 400.325 163.594C400.316 163.55 400.286 163.518 400.267 163.479C400.293 162.957 400.143 162.588 399.701 162.671C399.795 162.62 399.896 162.568 400.075 162.434C400.101 162.415 400.13 162.395 400.156 162.376C400.407 162.231 400.628 162.068 400.823 161.885C401.239 161.567 401.626 161.198 401.795 160.671C402.042 159.916 401.928 159.233 401.632 158.63C401.428 158.1 401.06 157.584 400.524 157.128C401.08 156.449 401.938 155.594 401.668 154.654C401.457 153.921 400.793 153.069 400.355 152.249C400.25 152 400.156 151.721 400.072 151.421C400.751 151.377 401.515 151.206 401.847 150.527C401.997 150.217 401.997 149.973 401.951 149.743C402.517 148.393 402.468 146.532 401.85 145.467C401.808 145.299 401.769 145.152 401.74 145.03C401.675 144.764 401.454 144.571 401.206 144.571C400.969 144.571 400.761 144.603 400.563 144.652C400.368 144.659 400.159 144.696 399.932 144.793C399.834 144.317 399.99 142.542 399.688 142.232C399.256 141.787 398.092 142.183 397.415 141.821C397.714 141.279 398.355 140.959 398.898 140.62C399.09 140.571 399.282 140.527 399.477 140.491C400.264 140.578 401.262 140.063 401.532 139.216C401.571 139.108 401.58 138.999 401.593 138.889C401.597 138.83 401.606 138.774 401.603 138.715C401.597 138.232 401.385 137.753 401.037 137.36C401.158 137.113 401.362 136.08 401.463 135.467C401.522 135.218 401.561 135.021 401.561 134.94C401.561 134.894 401.522 134.806 401.512 134.749C401.493 134.486 401.428 134.234 401.291 134.034C400.914 133.165 400.231 132.056 399.942 131.582C399.116 130.249 398.176 132.342 397.432 133.055C397.288 133.162 397.142 133.238 397.012 133.267C396.921 133.262 396.833 133.226 396.755 133.121C396.706 133.055 396.68 132.994 396.641 132.933C396.638 132.811 396.651 132.659 396.69 132.461C396.794 131.958 396.706 131.218 396.212 131.023C396.141 130.994 396.069 130.95 395.998 130.911C395.887 130.789 395.751 130.662 395.565 130.53C395.117 130.21 394.821 130.085 394.583 130.078C394.222 129.983 393.861 130.085 393.507 130.654C393.445 130.752 393.377 131.033 393.309 131.199C393.299 131.209 393.292 131.218 393.283 131.228C393.397 131.106 393.214 130.911 392.932 130.698C392.88 130.62 392.824 130.542 392.766 130.471C392.626 130.31 392.467 130.268 392.304 130.264C391.852 129.971 391.416 129.692 391.407 129.531C391.283 127.929 392.141 125.25 390.408 124.225C390.48 124.085 390.522 123.941 390.565 123.8C390.574 123.77 390.591 123.741 390.597 123.712C390.649 123.507 390.675 123.304 390.675 123.104C390.675 123.067 390.662 123.033 390.662 122.996C390.652 122.823 390.626 122.657 390.581 122.498C390.578 122.486 390.571 122.474 390.568 122.461C390.324 121.675 389.664 121.104 388.763 121.228C388.142 121.314 388.211 120.965 388.454 120.471C388.63 120.278 388.812 120.088 388.936 119.873C389.118 119.563 389.215 119.221 389.228 118.862C389.277 118.686 389.303 118.518 389.267 118.376C388.705 115.98 389.316 115.304 389.488 112.952C389.628 111.06 389.316 110.65 388.822 110.76C388.389 110.234 387.853 110.747 387.58 111.245C387.489 111.414 387.381 111.534 387.268 111.634C387.128 111.705 386.991 111.761 386.861 111.788C386.653 111.827 386.491 111.839 386.351 111.841C386.208 111.805 386.065 111.746 385.922 111.663C385.883 111.641 385.866 111.614 385.837 111.59C385.795 111.358 385.996 111.001 386.273 110.623C386.325 110.584 386.373 110.552 386.4 110.53C386.796 110.215 387.196 109.824 387.32 109.275C387.32 109.272 387.32 109.27 387.32 109.27C387.336 109.241 387.352 109.211 387.355 109.189C387.645 107.883 387.726 106.603 387.359 105.678C387.346 105.605 387.352 105.514 387.336 105.443C387.206 104.83 386.731 104.601 386.178 104.498C385.922 104.403 385.632 104.337 385.288 104.322C385.752 103.89 386.208 103.5 386.38 102.652C386.582 101.678 386.159 100.808 385.379 100.423C385.353 100.41 385.34 100.396 385.314 100.381C384.91 99.7902 384.621 99.1357 384.969 98.2395C384.979 98.2126 384.975 98.1931 384.985 98.1662C385.073 97.9196 385.151 97.6583 385.174 97.3702C385.174 97.3628 385.17 97.3604 385.174 97.3555C385.271 96.3812 384.855 95.5875 384.237 94.745C384.052 94.4911 383.909 94.3128 383.782 94.1663C383.75 94.1052 383.711 94.0637 383.678 93.9978C383.525 93.695 383.207 93.6462 382.953 93.7829C382.917 93.8024 382.833 93.8537 382.774 93.8904C382.647 93.9465 382.488 94.0222 382.309 94.1052C382.202 94.0295 382.056 93.9856 381.952 94.0344C381.945 94.0369 381.942 94.0418 381.935 94.0442C381.591 92.1785 381.724 89.2848 380.775 87.7781C380.697 87.656 380.433 87.3996 380.105 87.1359C380.037 87.0772 379.968 87.0284 379.897 86.9747C379.841 86.9332 379.789 86.8941 379.734 86.8526C379.695 86.8282 379.659 86.8037 379.62 86.7793C378.859 86.2714 378.017 85.9588 377.978 86.8624C377.969 86.9063 377.933 86.9356 377.933 86.9869C377.93 87.1578 377.891 87.2702 377.861 87.3972C377.504 88.2079 376.32 88.1859 376.037 87.2287C376.057 87.0968 376.106 86.982 376.145 86.8624C376.405 86.5791 376.538 86.3544 376.561 86.1078C376.577 86.0907 376.584 86.0712 376.597 86.0541C376.675 85.4069 376.327 83.2556 376.106 82.6524C376.106 82.7232 376.093 82.772 376.093 82.838C375.995 82.4985 375.8 82.2373 375.371 82.1371C375.325 80.8624 375.094 79.6659 374.028 78.9528C373.608 78.672 373.023 78.7355 372.565 78.7672C372.581 78.7672 372.623 78.8331 372.386 78.7867C372.201 78.7501 372.012 78.7233 371.82 78.6891C371.619 78.6573 371.469 78.6207 371.001 78.5548C370.481 78.4839 370.214 77.7831 369.847 77.385C369.161 76.6402 368.442 77.0822 367.971 77.81C367.759 78.1421 367.951 78.6183 368.091 78.9186C368.465 79.7611 367.619 79.3801 367.271 79.7733C366.937 80.1543 366.787 80.7428 366.628 81.2263C366.53 81.512 366.332 82.2421 366.068 82.1396C366.065 82.1347 366.065 82.1298 366.062 82.1249C366.029 82.0834 365.99 82.0761 365.955 82.0443C365.932 82.015 365.909 81.9979 365.886 81.9564C365.74 81.6902 365.486 81.4851 365.282 81.28C364.726 80.7305 364.267 80.7623 363.523 80.899C362.589 81.0651 361.621 81.302 360.743 81.766C360.483 81.9052 360.418 82.3227 360.554 82.5865C360.782 83.026 361.042 83.4485 361.247 83.9027C360.216 84.3691 358.457 84.9283 359.159 86.5205C359.341 86.9332 359.549 87.3532 359.64 87.7292C359.627 87.8636 359.663 88.0028 359.679 88.1395C359.67 88.2641 359.637 88.3837 359.566 88.4863C359.462 88.6059 359.28 88.7158 358.893 88.8013C358.135 88.9722 357.436 89.0553 357.069 89.4972C357.004 89.5363 356.939 89.5461 356.874 89.59C356.617 89.7781 356.545 90.1175 356.682 90.4301C356.942 91.0235 356.678 91.5949 356.617 92.181C356.184 94.3079 355.973 93.1749 354.045 94.1272C353.209 94.5399 353.147 95.0332 353.378 95.5143C353.388 95.6144 353.362 95.6901 353.391 95.8024C353.437 95.9807 353.564 96.0881 353.71 96.1077C353.638 96.2762 353.573 96.4617 353.528 96.6815C353.19 96.4959 352.754 96.3592 352.296 96.2933C352.364 96.2737 352.435 96.2542 352.504 96.2346C351.434 96.0735 351.122 96.0881 351.496 96.2615C350.439 96.3201 349.532 96.8305 349.841 98.1101C350.033 98.9062 350.862 99.651 350.273 100.535C349.555 100.852 348.875 101.902 348.573 102.869C348.563 102.899 348.553 102.926 348.543 102.955C348.521 103.031 348.508 103.099 348.491 103.172C348.316 103.81 348.316 104.449 348.807 105.023C348.995 105.241 349.246 105.385 349.499 105.517C349.987 105.963 350.202 106.293 350.358 106.735C350.351 106.855 350.345 106.974 350.354 107.133C350.387 107.583 350.702 108.193 350.813 108.694C350.8 108.845 350.78 109.092 350.761 109.372C350.595 109.788 350.358 110.32 350.416 110.752C350.455 111.033 350.585 111.363 350.738 111.665C350.79 112.242 350.904 112.642 351.158 112.496C351.057 112.552 350.949 112.601 350.839 112.65C350.53 112.686 350.094 112.689 349.837 112.879C349.597 113.06 349.434 113.258 349.314 113.465C349.148 113.668 349.064 113.937 349.106 114.305C349.112 114.545 349.151 114.784 349.242 115.026C348.8 115.013 348.472 115.028 348.192 115.057C347.571 115.045 346.992 115.133 346.778 115.729C346.671 116.039 346.687 116.374 346.706 116.703C346.719 116.994 346.768 117.284 346.797 117.57C346.804 117.663 346.807 117.753 346.81 117.849C346.81 117.851 346.81 117.851 346.81 117.853C346.771 117.844 346.71 117.827 346.664 117.814C346.479 117.577 346.258 117.409 345.936 117.458C345.292 117.551 344.469 117.187 343.809 117.353C343.049 117.431 342.483 117.849 342.447 118.891C342.405 119.062 342.401 119.24 342.411 119.424C342.219 118.972 340.551 119.106 340.366 119.162C340.392 119.189 340.412 119.194 340.434 119.216C340.239 119.265 340.051 119.333 339.852 119.441C339.277 119.756 338.204 120.242 338.21 121.162C338.21 121.292 338.34 122.403 338.363 122.391C337.967 122.569 337.472 122.54 337.147 122.908C336.929 123.15 336.721 123.438 336.692 123.787C336.601 124.96 336.24 125.153 335.372 125.363C334.699 125.531 334.13 125.79 333.71 126.369C333.707 126.352 333.704 126.334 333.701 126.317C333.658 126.381 333.639 126.442 333.61 126.505C333.584 126.547 333.551 126.574 333.528 126.618C333.395 126.864 333.415 127.27 333.626 127.46C334 127.804 334.289 127.963 334.77 128.073C335.284 128.19 335.469 128.405 335.486 128.659C335.469 128.879 335.359 129.13 335.209 129.389C335.034 129.648 334.816 129.897 334.663 130.088C334.475 130.325 334.348 130.591 334.25 130.869C334.247 130.876 334.237 130.889 334.237 130.896C334.231 130.913 334.234 130.94 334.227 130.957C334.019 131.604 334.003 132.322 334.097 133.008C334.101 133.023 334.104 133.04 334.104 133.055C334.12 133.206 334.143 133.348 334.169 133.497C334.279 134.205 334.445 134.977 334.832 135.502C335.027 135.763 335.414 135.988 335.723 135.975C335.834 135.973 335.889 135.963 335.96 135.953C336.09 135.985 336.182 135.99 336.208 135.951C336.217 135.997 336.11 136.154 335.993 136.576C335.775 137.358 335.391 138.395 336.221 138.94C336.227 138.945 336.234 138.942 336.24 138.947C336.351 139.035 336.49 139.084 336.659 139.096C337.027 139.167 337.378 139.055 337.706 138.842C339.94 137.997 338.913 138.994 338.76 140.371C338.708 140.566 338.662 140.764 338.643 140.994C338.601 141.494 338.997 141.914 339.267 142.219C339.387 142.351 339.54 142.422 339.706 142.466C340.174 142.837 340.662 143.013 341.166 143.04C341.137 143.318 341.192 143.594 341.309 143.846C340.873 143.773 340.454 143.653 340.012 143.709C339.391 143.787 338.874 144.268 338.428 144.725C338.366 144.788 338.337 144.867 338.282 144.935C338.288 144.901 338.279 144.881 338.285 144.845C338.171 144.989 338.084 145.145 338.019 145.309C337.674 145.924 337.635 146.581 337.954 147.091C338.058 147.594 338.22 148.08 338.383 148.503C338.402 148.622 338.406 148.747 338.451 148.857C338.555 149.116 338.591 149.321 338.594 149.501C338.506 150.09 337.905 150.327 337.411 150.642C337.381 150.654 337.349 150.669 337.32 150.681C336.705 150.964 336.659 151.675 336.9 152.276C336.968 152.371 337.033 152.468 337.102 152.566C337.131 152.608 337.115 152.652 337.131 152.693C337.144 153.155 336.416 153.196 335.479 153.089C335.333 153.025 335.19 152.964 334.985 152.962C334.078 152.95 333.197 152.505 332.303 152.595C332.072 152.576 331.896 152.578 331.795 152.617C331.841 152.632 331.903 152.666 331.955 152.683C331.831 152.718 331.711 152.715 331.587 152.779C330.765 153.194 330.192 154.119 330.261 155.196C330.287 155.628 330.329 156.017 330.488 156.415C330.596 156.695 331.5 156.835 330.944 157.294C330.352 157.787 329.594 157.206 329.035 157.665C328.433 158.158 328.06 158.754 327.523 159.316C327.029 159.831 326.804 160.334 326.85 160.893C325.771 160.566 324.538 160.483 323.68 161.374C322.269 162.839 322.201 164.39 322.279 166.439C322.285 166.669 322.444 166.866 322.656 166.866C322.734 167.223 322.737 167.616 322.506 168.231C322.405 168.488 322.318 168.712 322.311 168.808C322.308 168.857 322.324 168.908 322.327 168.959C322.246 169.489 322.399 169.789 322.698 169.929C322.854 170.121 323.033 170.283 323.254 170.334C323.976 170.505 324.509 170.322 325.169 169.987C326.128 169.506 325.819 171.02 325.53 171.535C325.273 171.994 325.224 172.485 325.267 173.008C325.41 174.747 326.889 174.075 327.754 174.458C327.66 174.707 327.65 175.015 327.689 175.345C327.178 175.506 326.6 175.67 326.336 176.031C326.323 176.046 326.294 176.055 326.284 176.07C325.702 176.893 327.13 177.894 326.645 178.485C326.535 178.62 326.476 178.815 326.528 178.998C326.512 178.952 325.114 178.378 324.743 178.397C323.966 178.429 323.153 178.837 322.844 179.706C322.62 180.346 322.922 181.147 322.639 181.735C322.435 182.173 322.334 182.622 322.331 183.113C322.331 183.633 322.62 183.914 322.984 184.065C323.173 184.292 323.391 184.519 323.612 184.734C323.712 185.03 323.875 185.291 324.184 185.484C325.322 186.199 326.44 184.788 327.162 185.945C327.247 186.143 327.318 186.346 327.399 186.5C327.432 186.602 327.474 186.666 327.504 186.788C327.513 186.825 327.582 186.822 327.653 186.812C327.611 186.837 327.572 186.864 327.53 186.893C327.432 186.93 327.308 186.978 327.139 187.044C326.746 187.196 326.59 187.401 326.356 187.753C326.164 188.036 326.196 188.336 326.304 188.622C326.047 189.301 325.962 190.011 326.174 190.561C326.203 190.812 326.294 191.054 326.574 191.249C326.723 191.354 326.889 191.425 327.058 191.494C327.494 191.831 327.585 192.041 327.89 192.705C327.907 192.781 327.913 192.868 327.939 192.934C326.743 193.342 327.569 192.829 326.092 192.737C326.122 192.768 326.148 192.82 326.18 192.854C325.179 192.707 323.917 193.538 323.625 194.663C323.482 195.208 323.504 195.665 323.686 196.197C323.771 196.446 323.93 196.654 324.067 196.868C324.008 196.773 322.818 196.795 322.662 196.776C321.579 196.661 320.581 197.459 320.406 198.607C319.287 198.839 318.039 200.214 318.855 201.437C318.969 201.613 319.131 201.723 319.303 201.809C319.931 202.106 320.071 202.575 319.954 203.081C319.655 203.364 319.193 204.082 318.92 204.746C318.663 205.108 318.478 205.513 318.715 205.957C318.839 206.192 319.034 206.338 319.242 206.46C319.58 206.78 320.016 207.11 320.448 207.41C320.802 208.065 321.983 208.224 321.963 208.773C321.931 209.708 322.841 210.05 323.488 210.104C323.95 210.138 326.021 208.942 326.203 209.232C326.206 209.239 326.213 209.244 326.216 209.249C326.099 209.34 325.985 209.44 325.878 209.559C325.403 209.95 325.062 210.438 325.163 211.357C325.244 212.062 325.666 212.37 326.174 212.482C325.696 212.631 325.26 212.929 325.071 213.423C324.997 213.593 324.954 213.786 324.948 214.006C324.535 213.972 324.21 214.131 323.937 214.363C323.868 214.412 323.807 214.468 323.748 214.529C323.686 214.6 323.625 214.663 323.573 214.746C322.991 215.596 323 217.071 323.764 218.118C323.686 218.206 323.634 218.314 323.563 218.404C323.325 218.695 323.091 219.002 322.909 219.33C322.883 219.374 322.848 219.405 322.825 219.449C322.809 219.484 322.809 219.527 322.799 219.564C322.743 219.698 322.717 219.84 322.698 219.987C322.698 219.989 322.698 219.989 322.698 219.991C322.682 220.114 322.649 220.231 322.669 220.358C322.717 220.695 322.815 221.176 323.117 221.349C323.186 221.388 323.247 221.418 323.306 221.442C323.296 221.452 323.296 221.459 323.286 221.469C322.405 222.165 321.193 221.032 320.201 221.989C318.93 223.227 317.206 221.891 316.315 224.05C316.016 224.78 315.955 225.635 315.948 226.431C315.942 227.244 316.829 228.712 316.452 229.491C315.922 229.544 315.399 229.881 314.963 230.377C314.8 230.477 314.647 230.604 314.517 230.802C314.277 231.176 314.173 231.579 314.108 232.006C314.078 232.14 314.062 232.267 314.052 232.399C314.036 232.546 314.023 232.695 314.007 232.846C313.958 233.332 314.17 233.762 314.547 234.011C314.817 234.189 315.018 234.231 315.116 234.304C315.129 234.404 315.106 234.558 315.077 234.729C315.051 234.78 315.051 234.804 315.012 234.873C314.452 235.906 314.316 237.178 315.012 238.148C315.746 239.173 318.198 239.281 319.235 238.255C319.469 238.135 319.739 238.06 320.048 238.04C320.276 238.082 320.507 238.089 320.734 238.077C320.942 238.128 321.076 238.201 321.17 238.292C321.222 238.568 321.238 238.836 321.189 239.112C320.874 239.825 320.123 240.734 320.458 241.425C320.536 241.874 320.965 242.035 321.388 242.03C321.436 242.856 321.092 243.737 321.755 244.357C322.08 244.66 322.496 244.614 322.9 244.462C323.137 244.467 323.485 244.509 323.865 244.58C324.278 245.066 324.74 245.266 325.286 245.005C325.523 245.129 325.644 245.266 325.546 245.408C325.556 245.405 325.562 245.403 325.569 245.398C325.172 245.967 324.772 246.536 324.174 246.807C323.67 247.034 323.14 247.149 322.649 247.415C321.68 247.94 321.827 249.476 322.109 250.396C322.2 250.697 322.373 250.914 322.565 251.114C322.913 251.708 323.391 252.333 323.907 252.804C324.064 253.041 324.226 253.268 324.428 253.473C325.049 254.108 325.637 253.678 326.024 253.075C326.235 253.175 326.479 253.295 326.717 253.425C327.087 253.752 327.344 254.138 327.575 254.494C327.523 254.99 327.647 255.2 327.972 255.559C328.599 256.257 329.936 255.356 330.651 254.992C331.041 254.846 331.447 254.733 331.864 254.636C332.546 254.528 333.171 254.465 333.772 253.722C334.036 253.403 334.445 252.826 334.449 252.352C334.449 252.318 334.475 252.306 334.478 252.277C334.566 252.094 334.67 251.928 334.809 251.805C334.845 251.788 334.878 251.771 334.917 251.757C334.972 251.72 335.057 251.713 335.125 251.688C335.463 251.639 335.869 251.683 336.211 251.725C336.406 252.321 336.842 252.448 337.437 252.773C337.687 253.534 337.648 254.506 337.999 255.293C338.074 255.696 338.279 256.045 338.828 256.225C338.848 256.233 338.89 256.211 338.916 256.211C339.439 256.372 339.934 256.191 340.314 256.492C340.379 257.004 340.408 257.591 340.626 257.95C340.971 258.526 340.945 258.418 340.753 259.195C340.629 259.7 340.564 260.279 340.711 260.79C340.721 260.826 340.733 260.86 340.747 260.897C340.769 260.965 340.786 261.039 340.818 261.105C341.042 261.539 341.332 261.583 341.728 261.63C341.777 261.637 341.839 261.615 341.894 261.61C342.398 261.664 342.795 261.529 343.331 261.832C343.458 261.967 343.579 262.103 343.686 262.199C343.868 262.36 344.089 262.428 344.317 262.465C344.811 262.687 345.451 262.846 346.111 262.919C346.176 263.014 346.264 263.107 346.417 263.178C347.718 263.793 349.753 262.225 349.899 260.626C350.01 260.384 350.146 260.159 350.348 259.964C350.91 259.652 351.444 259.319 351.788 258.653C352.058 258.128 351.922 257.718 351.681 257.337C351.596 257.139 351.483 256.934 351.33 256.721C351.892 256.714 352.445 256.67 352.995 256.462C353.242 256.372 353.404 256.333 353.531 256.326C353.697 256.399 353.798 256.56 353.824 256.829C353.82 256.936 353.817 257.031 353.804 257.178C353.729 257.918 354.233 258.15 354.76 258.343C355.16 258.667 355.599 258.951 355.947 259.127C356.236 259.439 356.467 259.422 356.737 259.329C357.137 259.329 357.625 259.232 358.145 259.056C358.19 259.046 358.229 259.026 358.272 259.014C358.98 258.758 359.735 258.36 360.392 257.869C361.084 257.566 361.673 256.88 361.952 256.089C362.242 255.471 362.284 254.809 361.968 254.15C362.336 254.103 362.781 254.934 363.071 255.298C363.331 255.62 363.786 255.747 364.248 255.801C364.602 255.993 364.758 256.269 364.875 256.565C364.953 256.875 365.07 257.144 365.236 257.363C365.265 260.914 365.139 264.455 365.035 268.006C364.973 270.225 364.982 272.452 364.989 274.672C364.992 276.965 365.126 279.087 364.544 281.312C364.053 283.187 364.082 284.97 364.183 286.911C364.3 289.202 364.179 291.492 364.261 293.766C363.923 294.735 363.412 295.61 362.908 296.604C362.063 298.281 361.448 299.356 359.878 300.274C358.688 300.97 357.296 301.549 355.989 302.017C355.947 302.003 355.898 301.998 355.849 302.008C355.644 302.052 355.563 302.088 355.378 302.188C354.997 302.393 355.14 303.006 355.485 303.131C356.913 303.654 358.941 303.353 360.609 302.877C360.457 303.224 360.609 303.624 360.941 303.744C362.147 304.174 363.714 303.868 364.976 303.89C366.12 303.912 367.333 303.578 368.436 303.116C368.429 303.141 368.422 303.16 368.416 303.187C368.393 303.295 368.4 303.407 368.432 303.509C368.429 303.566 368.426 303.622 368.426 303.678C368.445 304.008 368.79 304.1 368.949 303.881C369.616 303.959 370.321 303.509 370.887 303.187C371.241 302.98 371.606 302.794 371.967 302.601C373.472 303.375 375.436 303.546 376.892 303.485C377.247 303.47 377.627 303.053 377.471 302.628C377.396 302.413 377.292 302.223 377.179 302.042C378.193 302.362 379.22 302.591 380.274 302.787C380.901 302.901 381.197 302.215 380.937 301.749C380.934 301.737 380.927 301.727 380.921 301.717C380.914 301.707 380.908 301.697 380.901 301.69C380.885 301.666 380.866 301.644 380.849 301.619C380.784 301.549 380.706 301.483 380.602 301.439C379.074 300.716 377.601 299.551 376.2 298.557C374.763 297.539 373.608 296.247 372.438 294.909C372.428 294.091 372.428 293.27 372.35 292.455C372.158 290.408 371.771 288.42 371.768 286.35C371.765 283.109 372.558 279.473 372.074 276.218C372.597 272.418 372.171 268.357 372.275 264.526C372.337 262.201 372.396 259.879 372.435 257.556C372.457 257.556 372.477 257.566 372.503 257.564C372.529 257.62 372.552 257.676 372.588 257.742C372.701 257.959 372.958 258.098 373.176 258.013C373.426 257.915 373.807 257.644 374.164 257.495C374.568 257.527 374.89 257.617 375.042 257.827C375.072 257.92 375.101 258.008 375.111 258.14C375.127 258.326 375.078 258.506 375.003 258.687C374.828 259.053 374.551 259.39 374.473 259.774C374.467 259.796 374.47 259.818 374.464 259.837C374.454 259.913 374.454 259.993 374.464 260.074C374.46 260.167 374.431 260.26 374.464 260.355C374.668 260.953 374.994 261.134 375.507 261.371C376.281 261.727 377.455 260.599 377.952 261.415C378.105 261.664 378.317 261.754 378.58 261.703C378.993 261.62 379.341 261.485 379.702 261.354C380.069 262.951 381.246 262.787 382.456 262.12C382.683 262.054 382.934 262.008 383.207 261.986C384.016 262.599 384.953 262.286 385.574 261.52C386.091 261.178 386.403 260.533 386.273 259.278C386.829 258.948 387.336 258.792 387.937 259.192C388.269 259.412 388.848 259.219 389.085 258.909C389.222 258.731 389.326 258.538 389.433 258.345C389.768 257.993 389.937 257.363 389.774 256.084C389.735 255.779 390.061 255.622 390.513 255.527C390.919 255.539 391.364 255.661 391.54 255.688C391.8 255.725 391.969 255.588 392.054 255.393C392.476 255.615 392.935 255.551 393.361 255.249C393.53 255.754 393.436 256.059 393.501 256.704C393.52 256.887 393.523 257.036 393.666 257.151C394.261 257.62 394.993 257.539 395.559 257.092C396.216 256.567 396.446 255.461 396.589 254.636C396.817 253.337 398.072 255.615 398.56 255.852C399.077 256.106 398.501 256.797 398.93 257.227C399.522 257.82 400.192 257.781 400.93 257.588C401.85 257.351 402.751 256.711 403.404 255.962C403.583 255.754 403.788 255.425 403.791 255.122C403.801 254.301 404.055 253.74 404.542 253.254C405.111 253.774 405.901 253.886 406.5 253.139C406.545 253.08 406.568 253.017 406.61 252.958C406.627 252.939 406.633 252.914 406.649 252.895C406.861 252.589 406.991 252.255 407.049 251.891C407.056 251.84 407.065 251.791 407.072 251.737C407.082 251.617 407.13 251.522 407.121 251.39C407.108 251.234 407.046 251.09 406.971 250.953C406.926 250.812 406.89 250.67 406.809 250.538C406.796 250.567 406.779 250.585 406.766 250.611C406.565 250.284 406.425 249.962 406.854 249.537C407.007 249.385 407.153 249.256 407.303 249.117C407.651 248.848 408.083 248.538 408.438 248.228C408.525 248.174 408.597 248.106 408.688 248.055C409.12 247.823 409.078 247.185 409.029 246.76C408.883 245.388 408.242 244.494 407.179 244.15C407.235 243.298 407.215 242.443 407.368 241.598C407.521 240.653 408.301 240.245 408.903 239.696Z" fill="black"/>
</svg>
