<svg width="557" height="296" viewBox="0 0 557 296" fill="none" xmlns="http://www.w3.org/2000/svg">
<path d="M150.028 185.696C150.826 184.873 150.345 183.703 149.832 182.917C149.625 182.602 149.51 182.126 149.381 181.657C149.401 181.657 149.418 181.657 149.438 181.659C149.139 180.555 148.759 180.035 147.835 179.906C147.849 179.928 147.875 179.991 147.895 180.028C147.8 180.011 147.708 179.969 147.61 179.962C147.814 179.747 147.947 179.41 148.016 178.936C148.036 178.895 148.042 178.836 148.065 178.797C148.402 178.594 148.646 178.328 148.848 178.033C148.854 178.03 148.857 178.023 148.862 178.021C148.859 178.021 148.859 178.021 148.857 178.021C149.3 177.361 149.461 176.497 149.409 175.405C149.383 174.853 149.038 174.36 148.609 174.248C147.722 174.018 149.792 172.966 150.031 172.648C150.8 171.637 151.482 169.713 150.546 168.592C150.302 168.294 149.919 168.15 149.614 167.982C149.608 167.979 149.611 167.454 149.576 167.215C149.588 167.042 149.53 166.853 149.346 166.651C149.334 166.687 149.32 166.724 149.309 166.761C148.937 166.36 148.494 166.436 148.019 166.382C148.298 165.911 148.638 165.491 148.638 164.841C148.638 164.043 148.148 163.071 147.55 162.792C147.524 162.78 147.501 162.766 147.475 162.753C147.504 162.734 147.532 162.729 147.561 162.7C146.919 162.402 146.234 161.244 145.629 161.129C145.589 161.122 145.465 161.156 145.318 161.208C145.048 161.205 144.8 161.252 144.498 161.386C144.294 161.498 144.086 161.606 143.876 161.713C143.479 161.833 143.145 161.891 143.064 161.772C143.036 161.728 143.027 161.689 143.007 161.647C143.01 161.52 143.038 161.366 143.116 161.151C143.349 161.169 143.496 160.939 143.565 160.68C143.847 160.539 144.193 160.424 144.547 160.326C144.818 160.385 145.077 160.46 145.209 160.465C145.534 160.48 146.084 160.263 146.257 159.872C146.268 159.845 146.263 159.823 146.274 159.796C146.277 159.791 146.286 159.786 146.289 159.784C146.3 159.76 146.289 159.728 146.297 159.703C146.433 159.303 146.435 158.951 146.257 158.524C146.225 158.441 146.159 158.377 146.093 158.319C145.992 158.05 145.914 157.838 145.935 157.757C146.027 157.642 146.153 157.523 146.222 157.352C146.271 157.232 146.326 157.09 146.384 156.942C146.568 156.551 146.697 156.121 146.689 155.657C146.68 155.664 146.669 155.679 146.663 155.686C146.654 154.868 146.761 154.202 147.558 154.346C148.456 154.512 149.507 154.331 149.709 152.976C149.717 152.927 149.746 152.902 149.755 152.851C149.689 153.352 149.729 153.044 149.755 152.851C149.781 152.658 149.769 152.729 149.755 152.846C149.743 152.783 149.735 152.719 149.723 152.656C149.717 152.355 149.66 152.058 149.571 151.769C149.547 151.635 149.524 151.501 149.501 151.364C149.481 151.374 149.467 151.381 149.45 151.388C149.401 151.249 149.352 151.115 149.309 150.983C149.205 150.663 149.15 150.309 149.124 149.97C149.119 149.762 149.127 149.559 149.156 149.357C149.156 149.335 149.156 149.32 149.159 149.301C150.195 148.717 151.073 147.747 150.814 146.114C150.719 145.506 150.569 144.719 150.282 144.15C150.305 144.155 150.336 144.148 150.359 144.155C150.074 143.484 149.637 143.23 149.047 143.389C148.98 143.411 148.946 143.42 148.911 143.433C148.952 143.42 148.998 143.406 149.047 143.389C148.767 143.479 148.595 143.286 148.413 143.066C148.341 142.871 148.264 142.673 148.039 142.629C148.002 142.622 147.97 142.632 147.932 142.627C147.806 142.556 147.67 142.502 147.489 142.529C147.406 141.896 147.195 141.347 146.853 140.876C146.887 140.822 146.913 140.759 146.951 140.705C147.054 140.551 147.201 140.324 147.308 140.08C147.316 140.058 147.334 140.043 147.342 140.019C147.348 140.004 147.342 139.987 147.348 139.972C147.472 139.643 147.501 139.306 147.21 139.125C145.27 137.914 145.848 137.889 146.876 137.782C147.535 138.299 148.039 137.98 148.474 137.401C148.995 137.13 149.355 136.656 149.219 135.767C149.058 134.717 149.119 133.635 149.055 132.588C149.133 132.375 149.222 132.151 149.176 131.933C149.133 131.735 149.029 131.616 148.917 131.506C148.796 130.886 148.592 130.282 148.203 129.723C147.82 129.435 147.627 129.018 147.627 128.471C148.013 127.399 146.073 127.877 145.891 127.149C145.874 127.083 145.886 126.993 145.891 126.905C145.975 126.641 146.173 126.361 146.309 126.124C146.703 125.43 146.902 124.563 147 123.696C147.066 123.472 147.115 123.262 147.123 123.091C147.109 123.113 147.077 123.13 147.06 123.149C147.066 123.03 147.1 122.905 147.1 122.786C147.095 121.95 146.798 121.301 146.352 120.786C146.418 120.82 146.479 120.874 146.548 120.903C146.191 120.417 145.77 120.077 145.27 119.892C145.226 119.867 145.246 119.797 145.238 119.745C145.445 119.36 145.67 118.918 145.713 118.451C145.719 118.373 145.707 118.305 145.71 118.226C145.724 118.151 145.762 118.068 145.762 117.999C145.747 118.046 145.724 118.092 145.71 118.139C145.756 115.797 143.957 114.356 142.267 114.393C142.146 114.395 142.037 114.434 141.93 114.483C142.011 114.429 142.094 114.375 142.198 114.322C141.743 114.385 140.897 114.881 140.116 115.049C140.018 114.991 139.918 114.932 139.8 114.893C139.708 114.859 139.448 114.92 139.152 114.988C139.063 114.947 138.985 114.881 138.91 114.81C138.807 114.649 138.697 114.493 138.602 114.336C138.55 114.207 138.504 114.07 138.473 113.899C138.971 114.246 139.333 114.126 139.797 113.706C139.808 113.697 139.823 113.689 139.834 113.679C139.84 113.675 139.846 113.67 139.852 113.665C140.298 113.325 140.724 112.786 141.107 112.297C141.308 112.058 141.51 111.819 141.734 111.596C142.316 111.02 142.624 110.529 142.434 109.594C142.425 109.55 142.399 109.518 142.382 109.479C142.405 108.957 142.273 108.588 141.881 108.671C141.965 108.62 142.054 108.568 142.212 108.434C142.235 108.415 142.261 108.395 142.284 108.376C142.506 108.231 142.702 108.068 142.874 107.885C143.243 107.567 143.585 107.198 143.735 106.671C143.954 105.916 143.853 105.233 143.591 104.63C143.41 104.1 143.084 103.584 142.609 103.128C143.102 102.449 143.862 101.594 143.623 100.654C143.436 99.9214 142.848 99.0692 142.46 98.2487C142.368 97.9996 142.284 97.7212 142.209 97.4208C142.811 97.3769 143.488 97.2059 143.781 96.5271C143.914 96.2169 143.914 95.9727 143.873 95.7432C144.374 94.3928 144.331 92.532 143.784 91.4673C143.747 91.2988 143.712 91.1523 143.686 91.0302C143.629 90.764 143.433 90.5711 143.214 90.5711C143.004 90.5711 142.82 90.6028 142.644 90.6517C142.471 90.659 142.287 90.6956 142.086 90.7933C141.999 90.3171 142.137 88.5418 141.87 88.2317C141.487 87.7872 140.456 88.1828 139.857 87.8214C140.122 87.2793 140.689 86.9594 141.17 86.62C141.34 86.5711 141.51 86.5272 141.682 86.4905C142.379 86.5785 143.263 86.0632 143.502 85.2158C143.536 85.1084 143.545 84.9985 143.557 84.8886C143.559 84.83 143.568 84.7738 143.565 84.7152C143.559 84.2317 143.372 83.7531 143.064 83.3599C143.171 83.1133 143.352 82.0803 143.441 81.4674C143.493 81.2183 143.528 81.0205 143.528 80.9399C143.528 80.8935 143.493 80.8056 143.485 80.7495C143.467 80.4857 143.41 80.2342 143.289 80.034C142.955 79.1646 142.35 78.056 142.094 77.5822C141.363 76.2489 140.531 78.3417 139.872 79.0547C139.745 79.1622 139.615 79.2379 139.5 79.2672C139.42 79.2623 139.342 79.2257 139.273 79.1207C139.23 79.0547 139.207 78.9937 139.172 78.9326C139.169 78.8105 139.181 78.6591 139.215 78.4613C139.307 77.9583 139.23 77.2184 138.792 77.023C138.729 76.9937 138.665 76.9498 138.602 76.9107C138.504 76.7886 138.383 76.6616 138.219 76.5297C137.822 76.2098 137.56 76.0853 137.35 76.078C137.03 75.9827 136.711 76.0853 136.397 76.6543C136.342 76.752 136.282 77.0328 136.221 77.1988C136.213 77.2086 136.207 77.2184 136.198 77.2281C136.299 77.106 136.138 76.9107 135.887 76.6982C135.841 76.6201 135.792 76.542 135.741 76.4711C135.617 76.31 135.476 76.2685 135.332 76.2636C134.932 75.9705 134.546 75.6921 134.537 75.531C134.428 73.929 135.188 71.2502 133.653 70.2245C133.717 70.0854 133.754 69.9413 133.792 69.7997C133.8 69.7704 133.815 69.741 133.82 69.7117C133.866 69.5066 133.889 69.3039 133.889 69.1037C133.889 69.0671 133.878 69.0329 133.878 68.9962C133.869 68.8229 133.846 68.6568 133.806 68.4981C133.803 68.4859 133.797 68.4737 133.794 68.4614C133.579 67.6751 132.994 67.1037 132.197 67.2283C131.647 67.3137 131.707 66.9645 131.923 66.4712C132.079 66.2783 132.24 66.0878 132.349 65.873C132.51 65.5628 132.597 65.2209 132.608 64.862C132.652 64.6862 132.675 64.5177 132.643 64.376C132.145 61.9805 132.686 61.304 132.839 58.9524C132.962 57.0599 132.686 56.6496 132.248 56.7595C131.866 56.2345 131.391 56.7473 131.149 57.2455C131.068 57.414 130.973 57.5336 130.872 57.6337C130.749 57.7045 130.628 57.7607 130.513 57.7876C130.328 57.8267 130.184 57.8389 130.061 57.8413C129.934 57.8047 129.807 57.7461 129.681 57.663C129.646 57.6411 129.632 57.6142 129.606 57.5898C129.568 57.3578 129.747 57.0013 129.991 56.6228C130.038 56.5837 130.081 56.5519 130.104 56.53C130.455 56.215 130.809 55.8242 130.918 55.2748C130.918 55.2724 130.918 55.2699 130.918 55.2699C130.933 55.2406 130.947 55.2113 130.95 55.1893C131.206 53.8829 131.278 52.6033 130.953 51.6778C130.941 51.6045 130.947 51.5142 130.933 51.4433C130.818 50.8304 130.397 50.6009 129.908 50.4983C129.681 50.4031 129.424 50.3371 129.119 50.3225C129.531 49.8902 129.934 49.4995 130.086 48.6521C130.265 47.6778 129.891 46.8085 129.2 46.4226C129.177 46.4104 129.165 46.3958 129.142 46.3811C128.785 45.7902 128.529 45.1357 128.837 44.2395C128.846 44.2126 128.843 44.1931 128.851 44.1662C128.929 43.9196 128.998 43.6583 129.018 43.3702C129.018 43.3628 129.016 43.3604 129.018 43.3555C129.105 42.3812 128.736 41.5875 128.189 40.745C128.025 40.4911 127.899 40.3128 127.786 40.1663C127.757 40.1052 127.723 40.0637 127.694 39.9978C127.559 39.695 127.277 39.6462 127.052 39.7829C127.02 39.8024 126.946 39.8537 126.894 39.8904C126.782 39.9465 126.64 40.0222 126.482 40.1052C126.387 40.0295 126.258 39.9856 126.165 40.0344C126.16 40.0369 126.157 40.0418 126.151 40.0442C125.846 38.1785 125.964 35.2848 125.123 33.7781C125.054 33.656 124.821 33.3996 124.53 33.1359C124.47 33.0772 124.409 33.0284 124.346 32.9747C124.297 32.9332 124.251 32.8941 124.202 32.8526C124.168 32.8282 124.136 32.8037 124.101 32.7793C123.428 32.2714 122.682 31.9588 122.648 32.8624C122.639 32.9063 122.607 32.9356 122.607 32.9869C122.604 33.1578 122.57 33.2702 122.544 33.3972C122.227 34.2079 121.179 34.1859 120.929 33.2287C120.946 33.0968 120.989 32.982 121.024 32.8624C121.254 32.5791 121.372 32.3544 121.392 32.1078C121.407 32.0907 121.412 32.0712 121.424 32.0541C121.493 31.4069 121.185 29.2556 120.989 28.6524C120.989 28.7232 120.978 28.772 120.978 28.838C120.891 28.4985 120.719 28.2373 120.339 28.1371C120.298 26.8624 120.094 25.6659 119.15 24.9528C118.778 24.672 118.26 24.7355 117.854 24.7672C117.869 24.7672 117.906 24.8331 117.696 24.7867C117.532 24.7501 117.365 24.7233 117.195 24.6891C117.016 24.6573 116.884 24.6207 116.469 24.5548C116.009 24.4839 115.773 23.7831 115.448 23.385C114.84 22.6402 114.204 23.0822 113.786 23.81C113.599 24.1421 113.769 24.6183 113.893 24.9186C114.224 25.7611 113.476 25.3801 113.167 25.7733C112.871 26.1543 112.739 26.7428 112.597 27.2263C112.511 27.512 112.335 28.2421 112.102 28.1396C112.099 28.1347 112.099 28.1298 112.097 28.1249C112.068 28.0834 112.033 28.0761 112.002 28.0443C111.981 28.015 111.961 27.9979 111.941 27.9564C111.812 27.6902 111.587 27.4851 111.406 27.28C110.913 26.7305 110.507 26.7623 109.848 26.899C109.022 27.0651 108.164 27.302 107.387 27.766C107.156 27.9052 107.099 28.3227 107.22 28.5865C107.421 29.026 107.652 29.4485 107.833 29.9027C106.92 30.3691 105.363 30.9283 105.985 32.5205C106.146 32.9332 106.33 33.3532 106.411 33.7292C106.399 33.8636 106.431 34.0028 106.445 34.1395C106.437 34.2641 106.408 34.3837 106.345 34.4863C106.252 34.6059 106.091 34.7158 105.749 34.8013C105.078 34.9722 104.459 35.0553 104.134 35.4972C104.076 35.5363 104.018 35.5461 103.961 35.59C103.733 35.7781 103.67 36.1175 103.791 36.4301C104.021 37.0235 103.788 37.5949 103.733 38.181C103.351 40.3079 103.163 39.1749 101.456 40.1272C100.716 40.5399 100.662 41.0332 100.866 41.5143C100.875 41.6144 100.852 41.6901 100.878 41.8024C100.918 41.9807 101.03 42.0881 101.16 42.1077C101.096 42.2762 101.039 42.4617 100.999 42.6815C100.699 42.4959 100.313 42.3592 99.9075 42.2933C99.9679 42.2737 100.031 42.2542 100.092 42.2346C99.1446 42.0735 98.8682 42.0881 99.1993 42.2615C98.2637 42.3201 97.4605 42.8305 97.734 44.1101C97.9038 44.9062 98.6379 45.651 98.1168 46.535C97.4806 46.8524 96.8789 47.9025 96.6112 48.8695C96.6026 48.8988 96.5939 48.9256 96.5853 48.955C96.5651 49.0307 96.5536 49.099 96.5392 49.1723C96.3838 49.8097 96.3838 50.4494 96.8185 51.0233C96.9855 51.2406 97.2071 51.3847 97.4317 51.5166C97.8635 51.9635 98.0535 52.2931 98.1917 52.7351C98.1859 52.8548 98.1802 52.9745 98.1888 53.1332C98.2176 53.5825 98.4968 54.193 98.5947 54.6936C98.5832 54.845 98.5659 55.0916 98.5487 55.3725C98.4018 55.7876 98.1917 56.3199 98.2435 56.7522C98.2781 57.033 98.3932 57.3627 98.5285 57.6655C98.5746 58.2418 98.6753 58.6423 98.8999 58.4958C98.8106 58.5519 98.7156 58.6008 98.6178 58.6496C98.3443 58.6862 97.9585 58.6887 97.7311 58.8791C97.518 59.0598 97.3741 59.2576 97.2676 59.4652C97.1208 59.6679 97.0459 59.9365 97.0833 60.3053C97.0891 60.5446 97.1236 60.7839 97.2043 61.0256C96.8127 61.0134 96.5219 61.0281 96.2744 61.0574C95.7245 61.0452 95.2121 61.1331 95.0221 61.7289C94.9271 62.0391 94.9415 62.3736 94.9587 62.7033C94.9702 62.9939 95.0134 63.2845 95.0393 63.5702C95.0451 63.663 95.048 63.7533 95.0509 63.8486C95.0509 63.851 95.0509 63.851 95.0509 63.8535C95.0163 63.8437 94.9616 63.8266 94.9213 63.8144C94.7572 63.5775 94.5615 63.409 94.2764 63.4578C93.7064 63.5506 92.9781 63.1868 92.3937 63.3528C91.72 63.431 91.2191 63.8486 91.1874 64.8913C91.15 65.0622 91.1471 65.2405 91.1558 65.4236C90.9859 64.9719 89.5091 65.1062 89.345 65.1623C89.368 65.1892 89.3853 65.1941 89.4055 65.2161C89.2327 65.2649 89.0657 65.3333 88.8901 65.4407C88.3806 65.7557 87.4305 66.2417 87.4363 67.1623C87.4363 67.2917 87.5515 68.4028 87.5716 68.3906C87.2204 68.5689 86.7828 68.5396 86.4949 68.9083C86.302 69.1501 86.1178 69.4382 86.0919 69.7875C86.0113 70.9596 85.6917 71.1525 84.9231 71.3625C84.3271 71.531 83.8234 71.7899 83.452 72.3686C83.4491 72.3515 83.4462 72.3344 83.4433 72.3173C83.4059 72.3808 83.3886 72.4419 83.3627 72.5054C83.3397 72.5469 83.3109 72.5737 83.2908 72.6177C83.1727 72.8643 83.19 73.2697 83.3771 73.4602C83.7082 73.8045 83.9644 73.9632 84.3905 74.0731C84.8453 74.1903 85.0094 74.4052 85.0238 74.6592C85.0094 74.879 84.9116 75.1305 84.7791 75.3893C84.6237 75.6482 84.4308 75.8973 84.2955 76.0877C84.1285 76.3246 84.0162 76.5908 83.9299 76.8692C83.927 76.8765 83.9183 76.8887 83.9183 76.896C83.9126 76.9131 83.9155 76.94 83.9097 76.9571C83.7255 77.6042 83.7111 78.3221 83.7946 79.0083C83.7974 79.023 83.8003 79.0401 83.8003 79.0547C83.8147 79.2061 83.8349 79.3478 83.8579 79.4967C83.9558 80.2049 84.1026 80.9766 84.4452 81.5016C84.6179 81.7629 84.9605 81.9875 85.234 81.9753C85.3319 81.9729 85.3808 81.9631 85.4441 81.9534C85.5593 81.9851 85.6399 81.99 85.6629 81.9509C85.6716 81.9973 85.5766 82.1536 85.4729 82.5761C85.28 83.3575 84.9403 84.3953 85.6744 84.9399C85.6802 84.9448 85.686 84.9423 85.6917 84.9472C85.7896 85.0351 85.9134 85.084 86.0631 85.0962C86.3884 85.167 86.6993 85.0547 86.9901 84.8422C88.9679 83.9973 88.0581 84.9936 87.9228 86.3709C87.8768 86.5663 87.8365 86.764 87.8192 86.9936C87.7818 87.4942 88.133 87.9142 88.3719 88.2195C88.4785 88.3513 88.6137 88.4221 88.7606 88.4661C89.1751 88.8373 89.607 89.0131 90.0532 89.04C90.0273 89.3183 90.0762 89.5943 90.1799 89.8458C89.7941 89.7726 89.4227 89.6529 89.0312 89.7091C88.4813 89.7872 88.0236 90.2683 87.6292 90.7249C87.5745 90.7884 87.5486 90.8666 87.4996 90.9349C87.5054 90.9008 87.4968 90.8812 87.5025 90.8446C87.4018 90.9887 87.324 91.1449 87.2665 91.3086C86.9613 91.9239 86.9268 92.5808 87.2089 93.0912C87.301 93.5943 87.4449 94.0802 87.5889 94.5027C87.6062 94.6223 87.609 94.7469 87.6493 94.8568C87.7415 95.1156 87.7731 95.3207 87.776 95.5014C87.6983 96.09 87.1657 96.3268 86.7281 96.6418C86.7022 96.654 86.6734 96.6687 86.6475 96.6809C86.1034 96.9642 86.0631 97.6748 86.2761 98.2755C86.3366 98.3708 86.3942 98.4684 86.4546 98.5661C86.4805 98.6076 86.4661 98.6516 86.4805 98.6931C86.492 99.1546 85.8472 99.1961 85.0181 99.0887C84.8885 99.0252 84.7619 98.9642 84.5805 98.9617C83.7773 98.9495 82.9971 98.5051 82.2054 98.5954C82.001 98.5759 81.8456 98.5783 81.7563 98.6174C81.7966 98.632 81.8513 98.6662 81.8974 98.6833C81.788 98.7175 81.6815 98.7151 81.5721 98.7786C80.8437 99.1937 80.3371 100.119 80.3975 101.196C80.4205 101.628 80.458 102.017 80.599 102.415C80.694 102.695 81.4944 102.835 81.0021 103.294C80.4781 103.787 79.8074 103.206 79.3122 103.665C78.7796 104.158 78.4485 104.754 77.9735 105.316C77.536 105.831 77.3373 106.334 77.3776 106.893C76.4218 106.566 75.3308 106.483 74.5707 107.374C73.3213 108.839 73.2609 110.39 73.33 112.439C73.3357 112.669 73.4768 112.866 73.6639 112.866C73.733 113.223 73.7359 113.616 73.5315 114.231C73.4422 114.488 73.3645 114.712 73.3587 114.808C73.3558 114.857 73.3703 114.908 73.3731 114.959C73.3012 115.489 73.4365 115.789 73.7013 115.929C73.8395 116.121 73.9978 116.283 74.1936 116.334C74.8327 116.505 75.3048 116.322 75.8893 115.987C76.7385 115.506 76.465 117.02 76.2088 117.535C75.9814 117.994 75.9382 118.485 75.9756 119.008C76.1023 120.747 77.4122 120.075 78.1779 120.458C78.0944 120.707 78.0858 121.015 78.1203 121.345C77.6684 121.506 77.1559 121.67 76.9227 122.031C76.9112 122.046 76.8853 122.055 76.8767 122.07C76.3614 122.893 77.6252 123.894 77.1962 124.485C77.0984 124.62 77.0465 124.815 77.0926 124.998C77.0782 124.952 75.8403 124.378 75.5121 124.397C74.8241 124.429 74.1044 124.837 73.8309 125.706C73.6322 126.346 73.9 127.147 73.6495 127.735C73.4681 128.173 73.3789 128.622 73.376 129.113C73.376 129.633 73.6322 129.914 73.9547 130.065C74.1216 130.292 74.3145 130.519 74.5103 130.734C74.5995 131.03 74.7435 131.291 75.017 131.484C76.0246 132.199 77.0149 130.788 77.654 131.945C77.7288 132.143 77.7922 132.346 77.8641 132.5C77.8929 132.602 77.9303 132.666 77.9563 132.788C77.9649 132.825 78.0254 132.822 78.0887 132.812C78.0513 132.837 78.0167 132.864 77.9793 132.893C77.8929 132.93 77.7835 132.978 77.6338 133.044C77.2855 133.196 77.1473 133.401 76.94 133.753C76.7702 134.036 76.799 134.336 76.894 134.622C76.6665 135.301 76.5917 136.011 76.7788 136.561C76.8047 136.812 76.8853 137.054 77.1329 137.249C77.2653 137.354 77.4121 137.425 77.5618 137.494C77.9476 137.831 78.0282 138.041 78.2988 138.705C78.3132 138.781 78.319 138.868 78.342 138.934C77.2826 139.342 78.0138 138.829 76.7068 138.737C76.7327 138.768 76.7558 138.82 76.7846 138.854C75.8979 138.707 74.7809 139.538 74.5218 140.663C74.3951 141.208 74.4153 141.665 74.5765 142.197C74.6513 142.446 74.7924 142.654 74.9133 142.868C74.8615 142.773 73.8078 142.795 73.6696 142.776C72.711 142.661 71.8272 143.459 71.6717 144.607C70.6814 144.839 69.5759 146.214 70.2985 147.437C70.3993 147.613 70.5432 147.723 70.6958 147.809C71.2514 148.106 71.3752 148.575 71.2716 149.081C71.0067 149.364 70.5979 150.082 70.3561 150.746C70.1287 151.108 69.9646 151.513 70.1747 151.957C70.2841 152.192 70.4568 152.338 70.6411 152.46C70.9405 152.78 71.3263 153.11 71.7092 153.41C72.0229 154.065 73.068 154.224 73.0507 154.773C73.0219 155.708 73.828 156.05 74.4009 156.104C74.8097 156.138 76.6435 154.942 76.8047 155.232C76.8076 155.239 76.8134 155.244 76.8162 155.249C76.7126 155.34 76.6118 155.44 76.5168 155.559C76.0965 155.95 75.7942 156.438 75.8835 157.357C75.9554 158.062 76.3297 158.37 76.7788 158.482C76.3556 158.631 75.9698 158.929 75.8029 159.423C75.7367 159.593 75.6992 159.786 75.6935 160.006C75.3279 159.972 75.04 160.131 74.7982 160.363C74.7377 160.412 74.683 160.468 74.6312 160.529C74.5765 160.6 74.5218 160.663 74.4757 160.746C73.9604 161.596 73.969 163.071 74.6456 164.118C74.5765 164.206 74.5304 164.314 74.4671 164.404C74.2569 164.695 74.0496 165.002 73.8884 165.33C73.8654 165.374 73.8338 165.405 73.8136 165.449C73.7992 165.484 73.7992 165.527 73.7906 165.564C73.7416 165.698 73.7186 165.84 73.7013 165.987C73.7013 165.989 73.7013 165.989 73.7013 165.991C73.6869 166.114 73.6581 166.231 73.6754 166.358C73.7186 166.695 73.805 167.176 74.0727 167.349C74.1331 167.388 74.1878 167.418 74.2397 167.442C74.231 167.452 74.231 167.459 74.2224 167.469C73.4422 168.165 72.3684 167.032 71.4904 167.989C70.3647 169.227 68.8389 167.891 68.0501 170.05C67.7853 170.78 67.7306 171.635 67.7248 172.431C67.7191 173.244 68.505 174.712 68.171 175.491C67.7018 175.544 67.2383 175.881 66.8525 176.377C66.7086 176.477 66.5733 176.604 66.4581 176.802C66.2451 177.176 66.153 177.579 66.0954 178.006C66.0695 178.14 66.0551 178.267 66.0464 178.399C66.0321 178.546 66.0205 178.695 66.0061 178.846C65.963 179.332 66.1501 179.762 66.484 180.011C66.723 180.189 66.9015 180.231 66.9878 180.304C66.9994 180.404 66.9792 180.558 66.9533 180.729C66.9303 180.78 66.9303 180.804 66.8957 180.873C66.4006 181.906 66.2797 183.178 66.8957 184.148C67.5463 185.173 69.717 185.281 70.6353 184.255C70.8426 184.135 71.0816 184.06 71.3551 184.04C71.5566 184.082 71.761 184.089 71.9625 184.077C72.1467 184.128 72.2648 184.201 72.3483 184.292C72.3943 184.568 72.4087 184.836 72.3655 185.112C72.0863 185.825 71.4213 186.734 71.7178 187.425C71.7869 187.874 72.1669 188.035 72.5411 188.03C72.5843 188.856 72.2792 189.737 72.8665 190.357C73.1543 190.66 73.5228 190.614 73.8798 190.462C74.09 190.467 74.398 190.509 74.7348 190.58C75.1004 191.066 75.5092 191.266 75.9929 191.005C76.203 191.129 76.3096 191.266 76.2232 191.408C76.2318 191.405 76.2376 191.403 76.2433 191.398C75.8921 191.967 75.538 192.536 75.0083 192.807C74.5621 193.034 74.0928 193.149 73.6581 193.415C72.8002 193.94 72.9298 195.476 73.1802 196.396C73.2609 196.697 73.4134 196.914 73.5833 197.114C73.8913 197.708 74.3145 198.333 74.7723 198.804C74.9104 199.041 75.0544 199.268 75.2329 199.473C75.7827 200.108 76.3038 199.678 76.6464 199.075C76.8335 199.175 77.0494 199.295 77.2596 199.425C77.5878 199.752 77.8152 200.138 78.0196 200.494C77.9735 200.99 78.0829 201.2 78.3708 201.559C78.9264 202.257 80.1096 201.356 80.743 200.992C81.0884 200.846 81.4483 200.733 81.8168 200.636C82.4214 200.528 82.9741 200.465 83.5067 199.722C83.7399 199.403 84.1026 198.826 84.1055 198.352C84.1055 198.318 84.1285 198.306 84.1314 198.277C84.2091 198.094 84.3012 197.928 84.425 197.805C84.4567 197.788 84.4855 197.771 84.52 197.757C84.569 197.72 84.6438 197.713 84.7043 197.688C85.0037 197.639 85.3635 197.683 85.6658 197.725C85.8385 198.321 86.2243 198.448 86.7511 198.773C86.9728 199.534 86.9383 200.506 87.2492 201.293C87.3154 201.696 87.4968 202.045 87.9833 202.225C88.0006 202.233 88.038 202.211 88.061 202.211C88.5245 202.372 88.9621 202.191 89.2989 202.492C89.3565 203.004 89.3824 203.591 89.5753 203.95C89.8805 204.526 89.8574 204.418 89.6876 205.195C89.5782 205.7 89.5206 206.279 89.6501 206.79C89.6588 206.826 89.6703 206.86 89.6818 206.897C89.702 206.965 89.7164 207.039 89.7451 207.105C89.9438 207.539 90.2 207.583 90.5512 207.63C90.5944 207.637 90.6491 207.615 90.698 207.61C91.1443 207.664 91.4955 207.529 91.9705 207.832C92.0828 207.967 92.1893 208.103 92.2843 208.199C92.4455 208.36 92.6413 208.428 92.8428 208.465C93.2804 208.687 93.8475 208.846 94.4319 208.919C94.4895 209.014 94.5672 209.107 94.7025 209.178C95.8541 209.793 97.6562 208.225 97.7858 206.626C97.8836 206.384 98.0046 206.159 98.1831 205.964C98.6811 205.652 99.1532 205.319 99.4584 204.653C99.6973 204.128 99.5764 203.718 99.3634 203.337C99.2885 203.139 99.1878 202.934 99.0525 202.721C99.5505 202.714 100.04 202.67 100.526 202.462C100.745 202.372 100.889 202.333 101.001 202.326C101.148 202.399 101.238 202.56 101.261 202.829C101.258 202.936 101.255 203.031 101.243 203.178C101.177 203.918 101.623 204.15 102.09 204.343C102.444 204.667 102.832 204.951 103.14 205.127C103.397 205.439 103.601 205.422 103.84 205.329C104.194 205.329 104.626 205.232 105.087 205.056C105.127 205.046 105.161 205.026 105.199 205.014C105.826 204.758 106.494 204.36 107.076 203.869C107.689 203.566 108.21 202.88 108.458 202.089C108.714 201.471 108.751 200.809 108.472 200.15C108.797 200.103 109.192 200.934 109.448 201.298C109.678 201.62 110.081 201.747 110.49 201.801C110.804 201.993 110.942 202.269 111.046 202.565C111.115 202.875 111.218 203.144 111.365 203.363C111.391 206.914 111.279 210.455 111.187 214.006C111.132 216.225 111.141 218.452 111.147 220.672C111.149 222.965 111.267 225.087 110.752 227.312C110.317 229.187 110.343 230.97 110.433 232.911C110.536 235.202 110.43 237.492 110.502 239.766C110.202 240.735 109.75 241.61 109.304 242.604C108.556 244.281 108.011 245.356 106.621 246.274C105.567 246.97 104.335 247.549 103.178 248.017C103.14 248.003 103.097 247.998 103.054 248.008C102.873 248.052 102.801 248.088 102.637 248.188C102.3 248.393 102.426 249.006 102.732 249.131C103.995 249.654 105.792 249.353 107.269 248.877C107.133 249.224 107.269 249.624 107.562 249.744C108.63 250.174 110.018 249.868 111.135 249.89C112.148 249.912 113.222 249.578 114.198 249.116C114.192 249.141 114.187 249.16 114.181 249.187C114.161 249.295 114.166 249.407 114.195 249.509C114.192 249.566 114.189 249.622 114.189 249.678C114.207 250.008 114.512 250.1 114.653 249.881C115.243 249.959 115.868 249.509 116.369 249.187C116.683 248.98 117.005 248.794 117.325 248.601C118.657 249.375 120.396 249.546 121.686 249.485C122 249.47 122.337 249.053 122.198 248.628C122.132 248.413 122.04 248.223 121.939 248.042C122.838 248.362 123.747 248.591 124.68 248.787C125.236 248.901 125.498 248.215 125.267 247.749C125.264 247.737 125.259 247.727 125.253 247.717C125.247 247.707 125.241 247.697 125.236 247.69C125.221 247.666 125.204 247.644 125.19 247.619C125.132 247.549 125.063 247.483 124.971 247.439C123.618 246.716 122.314 245.551 121.073 244.557C119.8 243.539 118.778 242.247 117.742 240.909C117.733 240.091 117.733 239.27 117.664 238.455C117.494 236.408 117.152 234.42 117.149 232.35C117.146 229.109 117.848 225.473 117.42 222.218C117.883 218.418 117.506 214.357 117.598 210.526C117.653 208.201 117.705 205.879 117.739 203.556C117.759 203.556 117.777 203.566 117.8 203.564C117.823 203.62 117.843 203.676 117.874 203.742C117.975 203.959 118.203 204.098 118.395 204.013C118.617 203.915 118.954 203.644 119.271 203.495C119.628 203.527 119.913 203.617 120.048 203.827C120.074 203.92 120.1 204.008 120.108 204.14C120.123 204.326 120.08 204.506 120.013 204.687C119.858 205.053 119.613 205.39 119.544 205.774C119.538 205.796 119.541 205.818 119.535 205.837C119.527 205.913 119.527 205.993 119.535 206.074C119.533 206.167 119.507 206.26 119.535 206.355C119.717 206.953 120.005 207.134 120.46 207.371C121.145 207.727 122.184 206.599 122.624 207.415C122.76 207.664 122.947 207.754 123.18 207.703C123.546 207.62 123.854 207.485 124.173 207.354C124.499 208.951 125.541 208.787 126.612 208.12C126.813 208.054 127.035 208.008 127.277 207.986C127.994 208.599 128.823 208.286 129.373 207.52C129.83 207.178 130.107 206.533 129.991 205.278C130.484 204.948 130.933 204.792 131.465 205.192C131.759 205.412 132.272 205.219 132.482 204.909C132.603 204.731 132.695 204.538 132.79 204.345C133.086 203.993 133.236 203.363 133.092 202.084C133.057 201.779 133.345 201.622 133.745 201.527C134.105 201.539 134.5 201.661 134.655 201.688C134.885 201.725 135.035 201.588 135.11 201.393C135.484 201.615 135.89 201.551 136.267 201.249C136.417 201.754 136.334 202.059 136.391 202.704C136.408 202.887 136.411 203.036 136.538 203.151C137.065 203.62 137.713 203.539 138.213 203.092C138.795 202.567 138.999 201.461 139.126 200.636C139.328 199.337 140.439 201.615 140.871 201.852C141.328 202.106 140.819 202.797 141.199 203.227C141.723 203.82 142.316 203.781 142.969 203.588C143.784 203.351 144.581 202.711 145.16 201.962C145.318 201.754 145.5 201.425 145.503 201.122C145.511 200.301 145.736 199.74 146.168 199.254C146.672 199.774 147.371 199.886 147.901 199.139C147.941 199.08 147.961 199.017 147.999 198.958C148.013 198.939 148.019 198.914 148.033 198.895C148.22 198.589 148.335 198.255 148.387 197.891C148.393 197.84 148.402 197.791 148.407 197.737C148.416 197.617 148.459 197.522 148.451 197.39C148.439 197.234 148.384 197.09 148.318 196.953C148.278 196.812 148.246 196.67 148.174 196.538C148.163 196.567 148.148 196.585 148.137 196.611C147.958 196.284 147.835 195.962 148.215 195.537C148.35 195.385 148.479 195.256 148.612 195.117C148.92 194.848 149.303 194.538 149.617 194.228C149.694 194.174 149.758 194.106 149.838 194.055C150.221 193.823 150.184 193.185 150.141 192.76C150.011 191.388 149.444 190.494 148.502 190.15C148.551 189.298 148.534 188.443 148.669 187.598C148.805 186.653 149.496 186.245 150.028 185.696Z" fill="black"/>
<path d="M215.028 205.696C215.826 204.873 215.345 203.703 214.832 202.917C214.625 202.602 214.51 202.126 214.381 201.657C214.401 201.657 214.418 201.657 214.438 201.659C214.139 200.555 213.759 200.035 212.835 199.906C212.849 199.928 212.875 199.991 212.895 200.028C212.8 200.011 212.708 199.969 212.61 199.962C212.814 199.747 212.947 199.41 213.016 198.936C213.036 198.895 213.042 198.836 213.065 198.797C213.402 198.594 213.646 198.328 213.848 198.033C213.854 198.03 213.857 198.023 213.862 198.021C213.859 198.021 213.859 198.021 213.857 198.021C214.3 197.361 214.461 196.497 214.409 195.405C214.383 194.853 214.038 194.36 213.609 194.248C212.722 194.018 214.792 192.966 215.031 192.648C215.8 191.637 216.482 189.713 215.546 188.592C215.302 188.294 214.919 188.15 214.614 187.982C214.608 187.979 214.611 187.454 214.576 187.215C214.588 187.042 214.53 186.853 214.346 186.651C214.334 186.687 214.32 186.724 214.309 186.761C213.937 186.36 213.494 186.436 213.019 186.382C213.298 185.911 213.638 185.491 213.638 184.841C213.638 184.043 213.148 183.071 212.55 182.792C212.524 182.78 212.501 182.766 212.475 182.753C212.504 182.734 212.532 182.729 212.561 182.7C211.919 182.402 211.234 181.244 210.629 181.129C210.589 181.122 210.465 181.156 210.318 181.208C210.048 181.205 209.8 181.252 209.498 181.386C209.294 181.498 209.086 181.606 208.876 181.713C208.479 181.833 208.145 181.891 208.064 181.772C208.036 181.728 208.027 181.689 208.007 181.647C208.01 181.52 208.038 181.366 208.116 181.151C208.349 181.169 208.496 180.939 208.565 180.68C208.847 180.539 209.193 180.424 209.547 180.326C209.818 180.385 210.077 180.46 210.209 180.465C210.534 180.48 211.084 180.263 211.257 179.872C211.268 179.845 211.263 179.823 211.274 179.796C211.277 179.791 211.286 179.786 211.289 179.784C211.3 179.76 211.289 179.728 211.297 179.703C211.433 179.303 211.435 178.951 211.257 178.524C211.225 178.441 211.159 178.377 211.093 178.319C210.992 178.05 210.914 177.838 210.935 177.757C211.027 177.642 211.153 177.523 211.222 177.352C211.271 177.232 211.326 177.09 211.384 176.942C211.568 176.551 211.697 176.121 211.689 175.657C211.68 175.664 211.669 175.679 211.663 175.686C211.654 174.868 211.761 174.202 212.558 174.346C213.456 174.512 214.507 174.331 214.709 172.976C214.717 172.927 214.746 172.902 214.755 172.851C214.689 173.352 214.729 173.044 214.755 172.851C214.781 172.658 214.769 172.729 214.755 172.846C214.743 172.783 214.735 172.719 214.723 172.656C214.717 172.355 214.66 172.058 214.571 171.769C214.547 171.635 214.524 171.501 214.501 171.364C214.481 171.374 214.467 171.381 214.45 171.388C214.401 171.249 214.352 171.115 214.309 170.983C214.205 170.663 214.15 170.309 214.124 169.97C214.119 169.762 214.127 169.559 214.156 169.357C214.156 169.335 214.156 169.32 214.159 169.301C215.195 168.717 216.073 167.747 215.814 166.114C215.719 165.506 215.569 164.719 215.282 164.15C215.305 164.155 215.336 164.148 215.359 164.155C215.074 163.484 214.637 163.23 214.047 163.389C213.98 163.411 213.946 163.42 213.911 163.433C213.952 163.42 213.998 163.406 214.047 163.389C213.767 163.479 213.595 163.286 213.413 163.066C213.341 162.871 213.264 162.673 213.039 162.629C213.002 162.622 212.97 162.632 212.932 162.627C212.806 162.556 212.67 162.502 212.489 162.529C212.406 161.896 212.195 161.347 211.853 160.876C211.887 160.822 211.913 160.759 211.951 160.705C212.054 160.551 212.201 160.324 212.308 160.08C212.316 160.058 212.334 160.043 212.342 160.019C212.348 160.004 212.342 159.987 212.348 159.972C212.472 159.643 212.501 159.306 212.21 159.125C210.27 157.914 210.848 157.889 211.876 157.782C212.535 158.299 213.039 157.98 213.474 157.401C213.995 157.13 214.355 156.656 214.219 155.767C214.058 154.717 214.119 153.635 214.055 152.588C214.133 152.375 214.222 152.151 214.176 151.933C214.133 151.735 214.029 151.616 213.917 151.506C213.796 150.886 213.592 150.282 213.203 149.723C212.82 149.435 212.627 149.018 212.627 148.471C213.013 147.399 211.073 147.877 210.891 147.149C210.874 147.083 210.886 146.993 210.891 146.905C210.975 146.641 211.173 146.361 211.309 146.124C211.703 145.43 211.902 144.563 212 143.696C212.066 143.472 212.115 143.262 212.123 143.091C212.109 143.113 212.077 143.13 212.06 143.149C212.066 143.03 212.1 142.905 212.1 142.786C212.095 141.95 211.798 141.301 211.352 140.786C211.418 140.82 211.479 140.874 211.548 140.903C211.191 140.417 210.77 140.077 210.27 139.892C210.226 139.867 210.246 139.797 210.238 139.745C210.445 139.36 210.67 138.918 210.713 138.451C210.719 138.373 210.707 138.305 210.71 138.226C210.724 138.151 210.762 138.068 210.762 137.999C210.747 138.046 210.724 138.092 210.71 138.139C210.756 135.797 208.957 134.356 207.267 134.393C207.146 134.395 207.037 134.434 206.93 134.483C207.011 134.429 207.094 134.375 207.198 134.322C206.743 134.385 205.897 134.881 205.116 135.049C205.018 134.991 204.918 134.932 204.8 134.893C204.708 134.859 204.448 134.92 204.152 134.988C204.063 134.947 203.985 134.881 203.91 134.81C203.807 134.649 203.697 134.493 203.602 134.336C203.55 134.207 203.504 134.07 203.473 133.899C203.971 134.246 204.333 134.126 204.797 133.706C204.808 133.697 204.823 133.689 204.834 133.679C204.84 133.675 204.846 133.67 204.852 133.665C205.298 133.325 205.724 132.786 206.107 132.297C206.308 132.058 206.51 131.819 206.734 131.596C207.316 131.02 207.624 130.529 207.434 129.594C207.425 129.55 207.399 129.518 207.382 129.479C207.405 128.957 207.273 128.588 206.881 128.671C206.965 128.62 207.054 128.568 207.212 128.434C207.235 128.415 207.261 128.395 207.284 128.376C207.506 128.231 207.702 128.068 207.874 127.885C208.243 127.567 208.585 127.198 208.735 126.671C208.954 125.916 208.853 125.233 208.591 124.63C208.41 124.1 208.084 123.584 207.609 123.128C208.102 122.449 208.862 121.594 208.623 120.654C208.436 119.921 207.848 119.069 207.46 118.249C207.368 118 207.284 117.721 207.209 117.421C207.811 117.377 208.488 117.206 208.781 116.527C208.914 116.217 208.914 115.973 208.873 115.743C209.374 114.393 209.331 112.532 208.784 111.467C208.747 111.299 208.712 111.152 208.686 111.03C208.629 110.764 208.433 110.571 208.214 110.571C208.004 110.571 207.82 110.603 207.644 110.652C207.471 110.659 207.287 110.696 207.086 110.793C206.999 110.317 207.137 108.542 206.87 108.232C206.487 107.787 205.456 108.183 204.857 107.821C205.122 107.279 205.689 106.959 206.17 106.62C206.34 106.571 206.51 106.527 206.682 106.491C207.379 106.578 208.263 106.063 208.502 105.216C208.536 105.108 208.545 104.999 208.557 104.889C208.559 104.83 208.568 104.774 208.565 104.715C208.559 104.232 208.372 103.753 208.064 103.36C208.171 103.113 208.352 102.08 208.441 101.467C208.493 101.218 208.528 101.021 208.528 100.94C208.528 100.894 208.493 100.806 208.485 100.749C208.467 100.486 208.41 100.234 208.289 100.034C207.955 99.1646 207.35 98.056 207.094 97.5822C206.363 96.2489 205.531 98.3417 204.872 99.0547C204.745 99.1622 204.615 99.2379 204.5 99.2672C204.42 99.2623 204.342 99.2257 204.273 99.1207C204.23 99.0547 204.207 98.9937 204.172 98.9326C204.169 98.8105 204.181 98.6591 204.215 98.4613C204.307 97.9583 204.23 97.2184 203.792 97.023C203.729 96.9937 203.665 96.9498 203.602 96.9107C203.504 96.7886 203.383 96.6616 203.219 96.5297C202.822 96.2098 202.56 96.0853 202.35 96.078C202.03 95.9827 201.711 96.0853 201.397 96.6543C201.342 96.752 201.282 97.0328 201.221 97.1988C201.213 97.2086 201.207 97.2184 201.198 97.2281C201.299 97.106 201.138 96.9107 200.887 96.6982C200.841 96.6201 200.792 96.542 200.741 96.4711C200.617 96.31 200.476 96.2685 200.332 96.2636C199.932 95.9705 199.546 95.6921 199.537 95.531C199.428 93.929 200.188 91.2502 198.653 90.2245C198.717 90.0854 198.754 89.9413 198.792 89.7997C198.8 89.7704 198.815 89.741 198.82 89.7117C198.866 89.5066 198.889 89.3039 198.889 89.1037C198.889 89.0671 198.878 89.0329 198.878 88.9962C198.869 88.8229 198.846 88.6568 198.806 88.4981C198.803 88.4859 198.797 88.4737 198.794 88.4614C198.579 87.6751 197.994 87.1037 197.197 87.2283C196.647 87.3137 196.707 86.9645 196.923 86.4712C197.079 86.2783 197.24 86.0878 197.349 85.873C197.51 85.5628 197.597 85.2209 197.608 84.862C197.652 84.6862 197.675 84.5177 197.643 84.376C197.145 81.9805 197.686 81.304 197.839 78.9524C197.962 77.0599 197.686 76.6496 197.248 76.7595C196.866 76.2345 196.391 76.7473 196.149 77.2455C196.068 77.414 195.973 77.5336 195.872 77.6337C195.749 77.7045 195.628 77.7607 195.513 77.7876C195.328 77.8267 195.184 77.8389 195.061 77.8413C194.934 77.8047 194.807 77.7461 194.681 77.663C194.646 77.6411 194.632 77.6142 194.606 77.5898C194.568 77.3578 194.747 77.0013 194.991 76.6228C195.038 76.5837 195.081 76.5519 195.104 76.53C195.455 76.215 195.809 75.8242 195.918 75.2748C195.918 75.2724 195.918 75.2699 195.918 75.2699C195.933 75.2406 195.947 75.2113 195.95 75.1893C196.206 73.8829 196.278 72.6033 195.953 71.6778C195.941 71.6045 195.947 71.5142 195.933 71.4433C195.818 70.8304 195.397 70.6009 194.908 70.4983C194.681 70.4031 194.424 70.3371 194.119 70.3225C194.531 69.8902 194.934 69.4995 195.086 68.6521C195.265 67.6778 194.891 66.8085 194.2 66.4226C194.177 66.4104 194.165 66.3958 194.142 66.3811C193.785 65.7902 193.529 65.1357 193.837 64.2395C193.846 64.2126 193.843 64.1931 193.851 64.1662C193.929 63.9196 193.998 63.6583 194.018 63.3702C194.018 63.3628 194.016 63.3604 194.018 63.3555C194.105 62.3812 193.736 61.5875 193.189 60.745C193.025 60.4911 192.899 60.3128 192.786 60.1663C192.757 60.1052 192.723 60.0637 192.694 59.9978C192.559 59.695 192.277 59.6462 192.052 59.7829C192.02 59.8024 191.946 59.8537 191.894 59.8904C191.782 59.9465 191.64 60.0222 191.482 60.1052C191.387 60.0295 191.258 59.9856 191.165 60.0344C191.16 60.0369 191.157 60.0418 191.151 60.0442C190.846 58.1785 190.964 55.2848 190.123 53.7781C190.054 53.656 189.821 53.3996 189.53 53.1359C189.47 53.0772 189.409 53.0284 189.346 52.9747C189.297 52.9332 189.251 52.8941 189.202 52.8526C189.168 52.8282 189.136 52.8037 189.101 52.7793C188.428 52.2714 187.682 51.9588 187.648 52.8624C187.639 52.9063 187.607 52.9356 187.607 52.9869C187.604 53.1578 187.57 53.2702 187.544 53.3972C187.227 54.2079 186.179 54.1859 185.929 53.2287C185.946 53.0968 185.989 52.982 186.024 52.8624C186.254 52.5791 186.372 52.3544 186.392 52.1078C186.407 52.0907 186.412 52.0712 186.424 52.0541C186.493 51.4069 186.185 49.2556 185.989 48.6524C185.989 48.7232 185.978 48.772 185.978 48.838C185.891 48.4985 185.719 48.2373 185.339 48.1371C185.298 46.8624 185.094 45.6659 184.15 44.9528C183.778 44.672 183.26 44.7355 182.854 44.7672C182.869 44.7672 182.906 44.8331 182.696 44.7867C182.532 44.7501 182.365 44.7233 182.195 44.6891C182.016 44.6573 181.884 44.6207 181.469 44.5548C181.009 44.4839 180.773 43.7831 180.448 43.385C179.84 42.6402 179.204 43.0822 178.786 43.81C178.599 44.1421 178.769 44.6183 178.893 44.9186C179.224 45.7611 178.476 45.3801 178.167 45.7733C177.871 46.1543 177.739 46.7428 177.597 47.2263C177.511 47.512 177.335 48.2421 177.102 48.1396C177.099 48.1347 177.099 48.1298 177.097 48.1249C177.068 48.0834 177.033 48.0761 177.002 48.0443C176.981 48.015 176.961 47.9979 176.941 47.9564C176.812 47.6902 176.587 47.4851 176.406 47.28C175.913 46.7305 175.507 46.7623 174.848 46.899C174.022 47.0651 173.164 47.302 172.387 47.766C172.156 47.9052 172.099 48.3227 172.22 48.5865C172.421 49.026 172.652 49.4485 172.833 49.9027C171.92 50.3691 170.363 50.9283 170.985 52.5205C171.146 52.9332 171.33 53.3532 171.411 53.7292C171.399 53.8636 171.431 54.0028 171.445 54.1395C171.437 54.2641 171.408 54.3837 171.345 54.4863C171.252 54.6059 171.091 54.7158 170.749 54.8013C170.078 54.9722 169.459 55.0553 169.134 55.4972C169.076 55.5363 169.018 55.5461 168.961 55.59C168.733 55.7781 168.67 56.1175 168.791 56.4301C169.021 57.0235 168.788 57.5949 168.733 58.181C168.351 60.3079 168.163 59.1749 166.456 60.1272C165.716 60.5399 165.662 61.0332 165.866 61.5143C165.875 61.6144 165.852 61.6901 165.878 61.8024C165.918 61.9807 166.03 62.0881 166.16 62.1077C166.096 62.2762 166.039 62.4617 165.999 62.6815C165.699 62.4959 165.313 62.3592 164.907 62.2933C164.968 62.2737 165.031 62.2542 165.092 62.2346C164.145 62.0735 163.868 62.0881 164.199 62.2615C163.264 62.3201 162.46 62.8305 162.734 64.1101C162.904 64.9062 163.638 65.651 163.117 66.535C162.481 66.8524 161.879 67.9025 161.611 68.8695C161.603 68.8988 161.594 68.9256 161.585 68.955C161.565 69.0307 161.554 69.099 161.539 69.1723C161.384 69.8097 161.384 70.4494 161.818 71.0233C161.985 71.2406 162.207 71.3847 162.432 71.5166C162.863 71.9635 163.053 72.2931 163.192 72.7351C163.186 72.8548 163.18 72.9745 163.189 73.1332C163.218 73.5825 163.497 74.193 163.595 74.6936C163.583 74.845 163.566 75.0916 163.549 75.3725C163.402 75.7876 163.192 76.3199 163.244 76.7522C163.278 77.033 163.393 77.3627 163.529 77.6655C163.575 78.2418 163.675 78.6423 163.9 78.4958C163.811 78.5519 163.716 78.6008 163.618 78.6496C163.344 78.6862 162.959 78.6887 162.731 78.8791C162.518 79.0598 162.374 79.2576 162.268 79.4652C162.121 79.6679 162.046 79.9365 162.083 80.3053C162.089 80.5446 162.124 80.7839 162.204 81.0256C161.813 81.0134 161.522 81.0281 161.274 81.0574C160.725 81.0452 160.212 81.1331 160.022 81.7289C159.927 82.0391 159.941 82.3736 159.959 82.7033C159.97 82.9939 160.013 83.2845 160.039 83.5702C160.045 83.663 160.048 83.7533 160.051 83.8486C160.051 83.851 160.051 83.851 160.051 83.8535C160.016 83.8437 159.962 83.8266 159.921 83.8144C159.757 83.5775 159.561 83.409 159.276 83.4578C158.706 83.5506 157.978 83.1868 157.394 83.3528C156.72 83.431 156.219 83.8486 156.187 84.8913C156.15 85.0622 156.147 85.2405 156.156 85.4236C155.986 84.9719 154.509 85.1062 154.345 85.1623C154.368 85.1892 154.385 85.1941 154.405 85.2161C154.233 85.2649 154.066 85.3333 153.89 85.4407C153.381 85.7557 152.431 86.2417 152.436 87.1623C152.436 87.2917 152.551 88.4028 152.572 88.3906C152.22 88.5689 151.783 88.5396 151.495 88.9083C151.302 89.1501 151.118 89.4382 151.092 89.7875C151.011 90.9596 150.692 91.1525 149.923 91.3625C149.327 91.531 148.823 91.7899 148.452 92.3686C148.449 92.3515 148.446 92.3344 148.443 92.3173C148.406 92.3808 148.389 92.4419 148.363 92.5054C148.34 92.5469 148.311 92.5737 148.291 92.6177C148.173 92.8643 148.19 93.2697 148.377 93.4602C148.708 93.8045 148.964 93.9632 149.39 94.0731C149.845 94.1903 150.009 94.4052 150.024 94.6592C150.009 94.879 149.912 95.1305 149.779 95.3893C149.624 95.6482 149.431 95.8973 149.295 96.0877C149.129 96.3246 149.016 96.5908 148.93 96.8692C148.927 96.8765 148.918 96.8887 148.918 96.896C148.913 96.9131 148.915 96.94 148.91 96.9571C148.725 97.6042 148.711 98.3221 148.795 99.0083C148.797 99.023 148.8 99.0401 148.8 99.0547C148.815 99.2061 148.835 99.3478 148.858 99.4967C148.956 100.205 149.103 100.977 149.445 101.502C149.618 101.763 149.96 101.988 150.234 101.975C150.332 101.973 150.381 101.963 150.444 101.953C150.559 101.985 150.64 101.99 150.663 101.951C150.672 101.997 150.577 102.154 150.473 102.576C150.28 103.358 149.94 104.395 150.674 104.94C150.68 104.945 150.686 104.942 150.692 104.947C150.79 105.035 150.913 105.084 151.063 105.096C151.388 105.167 151.699 105.055 151.99 104.842C153.968 103.997 153.058 104.994 152.923 106.371C152.877 106.566 152.836 106.764 152.819 106.994C152.782 107.494 153.133 107.914 153.372 108.219C153.478 108.351 153.614 108.422 153.761 108.466C154.175 108.837 154.607 109.013 155.053 109.04C155.027 109.318 155.076 109.594 155.18 109.846C154.794 109.773 154.423 109.653 154.031 109.709C153.481 109.787 153.024 110.268 152.629 110.725C152.574 110.788 152.549 110.867 152.5 110.935C152.505 110.901 152.497 110.881 152.503 110.845C152.402 110.989 152.324 111.145 152.266 111.309C151.961 111.924 151.927 112.581 152.209 113.091C152.301 113.594 152.445 114.08 152.589 114.503C152.606 114.622 152.609 114.747 152.649 114.857C152.741 115.116 152.773 115.321 152.776 115.501C152.698 116.09 152.166 116.327 151.728 116.642C151.702 116.654 151.673 116.669 151.648 116.681C151.103 116.964 151.063 117.675 151.276 118.276C151.337 118.371 151.394 118.468 151.455 118.566C151.481 118.608 151.466 118.652 151.481 118.693C151.492 119.155 150.847 119.196 150.018 119.089C149.889 119.025 149.762 118.964 149.58 118.962C148.777 118.95 147.997 118.505 147.205 118.595C147.001 118.576 146.846 118.578 146.756 118.617C146.797 118.632 146.851 118.666 146.897 118.683C146.788 118.718 146.681 118.715 146.572 118.779C145.844 119.194 145.337 120.119 145.398 121.196C145.421 121.628 145.458 122.017 145.599 122.415C145.694 122.695 146.494 122.835 146.002 123.294C145.478 123.787 144.807 123.206 144.312 123.665C143.78 124.158 143.449 124.754 142.974 125.316C142.536 125.831 142.337 126.334 142.378 126.893C141.422 126.566 140.331 126.483 139.571 127.374C138.321 128.839 138.261 130.39 138.33 132.439C138.336 132.669 138.477 132.866 138.664 132.866C138.733 133.223 138.736 133.616 138.531 134.231C138.442 134.488 138.364 134.712 138.359 134.808C138.356 134.857 138.37 134.908 138.373 134.959C138.301 135.489 138.436 135.789 138.701 135.929C138.84 136.121 138.998 136.283 139.194 136.334C139.833 136.505 140.305 136.322 140.889 135.987C141.739 135.506 141.465 137.02 141.209 137.535C140.981 137.994 140.938 138.485 140.976 139.008C141.102 140.747 142.412 140.075 143.178 140.458C143.094 140.707 143.086 141.015 143.12 141.345C142.668 141.506 142.156 141.67 141.923 142.031C141.911 142.046 141.885 142.055 141.877 142.07C141.361 142.893 142.625 143.894 142.196 144.485C142.098 144.62 142.047 144.815 142.093 144.998C142.078 144.952 140.84 144.378 140.512 144.397C139.824 144.429 139.104 144.837 138.831 145.706C138.632 146.346 138.9 147.147 138.65 147.735C138.468 148.173 138.379 148.622 138.376 149.113C138.376 149.633 138.632 149.914 138.955 150.065C139.122 150.292 139.315 150.519 139.51 150.734C139.6 151.03 139.743 151.291 140.017 151.484C141.025 152.199 142.015 150.788 142.654 151.945C142.729 152.143 142.792 152.346 142.864 152.5C142.893 152.602 142.93 152.666 142.956 152.788C142.965 152.825 143.025 152.822 143.089 152.812C143.051 152.837 143.017 152.864 142.979 152.893C142.893 152.93 142.784 152.978 142.634 153.044C142.285 153.196 142.147 153.401 141.94 153.753C141.77 154.036 141.799 154.336 141.894 154.622C141.667 155.301 141.592 156.011 141.779 156.561C141.805 156.812 141.885 157.054 142.133 157.249C142.265 157.354 142.412 157.425 142.562 157.494C142.948 157.831 143.028 158.041 143.299 158.705C143.313 158.781 143.319 158.868 143.342 158.934C142.283 159.342 143.014 158.829 141.707 158.737C141.733 158.768 141.756 158.82 141.785 158.854C140.898 158.707 139.781 159.538 139.522 160.663C139.395 161.208 139.415 161.665 139.576 162.197C139.651 162.446 139.792 162.654 139.913 162.868C139.861 162.773 138.808 162.795 138.67 162.776C137.711 162.661 136.827 163.459 136.672 164.607C135.681 164.839 134.576 166.214 135.299 167.437C135.399 167.613 135.543 167.723 135.696 167.809C136.251 168.106 136.375 168.575 136.272 169.081C136.007 169.364 135.598 170.082 135.356 170.746C135.129 171.108 134.965 171.513 135.175 171.957C135.284 172.192 135.457 172.338 135.641 172.46C135.94 172.78 136.326 173.11 136.709 173.41C137.023 174.065 138.068 174.224 138.051 174.773C138.022 175.708 138.828 176.05 139.401 176.104C139.81 176.138 141.643 174.942 141.805 175.232C141.808 175.239 141.813 175.244 141.816 175.249C141.713 175.34 141.612 175.44 141.517 175.559C141.097 175.95 140.794 176.438 140.883 177.357C140.955 178.062 141.33 178.37 141.779 178.482C141.356 178.631 140.97 178.929 140.803 179.423C140.737 179.593 140.699 179.786 140.693 180.006C140.328 179.972 140.04 180.131 139.798 180.363C139.738 180.412 139.683 180.468 139.631 180.529C139.576 180.6 139.522 180.663 139.476 180.746C138.96 181.596 138.969 183.071 139.646 184.118C139.576 184.206 139.53 184.314 139.467 184.404C139.257 184.695 139.05 185.002 138.888 185.33C138.865 185.374 138.834 185.405 138.814 185.449C138.799 185.484 138.799 185.527 138.791 185.564C138.742 185.698 138.719 185.84 138.701 185.987C138.701 185.989 138.701 185.989 138.701 185.991C138.687 186.114 138.658 186.231 138.675 186.358C138.719 186.695 138.805 187.176 139.073 187.349C139.133 187.388 139.188 187.418 139.24 187.442C139.231 187.452 139.231 187.459 139.222 187.469C138.442 188.165 137.368 187.032 136.49 187.989C135.365 189.227 133.839 187.891 133.05 190.05C132.785 190.78 132.731 191.635 132.725 192.431C132.719 193.244 133.505 194.712 133.171 195.491C132.702 195.544 132.238 195.881 131.853 196.377C131.709 196.477 131.573 196.604 131.458 196.802C131.245 197.176 131.153 197.579 131.095 198.006C131.069 198.14 131.055 198.267 131.046 198.399C131.032 198.546 131.021 198.695 131.006 198.846C130.963 199.332 131.15 199.762 131.484 200.011C131.723 200.189 131.901 200.231 131.988 200.304C131.999 200.404 131.979 200.558 131.953 200.729C131.93 200.78 131.93 200.804 131.896 200.873C131.401 201.906 131.28 203.178 131.896 204.148C132.546 205.173 134.717 205.281 135.635 204.255C135.843 204.135 136.082 204.06 136.355 204.04C136.557 204.082 136.761 204.089 136.962 204.077C137.147 204.128 137.265 204.201 137.348 204.292C137.394 204.568 137.409 204.836 137.366 205.112C137.086 205.825 136.421 206.734 136.718 207.425C136.787 207.874 137.167 208.035 137.541 208.03C137.584 208.856 137.279 209.737 137.866 210.357C138.154 210.66 138.523 210.614 138.88 210.462C139.09 210.467 139.398 210.509 139.735 210.58C140.1 211.066 140.509 211.266 140.993 211.005C141.203 211.129 141.31 211.266 141.223 211.408C141.232 211.405 141.238 211.403 141.243 211.398C140.892 211.967 140.538 212.536 140.008 212.807C139.562 213.034 139.093 213.149 138.658 213.415C137.8 213.94 137.93 215.476 138.18 216.396C138.261 216.697 138.413 216.914 138.583 217.114C138.891 217.708 139.315 218.333 139.772 218.804C139.91 219.041 140.054 219.268 140.233 219.473C140.783 220.108 141.304 219.678 141.646 219.075C141.833 219.175 142.049 219.295 142.26 219.425C142.588 219.752 142.815 220.138 143.02 220.494C142.974 220.99 143.083 221.2 143.371 221.559C143.926 222.257 145.11 221.356 145.743 220.992C146.088 220.846 146.448 220.733 146.817 220.636C147.421 220.528 147.974 220.465 148.507 219.722C148.74 219.403 149.103 218.826 149.105 218.352C149.105 218.318 149.129 218.306 149.131 218.277C149.209 218.094 149.301 217.928 149.425 217.805C149.457 217.788 149.485 217.771 149.52 217.757C149.569 217.72 149.644 217.713 149.704 217.688C150.004 217.639 150.364 217.683 150.666 217.725C150.839 218.321 151.224 218.448 151.751 218.773C151.973 219.534 151.938 220.506 152.249 221.293C152.315 221.696 152.497 222.045 152.983 222.225C153.001 222.233 153.038 222.211 153.061 222.211C153.525 222.372 153.962 222.191 154.299 222.492C154.357 223.004 154.382 223.591 154.575 223.95C154.88 224.526 154.857 224.418 154.688 225.195C154.578 225.7 154.521 226.279 154.65 226.79C154.659 226.826 154.67 226.86 154.682 226.897C154.702 226.965 154.716 227.039 154.745 227.105C154.944 227.539 155.2 227.583 155.551 227.63C155.594 227.637 155.649 227.615 155.698 227.61C156.144 227.664 156.495 227.529 156.971 227.832C157.083 227.967 157.189 228.103 157.284 228.199C157.446 228.36 157.641 228.428 157.843 228.465C158.28 228.687 158.847 228.846 159.432 228.919C159.489 229.014 159.567 229.107 159.703 229.178C160.854 229.793 162.656 228.225 162.786 226.626C162.884 226.384 163.005 226.159 163.183 225.964C163.681 225.652 164.153 225.319 164.458 224.653C164.697 224.128 164.576 223.718 164.363 223.337C164.289 223.139 164.188 222.934 164.052 222.721C164.551 222.714 165.04 222.67 165.526 222.462C165.745 222.372 165.889 222.333 166.001 222.326C166.148 222.399 166.238 222.56 166.261 222.829C166.258 222.936 166.255 223.031 166.243 223.178C166.177 223.918 166.623 224.15 167.09 224.343C167.444 224.667 167.832 224.951 168.14 225.127C168.397 225.439 168.601 225.422 168.84 225.329C169.194 225.329 169.626 225.232 170.087 225.056C170.127 225.046 170.161 225.026 170.199 225.014C170.826 224.758 171.494 224.36 172.076 223.869C172.689 223.566 173.21 222.88 173.458 222.089C173.714 221.471 173.751 220.809 173.472 220.15C173.797 220.103 174.192 220.934 174.448 221.298C174.678 221.62 175.081 221.747 175.49 221.801C175.804 221.993 175.942 222.269 176.046 222.565C176.115 222.875 176.218 223.144 176.365 223.363C176.391 226.914 176.279 230.455 176.187 234.006C176.132 236.225 176.141 238.452 176.147 240.672C176.149 242.965 176.267 245.087 175.752 247.312C175.317 249.187 175.343 250.97 175.433 252.911C175.536 255.202 175.43 257.492 175.502 259.766C175.202 260.735 174.75 261.61 174.304 262.604C173.556 264.281 173.011 265.356 171.621 266.274C170.567 266.97 169.335 267.549 168.178 268.017C168.14 268.003 168.097 267.998 168.054 268.008C167.873 268.052 167.801 268.088 167.637 268.188C167.3 268.393 167.426 269.006 167.732 269.131C168.995 269.654 170.792 269.353 172.269 268.877C172.133 269.224 172.269 269.624 172.562 269.744C173.63 270.174 175.018 269.868 176.135 269.89C177.148 269.912 178.222 269.578 179.198 269.116C179.192 269.141 179.187 269.16 179.181 269.187C179.161 269.295 179.166 269.407 179.195 269.509C179.192 269.566 179.189 269.622 179.189 269.678C179.207 270.008 179.512 270.1 179.653 269.881C180.243 269.959 180.868 269.509 181.369 269.187C181.683 268.98 182.005 268.794 182.325 268.601C183.657 269.375 185.396 269.546 186.686 269.485C187 269.47 187.337 269.053 187.198 268.628C187.132 268.413 187.04 268.223 186.939 268.042C187.838 268.362 188.747 268.591 189.68 268.787C190.236 268.901 190.498 268.215 190.267 267.749C190.264 267.737 190.259 267.727 190.253 267.717C190.247 267.707 190.241 267.697 190.236 267.69C190.221 267.666 190.204 267.644 190.19 267.619C190.132 267.549 190.063 267.483 189.971 267.439C188.618 266.716 187.314 265.551 186.073 264.557C184.8 263.539 183.778 262.247 182.742 260.909C182.733 260.091 182.733 259.27 182.664 258.455C182.494 256.408 182.152 254.42 182.149 252.35C182.146 249.109 182.848 245.473 182.42 242.218C182.883 238.418 182.506 234.357 182.598 230.526C182.653 228.201 182.705 225.879 182.739 223.556C182.759 223.556 182.777 223.566 182.8 223.564C182.823 223.62 182.843 223.676 182.874 223.742C182.975 223.959 183.203 224.098 183.395 224.013C183.617 223.915 183.954 223.644 184.271 223.495C184.628 223.527 184.913 223.617 185.048 223.827C185.074 223.92 185.1 224.008 185.108 224.14C185.123 224.326 185.08 224.506 185.013 224.687C184.858 225.053 184.613 225.39 184.544 225.774C184.538 225.796 184.541 225.818 184.535 225.837C184.527 225.913 184.527 225.993 184.535 226.074C184.533 226.167 184.507 226.26 184.535 226.355C184.717 226.953 185.005 227.134 185.46 227.371C186.145 227.727 187.184 226.599 187.624 227.415C187.76 227.664 187.947 227.754 188.18 227.703C188.546 227.62 188.854 227.485 189.173 227.354C189.499 228.951 190.541 228.787 191.612 228.12C191.813 228.054 192.035 228.008 192.277 227.986C192.994 228.599 193.823 228.286 194.373 227.52C194.83 227.178 195.107 226.533 194.991 225.278C195.484 224.948 195.933 224.792 196.465 225.192C196.759 225.412 197.272 225.219 197.482 224.909C197.603 224.731 197.695 224.538 197.79 224.345C198.086 223.993 198.236 223.363 198.092 222.084C198.057 221.779 198.345 221.622 198.745 221.527C199.105 221.539 199.5 221.661 199.655 221.688C199.885 221.725 200.035 221.588 200.11 221.393C200.484 221.615 200.89 221.551 201.267 221.249C201.417 221.754 201.334 222.059 201.391 222.704C201.408 222.887 201.411 223.036 201.538 223.151C202.065 223.62 202.713 223.539 203.213 223.092C203.795 222.567 203.999 221.461 204.126 220.636C204.328 219.337 205.439 221.615 205.871 221.852C206.328 222.106 205.819 222.797 206.199 223.227C206.723 223.82 207.316 223.781 207.969 223.588C208.784 223.351 209.581 222.711 210.16 221.962C210.318 221.754 210.5 221.425 210.503 221.122C210.511 220.301 210.736 219.74 211.168 219.254C211.672 219.774 212.371 219.886 212.901 219.139C212.941 219.08 212.961 219.017 212.999 218.958C213.013 218.939 213.019 218.914 213.033 218.895C213.22 218.589 213.335 218.255 213.387 217.891C213.393 217.84 213.402 217.791 213.407 217.737C213.416 217.617 213.459 217.522 213.451 217.39C213.439 217.234 213.384 217.09 213.318 216.953C213.278 216.812 213.246 216.67 213.174 216.538C213.163 216.567 213.148 216.585 213.137 216.611C212.958 216.284 212.835 215.962 213.215 215.537C213.35 215.385 213.479 215.256 213.612 215.117C213.92 214.848 214.303 214.538 214.617 214.228C214.694 214.174 214.758 214.106 214.838 214.055C215.221 213.823 215.184 213.185 215.141 212.76C215.011 211.388 214.444 210.494 213.502 210.15C213.551 209.298 213.534 208.443 213.669 207.598C213.805 206.653 214.496 206.245 215.028 205.696Z" fill="black"/>
<path d="M93.7232 208.463C94.7851 207.342 94.1435 205.749 93.4614 204.679C93.1849 204.25 93.0301 203.603 92.8604 202.966C92.8863 202.966 92.912 202.966 92.9341 202.969C92.5359 201.466 92.0309 200.758 90.8031 200.582C90.8252 200.614 90.8584 200.701 90.8805 200.749C90.7551 200.726 90.6298 200.669 90.5007 200.659C90.7736 200.368 90.9468 199.909 91.039 199.266C91.0648 199.208 91.0722 199.131 91.1017 199.076C91.5478 198.801 91.8723 198.439 92.1414 198.035C92.1488 198.032 92.1525 198.023 92.1599 198.019C92.1562 198.019 92.1525 198.019 92.1525 198.019C92.7425 197.122 92.9563 195.943 92.8862 194.46C92.853 193.711 92.3922 193.038 91.8244 192.884C90.6445 192.57 93.3951 191.141 93.7122 190.709C94.7335 189.335 95.6405 186.711 94.3979 185.189C94.0698 184.785 93.561 184.587 93.1591 184.359C93.1517 184.356 93.1554 183.642 93.1111 183.315C93.1296 183.078 93.0522 182.822 92.8051 182.546C92.7867 182.597 92.7719 182.646 92.7535 182.697C92.2594 182.152 91.6732 182.255 91.039 182.181C91.4077 181.54 91.8612 180.97 91.8612 180.083C91.8612 178.993 91.2086 177.67 90.4159 177.292C90.3827 177.276 90.3495 177.254 90.3164 177.238C90.3532 177.212 90.3937 177.203 90.4306 177.164C89.5789 176.757 88.6645 175.184 87.8644 175.027C87.8091 175.015 87.6469 175.066 87.4478 175.133C87.0902 175.127 86.7583 175.194 86.3564 175.377C86.0836 175.527 85.8107 175.678 85.5305 175.822C85.0033 175.985 84.5608 176.065 84.4539 175.902C84.417 175.844 84.4023 175.79 84.3764 175.732C84.3801 175.559 84.4207 175.348 84.5203 175.056C84.83 175.079 85.0254 174.768 85.1176 174.412C85.4936 174.22 85.9509 174.063 86.4228 173.929C86.7841 174.009 87.127 174.111 87.3003 174.118C87.7317 174.137 88.4654 173.842 88.694 173.31C88.7088 173.275 88.7014 173.243 88.7161 173.208C88.7198 173.201 88.7346 173.195 88.7346 173.189C88.7493 173.157 88.7346 173.112 88.7457 173.077C88.9263 172.529 88.93 172.051 88.694 171.472C88.6498 171.359 88.565 171.27 88.4765 171.193C88.3437 170.828 88.2405 170.539 88.2663 170.427C88.3917 170.273 88.5576 170.107 88.6498 169.876C88.7125 169.713 88.7899 169.521 88.8637 169.319C89.107 168.787 89.2803 168.201 89.2692 167.573C89.2582 167.582 89.2434 167.602 89.2323 167.614C89.2213 166.503 89.3651 165.593 90.4196 165.788C91.6142 166.013 93.0116 165.769 93.2771 163.924C93.2918 163.857 93.3287 163.825 93.3397 163.754C93.2512 164.437 93.3065 164.017 93.3397 163.754C93.3729 163.491 93.3619 163.588 93.3397 163.748C93.325 163.661 93.3103 163.575 93.2955 163.488C93.2881 163.078 93.2107 162.675 93.0927 162.281C93.0632 162.098 93.03 161.915 93.0005 161.73C92.9747 161.742 92.9563 161.752 92.9305 161.765C92.8678 161.576 92.8015 161.39 92.7425 161.214C92.6024 160.778 92.5323 160.298 92.4954 159.833C92.4881 159.551 92.4991 159.276 92.5397 159C92.5397 158.968 92.5397 158.949 92.5434 158.923C93.9223 158.129 95.0874 156.809 94.7408 154.586C94.6155 153.759 94.4164 152.686 94.0329 151.914C94.0624 151.92 94.1067 151.911 94.1361 151.92C93.7601 151.007 93.1739 150.658 92.3922 150.876C92.3037 150.905 92.2594 150.921 92.2115 150.937C92.2631 150.918 92.3258 150.898 92.3922 150.876C92.0235 151.001 91.7912 150.738 91.5515 150.437C91.4556 150.171 91.3524 149.902 91.0538 149.841C91.0021 149.832 90.9616 149.844 90.9137 149.838C90.7478 149.742 90.5671 149.668 90.3237 149.703C90.2131 148.842 89.9329 148.095 89.4757 147.455C89.5236 147.381 89.5568 147.294 89.6047 147.224C89.7411 147.016 89.9366 146.705 90.0804 146.375C90.0915 146.343 90.1136 146.324 90.1246 146.292C90.132 146.272 90.1246 146.25 90.132 146.228C90.2979 145.776 90.3348 145.321 89.9476 145.074C87.3667 143.424 88.1373 143.392 89.5015 143.248C90.3753 143.953 91.0464 143.517 91.6253 142.729C92.3184 142.358 92.7978 141.714 92.6134 140.503C92.3959 139.074 92.4807 137.6 92.3958 136.175C92.4991 135.886 92.6171 135.582 92.5581 135.284C92.4991 135.015 92.3627 134.852 92.2152 134.701C92.0567 133.855 91.7838 133.039 91.2639 132.276C90.7551 131.885 90.497 131.318 90.497 130.572C91.0095 129.111 88.4286 129.765 88.1926 128.775C88.1705 128.685 88.1852 128.56 88.1926 128.441C88.3032 128.083 88.5687 127.701 88.7457 127.378C89.2692 126.436 89.531 125.257 89.6637 124.075C89.7522 123.771 89.8186 123.482 89.8296 123.248C89.8112 123.281 89.7707 123.303 89.7449 123.329C89.7522 123.165 89.8001 122.995 89.7965 122.835C89.7891 121.698 89.3946 120.814 88.801 120.115C88.8895 120.16 88.9706 120.234 89.0591 120.276C88.5871 119.616 88.0267 119.154 87.363 118.901C87.3077 118.869 87.3298 118.77 87.3188 118.703C87.5953 118.177 87.894 117.578 87.9493 116.941C87.9566 116.835 87.9419 116.739 87.9455 116.636C87.9677 116.534 88.0119 116.419 88.0156 116.326C87.9972 116.39 87.9677 116.451 87.9455 116.515C88.0082 113.327 85.6153 111.367 83.3699 111.418C83.2077 111.421 83.0639 111.472 82.9201 111.54C83.027 111.466 83.1376 111.395 83.2777 111.318C82.6731 111.405 81.5485 112.078 80.5124 112.308C80.3834 112.228 80.247 112.151 80.0921 112.094C79.9704 112.049 79.6238 112.132 79.2293 112.222C79.1113 112.167 79.0081 112.074 78.9085 111.978C78.7684 111.761 78.6283 111.546 78.4993 111.334C78.4329 111.158 78.3702 110.972 78.326 110.739C78.9897 111.213 79.4727 111.046 80.0884 110.476C80.1068 110.463 80.1216 110.45 80.1363 110.437C80.1437 110.431 80.1511 110.425 80.1584 110.418C80.7521 109.957 81.3199 109.223 81.825 108.557C82.0905 108.23 82.3597 107.907 82.6583 107.602C83.4289 106.817 83.8419 106.151 83.5875 104.876C83.5764 104.815 83.5432 104.774 83.5211 104.722C83.5506 104.011 83.3773 103.511 82.8537 103.62C82.9643 103.55 83.0823 103.479 83.2925 103.3C83.322 103.274 83.3552 103.249 83.3884 103.223C83.6833 103.024 83.9414 102.803 84.1737 102.554C84.6604 102.121 85.1176 101.618 85.3204 100.901C85.608 99.8722 85.4752 98.9431 85.1286 98.123C84.8853 97.4022 84.4539 96.7007 83.8234 96.0792C84.476 95.1565 85.4863 93.9904 85.1692 92.7122C84.9222 91.7159 84.1405 90.553 83.6243 89.4382C83.5026 89.0986 83.392 88.7206 83.2925 88.3138C84.0926 88.2561 84.9922 88.0222 85.3793 87.0964C85.5563 86.6735 85.5563 86.3436 85.501 86.0296C86.1647 84.1908 86.1094 81.6568 85.3831 80.2088C85.3314 79.9813 85.2872 79.7795 85.254 79.6129C85.1803 79.2509 84.9185 78.9882 84.6272 78.9882C84.347 78.985 84.1036 79.0299 83.8713 79.0971C83.6391 79.1067 83.3957 79.1548 83.1266 79.2894C83.0123 78.6422 83.1966 76.2236 82.8426 75.8007C82.3338 75.1952 80.9623 75.7334 80.1695 75.2433C80.5198 74.5033 81.2756 74.0708 81.9135 73.6095C82.1384 73.5422 82.3633 73.4845 82.5956 73.4365C83.521 73.555 84.6973 72.8534 85.0107 71.7033C85.0549 71.556 85.0696 71.4086 85.0844 71.2581C85.0881 71.178 85.1028 71.1043 85.0955 71.021C85.0881 70.3643 84.841 69.7108 84.4281 69.1758C84.5682 68.8426 84.8116 67.433 84.9295 66.5969C84.9959 66.2573 85.0438 65.9882 85.0438 65.8793C85.0438 65.8152 84.9959 65.6967 84.9848 65.6198C84.9627 65.261 84.8853 64.9182 84.7231 64.6459C84.2769 63.4606 83.4768 61.955 83.1339 61.3078C82.1642 59.4914 81.0581 62.3426 80.1806 63.3133C80.011 63.4606 79.8414 63.5599 79.6865 63.6048C79.5796 63.5984 79.4764 63.5503 79.3842 63.4062C79.3252 63.3165 79.2957 63.2332 79.2514 63.1499C79.2477 62.9865 79.2625 62.7751 79.3104 62.506C79.4358 61.8204 79.3289 60.8113 78.7463 60.5486C78.6615 60.5102 78.5767 60.4493 78.4956 60.3948C78.3665 60.2282 78.2043 60.0552 77.9867 59.8758C77.4595 59.4402 77.1092 59.2704 76.829 59.2608C76.4013 59.1326 75.9773 59.2704 75.5643 60.0456C75.4906 60.1802 75.4132 60.5614 75.3321 60.7857C75.321 60.7985 75.3136 60.8113 75.3026 60.8241C75.439 60.6575 75.2214 60.3948 74.8896 60.1001C74.8269 59.9912 74.7643 59.8855 74.6942 59.7926C74.532 59.5747 74.3403 59.517 74.1486 59.5106C73.6176 59.1134 73.1051 58.7322 73.0904 58.5143C72.9429 56.3327 73.9531 52.6871 71.9142 51.2935C71.9953 51.1045 72.0469 50.9091 72.0948 50.7137C72.1059 50.6721 72.1243 50.6368 72.1317 50.592C72.1907 50.3133 72.2239 50.0377 72.2239 49.7654C72.2239 49.7142 72.2128 49.6693 72.2091 49.6181C72.1981 49.3842 72.1686 49.1568 72.1133 48.9389C72.1096 48.9229 72.1022 48.9069 72.0985 48.8877C71.8109 47.8177 71.0366 47.0392 69.9748 47.209C69.241 47.3275 69.3221 46.8502 69.6134 46.1775C69.8199 45.9148 70.0338 45.6585 70.1812 45.3638C70.3951 44.9409 70.5094 44.4764 70.5278 43.9894C70.5868 43.7492 70.6126 43.5217 70.5757 43.3263C69.9158 40.0651 70.6311 39.1457 70.8339 35.9453C70.9998 33.3697 70.631 32.8091 70.0485 32.9596C69.5397 32.2452 68.9092 32.9436 68.5884 33.6195C68.4815 33.8502 68.3561 34.0136 68.2234 34.1481C68.0575 34.2442 67.8952 34.3211 67.744 34.3564C67.497 34.4108 67.309 34.4269 67.1431 34.4301C66.9735 34.3788 66.8039 34.2987 66.6343 34.1866C66.5863 34.1545 66.5679 34.1193 66.5347 34.0873C66.4831 33.7733 66.7191 33.2864 67.0472 32.7738C67.1099 32.7225 67.1652 32.6777 67.1947 32.6489C67.6593 32.2196 68.1312 31.6878 68.275 30.9414C68.275 30.9382 68.275 30.935 68.275 30.935C68.2935 30.8965 68.3119 30.8549 68.3156 30.8261C68.6548 29.0449 68.7506 27.3054 68.3193 26.0464C68.3045 25.947 68.3119 25.8253 68.2934 25.726C68.1386 24.8899 67.5819 24.5791 66.9329 24.4382C66.6306 24.3068 66.2877 24.2203 65.8858 24.1979C66.4315 23.6085 66.9661 23.0767 67.1689 21.9234C67.4086 20.5971 66.9071 19.4118 65.989 18.8864C65.9558 18.8672 65.9448 18.848 65.9153 18.832C65.4434 18.0279 65.1005 17.1373 65.5097 15.9167C65.5208 15.8815 65.5171 15.8527 65.5281 15.8174C65.6314 15.481 65.7236 15.1255 65.7531 14.7314C65.7531 14.7218 65.7494 14.7186 65.7494 14.709C65.8637 13.3827 65.3733 12.2999 64.6469 11.1563C64.4257 10.8135 64.2598 10.5668 64.1123 10.3682C64.0718 10.2849 64.0275 10.2272 63.9906 10.1407C63.81 9.73069 63.4375 9.6634 63.1352 9.84921C63.091 9.87484 62.9914 9.94851 62.9251 9.99336C62.7739 10.0702 62.5895 10.1728 62.3757 10.2849C62.2466 10.1824 62.077 10.1215 61.9554 10.1888C61.948 10.192 61.9443 10.1984 61.9369 10.2016C61.5277 7.66118 61.6862 3.72081 60.569 1.67054C60.4768 1.50395 60.1672 1.15799 59.78 0.795986C59.7026 0.715897 59.6177 0.64862 59.5366 0.578142C59.4703 0.520478 59.4113 0.46601 59.3449 0.414753C59.3006 0.379514 59.2564 0.347484 59.2122 0.315449C58.3199 -0.376518 57.3244 -0.802603 57.2801 0.42756C57.2691 0.488428 57.2248 0.526876 57.2248 0.594151C57.2248 0.82801 57.1769 0.981792 57.1401 1.15158C56.7197 2.2536 55.326 2.22795 54.9942 0.920905C55.0163 0.741506 55.0753 0.587741 55.1232 0.421157C55.4293 0.033527 55.5878 -0.270808 55.6136 -0.607181C55.632 -0.629606 55.6394 -0.658446 55.6578 -0.680871C55.75 -1.56185 55.3407 -4.48989 55.079 -5.31C55.0826 -5.21389 55.0642 -5.14981 55.0642 -5.05691C54.9499 -5.51822 54.7176 -5.87381 54.2125 -6.01156C54.1609 -7.74468 53.8881 -9.3753 52.6344 -10.346C52.1404 -10.7272 51.4546 -10.6407 50.9126 -10.599C50.931 -10.599 50.9789 -10.5094 50.7024 -10.5702C50.4849 -10.6183 50.26 -10.6567 50.0351 -10.7016C49.7991 -10.7432 49.6184 -10.7945 49.0727 -10.8842C48.4607 -10.9803 48.1473 -11.9317 47.7122 -12.4763C46.9047 -13.4887 46.0567 -12.8896 45.5036 -11.8965C45.2566 -11.4448 45.4815 -10.7977 45.6438 -10.3876C46.0825 -9.24075 45.087 -9.75653 44.6814 -9.22474C44.2869 -8.70897 44.1136 -7.90486 43.9219 -7.24493C43.8076 -6.8541 43.5753 -5.861 43.2656 -6.00195C43.2619 -6.00836 43.2619 -6.01798 43.2582 -6.02119C43.2213 -6.07565 43.1734 -6.08845 43.1329 -6.1333C43.1071 -6.17174 43.0812 -6.19418 43.0517 -6.25184C42.8784 -6.61384 42.5798 -6.89253 42.3401 -7.17124C41.6875 -7.91767 41.1455 -7.87603 40.2717 -7.69023C39.173 -7.46277 38.0336 -7.14243 37.0012 -6.51133C36.6952 -6.32232 36.6178 -5.75527 36.7764 -5.39327C37.0418 -4.79741 37.3515 -4.22078 37.5912 -3.60249C36.3781 -2.96819 34.306 -2.20575 35.1356 -0.0401456C35.3494 0.520476 35.5965 1.09391 35.7034 1.60648C35.6887 1.78908 35.7329 1.97808 35.7514 2.16388C35.7403 2.33688 35.7034 2.49386 35.6186 2.63482C35.4969 2.79499 35.2794 2.94557 34.8296 3.0641C33.9373 3.29476 33.1188 3.41008 32.6837 4.01234C32.61 4.0636 32.5288 4.07642 32.4551 4.14049C32.1527 4.39677 32.0716 4.85807 32.2302 5.28094C32.5362 6.08823 32.2265 6.8667 32.1564 7.66439C31.6476 10.5572 31.3969 9.0163 29.133 10.3137C28.1486 10.8744 28.0785 11.5471 28.3477 12.2038C28.3587 12.3416 28.3292 12.4441 28.3624 12.5979C28.414 12.8413 28.5652 12.9887 28.7385 13.0143C28.6537 13.245 28.58 13.4981 28.5247 13.796C28.1265 13.5429 27.6139 13.3571 27.0756 13.2674C27.1567 13.2418 27.2415 13.2161 27.3227 13.1905C26.0654 12.9727 25.6967 12.9919 26.1355 13.229C24.8892 13.309 23.8237 14.0042 24.1887 15.7438C24.4173 16.8298 25.387 17.8389 24.6975 19.0434C23.8532 19.4759 23.0494 20.9047 22.6954 22.2213C22.6844 22.2598 22.6733 22.2982 22.6622 22.3367C22.6364 22.4392 22.6216 22.5353 22.6032 22.6346C22.393 23.5027 22.3968 24.3709 22.9719 25.1526C23.1932 25.4505 23.4881 25.6427 23.7868 25.8253C24.3619 26.434 24.6127 26.8825 24.797 27.4847C24.7896 27.6449 24.7786 27.8115 24.7934 28.0262C24.8302 28.638 25.2026 29.4677 25.3317 30.1501C25.3169 30.3551 25.2948 30.6915 25.2726 31.0759C25.0772 31.643 24.8007 32.3637 24.8708 32.9564C24.9187 33.3408 25.0699 33.7893 25.2505 34.1994C25.3095 34.9843 25.446 35.5289 25.7446 35.3303C25.6266 35.4071 25.4976 35.4744 25.3685 35.5385C25.0035 35.5897 24.491 35.5897 24.1923 35.8524C23.9084 36.0959 23.7204 36.3682 23.5766 36.6501C23.3812 36.9288 23.2816 37.294 23.3332 37.7938C23.3406 38.1173 23.3849 38.4441 23.4955 38.7741C22.9756 38.7548 22.5885 38.7741 22.2603 38.8157C21.5303 38.7965 20.8482 38.9182 20.5975 39.7287C20.4721 40.1516 20.4905 40.6065 20.5126 41.055C20.5274 41.449 20.5864 41.8463 20.6196 42.2339C20.627 42.3588 20.6306 42.4838 20.6343 42.6119C20.6343 42.6151 20.6343 42.6151 20.6343 42.6183C20.5864 42.6055 20.5163 42.5799 20.4647 42.5639C20.2472 42.2435 19.9854 42.0097 19.6093 42.0801C18.8498 42.2051 17.8838 41.7085 17.1058 41.936C16.2135 42.0417 15.5462 42.6087 15.5019 44.0311C15.454 44.2617 15.4466 44.5084 15.4576 44.7551C15.2327 44.1432 13.2712 44.3226 13.05 44.3995C13.0795 44.4347 13.1016 44.4411 13.1311 44.4732C12.9025 44.5372 12.6813 44.6301 12.4454 44.7775C11.7669 45.2068 10.5059 45.8667 10.5133 47.1225C10.5133 47.2987 10.6645 48.8108 10.694 48.7948C10.2257 49.035 9.64315 48.9966 9.26338 49.4995C9.00898 49.8295 8.76193 50.2203 8.72874 50.6945C8.62182 52.2898 8.19781 52.5525 7.17281 52.8408C6.38009 53.0683 5.70902 53.4239 5.21495 54.2088C5.21126 54.1863 5.20761 54.1607 5.20392 54.1383C5.1523 54.2248 5.13384 54.3081 5.09697 54.3946C5.06747 54.449 5.0306 54.4875 5.0011 54.5483C4.84625 54.8815 4.86839 55.4357 5.11542 55.6952C5.55419 56.1661 5.89339 56.3808 6.46488 56.5281C7.06956 56.6851 7.28709 56.9798 7.30553 57.3258C7.28709 57.6237 7.15436 57.9697 6.98107 58.3189C6.7746 58.6713 6.51652 59.0109 6.33954 59.2704C6.11831 59.5939 5.97081 59.9559 5.85283 60.334C5.84914 60.3436 5.83812 60.3628 5.83443 60.3724C5.82706 60.398 5.83072 60.4301 5.82335 60.4557C5.58 61.3367 5.56156 62.3137 5.67218 63.246C5.67586 63.2652 5.67586 63.2876 5.67955 63.3101C5.69798 63.5183 5.72746 63.7073 5.75696 63.9123C5.88601 64.8766 6.08144 65.9274 6.53864 66.6418C6.76724 66.9973 7.22442 67.3017 7.58576 67.2889C7.71849 67.2857 7.78116 67.2696 7.86228 67.26C8.01345 67.3017 8.12407 67.3113 8.14988 67.2568C8.16094 67.3209 8.03561 67.5323 7.89918 68.1058C7.64109 69.1693 7.19123 70.5821 8.16462 71.3253C8.17199 71.3317 8.17936 71.3285 8.18673 71.3349C8.31578 71.4535 8.48171 71.5208 8.68081 71.5368C9.1122 71.6329 9.52515 71.4791 9.91229 71.194C12.5412 70.0439 11.3318 71.399 11.1511 73.2731C11.0921 73.539 11.0369 73.8081 11.0148 74.1188C10.9631 74.798 11.4314 75.3714 11.7485 75.7847C11.8886 75.9641 12.0692 76.0602 12.2646 76.1211C12.814 76.6272 13.3892 76.8643 13.9828 76.8995C13.9497 77.2775 14.0124 77.6524 14.1525 77.9951C13.64 77.8958 13.1459 77.7324 12.626 77.8093C11.896 77.915 11.2876 78.5718 10.7604 79.1933C10.6866 79.2798 10.6534 79.3855 10.587 79.4784C10.5944 79.4303 10.5834 79.4047 10.5907 79.3566C10.4543 79.552 10.3547 79.7667 10.2773 79.9909C9.87173 80.8271 9.82384 81.7209 10.2036 82.4192C10.3253 83.1048 10.517 83.7647 10.7051 84.3413C10.7272 84.5047 10.7345 84.6745 10.7825 84.8219C10.9041 85.1743 10.9447 85.453 10.9484 85.6997C10.8451 86.5006 10.1372 86.8241 9.55836 87.2534C9.52149 87.2726 9.48459 87.2886 9.45141 87.3078C8.72874 87.6923 8.67342 88.663 8.95733 89.4799C9.03844 89.6112 9.11588 89.7426 9.197 89.8739C9.23018 89.9316 9.21175 89.9892 9.23019 90.0469C9.24863 90.6748 8.38954 90.7325 7.28341 90.5883C7.11012 90.5018 6.94419 90.4185 6.70084 90.4153C5.63527 90.3961 4.59557 89.7938 3.54475 89.9156C3.27191 89.8899 3.06539 89.8931 2.95109 89.9476C3.0064 89.9668 3.07649 90.0116 3.13917 90.0373C2.99537 90.0853 2.85156 90.0821 2.70776 90.1654C1.74175 90.7292 1.06703 91.9914 1.14446 93.4555C1.17764 94.0417 1.22557 94.5735 1.41361 95.1149C1.54266 95.4961 2.60086 95.6883 1.94825 96.313C1.25139 96.9826 0.359089 96.1913 -0.29721 96.8192C-1.00513 97.4919 -1.4439 98.3024 -2.07807 99.0681C-2.66063 99.7697 -2.9224 100.455 -2.87078 101.214C-4.13914 100.769 -5.58813 100.654 -6.60208 101.871C-8.26126 103.864 -8.34242 105.978 -8.25393 108.765C-8.24656 109.079 -8.05851 109.348 -7.80779 109.348C-7.71561 109.835 -7.7156 110.367 -7.98844 111.206C-8.10643 111.556 -8.21337 111.86 -8.22074 111.991C-8.22443 112.058 -8.20597 112.129 -8.20229 112.196C-8.29815 112.92 -8.1175 113.327 -7.76723 113.516C-7.58656 113.779 -7.3727 113.997 -7.11461 114.067C-6.26658 114.301 -5.63606 114.051 -4.86178 113.596C-3.72984 112.943 -4.09487 115.003 -4.43409 115.704C-4.73643 116.329 -4.79173 116.995 -4.7438 117.71C-4.57788 120.077 -2.83393 119.164 -1.81629 119.686C-1.92691 120.026 -1.93795 120.445 -1.89371 120.891C-2.4947 121.109 -3.17312 121.333 -3.48284 121.823C-3.49758 121.845 -3.53076 121.855 -3.54551 121.877C-4.22762 122.999 -2.55001 124.36 -3.11782 125.164C-3.24687 125.347 -3.31693 125.613 -3.25425 125.859C-3.27269 125.795 -4.92078 125.017 -5.35585 125.042C-6.27025 125.087 -7.22521 125.638 -7.59023 126.824C-7.8557 127.695 -7.49806 128.787 -7.8299 129.588C-8.07325 130.181 -8.18754 130.796 -8.19492 131.462C-8.1986 132.17 -7.85202 132.552 -7.42432 132.76C-7.19941 133.071 -6.94501 133.378 -6.68692 133.673C-6.56893 134.076 -6.37349 134.429 -6.01584 134.695C-4.67744 135.669 -3.36116 133.747 -2.51313 135.323C-2.41358 135.592 -2.33245 135.867 -2.2329 136.075C-2.19234 136.213 -2.14814 136.3 -2.11127 136.466C-2.10021 136.514 -2.01904 136.511 -1.93793 136.498C-1.98586 136.53 -2.03382 136.566 -2.08544 136.607C-2.19974 136.659 -2.34354 136.723 -2.54633 136.812C-3.00721 137.017 -3.19157 137.299 -3.4681 137.777C-3.69301 138.164 -3.65242 138.571 -3.52706 138.959C-3.83308 139.881 -3.92898 140.849 -3.68194 141.595C-3.64507 141.938 -3.53812 142.268 -3.20997 142.534C-3.03668 142.675 -2.83758 142.774 -2.63848 142.867C-2.12598 143.328 -2.0154 143.61 -1.65775 144.517C-1.63932 144.623 -1.63195 144.738 -1.60245 144.831C-3.00722 145.385 -2.0412 144.687 -3.77781 144.562C-3.74094 144.603 -3.71144 144.674 -3.67457 144.722C-4.85444 144.52 -6.33662 145.654 -6.6832 147.185C-6.85281 147.925 -6.82701 148.55 -6.61316 149.274C-6.51361 149.614 -6.32556 149.896 -6.16701 150.19C-6.23338 150.059 -7.63818 150.091 -7.82253 150.065C-9.09457 149.908 -10.2708 150.998 -10.4772 152.561C-11.7898 152.878 -13.261 154.746 -12.3023 156.415C-12.1696 156.655 -11.9779 156.806 -11.7714 156.918C-11.0303 157.321 -10.868 157.962 -11.0082 158.648C-11.3584 159.032 -11.9041 160.012 -12.2249 160.916C-12.5272 161.409 -12.7448 161.96 -12.4646 162.562C-12.3171 162.88 -12.0922 163.081 -11.8451 163.248C-11.4469 163.684 -10.9344 164.132 -10.4256 164.539C-10.0053 165.43 -8.61894 165.647 -8.64106 166.394C-8.68162 167.666 -7.60868 168.133 -6.84546 168.207C-6.30346 168.255 -3.86631 166.625 -3.65246 167.019C-3.64877 167.028 -3.64135 167.035 -3.63766 167.041C-3.77777 167.163 -3.91054 167.301 -4.03222 167.464C-4.59265 167.999 -4.99453 168.659 -4.87286 169.911C-4.777 170.872 -4.27925 171.289 -3.68194 171.446C-4.24238 171.648 -4.75859 172.055 -4.97981 172.724C-5.0683 172.955 -5.11987 173.221 -5.12356 173.515C-5.61025 173.467 -5.99007 173.685 -6.31453 174.002C-6.39196 174.07 -6.46569 174.143 -6.53574 174.227C-6.60949 174.323 -6.67954 174.412 -6.74222 174.524C-7.42802 175.681 -7.41328 177.69 -6.51363 179.115C-6.60212 179.234 -6.66476 179.381 -6.75325 179.506C-7.03346 179.903 -7.31002 180.32 -7.52019 180.765C-7.54968 180.826 -7.5939 180.871 -7.61971 180.928C-7.63815 180.976 -7.63816 181.034 -7.65291 181.085C-7.71927 181.268 -7.74876 181.463 -7.77088 181.659C-7.77088 181.662 -7.77088 181.662 -7.77088 181.665C-7.78932 181.832 -7.8262 181.989 -7.80408 182.165C-7.74877 182.623 -7.63451 183.28 -7.27686 183.517C-7.19575 183.568 -7.12196 183.61 -7.05559 183.642C-7.06665 183.655 -7.0667 183.664 -7.07776 183.677C-8.11382 184.625 -9.54439 183.081 -10.7058 184.385C-12.2028 186.07 -14.2307 184.25 -15.2778 187.191C-15.6318 188.188 -15.7018 189.347 -15.7092 190.433C-15.7165 191.542 -14.6731 193.538 -15.1156 194.598C-15.7387 194.672 -16.3544 195.127 -16.8669 195.802C-17.0587 195.94 -17.2356 196.113 -17.3905 196.382C-17.6744 196.892 -17.7961 197.439 -17.8735 198.019C-17.9104 198.202 -17.9251 198.375 -17.9362 198.554C-17.9546 198.756 -17.973 198.955 -17.9915 199.163C-18.0505 199.826 -17.7998 200.409 -17.3573 200.749C-17.0402 200.992 -16.8042 201.047 -16.6862 201.146C-16.6715 201.284 -16.6973 201.492 -16.7342 201.726C-16.7637 201.796 -16.7674 201.832 -16.8079 201.921C-17.4642 203.328 -17.6265 205.061 -16.8079 206.377C-15.9451 207.774 -13.0582 207.918 -11.8378 206.522C-11.5612 206.358 -11.2478 206.256 -10.8828 206.23C-10.6137 206.288 -10.3445 206.294 -10.0753 206.281C-9.83196 206.352 -9.67344 206.451 -9.56283 206.576C-9.50015 206.951 -9.48173 207.316 -9.54072 207.691C-9.91311 208.662 -10.798 209.898 -10.3998 210.84C-10.3076 211.449 -9.80246 211.673 -9.30471 211.663C-9.24571 212.784 -9.65133 213.986 -8.87336 214.832C-8.4899 215.245 -8.00319 215.181 -7.52756 214.973C-7.24734 214.979 -6.83808 215.033 -6.39194 215.129C-5.90525 215.789 -5.35955 216.065 -4.72169 215.706C-4.44516 215.876 -4.2977 216.062 -4.41569 216.257C-4.40463 216.251 -4.39721 216.251 -4.38615 216.244C-4.85072 217.02 -5.32635 217.792 -6.03058 218.16C-6.6242 218.471 -7.24735 218.625 -7.82253 218.987C-8.96184 219.701 -8.78856 221.793 -8.46041 223.045C-8.35348 223.452 -8.15068 223.75 -7.92577 224.026C-7.5165 224.836 -6.95603 225.685 -6.34767 226.326C-6.16331 226.646 -5.97158 226.957 -5.73561 227.236C-5.00557 228.101 -4.31242 227.514 -3.85522 226.694C-3.60819 226.829 -3.32062 226.992 -3.04041 227.168C-2.60533 227.614 -2.30298 228.139 -2.03014 228.626C-2.09282 229.302 -1.94534 229.587 -1.56189 230.077C-0.820783 231.029 0.749951 229.802 1.5906 229.305C2.0478 229.107 2.5271 228.953 3.01748 228.818C3.82126 228.671 4.55496 228.584 5.26288 227.575C5.5726 227.14 6.05562 226.355 6.0593 225.711C6.0593 225.663 6.08881 225.65 6.0925 225.605C6.19574 225.355 6.31742 225.131 6.48334 224.964C6.5239 224.942 6.56444 224.916 6.60869 224.897C6.67505 224.846 6.77458 224.839 6.85201 224.804C7.25022 224.74 7.72954 224.795 8.13143 224.855C8.36003 225.666 8.87255 225.842 9.5731 226.281C9.86438 227.319 9.82013 228.639 10.2331 229.712C10.3216 230.26 10.5612 230.737 11.2064 230.981C11.2323 230.99 11.2802 230.961 11.3097 230.958C11.9254 231.176 12.508 230.929 12.9542 231.339C13.0279 232.038 13.0648 232.835 13.3228 233.326C13.7284 234.111 13.699 233.963 13.4704 235.02C13.3266 235.709 13.2491 236.497 13.4187 237.189C13.4298 237.24 13.4482 237.288 13.4629 237.336C13.4924 237.429 13.5072 237.529 13.5478 237.618C13.8132 238.211 14.1524 238.269 14.617 238.333C14.676 238.342 14.7461 238.314 14.8125 238.304C15.4061 238.378 15.8706 238.192 16.5011 238.608C16.6486 238.791 16.7924 238.977 16.9178 239.108C17.1316 239.326 17.3897 239.419 17.6588 239.47C18.2414 239.771 18.9936 239.989 19.7716 240.088C19.849 240.216 19.9522 240.341 20.1292 240.441C21.6594 241.277 24.0559 239.143 24.2255 236.968C24.3546 236.638 24.5131 236.331 24.7528 236.068C25.4165 235.642 26.0433 235.193 26.4452 234.284C26.7623 233.569 26.6 233.012 26.3198 232.493C26.2203 232.22 26.0875 231.942 25.9068 231.653C26.5668 231.644 27.2194 231.583 27.8647 231.301C28.1523 231.176 28.3477 231.125 28.4988 231.112C28.6943 231.211 28.8122 231.432 28.8417 231.798C28.8381 231.942 28.8344 232.073 28.8196 232.272C28.7348 233.278 29.3247 233.595 29.9442 233.857C30.4124 234.3 30.9323 234.684 31.3416 234.924C31.6808 235.35 31.9537 235.325 32.2708 235.203C32.7427 235.203 33.3178 235.068 33.9262 234.828C33.9778 234.815 34.0258 234.79 34.0774 234.77C34.9107 234.421 35.7993 233.88 36.5699 233.21C37.3847 232.797 38.0779 231.865 38.4061 230.785C38.7453 229.943 38.7968 229.043 38.4244 228.146C38.8558 228.081 39.3794 229.216 39.7186 229.706C40.0246 230.145 40.5593 230.318 41.105 230.388C41.5216 230.651 41.706 231.026 41.8461 231.426C41.9383 231.849 42.0783 232.214 42.2701 232.515C42.3032 237.346 42.1521 242.167 42.0341 246.998C41.9604 250.019 41.9751 253.05 41.9788 256.074C41.9825 259.194 42.141 262.084 41.4552 265.111C40.8764 267.665 40.9132 270.093 41.0312 272.733C41.1676 275.85 41.0276 278.97 41.1234 282.064C40.7252 283.384 40.1242 284.576 39.5343 285.928C38.5388 288.212 37.8161 289.676 35.9689 290.925C34.5678 291.874 32.9307 292.662 31.3932 293.299C31.3416 293.28 31.2863 293.274 31.2273 293.287C30.9876 293.344 30.8918 293.395 30.6743 293.533C30.2281 293.812 30.394 294.645 30.7996 294.818C32.4772 295.529 34.8701 295.119 36.8279 294.472C36.6473 294.943 36.828 295.491 37.2188 295.651C38.6383 296.237 40.4819 295.821 41.9641 295.853C43.3098 295.881 44.7404 295.426 46.0346 294.799C46.0272 294.834 46.0198 294.859 46.0088 294.895C45.983 295.042 45.9903 295.193 46.0272 295.334C46.0235 295.41 46.0198 295.487 46.0198 295.561C46.0419 296.01 46.4475 296.138 46.6356 295.837C47.4172 295.942 48.2505 295.334 48.9142 294.891C49.3345 294.61 49.7622 294.356 50.1862 294.094C51.956 295.145 54.2678 295.378 55.9823 295.298C56.399 295.279 56.8488 294.709 56.6644 294.129C56.5759 293.838 56.4543 293.578 56.3215 293.331C57.5161 293.767 58.7218 294.081 59.9644 294.344C60.7055 294.501 61.0483 293.565 60.746 292.931C60.7423 292.915 60.7349 292.902 60.7275 292.889C60.7202 292.876 60.7128 292.86 60.7054 292.851C60.687 292.819 60.6649 292.787 60.6428 292.755C60.569 292.659 60.4732 292.569 60.3515 292.508C58.5522 291.525 56.8193 289.939 55.1712 288.584C53.4788 287.2 52.122 285.438 50.7467 283.618C50.7356 282.503 50.7356 281.389 50.6434 280.28C50.4185 277.493 49.9613 274.789 49.9576 271.97C49.9539 267.559 50.8868 262.609 50.3153 258.179C50.931 253.008 50.4296 247.479 50.5512 242.264C50.625 239.098 50.6914 235.937 50.7356 232.778C50.7614 232.778 50.7872 232.791 50.813 232.791C50.8425 232.868 50.872 232.944 50.9126 233.034C51.0453 233.332 51.3476 233.521 51.6057 233.406C51.9007 233.271 52.3469 232.906 52.7709 232.701C53.2465 232.743 53.6226 232.868 53.8033 233.153C53.8364 233.281 53.8696 233.399 53.8844 233.579C53.9028 233.832 53.8475 234.079 53.7553 234.325C53.5488 234.822 53.2244 235.283 53.1322 235.805C53.1248 235.834 53.1285 235.863 53.1212 235.895C53.1101 235.997 53.1101 236.106 53.1212 236.215C53.1175 236.343 53.0806 236.468 53.1212 236.6C53.3645 237.417 53.7442 237.66 54.3489 237.984C55.2596 238.471 56.6423 236.933 57.2285 238.041C57.4092 238.381 57.66 238.506 57.9697 238.432C58.4564 238.317 58.8656 238.137 59.2896 237.955C59.7247 240.13 61.1037 239.906 62.5269 238.999C62.796 238.909 63.091 238.849 63.4118 238.817C64.363 239.649 65.4655 239.227 66.1992 238.182C66.8076 237.718 67.1726 236.837 67.0214 235.129C67.6777 234.681 68.2713 234.469 68.9792 235.011C69.3701 235.309 70.0522 235.049 70.3324 234.626C70.491 234.386 70.6163 234.123 70.7417 233.857C71.1362 233.38 71.3316 232.522 71.1436 230.779C71.0993 230.362 71.4791 230.151 72.01 230.023C72.4894 230.039 73.0129 230.205 73.2194 230.241C73.5254 230.292 73.7245 230.106 73.824 229.837C74.3218 230.138 74.8601 230.055 75.3616 229.638C75.5607 230.327 75.4501 230.744 75.5275 231.621C75.5496 231.871 75.5533 232.073 75.7229 232.23C76.4234 232.868 77.2862 232.759 77.9499 232.15C78.7205 231.436 78.9933 229.927 79.1629 228.805C79.4321 227.037 80.9069 230.138 81.4784 230.458C82.0868 230.801 81.4084 231.743 81.9135 232.329C82.6103 233.14 83.3994 233.085 84.2658 232.823C85.3462 232.502 86.4081 231.631 87.1787 230.609C87.3888 230.327 87.6285 229.879 87.6358 229.469C87.6469 228.351 87.9456 227.585 88.5208 226.925C89.1918 227.633 90.1209 227.784 90.8215 226.768C90.8768 226.688 90.8989 226.601 90.9505 226.521C90.969 226.496 90.98 226.464 90.9947 226.435C91.2455 226.018 91.3967 225.563 91.4667 225.07C91.4741 225 91.4852 224.932 91.4925 224.862C91.5036 224.698 91.5626 224.57 91.5478 224.391C91.5331 224.176 91.4593 223.984 91.3708 223.795C91.3192 223.603 91.275 223.407 91.1791 223.231C91.1644 223.273 91.1459 223.295 91.1312 223.334C90.8915 222.889 90.7293 222.45 91.2381 221.87C91.4188 221.662 91.5921 221.489 91.7654 221.296C92.1747 220.931 92.6834 220.508 93.1038 220.085C93.207 220.012 93.2881 219.919 93.3987 219.848C93.9076 219.531 93.8596 218.666 93.8006 218.086C93.6273 216.216 92.8752 215.001 91.6253 214.534C91.6879 213.374 91.6658 212.208 91.8465 211.061C92.1009 209.767 93.0153 209.206 93.7232 208.463Z" fill="black"/>
</svg>
